<svg xmlns="http://www.w3.org/2000/svg" width="16" height="16" viewBox="0 0 16 16" xmlns:xlink="http://www.w3.org/1999/xlink">
  <defs>
    <path id="a" d="M15.1999962,7.60012622 L2.73133779,7.60012622 L6.96575762,3.36570639 C7.27815908,3.05330493 7.27795908,2.54690256 6.96575762,2.2343011 C6.65335616,1.92189963 6.14695379,1.92189963 5.83435232,2.2343011 L0.234326103,7.83432732 C-0.0780753595,8.14672878 -0.0780753595,8.65333115 0.234126102,8.96553261 L5.83415232,14.5655588 C5.99035305,14.7217596 6.19515401,14.7999599 6.39995497,14.7999599 C6.60455593,14.7999599 6.80935689,14.7217596 6.96575762,14.5653588 C7.27815908,14.2531574 7.27795908,13.746555 6.96575762,13.4343535 L2.73113779,9.20013371 L15.1999962,9.20013371 C15.6417982,9.20013371 16.0001999,8.84173203 15.9999999,8.40012996 C15.9999999,7.9583279 15.6417982,7.60012622 15.1999962,7.60012622 Z"/>
  </defs>
  <g fill="none" fill-rule="evenodd">
    <use fill="#1B75BC" fill-rule="nonzero" xlink:href="#a"/>
  </g>
</svg>
