<?xml version="1.0" encoding="utf-8"?>
<!-- Generator: Adobe Illustrator 25.1.0, SVG Export Plug-In . SVG Version: 6.00 Build 0)  -->
<svg fill="#ffffff" version="1.1" id="Objects" xmlns="http://www.w3.org/2000/svg" xmlns:xlink="http://www.w3.org/1999/xlink" x="0px" y="0px"
	 viewBox="0 0 25.4 91.6" style="enable-background:new 0 0 25.4 91.6; transform:rotate(148deg) scaleX(-1);" xml:space="preserve">
<path d="M25.3,90.6c-1.5-3.7-3.1-7.5-4.4-11.4c-0.4-1.4-0.8-2.9-1.2-4.3c-0.5-2.1-1.1-4.4-2-6.4c0,0-0.1-0.1-0.3-0.1
	c-0.2,0-0.3,0.2-0.3,0.3c0.1,4.9,1.8,10.9,5.2,18.3l1.1,2.4l-1.9-1.8C18,84.3,14,80.1,11,74.4c-3.2-6-5.6-13-7.3-21.5
	C0.9,35.5,8.4,19,18.8,1.6C7,17-0.5,37.7,3.1,54.8c2.1,10.2,6.6,24,15.6,32.3l1.9,1.7l-2.4-0.9c-2.8-1-5.8-2.1-8.9-2.7
	c3.3,1.8,7.1,3.2,10.7,4.5c1.6,0.6,3.2,1.2,4.7,1.8c0.2,0.1,0.4,0,0.5-0.2c0.1-0.1,0.2-0.3,0.2-0.5L25.3,90.6z"/>
</svg>
