<?xml version="1.0" encoding="utf-8"?>
<!-- Generator: Adobe Illustrator 22.1.0, SVG Export Plug-In . SVG Version: 6.00 Build 0)  -->
<svg version="1.1" id="Capa_1" xmlns="http://www.w3.org/2000/svg" xmlns:xlink="http://www.w3.org/1999/xlink" x="0px" y="0px"
	 viewBox="0 0 488.8 488.8" style="enable-background:new 0 0 488.8 488.8;" xml:space="preserve">
<style type="text/css">
	.st0{fill:#15B9ED;}
</style>
<g>
	<g id="_x31_4_26_">
		<g>
			<path class="st0" d="M264.3,39.5c5.5-7.3,4.6-22.9,3.9-36.6c0-0.6-0.1-1.2-0.1-1.8C260.3,0.4,252.5,0,244.5,0
				c-30.4,0-59.5,5.6-86.4,15.8C177.3,25,207,40.8,240,64.3C251.2,54.6,259.7,45.6,264.3,39.5z"/>
			<path class="st0" d="M388.2,179c-12,1.4-22.2,3.3-30.9,6.1c41.5,72.5,57.7,164.1,61.7,230.5c41.1-41.9,67.3-98.6,69.8-161.4
				C460.4,219.3,422.8,175,388.2,179z"/>
			<path class="st0" d="M141.2,116.4c29.2-6.1,56.6-20.8,78.5-36.3c-45.6-31.4-83.6-47.7-91.2-50.8C81.2,54.9,43.3,95.6,21.3,145
				c28.6-11.4,59.6-17.2,90.1-22.9C121.2,120.3,131.4,118.4,141.2,116.4z"/>
			<path class="st0" d="M310.2,123.5c2.6,2.6,5.2,5.3,7.8,8c9.5,10,18.2,20.9,26.1,32.5c11.5-4.4,25.1-7.4,41.4-9.3
				c38.3-4.3,72.4,26,101.6,59.4c-6.3-50.6-28-96.5-60.4-132.6c-17.7,2.1-37.4,5.7-57.4,11.7C356.1,97.1,335.1,107.8,310.2,123.5z"
				/>
			<path class="st0" d="M278,249.7c10-34,21.6-58.4,44.1-74.3c-6.8-9.7-14-18.8-21.9-27.1c-3.6-3.8-7.3-7.5-11-11.1
				C199,198.6,75.3,311.5,64.1,409.3c37.5,41.1,88.9,69.2,146.7,77.2c21.1-41.9,40.9-127.1,52.6-177.8
				C269.1,284.3,274,263.3,278,249.7z"/>
			<path class="st0" d="M175.7,195.8c31.5-29,64.7-55,95.1-75.9c-10.1-9-20.3-17.2-30.3-24.8c-25.2,19-58.3,37.7-94.3,45.2
				c-10.1,2.1-20.4,4-30.4,5.9c-38.4,7.1-75.3,14.1-106.4,31.4c-6,21.3-9.3,43.7-9.3,66.9c0,51.9,16.2,100,43.8,139.6
				C61.8,313.2,123.2,244.2,175.7,195.8z"/>
			<path class="st0" d="M291.8,106c29.1-18.5,54.1-31.4,70.4-36.2c14.6-4.4,28.9-7.5,42.5-9.9c-31.4-27.2-69.7-46.7-112-55.1
				c0.9,17.1,1.3,35.8-8.9,49.4c-4.9,6.5-13.1,15.3-23.9,25C270.5,87.3,281.2,96.3,291.8,106z"/>
			<path class="st0" d="M301.5,256.6c-3.8,12.9-8.6,33.6-14.2,57.6c-16.4,70.8-32.2,134.1-50.6,174.4c2.6,0.1,5.2,0.2,7.8,0.2
				c57,0,109.3-19.5,150.9-52.2c-1.6-69.5-18.3-167.7-60.2-240.6C318.9,208.1,310.2,227.1,301.5,256.6z"/>
		</g>
	</g>
</g>
</svg>
