<?xml version="1.0" encoding="UTF-8"?>
<svg width="260px" height="43px" viewBox="0 0 260 43" version="1.1" xmlns="http://www.w3.org/2000/svg" xmlns:xlink="http://www.w3.org/1999/xlink">
    <!-- Generator: Sketch 51.2 (57519) - http://www.bohemiancoding.com/sketch -->
    <title>logo/bankshopperbe old</title>
    <desc>Created with Sketch.</desc>
    <defs></defs>
    <g id="logo/bankshopperbe-old" stroke="none" stroke-width="1" fill="none" fill-rule="evenodd">
        <g id="logo/bankshopperbe-default" transform="translate(2.000000, 9.000000)">
            <path d="M0.442,25 L13.836,25 C18.535,25 21.014,22.04 21.014,18.34 C21.014,15.232 18.905,12.679 16.278,12.272 C18.609,11.791 20.533,9.719 20.533,6.611 C20.533,3.318 18.128,0.321 13.429,0.321 L0.442,0.321 L0.442,25 Z M5.696,10.237 L5.696,4.798 L12.282,4.798 C14.058,4.798 15.168,5.982 15.168,7.499 C15.168,9.09 14.058,10.237 12.282,10.237 L5.696,10.237 Z M5.696,20.523 L5.696,14.714 L12.467,14.714 C14.539,14.714 15.649,16.046 15.649,17.6 C15.649,19.376 14.465,20.523 12.467,20.523 L5.696,20.523 Z M34.492,25 L39.191,25 L39.191,13.456 C39.191,8.313 35.454,6.685 31.384,6.685 C28.572,6.685 25.76,7.573 23.577,9.497 L25.353,12.642 C26.87,11.236 28.646,10.533 30.57,10.533 C32.938,10.533 34.492,11.717 34.492,13.53 L34.492,16.009 C33.308,14.566 31.199,13.826 28.831,13.826 C25.982,13.826 22.615,15.343 22.615,19.524 C22.615,23.52 25.982,25.444 28.831,25.444 C31.162,25.444 33.271,24.593 34.492,23.15 L34.492,25 Z M34.492,20.708 C33.715,21.744 32.235,22.262 30.718,22.262 C28.868,22.262 27.351,21.3 27.351,19.635 C27.351,17.896 28.868,16.934 30.718,16.934 C32.235,16.934 33.715,17.452 34.492,18.488 L34.492,20.708 Z M54.815,25 L59.514,25 L59.514,12.383 C59.514,8.905 57.627,6.685 53.705,6.685 C50.782,6.685 48.599,8.091 47.452,9.46 L47.452,7.129 L42.753,7.129 L42.753,25 L47.452,25 L47.452,12.975 C48.229,11.902 49.672,10.866 51.522,10.866 C53.52,10.866 54.815,11.717 54.815,14.196 L54.815,25 Z M74.6569999,25 L80.5399999,25 L73.2509999,15.232 L80.3179999,7.129 L74.5459999,7.129 L67.7749999,15.084 L67.7749999,0.321 L63.0759999,0.321 L63.0759999,25 L67.7749999,25 L67.7749999,20.412 L69.9209999,18.118 L74.6569999,25 Z M79.9579999,22.669 C81.8449999,24.408 84.8419999,25.444 87.9499999,25.444 C92.9079999,25.444 95.6829999,22.965 95.6829999,19.709 C95.6829999,15.269 91.5759999,14.455 88.5049999,13.863 C86.5069999,13.456 85.1009999,13.049 85.1009999,11.939 C85.1009999,10.903 86.2109999,10.274 87.9129999,10.274 C90.0959999,10.274 92.1309999,11.199 93.2039999,12.346 L95.0909999,9.127 C93.3149999,7.721 90.9099999,6.685 87.8759999,6.685 C83.1769999,6.685 80.5499999,9.312 80.5499999,12.309 C80.5499999,16.564 84.5089999,17.304 87.5799999,17.896 C89.6149999,18.303 91.1689999,18.747 91.1689999,20.005 C91.1689999,21.115 90.2069999,21.818 88.1719999,21.818 C85.9519999,21.818 83.2879999,20.597 81.9929999,19.376 L79.9579999,22.669 Z M110.16,25 L114.859,25 L114.859,12.309 C114.859,8.831 112.972,6.685 109.05,6.685 C106.127,6.685 103.907,8.091 102.76,9.46 L102.76,0.321 L98.0609999,0.321 L98.0609999,25 L102.76,25 L102.76,12.975 C103.574,11.902 105.017,10.866 106.83,10.866 C108.865,10.866 110.16,11.643 110.16,14.122 L110.16,25 Z M126.709,25.444 C132.629,25.444 136.181,21.152 136.181,16.046 C136.181,10.977 132.629,6.685 126.709,6.685 C120.826,6.685 117.274,10.977 117.274,16.046 C117.274,21.152 120.826,25.444 126.709,25.444 L126.709,25.444 Z M126.709,21.263 C123.786,21.263 122.158,18.858 122.158,16.046 C122.158,13.271 123.786,10.866 126.709,10.866 C129.632,10.866 131.297,13.271 131.297,16.046 C131.297,18.858 129.632,21.263 126.709,21.263 L126.709,21.263 Z M143.258,31.808 L143.258,22.706 C144.701,24.556 146.662,25.444 148.771,25.444 C153.359,25.444 156.689,22.003 156.689,16.046 C156.689,10.089 153.359,6.685 148.771,6.685 C146.588,6.685 144.627,7.647 143.258,9.386 L143.258,7.129 L138.559,7.129 L138.559,31.808 L143.258,31.808 Z M151.805,16.046 C151.805,19.154 149.992,21.263 147.291,21.263 C145.774,21.263 144.035,20.338 143.258,19.228 L143.258,12.901 C144.035,11.754 145.774,10.866 147.291,10.866 C149.992,10.866 151.805,12.975 151.805,16.046 L151.805,16.046 Z M163.803,31.808 L163.803,22.706 C165.246,24.556 167.207,25.444 169.316,25.444 C173.904,25.444 177.234,22.003 177.234,16.046 C177.234,10.089 173.904,6.685 169.316,6.685 C167.133,6.685 165.172,7.647 163.803,9.386 L163.803,7.129 L159.104,7.129 L159.104,31.808 L163.803,31.808 Z M172.35,16.046 C172.35,19.154 170.537,21.263 167.836,21.263 C166.319,21.263 164.58,20.338 163.803,19.228 L163.803,12.901 C164.58,11.754 166.319,10.866 167.836,10.866 C170.537,10.866 172.35,12.975 172.35,16.046 L172.35,16.046 Z M178.502,16.046 C178.502,21.781 182.609,25.444 188.048,25.444 C190.823,25.444 193.635,24.593 195.411,22.965 L193.339,19.931 C192.192,21.041 190.231,21.707 188.566,21.707 C185.532,21.707 183.719,19.82 183.423,17.563 L196.706,17.563 L196.706,16.527 C196.706,10.681 193.08,6.685 187.752,6.685 C182.313,6.685 178.502,10.866 178.502,16.046 L178.502,16.046 Z M187.752,10.422 C190.86,10.422 192.044,12.679 192.155,14.381 L183.349,14.381 C183.571,12.605 184.829,10.422 187.752,10.422 L187.752,10.422 Z M199.01,25 L203.709,25 L203.709,13.197 C204.486,12.05 206.558,11.162 208.112,11.162 C208.63,11.162 209.074,11.236 209.407,11.31 L209.407,6.722 C207.187,6.722 204.967,7.98 203.709,9.571 L203.709,7.129 L199.01,7.129 L199.01,25 Z" id="Bankshopper" fill="#003481"></path>
            <path d="M207.739,22.41 C207.739,24.038 209.108,25.407 210.736,25.407 C212.364,25.407 213.733,24.038 213.733,22.41 C213.733,20.782 212.364,19.413 210.736,19.413 C209.108,19.413 207.739,20.782 207.739,22.41 L207.739,22.41 Z M216.703,25 L221.402,25 L221.402,22.706 C222.808,24.482 224.769,25.444 226.915,25.444 C231.429,25.444 234.833,22.04 234.833,16.083 C234.833,10.237 231.466,6.685 226.915,6.685 C224.806,6.685 222.808,7.61 221.402,9.423 L221.402,0.321 L216.703,0.321 L216.703,25 Z M221.402,19.265 L221.402,12.938 C222.179,11.754 223.918,10.866 225.435,10.866 C228.173,10.866 229.986,12.975 229.986,16.083 C229.986,19.191 228.173,21.263 225.435,21.263 C223.918,21.263 222.179,20.412 221.402,19.265 L221.402,19.265 Z M236.138,16.046 C236.138,21.781 240.245,25.444 245.684,25.444 C248.459,25.444 251.271,24.593 253.047,22.965 L250.975,19.931 C249.828,21.041 247.867,21.707 246.202,21.707 C243.168,21.707 241.355,19.82 241.059,17.563 L254.342,17.563 L254.342,16.527 C254.342,10.681 250.716,6.685 245.388,6.685 C239.949,6.685 236.138,10.866 236.138,16.046 L236.138,16.046 Z M245.388,10.422 C248.496,10.422 249.68,12.679 249.791,14.381 L240.985,14.381 C241.207,12.605 242.465,10.422 245.388,10.422 L245.388,10.422 Z" id=".be" fill="#0094F5"></path>
        </g>
    </g>
</svg>