<svg xmlns="http://www.w3.org/2000/svg" width="39.961" height="31.582" viewBox="0 0 39.961 31.582">
  <g id="block-quote" transform="translate(39.961 31.582) rotate(180)">
    <path id="Path_280" data-name="Path 280" d="M9.6,14.674a8.272,8.272,0,0,0-4.11,1.112A28.65,28.65,0,0,1,13.985,3.874,2.215,2.215,0,0,0,14.277.8,2.117,2.117,0,0,0,11.258.5C3.467,6.951,0,15.885,0,21.425a10.092,10.092,0,0,0,5.98,9.192,8.437,8.437,0,0,0,3.662.874,8.22,8.22,0,0,0,7.485-4.082,8.558,8.558,0,0,0,0-8.653,8.22,8.22,0,0,0-7.485-4.082Z" transform="translate(0 0.082)" fill="#ffffff" stroke="#7dc4e9"/>
    <path id="Path_281" data-name="Path 281" d="M9.6,14.756a8.234,8.234,0,0,0-4.11,1.112A28.771,28.771,0,0,1,13.966,3.956a2.2,2.2,0,0,0,.868-2.08,2.175,2.175,0,0,0-1.4-1.75A2.112,2.112,0,0,0,11.258.58C3.467,7.033,0,15.967,0,21.506a10.1,10.1,0,0,0,5.843,9.153,8.379,8.379,0,0,0,3.759.874,8.22,8.22,0,0,0,7.485-4.082,8.558,8.558,0,0,0,0-8.653A8.22,8.22,0,0,0,9.6,14.716Z" transform="translate(21.698)" fill="#ffffff" stroke="#7dc4e9"/>
  </g>
</svg>
