<?xml version="1.0" encoding="utf-8"?>
<!-- Generator: Adobe Illustrator 22.1.0, SVG Export Plug-In . SVG Version: 6.00 Build 0)  -->
<svg version="1.1" id="Layer_1" xmlns="http://www.w3.org/2000/svg" xmlns:xlink="http://www.w3.org/1999/xlink" x="0px" y="0px"
	 viewBox="0 0 682 682" style="enable-background:new 0 0 682 682;" xml:space="preserve">
<style type="text/css">
	.st0{fill:#15B9ED;}
</style>
<path class="st0" d="M21,507.7c0,24.1,19.6,43.7,43.7,43.7h552c24.1,0,43.7-19.6,43.7-43.7v-31.2H21V507.7z"/>
<path class="st0" d="M463.8,588.8H217.6l-10.5,26.9c-2.3,5.8-1.5,12.3,2,17.4c3.5,5.1,9.3,8.2,15.5,8.2h232.3c6.2,0,12-3.1,15.5-8.2
	c3.5-5.1,4.2-11.6,2-17.4L463.8,588.8z"/>
<path class="st0" d="M343.2,158c-0.4,0-0.8,0-1.2,0c-44.8,0-81.2,36.4-81.2,81.2c0,44.8,36.4,81.2,81.2,81.2c0.4,0,0.8,0,1.2,0
	c44.2-0.7,79.9-36.8,79.9-81.1C423.1,194.8,387.3,158.7,343.2,158z"/>
<path class="st0" d="M616.6,39.4h-552C40.6,39.4,21,58.9,21,83.1V439h639.4V83.1C660.4,58.9,640.8,39.4,616.6,39.4z M479.3,257.9
	h-20.2c-4.7,29.4-20.2,55.3-42.4,73.3l10.1,17.6c5.2,9,2.1,20.4-6.9,25.6c-9,5.2-20.4,2.1-25.6-6.9L384.3,350
	c-12.8,4.9-26.6,7.6-41.1,7.8c-0.4,0-0.8,0-1.2,0c-14.9,0-29.2-2.8-42.3-7.8l-10.1,17.5c-5.2,9-16.6,12-25.6,6.9
	c-9-5.2-12-16.6-6.9-25.6l10.1-17.6c-22.2-18-37.7-43.9-42.4-73.3h-20.2c-10.3,0-18.7-8.4-18.7-18.7c0-10.3,8.4-18.7,18.7-18.7h20.2
	c4.7-29.4,20.2-55.3,42.4-73.3L257,129.6c-5.2-9-2.1-20.4,6.9-25.6c2.9-1.7,6.2-2.5,9.3-2.5c6.5,0,12.8,3.4,16.2,9.4l10.1,17.5
	c13.2-5,27.4-7.8,42.3-7.8c0.4,0,0.8,0,1.2,0c14.5,0.2,28.3,2.9,41.1,7.8l10.1-17.5c3.5-6,9.8-9.4,16.2-9.4c3.2,0,6.4,0.8,9.4,2.5
	c9,5.2,12,16.6,6.9,25.6l-10.1,17.6c22.2,18,37.7,43.9,42.4,73.3h20.2c10.3,0,18.7,8.4,18.7,18.7C498,249.5,489.6,257.9,479.3,257.9
	z"/>
</svg>
