<svg width="25" height="24" viewBox="0 0 25 24" fill="none" xmlns="http://www.w3.org/2000/svg">
<path d="M20.3963 4.07477C18.2975 1.97597 15.451 0.796875 12.4828 0.796875C9.51466 0.796875 6.66807 1.97597 4.56927 4.07477C2.47047 6.17357 1.29138 9.02015 1.29138 11.9883C1.29138 14.9564 2.47047 17.803 4.56927 19.9018C6.66807 22.0006 9.51466 23.1797 12.4828 23.1797C15.451 23.1797 18.2975 22.0006 20.3963 19.9018C22.4951 17.803 23.6742 14.9564 23.6742 11.9883C23.6742 9.02015 22.4951 6.17357 20.3963 4.07477ZM12.4828 21.6797C7.13906 21.6797 2.7914 17.3321 2.7914 11.9883C2.7914 6.64445 7.13896 2.29689 12.4828 2.29689C17.8266 2.29689 22.1742 6.64445 22.1742 11.9883C22.1742 17.3321 17.8266 21.6797 12.4828 21.6797Z" fill="#80BA27"/>
<path d="M10.7962 14.3348L7.35501 10.8936L6.29437 11.9542L10.7962 16.4561L18.6478 8.60459L17.5871 7.54395L10.7962 14.3348Z" fill="#80BA27"/>
</svg>
