<svg width="489" height="293" viewBox="0 0 489 293" fill="none" xmlns="http://www.w3.org/2000/svg">
<path d="M244.4 0.699997C151 0.699997 66.3 51.8 3.80001 134.8C-1.29999 141.6 -1.29999 151.1 3.80001 157.9C66.3 241 151 292.1 244.4 292.1C337.8 292.1 422.5 241 485 158C490.1 151.2 490.1 141.7 485 134.9C422.5 51.8 337.8 0.699997 244.4 0.699997ZM251.1 249C189.1 252.9 137.9 201.8 141.8 139.7C145 88.5 186.5 47 237.7 43.8C299.7 39.9 350.9 91 347 153.1C343.7 204.2 302.2 245.7 251.1 249ZM248 201.6C214.6 203.7 187 176.2 189.2 142.8C190.9 115.2 213.3 92.9 240.9 91.1C274.3 89 301.9 116.5 299.7 149.9C297.9 177.6 275.5 199.9 248 201.6Z" fill="#0b7ec2"/>
</svg>
