<?xml version="1.0" encoding="utf-8"?>
<!-- Generator: Adobe Illustrator 27.0.0, SVG Export Plug-In . SVG Version: 6.00 Build 0)  -->
<svg version="1.1" id="Layer_1" xmlns="http://www.w3.org/2000/svg" xmlns:xlink="http://www.w3.org/1999/xlink" x="0px" y="0px"
	 viewBox="0 0 27 23" style="enable-background:new 0 0 27 23;" xml:space="preserve">
<style type="text/css">
	.st0{fill:#a5d0dd;}
</style>
<path class="st0" d="M20.4,0.5c-2.3-0.4-4.7,0.4-6.4,2l-0.6,0.6l-0.6-0.6c-1.7-1.7-4.1-2.4-6.3-2C3.1,1.1,0.5,4.1,0.5,7.6v0.3
	c0,2.1,0.9,4.1,2.4,5.6l9.2,8.6c0.4,0.4,0.9,0.6,1.4,0.6c0.5,0,1-0.2,1.4-0.6l9.2-8.6c1.5-1.4,2.4-3.5,2.4-5.6V7.6
	C26.5,4.1,23.9,1.1,20.4,0.5z"/>
</svg>
