<svg xmlns="http://www.w3.org/2000/svg" width="168.5072" height="126.4219" viewBox="0 0 168.5072 126.4219"><defs><style>.a{fill:#d6b640;}</style></defs><title>Artboard 1</title><path class="a" d="M58.6479,104.07l-.917-15.3145,53.1807-3.1846.917,15.3149Zm.09-14.45,1.0165,13.3494,51.0808-3.1044L109.87,86.7019Z"/><path class="a" d="M93.9816,63.8984a.8539.8539,0,0,1-.3747-.0542H92.8A13.6428,13.6428,0,0,0,90.872,62.31q-1.1126-.4368-2.18-.97l-.0175-.0386c-.086-.036-2.3589-.9921-2.7923-1.2245a2.937,2.937,0,0,1-.74-.2,17.6874,17.6874,0,0,1-1.8637-.2633q-.4843.0871-.9719.1537c-.6.1552-1.1972.3776-1.8006.522v.1087a10.2755,10.2755,0,0,1-1.3244.3539.9079.9079,0,0,1-.4687.1859v.0931c-.314.0251-.6773.1543-.983.1482-.1468.07-.3407.1029-.4982.16h.2118a5.9242,5.9242,0,0,1-3.9717-.0349l.44-.0768c-.0833-.1382-.0138-.4758.1417-.3638a3.3348,3.3348,0,0,1-1.1844-1.2754.548.548,0,0,1,.4762-.399.2553.2553,0,0,1,.19-.1271v-.2631a2.7823,2.7823,0,0,0,2.26,1.2139l1.08-.2558a5.8646,5.8646,0,0,0,.9095-.1212c1.056-.33,1.94-.503,2.1875-.2442-.2962.1495-.41.4436-.0385.3178v-.0611a6.095,6.095,0,0,1,3.5783-.7l1.0005.0066a4.3511,4.3511,0,0,1,1.4792.1228,5.3,5.3,0,0,1,.6128.2724,2.7694,2.7694,0,0,1,1.7164.7272A16.9979,16.9979,0,0,1,90.8845,61.14a5.6447,5.6447,0,0,1,2.31,1.24,1.0584,1.0584,0,0,0,1.19-.1621l.0477.0263a8.5387,8.5387,0,0,0,1.2731-1.3274c.2378-1.2074.3324-5.6921,1.9316-6.04,1.5907-.3458,2.9287,2.5571,1.5777,3.5305A17.3889,17.3889,0,0,0,98.55,61.84l-.4807-.0132c-.6292-.27.014-2.895.1462-3.3123a3.2115,3.2115,0,0,0,.0218-2.2375,1.17,1.17,0,0,0-.8237.1385,2.8642,2.8642,0,0,0,.0967,2.4352,7.7476,7.7476,0,0,0-.0068,1.5005,8.0429,8.0429,0,0,1-.9054,1.5789l.0027.0422a4.01,4.01,0,0,1-1.4293,1.4731l-.062-.025A2.4932,2.4932,0,0,1,93.9816,63.8984Z"/><path class="a" d="M76.0842,75.7328c-.9892,0-2.3916-3.7427-3.8264-4.3146l-.0247-.042c-1.1316-.1961-2.3715-1.0287-1.711-2.4747l-.0642-.0545c.1806-.1664.7738-.626.8278-.65V68.09c.3081.0057,1.58.1552,1.8492-.0978a2.9753,2.9753,0,0,0-.178-1.3748,6.5349,6.5349,0,0,1-.3-1.9134,8.1434,8.1434,0,0,0-2.3233-3.0565,4.7166,4.7166,0,0,1-.7545-2.839h.13a3.1472,3.1472,0,0,1,.5774-1.1145,1.43,1.43,0,0,1,.6-.804c.0416-.1048.2615-1.4982.3541-1.5991a2.6446,2.6446,0,0,1,.55-.5836,7.9824,7.9824,0,0,1,.8652-1.1458,1.8484,1.8484,0,0,1,1.5829-.362c.9106-.0775,3.2827.68,1.6485,2.2117-.0436.2323-.1554.6954-.38.7838a.7918.7918,0,0,1-.8469.3076l-.07-.1114a6.552,6.552,0,0,1,.6287-1.3333l-.03-.0488a1.053,1.053,0,0,0-.2182.36l-.1255.0706c-.2081.3964-.4238.4273-.7315.208a6.5457,6.5457,0,0,0,.1954-.8121h.1332c-.5462-.6037-1.5109.2041-2.6348,1.8841a10.7645,10.7645,0,0,0-.6419,2.5846,5.1574,5.1574,0,0,0-.6212.2542c.5354,1.1961,1.5125,2.2107,2.0766,3.3516.116-.2384.6-.1593.8226-.0937.0708.471.14,1.0887.1766,1.5555h-.1033c-.3475.8865.8594,2.4575.7729,3.5029l.0468.0477a2.039,2.039,0,0,1-.4912.9041c-.0865.2737-.4442.3246-.71.3623a1.4846,1.4846,0,0,1-1.2339-.0354.5584.5584,0,0,0-.5348.2324l.0792.0495c.0089.2224.3393.5388.3393.5388a5.003,5.003,0,0,1,1.3655.3085,6.0012,6.0012,0,0,1,2.3517,1.9393c-.0954,1.0782.7756,1.4239.85,2.7215C76.5453,75.1428,76.3834,75.7328,76.0842,75.7328Zm-4.7761-7.3023h0Z"/><path class="a" d="M83.1881,84.2354H81.666a14.8307,14.8307,0,0,1-3.9894-.4074c-.3331-1.3088-.3454-2.8994-.7554-4.1616a9.6635,9.6635,0,0,1-.96-3.8046,3.9291,3.9291,0,0,1,2.1565,2.7925,18.9778,18.9778,0,0,0,.42,2.7419l.0606.094q.1673.81.37,1.6118h.9522c.495-.0711,1.5339-.108,1.5643-.1219a1.2557,1.2557,0,0,1,.9524-.2363l.0129-.0113a2.8192,2.8192,0,0,1,1.5625-.0876v-.0084c.7007-.0226,1.4213-.02,2.125.0084.5011-.3341.3837-2.5928.8816-3.3586a.8085.8085,0,0,1,.2535-.3026,4.0742,4.0742,0,0,1,.4723-.513c.0273-.1481,1.1709-1.7031,1.2747-1.9434h.0772a11.0832,11.0832,0,0,1,1.0457-1.5512c.2391-.3291.4827-.6579.73-.9815a3.0882,3.0882,0,0,1,1.1882-1.3639l-.0561-.06c.5563-.0989,2.6254-.838,2.6254-.838v-.14a5.2865,5.2865,0,0,0,1.072-.2635q.0812-.0484.1607-.0994a.7834.7834,0,0,0-.6612-.3539c-1.82-.3725-2.731-1.2481-1.7314-2.7156h.0477c.0066-.0043,1.0908-1.0222,1.18-1.0623a5.1454,5.1454,0,0,1,.8114-.7393v-.0617a7.6353,7.6353,0,0,1,1.0116-.7436,29.48,29.48,0,0,0,2.8107-3.4c.3931-1.4152.831.3777.7218.8925-.4873.6292-.9642,1.2788-1.4188,1.9327a4.6407,4.6407,0,0,1-1.42,1.572,8.5122,8.5122,0,0,1-1.767,1.51v.081q-.0711.0344-.1407.0717v.1312h-.145a1.5386,1.5386,0,0,1-.9184.55,2.5479,2.5479,0,0,0-.0186-.3911.957.957,0,0,0-.1076.3339h-.0315c-.0974.4709.2763.4439.6187.7186a11.3638,11.3638,0,0,1,1.9388.7413c1.1036.5529.6319,1.77-.0865,2.4691,0,0-.4254.43-.6555.626a4.1584,4.1584,0,0,1-1.6.7066,1.87,1.87,0,0,1,.0452-.65,1.2082,1.2082,0,0,1-.6374.2883,8.102,8.102,0,0,1-1.4261.6653q-.2413.2767-.4644.5681c-.1826.3335-3.0071,4.3727-3.1312,4.5155-.6806,1.1889-.5088,2.4785-1.1183,3.6137-.203.3623-.5909,1.0929-.9426,1.1338v0C86.31,84.284,83.1881,84.2354,83.1881,84.2354Z"/><path class="a" d="M90.3172,60.2975h-.7608v-.1162a13.3022,13.3022,0,0,1-1.9-.7937c-.56-.2054-1.1278-.4442-1.6665-.7009,1.0927-.5915,1.8164.0658,3.1529.5738l-.0334-.1226A2.095,2.095,0,0,1,90.3172,60.2975Z"/><path class="a" d="M72.934,58.54a.6809.6809,0,0,1-.1244-.0173,1.0888,1.0888,0,0,1-.0531-.8046h.1714a2.1,2.1,0,0,0,.3073-.4442l-.0681-.0113c.1926-.541.557-.809,1.0725-.559a1.5651,1.5651,0,0,1-.3048.7182,3.05,3.05,0,0,1-.5425.7847,1.3265,1.3265,0,0,1,.0116.3216l-.26-.069A.3176.3176,0,0,1,72.934,58.54Z"/><path class="a" d="M50.7368,115.1191c0,.3843-.2437,1.78-2.6611,1.78H45.4712v-5.9023a.8575.8575,0,0,0-.6089-.8247h-.0278l-.1968-.0562v-.0747h3.438c2.1084-.0283,2.3521,1.48,2.3521,1.78a1.5954,1.5954,0,0,1-1.1807,1.5835A1.71,1.71,0,0,1,50.7368,115.1191Zm-4.0474-2.0234h1.64c.14,0,.8618-.0562.8618-1.1055,0-1.3867-1.1152-1.3867-1.1152-1.3867H46.6895Zm2.6792,1.9766a1.3979,1.3979,0,0,0-.3838-1.04,1.2684,1.2684,0,0,0-.9092-.375H46.6895v2.68h1.3862A1.2744,1.2744,0,0,0,49.3687,115.0723Z"/><path class="a" d="M56.8247,116.4311v.4683H52.4116v-5.9023a.8541.8541,0,0,0-.6089-.8149.033.033,0,0,0-.0278-.01l-.1968-.0469v-.084h5.2466v.4683H53.63v2.53h2.6514v.562H53.63v2.83Z"/><path class="a" d="M62.4531,114.2856a1.6954,1.6954,0,0,1,.1968.7964,1.7437,1.7437,0,0,1-.6929,1.4238,2.4208,2.4208,0,0,1-1.5459.5151,3.3318,3.3318,0,0,1-.5435-.0371,2.32,2.32,0,0,1-.7217-.2158,2.0262,2.0262,0,0,1-.7681-.7026,2.2305,2.2305,0,0,1-.356-1.0117H58.49a1.4632,1.4632,0,0,0,.15.5342,1.616,1.616,0,0,0,.7026.665,2.0919,2.0919,0,0,0,.9648.2251,1.47,1.47,0,0,0,.89-.2627.868.868,0,0,0,.3936-.75,1.1319,1.1319,0,0,0-.5337-.9087,11.0131,11.0131,0,0,0-1.1431-.6841,8.2366,8.2366,0,0,1-1.1807-.7119,1.79,1.79,0,0,1-.7871-1.4521,1.6649,1.6649,0,0,1,.6372-1.34,2.2311,2.2311,0,0,1,1.4429-.4966h.0093a2.4773,2.4773,0,0,1,1.3491.3657,1.8423,1.8423,0,0,1,.562.6934,2.568,2.568,0,0,1,.1968.6274h-.5059a1.4138,1.4138,0,0,0-.59-.89,1.7643,1.7643,0,0,0-1.0117-.2622,1.2348,1.2348,0,0,0-.7681.272.823.823,0,0,0-.356.6836.7917.7917,0,0,0,.1963.5156,5.7509,5.7509,0,0,0,1.4619.9648c.5527.2905.89.4775,1.0493.5806A2.4106,2.4106,0,0,1,62.4531,114.2856Z"/><path class="a" d="M68.8882,110.6035H66.7051v6.2959H65.4873v-6.2959H63.3042v-.562h5.584Z"/><path class="a" d="M74.9761,116.4311v.4683H70.563v-5.9023a.8541.8541,0,0,0-.6089-.8149.033.033,0,0,0-.0278-.01l-.1968-.0469v-.084h5.2466v.4683H71.7813v2.53h2.6514v.562H71.7813v2.83Z"/><path class="a" d="M83.8833,115.1191c0,.3843-.2437,1.78-2.6611,1.78H78.6177v-5.9023a.8575.8575,0,0,0-.6089-.8247H77.981l-.1968-.0562v-.0747h3.438c2.1084-.0283,2.3521,1.48,2.3521,1.78a1.5954,1.5954,0,0,1-1.1807,1.5835A1.71,1.71,0,0,1,83.8833,115.1191Zm-4.0474-2.0234h1.64c.14,0,.8618-.0562.8618-1.1055,0-1.3867-1.1152-1.3867-1.1152-1.3867H79.8359Zm2.6792,1.9766a1.3979,1.3979,0,0,0-.3838-1.04,1.2684,1.2684,0,0,0-.9092-.375H79.8359v2.68h1.3862A1.2744,1.2744,0,0,0,82.5151,115.0723Z"/><path class="a" d="M90.8608,116.8994H89.4746l-2.1738-3.0264h-.5244v3.0264H85.5581v-5.9023a.8541.8541,0,0,0-.6089-.8149.033.033,0,0,0-.0278-.01l-.1968-.0469v-.084H86.748c1.1055,0,3.1855.0093,3.1855,1.92a1.6613,1.6613,0,0,1-1.34,1.7334,3.8066,3.8066,0,0,1-.9087.1406l1.1055.1968Zm-2.6792-3.6729.0186-.0093c.2905-.1685.5249-.5244.5249-1.2554a1.3257,1.3257,0,0,0-1.312-1.4521l-.6367.0093v2.8672h.6367A1.5017,1.5017,0,0,0,88.1816,113.2266Z"/><path class="a" d="M98.0825,113.4609c0,2.4829-1.48,3.57-3.3071,3.57s-3.3076-1.0869-3.3076-3.57c0-2.3984,1.48-3.56,3.3076-3.56S98.0825,111.0439,98.0825,113.4609Zm-1.293,0c0-2.2017-.8057-3.0918-2.0142-3.0918-1.1992,0-2.0049.8994-2.0049,3.0918,0,2.2676.8057,3.11,2.0049,3.11C95.9839,116.5713,96.79,115.7285,96.79,113.4609Z"/><path class="a" d="M106.2778,116.8149v.0845h-1.499a1.3641,1.3641,0,0,1-.9463-.3843l-2.9043-2.8105v3.1948H99.71v-6.0337a.6533.6533,0,0,0-.2808-.5337,1.1024,1.1024,0,0,0-.356-.16l-.1968-.0469v-.084h2.0518v3.0918l3.1758-3.0918h.8057l-3.0635,2.9888,3.4194,3.3071a1.6839,1.6839,0,0,0,.8994.45Z"/><path class="a" d="M112.084,116.4311v.4683h-4.4131v-5.9023a.8541.8541,0,0,0-.6089-.8149.033.033,0,0,0-.0278-.01l-.1968-.0469v-.084h5.2466v.4683h-3.1948v2.53h2.6514v.562h-2.6514v2.83Z"/><path class="a" d="M119.1548,116.8994h-1.3862l-2.1738-3.0264H115.07v3.0264h-1.2183v-5.9023a.8541.8541,0,0,0-.6089-.8149.033.033,0,0,0-.0278-.01l-.1968-.0469v-.084h2.0234c1.1055,0,3.1855.0093,3.1855,1.92a1.6613,1.6613,0,0,1-1.34,1.7334,3.8066,3.8066,0,0,1-.9087.1406l1.1055.1968Zm-2.6792-3.6729.0186-.0093c.2905-.1685.5249-.5244.5249-1.2554a1.3257,1.3257,0,0,0-1.312-1.4521l-.6367.0093v2.8672h.6367A1.5017,1.5017,0,0,0,116.4756,113.2266Z"/><path class="a" d="M74.249,124.5312v.5625H69.752v-5.9028a.8513.8513,0,0,0-.6182-.8149.0335.0335,0,0,0-.0283-.01l-.187-.0469v-.084h1.958v6.2959Z"/><path class="a" d="M80.5815,118.2353l-2.4736,3.8887v2.97H76.89v-2.8105l-2.3237-3.4858a1.031,1.031,0,0,0-.6743-.44l-.2061-.0376v-.084h1.2832a1.2772,1.2772,0,0,1,1.0591.562l1.8081,2.7085,2.08-3.2705Z"/><path class="a" d="M87.3716,118.2353v6.8584l-4.5815-4.582v4.582h-.562V119.856a1.8544,1.8544,0,0,0-.272-1.1992,1.0117,1.0117,0,0,0-.2622-.2246,1.6161,1.6161,0,0,0-.2715-.1221v-.0747a1.9885,1.9885,0,0,1,1.3862.5713l4,4.001v-4.5723Z"/><path class="a" d="M95.1548,125.01v.084H93.8711a1.244,1.244,0,0,1-1.04-.5625l-1.48-2.2666-2.22,2.8291h-.7119l2.6045-3.3262-1.9395-2.97a1.0033,1.0033,0,0,0-.6743-.44l-.1968-.0376v-.084h1.2832a1.2429,1.2429,0,0,1,1.04.562l1.2837,1.958,1.9766-2.52h.7124l-2.3706,3.0176,2.1455,3.2783a.991.991,0,0,0,.665.44Z"/><path class="a" d="M65.5915,91.5836l.4762,8.9-1.4593.0781L64.19,92.7439l-.9922.37-.2125-.5616Z"/><path class="a" d="M73.1831,95.6034a8.5952,8.5952,0,0,1-.1224,2.0429,4.7773,4.7773,0,0,1-.5427,1.48,2.8536,2.8536,0,0,1-.89.9132,2.4575,2.4575,0,0,1-2.3224.1243,2.8536,2.8536,0,0,1-.9823-.813,4.7773,4.7773,0,0,1-.6975-1.4135,8.5641,8.5641,0,0,1-.3391-2.0183,6.2523,6.2523,0,0,1,.6658-3.4982,2.9447,2.9447,0,0,1,.8886-.9377,2.3661,2.3661,0,0,1,1.14-.3536l.012-.0006a2.3661,2.3661,0,0,1,1.1708.23,2.9447,2.9447,0,0,1,.9836.8376A6.1526,6.1526,0,0,1,73.1831,95.6034Zm-2.0475-2.9386c-.3127-.6051-.6948-.9139-1.1084-.8918-.4256.0228-.7725.3706-1.0069,1.005a10.819,10.819,0,0,0,.3259,6.0911c.3.5938.6821.9023,1.1077.88.4136-.0221.7606-.37,1.0075-.9927a11.1263,11.1263,0,0,0-.3259-6.0911Z"/><path class="a" d="M80.88,98.3985c.0494.9238-.7611,1.4915-2.05,1.5605a1.88,1.88,0,0,1-1.4221-.619l.4785-.3911a1.0422,1.0422,0,0,0,.9489.4246c.6572-.0352.5878-.885.5871-.897l-.3409-6.3709a1.097,1.097,0,0,0-.8473-1.0153.0445.0445,0,0,0-.0372-.01l-.2588-.0471-.0059-.11,2.5408-.1359Z"/><path class="a" d="M81.922,99.6351l3.6209-9.119,4.6828,8.6747-1.7514.0937-.8514-1.5637-4.2431.227-.6557,1.6444Zm1.7047-2.31,3.6841-.1971-2.0837-3.8511Z"/><path class="a" d="M91.0767,99.1453l3.6209-9.119L99.38,98.701l-1.75.0936-.8526-1.5637-4.2431.227-.6557,1.6444Zm1.706-2.31,3.6828-.1971-2.0837-3.8511Z"/><path class="a" d="M107.5883,98.2618l-1.7992.0963-3.0317-3.7761-.68.0364.21,3.9271-1.5814.0846-.41-7.66a1.11,1.11,0,0,0-.846-1.0154.0458.0458,0,0,0-.0372-.01l-.2588-.0471-.0059-.11,2.6264-.1405c1.4341-.0767,4.1342-.2089,4.2669,2.2715a2.1591,2.1591,0,0,1-1.6185,2.3421,4.9147,4.9147,0,0,1-1.17.2457l1.449.1785Zm-3.7326-4.58.0233-.0136c.366-.239.6447-.7173.594-1.6654A1.7224,1.7224,0,0,0,102.67,90.21l-.8253.0562.1991,3.7206.826-.0442A1.9528,1.9528,0,0,0,103.8557,93.682Z"/><path class="a" d="M136.0724,62.5344v.9336h-7.26c.06,0,.3162-.4517.3465-.5121l.9034-1.28q1.2434-1.7841,2.4857-3.5693c.3314-.4668.6767-.9487,1.008-1.4306.5127-.7377,1.07-1.6114.6185-2.5148a1.6988,1.6988,0,0,0-1.5219-.8133l-.3162-.0151a2.0961,2.0961,0,0,0-1.9579,1.0243,2.5406,2.5406,0,0,0-.3314,1.0237l-.0151.136H129.19l.06-.3465a6.5294,6.5294,0,0,1,.3465-1.1748,4.0342,4.0342,0,0,1,.4209-.6929,3.1522,3.1522,0,0,1,1.8684-1.1144,3.8629,3.8629,0,0,1,3.6588,1.2051,2.8592,2.8592,0,0,1,.4523,1.551,4.197,4.197,0,0,1-.829,2.53l-3.5542,5.06Z"/><path class="a" d="M145.1817,57.9112a10.5628,10.5628,0,0,1-.286,2.5148,5.8922,5.8922,0,0,1-.7673,1.7922,3.5266,3.5266,0,0,1-1.16,1.069,3.0409,3.0409,0,0,1-2.8764,0,3.5346,3.5346,0,0,1-1.1592-1.069,5.922,5.922,0,0,1-.7685-1.7922,10.623,10.623,0,0,1-.286-2.5148,7.7335,7.7335,0,0,1,1.0545-4.2774,3.6426,3.6426,0,0,1,1.1592-1.0993,2.9313,2.9313,0,0,1,1.4312-.3616h.0151a2.9268,2.9268,0,0,1,1.43.3616,3.634,3.634,0,0,1,1.16,1.0993A7.6083,7.6083,0,0,1,145.1817,57.9112Zm-2.3334-3.7652c-.3465-.7679-.7987-1.1748-1.31-1.1748-.5278,0-.9789.4069-1.31,1.1748a9.8382,9.8382,0,0,0-.5418,3.7652,9.7682,9.7682,0,0,0,.5418,3.78c.3314.7528.7825,1.16,1.31,1.16.5116,0,.9638-.4069,1.31-1.16a10.1278,10.1278,0,0,0,.5267-3.78A10.1472,10.1472,0,0,0,142.8483,54.146Z"/><path class="a" d="M150.2706,52.4444V63.468h-1.8067V53.7844l-1.251.3918-.2256-.708Z"/><path class="a" d="M159.0195,59.9743a3.5034,3.5034,0,0,1-3.45,3.7048,3.014,3.014,0,0,1-2.59-1.4155,6.9415,6.9415,0,0,1-.9034-3.75,5.8176,5.8176,0,0,1,1.5812-4.3523,6.135,6.135,0,0,1,2.5148-1.4457,7.5672,7.5672,0,0,1,1.7172-.286h.1511v.8284H157.92a5.3758,5.3758,0,0,0-1.7765.4063,3.7444,3.7444,0,0,0-1.3254.9185,4.04,4.04,0,0,0-.8441,1.4155,5.3953,5.3953,0,0,0-.286,1.4312,2.53,2.53,0,0,1,1.973-.7685,3.3955,3.3955,0,0,1,2.41.9487A3.2617,3.2617,0,0,1,159.0195,59.9743ZM155.57,57.64a1.4777,1.4777,0,0,0-1.22.5877,2.672,2.672,0,0,0-.4662,1.626,4.0562,4.0562,0,0,0,.5267,2.0486,1.5431,1.5431,0,0,0,1.1894.8429c.9336,0,1.7021-1.25,1.7021-2.7706C157.3022,58.5588,156.6244,57.64,155.57,57.64Z"/><path class="a" d="M11.9887,41.105h2.4372v4.72a4.8111,4.8111,0,0,1-.5978.8422,7.5935,7.5935,0,0,1-6.0058,2.5261C2.88,49.1934,0,45.4257,0,40.75c0-4.6541,2.88-8.4436,7.8222-8.4436a7.3158,7.3158,0,0,1,6.6254,3.3907l-.62.9971C8.7528,30.6005,3.1016,34.7446,3.1016,40.75c0,5.2961,4.3879,9.13,8.8871,5.8945Z"/><path class="a" d="M32.5672,40.75c0,5.8721-3.5009,8.443-7.8222,8.443s-7.8234-2.5709-7.8234-8.443c0-5.673,3.5021-8.4212,7.8234-8.4212S32.5672,35.0326,32.5672,40.75Zm-3.058,0c0-5.2078-1.9059-7.3133-4.7643-7.3133-2.8365,0-4.7425,2.1274-4.7425,7.3133,0,5.3627,1.9059,7.3569,4.7425,7.3569C27.6033,48.1074,29.5093,46.1131,29.5093,40.75Z"/><path class="a" d="M48.8887,32.6614V43.6529c0,.9977-.3328,5.5623-6.4935,5.5623,0,0-6.56.31-6.56-5.5623v-8.731a1.9943,1.9943,0,0,0-1.44-1.9277.08.08,0,0,0-.0666-.0224l-.4647-.1107v-.2h4.8526V43.6529c0,4.4768,3.9,4.3661,3.9,4.3661,1.2852,0,4.9421-.5984,4.9421-4.3661V32.6614Z"/><path class="a" d="M67.2148,40.7722c0,8.4878-8.7746,8.1108-8.9743,8.1108h-5.385V34.9219a2.0205,2.0205,0,0,0-1.44-1.9277.0822.0822,0,0,0-.0666-.0224l-.4659-.1325v-.1779h7.3575C58.4838,32.6838,67.2148,32.13,67.2148,40.7722Zm-3.39,0c0-6.7809-5.5847-6.7809-5.5847-6.7809H55.7368V47.5531h2.5038S63.8252,47.62,63.8252,40.7722Z"/><path class="a" d="M81.254,47.7752V48.883H70.8167V34.9219a2.0205,2.0205,0,0,0-1.44-1.9277.0822.0822,0,0,0-.0666-.0224l-.4659-.1107v-.2h12.41V33.77H73.698v5.9829h6.2709v1.33H73.698v6.6926Z"/><path class="a" d="M97.5422,32.6614V48.883L86.7056,38.0464V48.883h-1.33V36.4956a4.3892,4.3892,0,0,0-.6426-2.8365,2.3618,2.3618,0,0,0-.6208-.5318,3.7953,3.7953,0,0,0-.6426-.288v-.1779A4.7051,4.7051,0,0,1,86.75,34.0137l9.462,9.4625V32.6614Z"/><path class="a" d="M115.5149,42.7005a4.02,4.02,0,0,1,.4659,1.8836,4.1266,4.1266,0,0,1-1.64,3.3684,5.7315,5.7315,0,0,1-3.657,1.2186,7.7893,7.7893,0,0,1-1.2852-.0884,5.4859,5.4859,0,0,1-1.7063-.51,4.7921,4.7921,0,0,1-1.8176-1.6621,5.2861,5.2861,0,0,1-.8422-2.393h1.1084a3.4243,3.4243,0,0,0,.3546,1.2628,3.8209,3.8209,0,0,0,1.6615,1.5737,4.9474,4.9474,0,0,0,2.2823.5318,3.4793,3.4793,0,0,0,2.1056-.6208,2.0551,2.0551,0,0,0,.9306-1.7728,2.6783,2.6783,0,0,0-1.2622-2.1492,25.7419,25.7419,0,0,0-2.7046-1.6179,19.5968,19.5968,0,0,1-2.7918-1.6839,4.2325,4.2325,0,0,1-1.8612-3.4349,3.9376,3.9376,0,0,1,1.5066-3.1693,5.2724,5.2724,0,0,1,3.4125-1.1744h.0218a5.8543,5.8543,0,0,1,3.1911.8646,4.3554,4.3554,0,0,1,1.33,1.64,6.1119,6.1119,0,0,1,.4659,1.4848h-1.1968a3.3478,3.3478,0,0,0-1.3965-2.1056,4.1742,4.1742,0,0,0-2.3936-.62,2.9268,2.9268,0,0,0-1.8164.6426,1.95,1.95,0,0,0-.8422,1.6179,1.8689,1.8689,0,0,0,.4647,1.2186,13.5827,13.5827,0,0,0,3.4573,2.2823c1.3081.6873,2.1056,1.13,2.482,1.3741A5.6975,5.6975,0,0,1,115.5149,42.7005Z"/><path class="a" d="M129.8582,33.9913h-5.1636V48.883h-2.88V33.9913h-5.1636v-1.33h13.2073Z"/><path class="a" d="M136.9277,48.883h-2.66V34.9219a2.0205,2.0205,0,0,0-1.44-1.9277.0811.0811,0,0,0-.0666-.0224l-.4647-.1107v-.2h4.6312Z"/><path class="a" d="M151.7747,47.7752V48.883H141.3374V34.9219a2.0205,2.0205,0,0,0-1.44-1.9277.0811.0811,0,0,0-.0666-.0224l-.4659-.1107v-.2h12.41V33.77h-7.556v5.9829H150.49v1.33h-6.2709v6.6926Z"/><path class="a" d="M168.507,48.883h-3.2794l-5.1418-7.1579h-1.24V48.883h-2.8813V34.9219a2.0205,2.0205,0,0,0-1.44-1.9277.0811.0811,0,0,0-.0666-.0224l-.4659-.1107v-.2h4.7872c2.6151,0,7.5342.0224,7.5342,4.5434a3.9288,3.9288,0,0,1-3.1693,4.0993,8.9175,8.9175,0,0,1-2.1492.3328l2.6151.4653ZM162.17,40.1962l.0436-.0224c.6873-.3987,1.2416-1.241,1.2416-2.9691A3.135,3.135,0,0,0,160.352,33.77l-1.5066.0218v6.7815h1.5066A3.5563,3.5563,0,0,0,162.17,40.1962Z"/><path class="a" d="M64.151,12.6317,65.75,20.4749l-4.0889-3.0342,1.1064,4.9409L56.903,17.98a.6521.6521,0,0,0-.3477-.1343.67.67,0,0,0-.3721.0483l-.2461.0977-.0488-.0757,1.0361-.6626a.9323.9323,0,0,1,1.0566.0371l3.6475,2.7344-1.124-5.0605L64.6364,18.03l-1.0322-5.0479Z"/><path class="a" d="M71.34,17.7572l-1.1172.4395-2.3076-5.8643a.9122.9122,0,0,0-.9229-.5718.0382.0382,0,0,0-.0322.002l-.2139.03-.0322-.084,1.9453-.7651Z"/><path class="a" d="M77.0954,8.63l1.6426,7.1372L72.8727,12.096l1.0967,4.7676-.585.1348-1.2539-5.45a1.9826,1.9826,0,0,0-.5693-1.1831,1.08,1.08,0,0,0-.3271-.1714,1.7505,1.7505,0,0,0-.3115-.0615l-.0186-.0781a2.124,2.124,0,0,1,1.58.2627l5.1211,3.2056L76.51,8.7645Z"/><path class="a" d="M85.905,8.09l.2236,7.3159-5.0371-4.7378.1494,4.8872-.6.0181-.17-5.5869a1.9834,1.9834,0,0,0-.3291-1.27,1.0846,1.0846,0,0,0-.2871-.2314,1.7347,1.7347,0,0,0-.2939-.1211l-.0029-.08a2.1254,2.1254,0,0,1,1.498.5645l4.3984,4.1372-.1494-4.877Z"/><path class="a" d="M87.2946,15.4481l4.5615-6.6445,2.1709,7.8013-1.42-.2437L92.21,14.9535l-3.44-.5913L87.945,15.56Zm1.7861-1.54,2.9873.5132L91.1,10.9569Z"/><path class="a" d="M95.2926,16.9706l5.8867-5.4937.4287,8.0781L100.277,19.01l-.083-1.459-3.2275-1.32L95.903,17.22Zm2.0762-1.1152,2.8018,1.1465-.1943-3.5879Z"/><path class="a" d="M107.8073,23.6375l-1.2266-.8286-.1133-3.9756-.4639-.3135-1.8086,2.6763-1.0771-.728,3.5273-5.22a.9111.9111,0,0,0-.0508-1.0845.04.04,0,0,0-.02-.0254l-.1465-.1587.0508-.0747,1.79,1.2095c.9775.6606,2.8115,1.9126,1.6689,3.6025a1.7723,1.7723,0,0,1-2.2207.7319,4.0176,4.0176,0,0,1-.8877-.4189l.8594.835Zm-.1748-4.85.0225.0029c.3574.0244.7773-.15,1.2139-.7964a1.4146,1.4146,0,0,0-.292-2.0684l-.5684-.3726-1.7139,2.5352.5635.3809A1.6047,1.6047,0,0,0,107.6325,18.7879Z"/><path class="a" d="M63.1371,29.1048c.3-1,.5784-.8.8817-1.1992.5874-.2673,1.24-.1011,1.6908-1.0152a2.6745,2.6745,0,0,0,1.5485-.65c.2017-.2494.3736-.5565.5753-.8058.2136-.1365.4451.1164.6171-.1983,1.02-.7006,2.1122-.723,3.1088-1.6491a16.875,16.875,0,0,0,3.8922-1.5726c.3976.0948.7714-.0358,1.2106.2369,1.1331-.7126,2.4507-.3274,3.5422-1.218a22.5406,22.5406,0,0,0,4.9193-.2691c.7609.6265,3.6462.5932,4.6113,1.1314,1.3549-.4436,4.9376.9131,5.9467,1.4691a1.6133,1.6133,0,0,1,1.7661.7443c-.0148.0034-.03.0051-.0448.0086a37.9152,37.9152,0,0,0,4.7363,2.0986c.3019.3248.1148.7231.6058,1.0289-.0059.0013-.012-.0579-.0178-.0565.3654.8029,1.2939.9163,2.2534,1.9163h2.6378c-.7092-1-1.4246-1.4715-2.188-2.4026.0087-.0031.0176.0257.0263.0225-.8668-.866-1.46-.4235-2.0593-.269.1178-1.9664-3.1518-2.775-4.3928-3.583-1.6432.0531-3.9631-1.63-5.7036-1.9708-.2672-.1542-.5165-.3554-.7361-.4918-.4449.3206-1.0029-.213-1.5253-.4085a8.657,8.657,0,0,0-1.0745-.89c-.35-.077-.712.1665-1.0206.2675-.3146-.172,0-.4332-.3148-.6051a26.7017,26.7017,0,0,0-4.4386.2868c-.8843-.3854-1.62-.0112-2.4153-.2007-1.9343.6833-4.0884.3638-5.9988,1.2725-.1841-.2314-.3027-.0592-.4749-.1779-1.145.6-2.4862.4224-3.5836,1.4733-.368-.03-.712.1664-1.08.137-.6227.7954-1.46.4279-2.0407,1.4013-.9791.0123-1.8274.8316-2.7708,1.1821-1.5186,1.1638-3.085,1.8765-4.4609,3.5268-.7633.4882-1.3.34-1.4274,1.429Z"/><path class="a" d="M115.7882,52.1048a.3981.3981,0,0,1-.2326.3115c-.1885-.4142-.8334-.438-1.3234-.3115.36,0,.9139,1.3229.7129,2.0827-.8784.4369-.8839,1.6262-.7572,2.398a3.7763,3.7763,0,0,0-.7128,1.38c.6174.6644.9672-.1253,1.4539.1653a4.3549,4.3549,0,0,0-.523,1.6931c-.4272.2732-1.0118-.3255-1.3632.3073-.0115.7537.3507,1.3766-.4678,2.2611.3741.7357.38,1.2355-.622,2.5282-.2365.4021-.837,1.3723-1.2631,2.0716a1.4846,1.4846,0,0,1-.5217,1.1039.109.109,0,0,0,.0594.1306c-.7806,1.7912-1.8772,4.25-3.4275,5.538.0141.001.0267-.0028.0406-.0023-.3555.4707-.8746.1832-1.2867.2936a7.2252,7.2252,0,0,0-1.2515,1.3179c-.2493-.2017-.3916.1782-.6171.202-.19.7953-.2425,1.8041-1.2275,1.9766a5.0259,5.0259,0,0,1-1.75.9147c-.2017.2493-.0473.4154-.2964.6469-.4879,1.3027-.2581.1741.8132.5753.1364-.22.32-.4215.4566-.6411.6171-.2021,1.2222-.5168,1.8393-.7189.3025-.374.249-.6647.421-.9792.395-.3454,4.6392-2.95,4.4252-3.8651-.0141,0-.027.0042-.041.0049.6587-1.2562,1.6422-1.5395,1.9151-2.5515l-.095-.0355a30.5061,30.5061,0,0,0,3.8367-6.1969,22.4944,22.4944,0,0,0,1.8964-5.7866c-.1367-.6468.1953-1.3887-.1017-2.0413a1.84,1.84,0,0,0,.3261-.5817.73.73,0,0,1,.1954-.9555,1.2425,1.2425,0,0,1,.231-1.047C116.7325,53.0436,117.0759,52.1266,115.7882,52.1048Z"/><path class="a" d="M67.0372,77.8762c-.01.0037-.0192.0051-.0287.0086-.3409-1.4518-4.0034-3.4-5.047-4.6707-.0181.0062-.0367.0088-.0548.0146-.8022-.6371-.8246-1.48-1.9161-1.8356-.0657-.8367-1.4545-1.4651-1.7457-2.278L58.15,69.08c-.0116.0045-.0234.0062-.035.01-.3359-.6215-.1838-1.499-1.04-1.7665-.0338-1.1784-.2321-1.2756-.226-1.2757-.4977-.6906-2.5742-5.3709-3.2847-7.1314a25.3107,25.3107,0,0,0-.4878-2.89l-.0341.0094c-.2327-.793.321-1.8-.1925-2.5847a1.0551,1.0551,0,0,1-.14-.0965c.005-.0018.01.0008.0154-.001-.037-1.15-.3838-1.5729-1.6029-1.2493.0146,0,.0412,1.0141.1017,1.4991.0237.0089.0356.0116.0474.0161l-.0355.0941c.0479.8842.5389,1.4629.1791,2.5571l.1425.0531c-.2442,3.0447,1.56,6.4108,2.437,9.25.44.42.8755.4083.6532,1.0026.1154.4936,1.0989,2.7768,1.77,2.9366l-.0178.0475c.6885.4744.6651,1.1153.95,1.6552.9973.8066,1.4308,1.6729,2.4934,2.45.0167-.0039.0333-.0057.05-.0095.7733.9045,3.9581,5.177,5.4716,4.6355.5209.3239.3276.7634.783,1.0917.6467-.1367,1.4066.581,2.0773.67C69.3758,79.2934,67.9453,78.487,67.0372,77.8762Z"/><path class="a" d="M128.0414,66.078c-.1,0-.2012.4667-.2672.6429.1782.3916.4444.3571.51,1.3571h.0032c-.0983,0,.0491.9449-.061,1.38-.6573.4514-4.4062,5.6251-4.3232,6.41a.5485.5485,0,0,1,.184.2364c.0047-.0012.0094.0007.0141-.0006a15.3714,15.3714,0,0,1-1.2407,4.1475c-1.5828.92-1.3906,1.7143-2.365,2.9989-.0183-.0031-.0364-.0027-.0548-.0065-.2544.4209-1.45,2.8257-2.1622,2.0327-.5569-.62,1.1833-1.3843,1.4264-1.6584-.0475-.0178-.0119-.1127.0534-.1424l-.214-.73c-.9211-.2665-1.0607.8474-1.6908,1.0451a36.8077,36.8077,0,0,1-2.5267,2.8436,3.2018,3.2018,0,0,0-1.5542,1.2587c.1735.2407.6436,1.3658-.308,1.4006a3.15,3.15,0,0,1-1.0248,1.2477l.0887,1.6578a5.7545,5.7545,0,0,0,1.6075-1.0312c-.0538-.7239.7693-2.09,1.2141-2.09h-.0012c.9724-1,1.8469-1.6925,2.9573-1.3833,1.2963-1.4446,2.6681-3.3258,4.0328-4.6208.0219,0,.0436-.0089.0657-.0081a18.0048,18.0048,0,0,1,3.4634-4.7716c-.131-1.24,1.7023-1.8,1.8206-2.8381l-.0317.0124.0082-.0094c-.2483-1.344,2.5953-4.0882,2.9229-5.5773.8981-.1943,1.6151-3.0534,1.7083-3.8039Z"/><path class="a" d="M38.2132,29.078h3.8756a1.4089,1.4089,0,0,1,1.5128-1h-.0052c.5441,0,.4006-1.3273.4828-1.5467.51-.35,1.0143-.9926,1.56-1.4379.1481-.54-.1725-.9945.2664-1.5881a.2022.2022,0,0,0-.2208-.12.2893.2893,0,0,0,.06-.3278c.43-.5812,2.0729-.8454,1.3936-2.1318.38-.5219,1.0777-.254,1.5468-.5618a12,12,0,0,0,1.6091-1.938,2.5636,2.5636,0,0,1,.5084-1.44c.03-.0053.06-.0087.09-.0142a.292.292,0,0,1,.2281-.0516,1.28,1.28,0,0,0-.37.8646c.1721.1186.3917.255.5639.3736.4786-.4735.9225-1.0892,1.3912-1.4572.0624-.0031.1226-.0049.1866-.0093-.06-.5637.5275-1.2642.9367-1.923a1.4975,1.4975,0,0,0,.9848-.6057c.2552.0414.5045.2431.7.154q.5625-.2444.4744-.6886l.095.0356c.528-.3978,1.1155-.2319,1.6673-.4042a11.9533,11.9533,0,0,1,6.686-4.2636,2.9022,2.9022,0,0,1,2.6284-.8022c.4905-.4909-.0757-2.4507,2.0291-1.0809.6028-.643,1.7967-1.6551,2.7588-1.2948.5432,1.0772,4.1629-.6291,5.0615-.649.3975-.3384.8959-.3683,1.2873-.98.2255-.0239.4154.0473.5993-.1545.4748.1778.8842-.0479,1.3828.3554.6726-.3831,1.4753-.15,2.2039-.2341l-.0143.0037c1.1209.0107,1.8863-.4725,3.01-.5249-.16.2462-.4514.3813-.4171.7059.7421.7651,1.6615-.244,2.5755.2065.3264-.1485.5577-.537.9256-.5075.171.215.3135.0377.5086.0377h-.0041a.6115.6115,0,0,0,.0475.3252c1.011-.2389,2.9331.6749,3.6619,1.2858,2.4889-.73,1.1438.1841,2.8192,1.0209.3738-.1307.2667-.709.688-.8219,1.1925.6627,4.0434.46,4.8133,1.7509,1.0208.1657,1.8632-.4929,3.0444.545.0163-.0042.0329-.006.0491-.01a31.3656,31.3656,0,0,0,3.8475,2.4432c.86.4286,1.876.4975,2.3953,1.44.4986.07,1.9208-.6477,1.49.5038.3149,1.0383,1.6327,1.8566,2.4816,2.77q.22.878.9142.8838c1.1868-.2315,3.6946,1.9036,4.4755,2.6506-.36.5-.9125-.1694-1.252.4515a3.8043,3.8043,0,0,0,.94,1.205c-.0342.01-.069.0179-.1031.029l.095.0356c.2491-.2315.6172.2312.8843.3854a28.6122,28.6122,0,0,0,3.7529,5.7367c.0162-.0036.0323-.0057.0486-.0092,1.941,2.2185,1.1815,2.3792,4.3568,2.3792-.079,0-.1809-.51-.5792-.687.2293-.6122-.5417-2.034-.7962-2.2912-.0115.0034-.0429.0029-.0544.0062-.3195-.6585-.2027-1.3431-1.1747-1.8664a5.066,5.066,0,0,0-.4029-.9617c.1135-.4763-2.12-3.0238-2.3406-3.4095.0343-.0093.069-.016.1031-.026a.1578.1578,0,0,1-.0121-.1127c-.7479-.605-.707-1.7265-1.8107-1.8151a1.9684,1.9684,0,0,0-.98-1.2873c-.1782-.3916-.1309-.8069-.4871-1.1569l-.045.0046c.0264-.0333.0663-.0616.0805-.1-.3026-.0592-.3561-.35-.8132-.5753-.0182-.8189-.9559-1.0618-1.7988-1.7023-.2058-1.0139-.5695-.7661-1.0391-1.4178-.0587.0205-.1176.03-.1763.0474-.5425-.1644-1.0361.1611-1.61.0958-.1188-.261-.6233-.5042-.4988-.8365a13.4053,13.4053,0,0,1-3.5913-2.6984,4.8476,4.8476,0,0,1-2.196-.9307c-.0137.0043-.0279.0071-.0417.0113a4.6669,4.6669,0,0,0-3.175-1.1077c-.7325-.5921-1.5948-1.0959-2.3625-1.6427-.7215.1687-1.291-.597-1.9313-.6872-.34-.0479-1.346.1637-1.6235.06-.48-.7136-1.0927-.3756-1.7641-.9742l.019-.0042c-.5681-.42-1.3386-.2473-1.9526-.5689A10.0121,10.0121,0,0,1,93.1789.4865c-.4629-.0651-.8246.6116-1.2756.6592C90.7276-1.8234,77.94,2.2268,75.8575,1.2c-1.8869.2679-3.5538,1.5385-5.56,1.1121C69,3.13,67.4662,2.7087,66.2206,3.8975l-.1533.0247c-.2847.3265-.6526.297-.9492.5107-1.5192-.1359-2.8124,1.0041-4.1829,1.6277-.2372.3443-.4982.4631-.7235.92-.2433.0714-.5876-.1659-.8784-.1124-1.0715,1.2852-3.3007,1.1309-4.2358,2.6366-.51-.0828-.9356.4911-1.3747.6515-1.1047,1.4144-3.0179,1.7572-4,3.2911-1.3116.4294-2.3564,2.4476-2.734,3.6863a.9854.9854,0,0,1,.4045.3676h-.0005c.1577.2192-2.3921,2.04-2.9069,2.7014C43.3713,20.1,41.84,23.3713,41.36,24.0675l.05-.0079C41.0058,24.6117,38.6042,29.078,38.2132,29.078Z"/><path class="a" d="M56.0874,88.53c-.47-.3174-.9551-.628-1.4235-.94.0055-.0007.011-.032.0165-.0327a12.6184,12.6184,0,0,0-3.0157-2.66c-.101-.3085-.3978-.5356-.4988-.8441-.0475-.0178-.1069-.1521-.2018-.1876-.6768-.7949-1.2054-1.6985-2.0247-2.5467-.021.0037-.0421.0063-.0631.01-.2479-.1791-1.1906-.7781-1.3318-.9131-.0814-.3482-.0424-.7527-.6461-1.0477l.0106-.0025c-.6946-.7474-.9382-1.5425-1.6031-2.2247a.177.177,0,0,1,.083-.0772c-.92-.7236-.3687-1.7623-1.6923-2.42a.1571.1571,0,0,0,.0831-.0772c-.3621-.19-.4334-.433-.6175-.6643.7363-1.3915-1.0438-2.3372-1.4169-3.542l.0387-.006c-.4277-1.0264-.9681-2.041-1.3484-3.05l-.0334.0073c-.3065-.707-.2472-1.8155-.9348-2.3919a9.076,9.076,0,0,0-.7429-2.8415H38.72c-1.1607,0-1.0585-3.8847-1.2257-4.4393-.0474-.0178-.0475.0682-.0949.05-.0714-.5026.1237-2.52.0316-2.7163.0128-.0028.0256.0087.0384.0059-.0718-1.05-.7622-1.9006-.9491-2.9006H34.0348c.237,1,.1675,2.2113.3809,3.256-.0146,0-.0293.0594-.0439.0593-.0178.0475-.0178.0759-.0356.1234.457.2253.7985.5362.7215.8863-.6754.4108-.3737,3.185-.4612,3.8461A9.1732,9.1732,0,0,1,35.513,63.27c.017.0064.0209.0227.06.04-.02.045-.0969.0761-.1314.1682.41,1.5071.99,2.9727,1.4,4.48l.0268-.003a16.7169,16.7169,0,0,1,.8705,2.94c.04.015.074.0618.1386.098l-.0155.0029c.5372,1.1807.8487,1.1468,1.52,1.8686-.0761,2.0763,1.5635,3.16,2.6308,4.8292l-.0085-.0032-.0271.0981c.4174.7458,1.1991,1.3641,1.4513,2.1475l-.038.006a12.3577,12.3577,0,0,0,1.6566,2.0822l.0579-.01a.05.05,0,0,1-.0283.0754,25.55,25.55,0,0,0,5.9924,6.023l-.02.0035c.9795.7444,1.7046,2.27,2.7695,2.8509.803.4378,1.9894.2717,2.4618,1.1685Z"/></svg>