<?xml version="1.0" encoding="utf-8"?>
<!-- Generator: Adobe Illustrator 22.1.0, SVG Export Plug-In . SVG Version: 6.00 Build 0)  -->
<svg version="1.1" id="Capa_1" xmlns="http://www.w3.org/2000/svg" xmlns:xlink="http://www.w3.org/1999/xlink" x="0px" y="0px"
	 viewBox="0 0 402 402" style="enable-background:new 0 0 402 402;" xml:space="preserve">
<style type="text/css">
	.st0{fill:#0B7EC2;}
</style>
<g>
	<g>
		<path class="st0" d="M164.5,91.4h73.1c4.9,0,9.2-1.8,12.8-5.4c3.6-3.6,5.4-7.9,5.4-12.8V18.3c0-4.9-1.8-9.2-5.4-12.9
			c-3.6-3.6-7.9-5.4-12.8-5.4h-73.1c-4.9,0-9.2,1.8-12.8,5.4c-3.6,3.6-5.4,7.9-5.4,12.9v54.8c0,4.9,1.8,9.2,5.4,12.8
			C155.2,89.6,159.5,91.4,164.5,91.4z"/>
		<path class="st0" d="M286.9,334.3c-3.6-3.6-7.9-5.4-12.8-5.4h-18.3V164.5c0-4.9-1.8-9.2-5.4-12.8c-3.6-3.6-7.9-5.4-12.8-5.4H127.9
			c-4.9,0-9.2,1.8-12.8,5.4c-3.6,3.6-5.4,7.9-5.4,12.8V201c0,4.9,1.8,9.2,5.4,12.8c3.6,3.6,7.9,5.4,12.8,5.4h18.3v109.6h-18.3
			c-4.9,0-9.2,1.8-12.8,5.4c-3.6,3.6-5.4,7.9-5.4,12.8v36.5c0,4.9,1.8,9.2,5.4,12.9c3.6,3.6,7.9,5.4,12.8,5.4h146.2
			c4.9,0,9.2-1.8,12.8-5.4c3.6-3.6,5.4-7.9,5.4-12.9v-36.5C292.4,342.2,290.6,337.9,286.9,334.3z"/>
	</g>
</g>
</svg>
