<?xml version="1.0" encoding="utf-8"?>
<!-- Generator: Adobe Illustrator 25.1.0, SVG Export Plug-In . SVG Version: 6.00 Build 0)  -->
<svg fill="#80ba27" version="1.1" id="Laag_1" xmlns="http://www.w3.org/2000/svg" xmlns:xlink="http://www.w3.org/1999/xlink" x="0px" y="0px"
	 viewBox="0 0 23.3 23.3" style="enable-background:new 0 0 23.3 23.3;" xml:space="preserve">
<path id="info-solid" d="M11.7,0C5.2,0,0,5.2,0,11.7s5.2,11.7,11.7,11.7s11.7-5.2,11.7-11.7S18.1,0,11.7,0L11.7,0z M12.1,3.8
	c0.8,0.1,1.5,0.8,1.4,1.6c-0.1,0.8-0.8,1.5-1.6,1.4c-0.8-0.1-1.5-0.8-1.4-1.6c0-0.8,0.7-1.4,1.4-1.4H12.1z M16.5,17.5
	c0,0.5-0.4,1-1,1l0,0H8.8c-0.5,0-1-0.4-1-1s0.4-1,1-1h1.9v-5.8h-1c-0.5,0-1-0.4-1-1c0-0.5,0.4-1,1-1h3.9v7.8h1.9
	C16.1,16.5,16.5,17,16.5,17.5L16.5,17.5L16.5,17.5z"/>
</svg>
