<?xml version="1.0" encoding="utf-8"?>
<!-- Generator: Adobe Illustrator 22.1.0, SVG Export Plug-In . SVG Version: 6.00 Build 0)  -->
<svg version="1.1" id="Capa_1" xmlns="http://www.w3.org/2000/svg" xmlns:xlink="http://www.w3.org/1999/xlink" x="0px" y="0px"
	 viewBox="0 0 512 512" style="enable-background:new 0 0 512 512;" xml:space="preserve">
<style type="text/css">
	.st0{fill:#15B9ED;}
</style>
<path class="st0" d="M55.2,158.5h346.5v17.1c0,6.1,3.7,11.5,9.3,13.9c1.9,0.8,3.8,1.1,5.7,1.1c3.9,0,7.7-1.5,10.6-4.4l80.3-80.3
	c5.9-5.9,5.9-15.4,0-21.2L427.3,4.4c-4.3-4.3-10.7-5.6-16.3-3.3c-5.6,2.3-9.3,7.8-9.3,13.9v17.1H55.2C24.7,32.1,0,56.9,0,87.3v16.1
	C0,133.8,24.7,158.5,55.2,158.5L55.2,158.5z"/>
<path class="st0" d="M63.2,224.9C28.4,224.9,0,253.3,0,288.1s28.4,63.2,63.2,63.2c34.8,0,63.2-28.4,63.2-63.2S98.1,224.9,63.2,224.9
	z"/>
<path class="st0" d="M63.2,381.3c-22.1,0-42.5-7.8-58.5-20.7C1.7,368,0,376.1,0,384.5v48.2c0,8.3,6.7,15,15,15h1.1V497
	c0,8.3,6.7,15,15,15h64.3c8.3,0,15-6.7,15-15v-49.3h1.1c8.3,0,15-6.7,15-15v-48.2c0-8.5-1.7-16.5-4.7-23.9
	C105.7,373.6,85.3,381.3,63.2,381.3z"/>
<path class="st0" d="M223.9,224.9c-34.8,0-63.2,28.4-63.2,63.2s28.4,63.2,63.2,63.2s63.2-28.4,63.2-63.2S258.7,224.9,223.9,224.9
	L223.9,224.9z"/>
<path class="st0" d="M223.9,381.3c-22.1,0-42.5-7.8-58.5-20.7c-3,7.4-4.7,15.4-4.7,23.9v48.2c0,8.3,6.7,15,15,15h1.1V497
	c0,8.3,6.7,15,15,15H256c8.3,0,15-6.7,15-15v-49.3h1.1c8.3,0,15-6.7,15-15v-48.2c0-8.5-1.7-16.5-4.7-23.9
	C266.4,373.6,246,381.3,223.9,381.3L223.9,381.3z"/>
<path class="st0" d="M448.8,224.9c-34.8,0-63.2,28.4-63.2,63.2s28.4,63.2,63.2,63.2S512,323,512,288.1S483.6,224.9,448.8,224.9
	L448.8,224.9z"/>
<path class="st0" d="M448.8,381.3c-22.1,0-42.5-7.8-58.5-20.7c-3,7.4-4.7,15.4-4.7,23.9v48.2c0,8.3,6.7,15,15,15h1.1V497
	c0,8.3,6.7,15,15,15h64.3c8.3,0,15-6.7,15-15v-49.3h1.1c8.3,0,15-6.7,15-15v-48.2c0-8.5-1.7-16.5-4.7-23.9
	C491.3,373.6,470.9,381.3,448.8,381.3L448.8,381.3z"/>
</svg>
