<?xml version="1.0" encoding="utf-8"?>
<!-- Generator: Adobe Illustrator 23.0.6, SVG Export Plug-In . SVG Version: 6.00 Build 0)  -->
<svg version="1.1" id="Capa_1" xmlns="http://www.w3.org/2000/svg" xmlns:xlink="http://www.w3.org/1999/xlink" x="0px" y="0px"
	 viewBox="0 0 612 612" style="enable-background:new 0 0 612 612;" xml:space="preserve" height="20px" width="20px">
<style type="text/css">
	.st0{fill:#414E5C;}
</style>
<path class="st0" d="M581.4,520.2H30.6C13.7,520.2,0,533.9,0,550.8c0,16.9,13.7,30.6,30.6,30.6h550.8c16.9,0,30.6-13.7,30.6-30.6
	C612,533.9,598.3,520.2,581.4,520.2z M30.6,91.8h550.8c16.9,0,30.6-13.7,30.6-30.6s-13.7-30.6-30.6-30.6H30.6
	C13.7,30.6,0,44.3,0,61.2C0,78.1,13.7,91.8,30.6,91.8z M581.4,275.4H30.6C13.7,275.4,0,289.1,0,306s13.7,30.6,30.6,30.6h550.8
	c16.9,0,30.6-13.7,30.6-30.6S598.3,275.4,581.4,275.4z"/>
</svg>
