<svg  fill="#0b7ec2" width="23px" height="23px" viewBox="0 0 58 58" xmlns="http://www.w3.org/2000/svg"><g id="029---Controlling-Interest"><circle id="Oval" cx="29" cy="36" r="8"/><path id="Shape" d="m42 13c0-7.17970175-5.8202983-13-13-13s-13 5.82029825-13 13c0 7.1797017 5.8202983 13 13 13s13-5.8202983 13-13zm-12 5.42v.58c0 .5522847-.4477153 1-1 1s-1-.4477153-1-1v-.55c-.9883963-.0279418-1.9403628-.379221-2.71-1-.4004064-.3921222-.4071222-1.0345936-.015-1.435s1.0345936-.4071222 1.435-.015c.7009945.3790527 1.4948075.5523743 2.29.5.75 0 2-.16 2-1.25 0-.84-.32-1-2.12-1.26-1.45-.18-3.88-.48-3.88-3.24.0902167-1.64266384 1.3631553-2.97500625 3-3.14v-.61c0-.55228475.4477153-1 1-1s1 .44771525 1 1v.59c1.1719776.15687957 2.2205045.80856815 2.88 1.79.2761423.48324915.1082491 1.0988576-.375 1.3749999-.4832492.2761424-1.0988576.1082492-1.375-.3749999-.5146486-.63580165-1.3166665-.96715176-2.13-.88-.81 0-2 .4-2 1.25s.32 1 2.12 1.26c1.45.18 3.88.48 3.88 3.24-.0124724 1.6804884-1.3227479 3.0650129-3 3.17z"/><path id="Shape" d="m11.52 48.17c.9430544.8918393 1.4781805 2.1320302 1.48 3.43v5.4c0 .5522847.4477153 1 1 1h30c.5522847 0 1-.4477153 1-1v-5.4c.0018195-1.2979698.5369456-2.5381607 1.48-3.43l9.55-9c2.6161382-2.7118998 2.6161382-7.0081002 0-9.72l-4.1-4.25c-.7367285-.7798606-1.762176-1.2217963-2.835-1.2217963s-2.0982715.4419357-2.835 1.2217963c-1.3983578 1.6110788-1.3154495 4.0285102.19 5.54l3 3.1c.238816.2447256.238816.6352744 0 .88l-5 4.93c-8.5594207 8.4113152-22.2805793 8.4113152-30.84 0l-5-4.93c-.23881598-.2447256-.23881598-.6352744 0-.88l3-3.1c1.5054495-1.5114898 1.5883578-3.9289212.19-5.54-.7367285-.7798606-1.762176-1.2217963-2.835-1.2217963-1.07282404 0-2.09827146.4419357-2.835 1.2217963l-4.13 4.27c-2.61613815 2.7118998-2.61613815 7.0081002 0 9.72z"/><path id="Shape" d="m51 13c0-.5522847-.4477153-1-1-1h-3c-.5522847 0-1 .4477153-1 1s.4477153 1 1 1h3c.5522847 0 1-.4477153 1-1z"/><path id="Shape" d="m45.55 18.89c2.2 1.11 2.14 1.11 2.45 1.11.4608398-.0027311.8601381-.3200462.96688-.7683619.1067418-.4483157-.1067173-.9115255-.51688-1.1216381l-2-1c-.3211808-.1932607-.7234705-.1906728-1.0421383.0067041-.3186678.1973768-.5001928.5563928-.4702434.9300368s.2663431.6991617.6123817.8432591z"/><path id="Shape" d="m46 9c.32 0 .25 0 2.45-1.11.4487927-.27004734.6131719-.84063848.3768341-1.30806218-.2363378-.46742371-.7933069-.67328819-1.2768341-.47193782l-2 1c-.4101627.21011265-.6236218.6733224-.51688 1.12163809.1067419.44831569.5060402.76563081.96688.76836191z"/><path id="Shape" d="m7 13c0 .5522847.44771525 1 1 1h3c.5522847 0 1-.4477153 1-1s-.4477153-1-1-1h-3c-.55228475 0-1 .4477153-1 1z"/><path id="Shape" d="m10 20c.32 0 .25 0 2.45-1.11.3460386-.1440974.5824323-.4696151.6123817-.8432591s-.1515756-.73266-.4702434-.9300368c-.3186678-.1973769-.7209575-.1999648-1.0421383-.0067041l-2 1c-.41016271.2101126-.6236218.6733224-.51687997 1.1216381s.50604017.7656308.96687997.7683619z"/><path id="Shape" d="m12 9c.4608398-.0027311.8601381-.32004622.96688-.76836191.1067418-.44831569-.1067173-.91152544-.51688-1.12163809l-2-1c-.48352717-.20135037-1.04049627.00451411-1.2768341.47193782-.23633783.4674237-.07195864 1.03801484.3768341 1.30806218 2.2 1.11 2.14 1.11 2.45 1.11z"/></g></svg>