<?xml version="1.0" encoding="utf-8"?>
<!-- Generator: Adobe Illustrator 22.1.0, SVG Export Plug-In . SVG Version: 6.00 Build 0)  -->
<svg version="1.1" id="Layer_1" xmlns="http://www.w3.org/2000/svg" xmlns:xlink="http://www.w3.org/1999/xlink" x="0px" y="0px"
	 width="338px" height="392.1px" viewBox="0 0 338 392.1" style="enable-background:new 0 0 338 392.1;" xml:space="preserve">
<style type="text/css">
	.st0{fill:#FFFFFF;stroke:#6EAB06;stroke-miterlimit:10;}
</style>
<path class="st0" d="M325.6,314.2h-25.1c-20.3,0-36.6,17.3-36.6,38.8l0,0v24.5v2.1c0,6.6-5.4,11.8-11.6,11.2l0,0H11.1
	c-5.9,0-10.6-5.1-10.6-11.2V11.7c0-6.2,4.8-11.2,10.6-11.2h316.3c5.9,0,10.6,5.1,10.6,11.2v291.7l0,0c0,5.7-4.5,10.4-9.8,10.7h-2.6
	L325.6,314.2L325.6,314.2z"/>
</svg>
