<?xml version="1.0" encoding="utf-8"?>
<!-- Generator: Adobe Illustrator 22.1.0, SVG Export Plug-In . SVG Version: 6.00 Build 0)  -->
<svg version="1.1" id="Capa_1" xmlns="http://www.w3.org/2000/svg" xmlns:xlink="http://www.w3.org/1999/xlink" x="0px" y="0px"
	 viewBox="0 0 612 612" style="enable-background:new 0 0 612 612;" xml:space="preserve">
<style type="text/css">
	.st0{fill:#15B9ED;}
</style>
<g>
	<g id="more">
		<path class="st0" d="M561,76.5H178.5c-17.9,0-30.6,10.2-40.8,22.9L0,306l137.7,206.5c10.2,12.8,25.5,23,43.3,23h380
			c28,0,51-23,51-51v-357C612,99.4,589,76.5,561,76.5z M229.5,344.3c-20.4,0-38.3-17.9-38.3-38.3s17.9-38.3,38.3-38.3
			s38.3,17.9,38.3,38.3S249.9,344.3,229.5,344.3z M357,344.3c-20.4,0-38.3-17.9-38.3-38.3s17.9-38.3,38.3-38.3s38.3,17.9,38.3,38.3
			S377.4,344.3,357,344.3z M484.5,344.3c-20.4,0-38.3-17.9-38.3-38.3s17.9-38.3,38.3-38.3s38.3,17.9,38.3,38.3
			S504.9,344.3,484.5,344.3z"/>
	</g>
</g>
</svg>
