<?xml version="1.0" standalone="no"?>
<!DOCTYPE svg PUBLIC "-//W3C//DTD SVG 20010904//EN"
 "http://www.w3.org/TR/2001/REC-SVG-20010904/DTD/svg10.dtd">
<svg version="1.0" xmlns="http://www.w3.org/2000/svg"
 width="512.000000pt" height="512.000000pt" viewBox="0 0 512.000000 512.000000"
 preserveAspectRatio="xMidYMid meet">
<metadata>
Created by potrace 1.14, written by Peter Selinger 2001-2017
</metadata>
<g transform="translate(0.000000,512.000000) scale(0.100000,-0.100000)"
fill="#000000" stroke="none">
<path d="M1033 5084 c-10 -7 -33 -14 -51 -14 -18 0 -31 -3 -29 -7 4 -7 -21
-11 -86 -13 -11 -1 -15 -6 -10 -13 4 -7 0 -6 -10 2 -13 10 -17 10 -17 1 0 -7
-8 -10 -19 -7 -11 3 -22 -1 -25 -9 -3 -7 -14 -11 -26 -9 -12 2 -23 -2 -26 -10
-3 -7 -14 -12 -25 -10 -10 2 -19 0 -19 -5 0 -5 -13 -11 -30 -15 -16 -4 -30
-11 -30 -17 0 -6 -6 -8 -14 -5 -8 3 -17 -1 -20 -10 -4 -8 -13 -13 -21 -9 -9 3
-15 0 -15 -9 0 -9 -6 -12 -17 -8 -11 4 -14 3 -9 -5 4 -7 1 -12 -10 -12 -9 0
-25 -9 -35 -21 -9 -11 -20 -20 -23 -20 -20 3 -26 0 -21 -9 3 -5 -5 -12 -19
-16 -14 -3 -24 -11 -23 -18 1 -6 -4 -10 -10 -8 -7 1 -13 -5 -13 -14 0 -8 -4
-13 -9 -9 -12 7 -33 -29 -23 -40 4 -5 1 -5 -6 -1 -13 8 -42 -15 -42 -34 0 -6
-5 -8 -12 -4 -8 5 -9 2 -5 -10 4 -10 3 -15 -3 -11 -6 3 -13 -2 -17 -12 -4 -9
-18 -28 -31 -40 -14 -13 -22 -23 -18 -23 4 0 -5 -16 -20 -35 -14 -19 -22 -35
-18 -35 5 0 1 -5 -9 -11 -9 -6 -15 -14 -12 -20 4 -5 1 -9 -4 -9 -6 0 -11 -9
-11 -19 0 -11 -3 -21 -7 -23 -13 -5 -44 -79 -38 -89 4 -5 1 -9 -5 -9 -6 0 -8
-4 -5 -10 3 -5 1 -10 -5 -10 -6 0 -8 -5 -4 -11 3 -6 1 -15 -6 -19 -6 -4 -13
-25 -13 -47 -2 -31 -5 -39 -17 -35 -12 4 -12 2 -3 -8 9 -10 8 -18 -5 -38 -9
-15 -12 -23 -6 -20 6 4 11 1 11 -7 0 -8 -5 -11 -10 -8 -6 3 -8 -7 -5 -26 2
-17 1 -31 -3 -31 -4 0 -6 -11 -4 -25 1 -14 -2 -25 -6 -25 -5 0 -9 -5 -9 -11 0
-5 5 -7 10 -4 6 3 10 1 10 -4 0 -6 -4 -11 -9 -11 -5 0 -9 -81 -9 -190 0 -120
4 -190 10 -190 6 0 4 -8 -3 -17 -8 -10 -9 -14 -2 -10 9 6 11 -4 9 -33 -2 -22
1 -40 5 -40 14 0 11 -28 -3 -33 -9 -4 -8 -6 2 -6 11 -1 15 -11 15 -33 -1 -18
1 -37 4 -43 5 -10 8 -19 16 -65 9 -49 11 -55 16 -65 4 -5 5 -18 4 -28 -2 -9 0
-15 4 -12 5 2 8 -8 9 -24 0 -16 8 -45 16 -66 9 -20 14 -41 11 -45 -3 -4 2 -10
10 -14 8 -3 12 -12 9 -20 -3 -8 -2 -21 2 -28 5 -7 9 -17 10 -23 5 -27 10 -41
17 -46 4 -3 9 -16 10 -28 1 -14 6 -20 15 -16 7 3 16 5 18 5 2 0 4 7 4 15 0 7
8 19 18 24 9 6 13 11 8 11 -5 0 -3 7 4 15 6 8 8 20 4 26 -4 8 -3 9 4 5 20 -12
35 4 20 22 -10 12 -10 14 0 8 8 -5 18 3 30 23 9 17 21 31 25 31 5 0 5 5 2 10
-3 6 -1 10 4 10 6 0 11 7 11 16 0 8 5 12 10 9 9 -5 15 10 8 18 -2 1 9 16 25
32 15 16 27 33 27 38 0 4 5 5 12 1 7 -4 8 -3 4 4 -4 6 2 19 13 29 11 9 17 21
14 26 -4 6 1 8 11 4 11 -4 15 -3 10 4 -3 6 2 19 12 29 32 32 44 49 44 60 0 5
7 10 15 10 8 0 14 3 14 8 -3 17 2 33 8 29 5 -3 14 1 21 9 7 8 10 14 6 14 -4 0
5 11 19 24 14 13 23 27 20 30 -4 3 1 6 10 6 9 0 16 6 14 13 -1 6 4 11 11 10 6
-2 13 2 13 7 1 6 3 15 4 20 1 6 3 13 4 18 1 4 6 0 11 -8 8 -13 10 -12 10 3 0
9 5 17 11 17 6 0 9 7 6 14 -4 11 -1 13 11 9 9 -3 14 -3 11 1 -8 8 51 72 63 69
4 -2 8 4 8 12 0 8 5 15 11 15 5 0 7 5 3 12 -4 6 -3 8 3 5 5 -3 27 13 48 36 22
23 42 41 45 40 3 0 11 5 18 13 7 8 10 14 7 14 -3 0 3 8 13 18 9 11 20 17 25
15 4 -2 7 0 7 6 0 5 9 13 20 16 11 4 18 10 16 14 -3 4 4 15 15 24 10 9 19 15
19 12 0 -2 13 8 29 23 15 15 26 30 24 34 -2 4 4 5 13 1 12 -4 15 -3 10 5 -4 7
-1 12 9 12 9 0 13 5 10 10 -3 6 3 10 15 10 12 0 18 5 15 10 -3 6 -1 10 5 10 6
0 8 5 4 12 -5 7 -3 8 6 3 7 -5 21 2 35 19 12 14 25 23 28 19 4 -3 9 2 13 11 3
9 13 16 21 16 8 0 11 5 8 10 -3 6 0 10 7 10 7 0 19 9 26 20 7 12 17 18 22 15
6 -3 10 -1 10 5 0 6 4 9 9 6 5 -3 19 7 32 23 13 16 27 27 31 25 4 -3 8 0 8 7
0 7 3 10 6 6 3 -3 18 5 32 19 15 13 30 24 35 24 4 0 5 5 1 12 -4 7 -3 8 5 4
14 -9 63 28 53 39 -4 5 0 6 9 3 9 -4 20 2 28 13 6 11 16 17 21 14 6 -3 10 -1
10 4 0 6 3 10 8 8 4 -1 17 8 30 21 12 12 27 20 32 17 6 -4 10 -2 10 4 0 6 11
13 25 17 14 3 22 10 19 15 -5 8 9 13 29 10 4 0 7 3 7 8 0 5 9 13 20 16 11 3
27 13 35 21 8 8 24 16 34 17 11 0 17 5 15 9 -3 4 2 8 10 8 9 0 16 4 16 8 0 4
20 16 45 26 25 11 45 23 45 27 0 5 7 5 17 2 11 -4 14 -3 9 5 -4 8 0 12 12 12
10 0 27 8 38 18 11 10 24 17 31 15 6 -2 18 3 27 12 8 9 26 18 38 20 12 3 25
10 30 17 4 7 8 9 8 4 0 -5 6 -3 13 3 8 6 17 8 20 4 4 -3 7 -1 7 6 0 7 5 9 10
6 6 -3 10 -2 10 3 0 5 13 12 30 15 21 5 28 11 24 21 -3 9 -9 15 -12 14 -4 -1
-17 3 -28 10 -12 6 -24 8 -28 5 -3 -3 -6 -1 -6 6 0 7 -4 9 -10 6 -5 -3 -10 -1
-10 5 0 6 -4 9 -9 5 -5 -3 -12 -1 -16 5 -4 6 -11 8 -16 5 -5 -4 -9 -1 -9 5 0
7 -7 10 -15 6 -8 -3 -15 -1 -15 5 0 6 -4 7 -10 4 -5 -3 -10 -1 -10 5 0 6 -4 9
-9 5 -5 -3 -17 2 -25 11 -12 11 -16 12 -16 2 0 -10 -2 -10 -9 1 -5 7 -20 14
-35 14 -14 0 -23 3 -20 8 3 5 -4 10 -15 10 -29 2 -33 3 -57 17 -12 6 -24 9
-27 5 -4 -3 -13 -1 -20 5 -8 7 -17 9 -20 5 -4 -3 -7 -1 -7 5 0 6 -6 9 -14 6
-8 -3 -17 -1 -21 5 -3 6 -19 11 -34 11 -15 0 -31 3 -35 7 -3 4 -16 8 -29 10
-37 5 -62 10 -62 13 0 3 -55 11 -92 13 -18 1 -33 5 -33 10 0 4 -16 7 -36 5
-22 -1 -39 3 -44 12 -7 10 -10 11 -10 3 0 -17 -18 -16 -36 2 -21 20 -403 20
-431 -1z m57 -4 c0 -5 -2 -10 -4 -10 -3 0 -8 5 -11 10 -3 6 -1 10 4 10 6 0 11
-4 11 -10z m320 6 c0 -2 -7 -7 -16 -10 -8 -3 -12 -2 -9 4 6 10 25 14 25 6z
m40 -4 c0 -5 -7 -9 -15 -9 -8 0 -12 4 -9 9 3 4 9 8 15 8 5 0 9 -4 9 -8z"/>
<path d="M3750 4970 c0 -6 -5 -8 -10 -5 -6 4 -17 2 -25 -5 -9 -8 -15 -8 -20 0
-5 8 -11 8 -21 -1 -11 -9 -14 -9 -14 0 0 7 -5 9 -12 5 -7 -5 -26 -9 -43 -11
-16 -1 -52 -5 -80 -9 -27 -4 -59 -7 -70 -8 -11 0 -26 -7 -33 -15 -9 -11 -11
-11 -6 -2 5 10 3 12 -7 5 -8 -4 -24 -7 -36 -5 -13 1 -23 -3 -23 -10 0 -8 -5
-8 -17 2 -11 10 -14 10 -9 2 7 -12 -10 -18 -41 -14 -7 1 -13 -3 -13 -9 0 -5
-5 -10 -11 -10 -5 0 -7 6 -4 13 4 6 0 5 -7 -5 -10 -11 -19 -13 -30 -7 -11 6
-19 5 -24 -2 -5 -8 -3 -9 6 -4 9 5 11 4 6 -4 -4 -6 -11 -9 -16 -6 -5 3 -26 -1
-47 -10 -20 -9 -43 -13 -51 -10 -10 4 -12 0 -8 -11 5 -14 4 -15 -9 -4 -8 7
-15 8 -15 3 0 -5 -12 -10 -27 -11 -15 -1 -30 -8 -35 -15 -4 -6 -8 -8 -8 -3 0
5 -6 3 -13 -3 -8 -6 -17 -8 -20 -4 -4 3 -7 1 -7 -6 0 -8 -7 -11 -15 -7 -8 3
-15 1 -15 -5 0 -6 -4 -7 -10 -4 -5 3 -10 1 -10 -5 0 -6 -4 -8 -10 -5 -5 3 -10
0 -10 -7 0 -9 -3 -9 -10 2 -5 8 -10 10 -10 4 0 -11 -35 -28 -52 -25 -5 1 -8
-4 -8 -10 0 -5 -4 -8 -9 -5 -5 4 -12 0 -14 -6 -4 -9 -6 -8 -6 2 -1 11 -8 8
-22 -10 -11 -14 -18 -19 -14 -12 6 11 3 11 -16 0 -13 -7 -30 -20 -37 -28 -9
-10 -11 -11 -6 -1 4 9 2 12 -7 9 -8 -3 -13 -11 -11 -17 1 -7 -2 -9 -8 -6 -6 4
-20 -1 -30 -10 -10 -9 -24 -14 -29 -10 -6 3 -11 1 -11 -5 0 -6 -4 -8 -10 -5
-5 3 -10 1 -10 -6 0 -7 -3 -9 -7 -6 -3 4 -22 -5 -41 -20 -20 -15 -32 -20 -27
-12 4 8 -3 4 -16 -8 -23 -21 -27 -23 -50 -23 -5 0 -7 -5 -3 -12 4 -6 3 -8 -4
-4 -6 3 -17 0 -25 -8 -8 -8 -17 -12 -21 -9 -3 4 -6 1 -6 -6 0 -7 -4 -9 -10 -6
-5 3 -10 1 -10 -4 0 -6 -3 -10 -7 -9 -15 3 -43 -14 -37 -23 5 -8 -18 -13 -32
-6 -3 1 -10 -6 -15 -16 -6 -9 -14 -15 -19 -12 -4 3 -11 -2 -14 -11 -3 -8 -10
-12 -16 -9 -5 3 -10 2 -10 -2 0 -5 -9 -14 -21 -21 -15 -10 -19 -10 -14 -1 5 8
4 10 -3 5 -7 -4 -12 -14 -12 -23 0 -9 -3 -13 -7 -10 -3 4 -18 -3 -31 -15 -14
-13 -22 -16 -17 -8 4 8 -2 5 -14 -7 -12 -13 -35 -30 -51 -38 -17 -9 -30 -20
-30 -26 0 -6 -4 -7 -10 -4 -5 3 -10 2 -10 -3 0 -5 -9 -12 -21 -15 -14 -4 -18
-10 -13 -18 5 -9 2 -10 -10 -6 -14 6 -17 3 -12 -8 3 -9 2 -14 -3 -11 -8 5 -47
-20 -79 -51 -8 -7 -19 -10 -25 -6 -7 3 -9 2 -4 -2 4 -5 -5 -17 -20 -27 -16
-10 -23 -18 -18 -18 6 0 -5 -8 -22 -16 -18 -9 -30 -20 -27 -25 3 -5 0 -9 -6
-9 -18 0 -100 -71 -94 -81 3 -5 2 -9 -3 -8 -16 4 -43 -13 -43 -28 0 -8 -4 -12
-8 -9 -5 3 -21 -8 -36 -25 -15 -16 -32 -27 -37 -24 -5 4 -6 -2 -2 -11 4 -11 3
-15 -5 -10 -6 3 -13 -3 -17 -14 -3 -11 -9 -19 -13 -18 -11 4 -62 -48 -62 -61
0 -7 -4 -10 -9 -6 -5 3 -16 -4 -24 -15 -7 -11 -17 -17 -20 -13 -4 3 -7 1 -7
-5 0 -6 -20 -31 -45 -55 -24 -24 -42 -47 -38 -51 3 -3 1 -6 -6 -6 -16 0 -42
-26 -34 -34 4 -3 -1 -6 -9 -6 -9 0 -22 -10 -31 -22 -8 -13 -31 -41 -51 -62
-20 -22 -36 -44 -36 -48 0 -4 -7 -8 -15 -8 -9 0 -12 -6 -8 -17 4 -11 3 -14 -5
-9 -6 4 -17 -5 -26 -21 -8 -15 -15 -23 -16 -18 0 6 -9 -5 -20 -22 -11 -18 -25
-33 -31 -33 -6 0 -9 -7 -5 -15 3 -10 -1 -15 -11 -15 -9 0 -14 -3 -11 -6 3 -3
-5 -17 -19 -32 -58 -63 -67 -75 -53 -66 9 5 7 1 -3 -8 -11 -10 -15 -18 -11
-18 5 0 1 -5 -8 -11 -10 -5 -18 -17 -18 -25 0 -9 -5 -12 -11 -8 -7 4 -10 1 -7
-6 2 -7 -9 -26 -24 -42 -15 -16 -28 -35 -28 -43 0 -8 -8 -19 -18 -24 -9 -6
-13 -11 -8 -11 5 0 -1 -8 -12 -19 -12 -10 -19 -21 -15 -25 3 -3 1 -6 -5 -6 -7
0 -11 -6 -9 -12 1 -7 -4 -12 -12 -10 -8 2 -11 -3 -8 -13 4 -9 1 -15 -8 -15 -9
0 -12 -6 -9 -15 4 -8 -1 -17 -10 -21 -9 -3 -14 -10 -11 -14 3 -5 -3 -13 -12
-19 -10 -6 -14 -11 -10 -11 4 0 -5 -19 -21 -42 -16 -24 -32 -53 -36 -65 -4
-13 -12 -23 -17 -23 -5 0 -9 -7 -9 -15 0 -8 -4 -15 -10 -15 -5 0 -9 -3 -9 -7
4 -23 -3 -35 -15 -30 -10 4 -13 1 -10 -8 3 -7 -4 -31 -15 -53 -11 -22 -17 -43
-13 -47 4 -5 2 -5 -5 -1 -10 6 -30 -28 -25 -46 1 -3 -5 -11 -13 -18 -7 -6 -11
-19 -8 -27 5 -12 3 -14 -7 -8 -10 6 -12 4 -7 -8 3 -10 3 -17 -1 -17 -9 0 -32
-49 -32 -67 0 -7 -5 -13 -11 -13 -5 0 -7 -4 -4 -10 3 -5 1 -10 -6 -10 -7 0 -9
-3 -6 -7 4 -3 0 -17 -8 -30 -9 -13 -13 -23 -9 -23 4 0 1 -6 -5 -14 -9 -11 -9
-15 1 -19 8 -3 6 -6 -5 -6 -10 -1 -15 -5 -12 -11 3 -5 2 -10 -4 -10 -5 0 -8
-9 -6 -20 2 -11 0 -20 -5 -20 -5 0 -13 -12 -16 -28 -4 -15 -12 -33 -18 -41 -8
-11 -8 -13 1 -8 9 5 8 0 -2 -19 -7 -15 -11 -33 -8 -42 4 -10 2 -13 -5 -8 -8 5
-12 -1 -12 -16 0 -13 -6 -30 -12 -37 -11 -11 -10 -12 2 -6 12 7 13 6 3 -7 -7
-8 -10 -18 -6 -21 3 -4 1 -7 -7 -7 -10 0 -10 -3 0 -16 11 -12 11 -15 0 -12 -8
2 -14 -9 -16 -31 -1 -19 -7 -37 -11 -40 -5 -3 -9 -21 -8 -38 0 -18 -4 -34 -11
-37 -7 -3 -10 -21 -8 -45 2 -27 -1 -41 -9 -41 -7 0 -6 -4 3 -10 8 -5 10 -10 4
-10 -7 0 -14 -11 -16 -25 -4 -16 -1 -22 6 -18 6 4 5 0 -2 -9 -7 -9 -11 -28 -8
-42 3 -16 0 -26 -7 -26 -7 0 -6 -4 3 -10 9 -6 11 -10 3 -10 -7 0 -10 -7 -7
-15 4 -9 0 -15 -7 -15 -9 0 -10 -3 -4 -8 11 -8 16 -42 6 -42 -11 0 -11 -39 0
-45 5 -4 6 -12 2 -18 -10 -16 -10 -78 0 -84 4 -2 3 -11 -3 -18 -8 -9 -8 -15 0
-20 6 -3 7 -12 3 -18 -11 -17 -13 -37 -3 -37 4 0 8 -11 8 -25 0 -15 -5 -22
-12 -19 -6 3 -2 -2 8 -10 15 -12 16 -16 5 -16 -8 0 -10 -3 -4 -8 6 -4 10 -24
10 -44 -1 -21 3 -38 8 -38 4 0 6 -4 2 -9 -3 -5 -1 -12 3 -15 5 -3 7 -17 4 -31
-2 -14 0 -25 5 -25 5 0 10 -14 11 -32 2 -17 8 -38 15 -47 10 -12 9 -13 -3 -6
-12 7 -12 5 1 -11 9 -10 14 -25 12 -31 -3 -7 0 -13 6 -13 6 0 11 -7 11 -15 0
-15 3 -23 33 -81 9 -17 13 -35 9 -39 -4 -5 -1 -5 5 -1 12 6 18 -5 14 -26 0 -5
4 -8 9 -8 6 0 10 -7 10 -15 0 -8 5 -15 10 -15 6 0 10 -9 10 -21 0 -11 5 -17
10 -14 6 3 10 -1 10 -9 0 -9 5 -16 10 -16 6 0 10 -7 10 -15 0 -8 9 -19 20 -25
11 -6 20 -17 20 -24 0 -7 11 -19 25 -26 15 -8 23 -20 20 -27 -2 -8 -1 -12 3
-9 5 3 14 -4 22 -14 8 -10 17 -17 22 -14 4 3 11 -2 14 -10 3 -9 12 -16 20 -16
8 0 14 -7 14 -15 0 -8 6 -14 13 -12 6 1 11 -4 10 -10 -2 -7 0 -12 5 -11 4 1
17 -3 28 -10 12 -6 25 -8 29 -4 5 4 5 1 1 -6 -5 -8 4 -17 28 -27 19 -8 38 -20
41 -26 4 -5 13 -8 21 -5 8 3 17 -1 20 -9 4 -8 10 -12 15 -9 5 3 9 0 9 -5 0 -6
9 -11 21 -11 11 0 17 -4 14 -10 -3 -6 1 -7 9 -4 9 3 32 -3 52 -15 19 -12 32
-17 29 -11 -3 5 -1 10 4 10 6 0 11 -4 11 -10 0 -5 7 -6 17 -3 9 4 14 2 10 -3
-5 -9 18 -15 71 -17 13 -1 22 -7 22 -16 0 -14 1 -14 10 -1 5 8 10 10 10 4 0
-6 17 -9 40 -8 22 1 40 -2 40 -7 0 -6 7 -6 18 0 13 7 22 7 30 -1 6 -6 42 -11
81 -11 44 0 68 -4 64 -10 -4 -6 -1 -7 8 -1 20 12 38 14 45 3 4 -6 10 -6 18 0
6 5 21 9 31 7 11 -2 23 2 27 8 5 6 8 7 8 1 0 -8 26 -10 73 -6 5 1 5 7 1 14 -6
9 -4 9 8 -1 17 -14 39 -13 51 3 4 6 11 4 17 -5 5 -8 10 -10 10 -4 0 7 15 11
39 10 22 -1 38 1 36 5 -3 4 2 10 11 13 24 9 31 7 14 -5 -12 -9 -11 -10 5 -4
30 10 47 13 78 14 16 1 26 5 23 9 -3 5 5 8 17 7 12 -1 41 4 64 10 23 7 44 10
47 7 4 -3 6 0 6 7 0 7 5 9 10 6 5 -3 16 -3 23 2 12 8 32 13 55 15 6 1 12 6 12
11 0 6 3 8 6 4 4 -3 21 -1 38 6 17 7 38 13 46 12 8 0 20 6 27 15 11 13 12 13
13 0 0 -13 1 -13 10 0 5 8 10 11 10 5 0 -5 4 -4 9 3 4 7 18 14 29 15 12 1 22
5 22 10 0 5 6 7 14 4 7 -3 19 0 25 6 6 6 21 12 33 14 12 2 26 9 30 16 4 6 8 8
8 2 0 -5 5 -3 10 5 9 13 10 13 10 0 1 -13 2 -13 13 1 7 9 16 18 22 20 5 2 9 7
8 11 -2 4 4 5 12 2 9 -4 21 -1 29 5 7 6 16 8 19 4 4 -3 7 -1 7 6 0 7 5 9 10 6
6 -3 10 -1 10 5 0 6 5 8 10 5 6 -3 10 -1 10 5 0 6 5 8 10 5 6 -3 10 -1 10 4 0
6 3 10 8 10 22 -4 42 2 37 11 -3 6 3 10 14 10 11 0 23 4 26 10 3 5 15 10 26
10 11 0 17 5 14 10 -3 6 3 10 14 10 12 0 21 5 21 11 0 6 6 9 14 6 8 -3 17 1
20 10 4 8 13 13 20 10 8 -3 17 1 20 9 3 9 10 13 15 10 5 -3 12 1 15 10 3 8 10
12 16 9 5 -3 10 -1 10 5 0 6 5 8 10 5 6 -3 10 -2 10 3 0 6 11 13 25 16 14 4
23 11 20 16 -3 6 -1 11 4 11 30 4 62 20 56 28 -2 4 2 8 10 9 8 1 21 3 29 4 8
1 12 8 9 15 -3 8 -2 13 3 12 21 -4 35 2 29 11 -4 6 1 7 11 3 13 -5 15 -3 9 7
-5 8 -3 11 6 8 7 -2 24 7 37 21 13 14 26 25 28 24 10 -7 25 -2 19 6 -5 9 32
27 48 23 5 -1 6 2 2 8 -3 5 1 10 9 10 9 0 16 7 16 16 0 8 4 13 8 10 5 -3 20 4
33 16 13 12 35 31 49 42 23 20 24 20 11 1 -8 -11 1 -3 21 17 19 21 38 35 41
31 4 -3 7 -1 7 5 0 7 7 12 16 12 8 0 13 4 9 9 -3 5 4 12 15 16 11 4 18 11 15
16 -4 5 1 9 11 9 9 0 25 10 36 23 11 12 24 22 29 22 5 0 9 5 10 10 0 6 11 16
25 23 13 7 22 17 19 22 -4 6 3 10 15 10 12 0 24 9 30 22 5 13 9 19 9 13 1 -5
8 1 17 13 8 12 19 20 24 17 4 -3 10 5 13 16 3 12 10 18 16 14 6 -3 11 1 11 9
0 8 14 23 30 33 17 9 30 23 30 30 0 7 3 12 8 11 4 -1 20 10 36 25 16 15 25 27
20 27 -5 1 4 8 19 16 15 8 25 19 22 24 -4 6 -2 10 3 10 14 0 52 36 45 44 -3 3
0 6 7 6 15 0 60 46 60 61 0 6 5 7 12 3 8 -5 9 -2 5 10 -6 14 -3 17 9 12 12 -4
15 -2 10 9 -3 8 -1 14 3 12 8 -2 63 51 58 56 -4 6 31 36 35 31 3 -2 11 8 17
24 7 16 28 43 47 61 19 18 31 38 27 44 -4 6 0 8 10 4 14 -5 22 3 26 26 0 4 10
16 21 27 12 12 18 25 15 30 -3 5 0 12 6 16 8 5 9 3 4 -7 -5 -10 -5 -11 3 -4 5
6 19 26 30 45 11 19 25 34 32 32 6 -1 10 3 7 10 -2 7 7 23 20 35 13 13 20 23
16 23 -4 0 3 10 17 21 14 11 18 18 10 14 -8 -4 -6 1 4 9 11 9 16 16 10 16 -5
0 -1 7 9 14 10 8 18 18 19 23 0 4 4 7 10 5 5 -1 7 2 4 7 -4 5 -2 12 4 16 6 4
8 11 5 16 -4 5 -2 9 4 9 6 0 18 16 27 35 9 19 21 35 26 35 5 0 7 4 4 9 -3 5 1
12 10 15 8 3 12 10 9 16 -3 5 -1 10 4 10 6 0 11 6 11 13 0 8 9 22 20 32 11 10
17 21 15 25 -3 4 2 13 10 20 8 7 12 16 9 21 -3 5 2 12 10 15 9 3 14 10 11 14
-3 5 1 12 9 17 8 4 14 10 13 13 -2 10 28 70 36 70 5 0 6 4 2 10 -3 5 2 18 12
28 10 10 20 27 21 37 2 11 10 27 17 35 7 8 10 21 8 28 -3 6 -1 12 5 12 15 0
33 48 19 54 -7 2 -4 5 7 5 12 1 16 6 12 16 -3 9 0 15 9 15 8 0 12 6 9 14 -3 8
0 17 5 21 6 3 9 11 6 16 -4 5 -1 9 5 9 6 0 10 8 8 18 -2 9 2 16 8 15 7 -1 10
6 7 17 -3 11 0 20 6 20 6 0 11 9 11 20 0 11 4 28 9 38 11 20 23 52 27 71 1 8
9 18 16 22 11 7 10 9 -1 9 -10 0 -11 3 -2 13 6 8 8 17 4 20 -3 4 -1 7 6 7 7 0
10 4 6 9 -3 5 -1 12 4 15 5 4 8 17 7 31 -2 13 0 22 4 20 5 -3 11 2 14 11 4 10
2 13 -7 8 -9 -6 -9 -4 -1 7 6 8 10 22 9 32 -2 9 0 15 5 12 4 -3 11 2 14 11 4
10 2 13 -7 8 -9 -6 -9 -5 0 7 6 8 10 27 9 42 -2 19 0 24 8 18 8 -7 11 7 11 49
0 32 3 56 6 54 10 -6 16 17 14 49 -1 15 3 27 9 27 6 0 4 5 -4 10 -8 5 -10 10
-5 10 10 0 12 10 17 113 2 45 6 56 17 52 11 -4 10 0 -3 14 -13 15 -14 20 -4
24 9 4 10 6 1 6 -9 1 -10 8 -3 26 6 15 6 26 0 30 -7 4 -6 13 0 25 7 13 6 20
-3 23 -9 4 -8 6 2 6 11 1 11 4 1 16 -9 11 -9 15 -1 15 9 0 9 5 0 21 -8 15 -8
19 0 15 8 -5 8 0 2 16 -4 13 -8 41 -7 63 1 22 -2 42 -6 45 -4 3 -9 29 -10 57
-2 28 -6 49 -10 47 -4 -3 -6 4 -6 13 1 10 -5 38 -12 63 -8 25 -14 53 -13 62 0
10 -4 15 -8 12 -9 -5 -13 9 -10 34 1 6 -2 12 -6 12 -5 0 -9 9 -10 21 -1 12
-10 28 -20 36 -10 8 -11 11 -3 7 13 -7 13 -5 1 9 -7 9 -10 17 -5 17 5 0 5 4
-1 8 -5 4 -17 16 -25 26 -13 18 -13 19 0 12 8 -4 6 1 -5 11 -11 10 -21 25 -23
33 -2 8 -8 17 -13 18 -5 2 -9 10 -9 18 0 8 -5 14 -11 14 -5 0 -7 5 -4 10 3 6
1 10 -5 10 -6 0 -8 4 -5 10 3 6 -1 7 -10 4 -9 -4 -15 -3 -14 2 4 21 -2 34 -15
34 -8 0 -17 12 -20 26 -4 15 -10 24 -13 21 -7 -8 -33 18 -33 33 0 6 -4 9 -9 6
-5 -3 -12 1 -15 10 -3 8 -11 12 -17 8 -7 -4 -9 -3 -6 2 3 6 2 16 -4 24 -6 10
-9 11 -9 3 0 -7 -13 1 -28 17 -16 16 -32 27 -35 23 -4 -3 -9 2 -13 11 -3 9
-12 16 -20 16 -8 0 -14 5 -14 10 0 6 -7 10 -15 10 -8 0 -15 5 -15 11 0 6 -6 9
-14 6 -8 -3 -17 1 -20 10 -4 9 -9 13 -13 9 -4 -3 -18 4 -31 16 -14 13 -22 17
-18 11 4 -7 2 -13 -3 -13 -6 0 -11 5 -11 10 0 6 -6 10 -12 10 -7 0 -26 7 -42
15 -16 9 -40 16 -53 17 -12 1 -23 6 -23 11 0 5 -7 7 -15 3 -8 -3 -15 -2 -15 3
0 14 -48 19 -60 7 -8 -8 -10 -7 -5 5 4 12 -1 15 -25 13 -16 -1 -30 2 -30 8 0
5 -10 6 -21 3 -12 -4 -19 -3 -16 2 3 4 -17 8 -44 7 -27 0 -49 3 -49 8 0 4 -11
3 -25 -2 -14 -5 -25 -6 -25 -1 0 4 -32 9 -72 10 -39 1 -76 5 -82 8 -5 4 -7 -1
-3 -13 7 -18 7 -18 -8 0 -8 11 -15 14 -15 8 0 -10 -5 -10 -20 -2 -14 8 -20 8
-20 0z"/>
<path d="M4785 2348 c-11 -12 -14 -18 -7 -13 11 6 11 3 0 -16 -7 -13 -17 -27
-22 -30 -5 -4 -5 -12 -1 -19 5 -8 4 -11 -2 -7 -6 4 -17 -1 -24 -10 -8 -9 -9
-14 -2 -10 8 5 8 1 0 -17 -7 -13 -15 -22 -19 -20 -7 4 -10 -10 -7 -32 0 -3 -8
-13 -18 -22 -10 -9 -19 -24 -21 -32 -2 -8 -8 -17 -13 -18 -5 -2 -7 -8 -3 -13
3 -5 1 -9 -4 -9 -6 0 -13 -11 -16 -25 -4 -14 -11 -23 -16 -20 -6 3 -11 1 -11
-4 -1 -6 -3 -15 -4 -21 -1 -5 -3 -14 -4 -20 0 -5 -8 -10 -17 -10 -8 0 -13 -4
-9 -9 3 -5 0 -13 -6 -16 -5 -4 -8 -14 -5 -22 4 -8 1 -11 -5 -8 -6 4 -13 -2
-16 -14 -3 -12 -9 -21 -14 -21 -5 0 -9 -7 -9 -15 0 -7 -8 -19 -17 -24 -10 -6
-14 -11 -9 -11 5 0 2 -7 -5 -16 -7 -9 -18 -26 -24 -38 -7 -11 -17 -20 -25 -18
-8 2 -10 -3 -7 -13 4 -8 2 -15 -4 -15 -6 0 -8 -4 -5 -9 3 -5 -1 -11 -9 -15 -8
-3 -15 -13 -15 -21 0 -9 -4 -14 -9 -11 -5 3 -12 -6 -15 -19 -4 -14 -11 -23
-16 -20 -6 3 -10 -1 -10 -9 0 -8 -9 -21 -20 -29 -11 -8 -17 -17 -14 -20 4 -3
0 -13 -9 -21 -8 -8 -18 -12 -21 -8 -4 3 -4 -2 0 -12 5 -14 4 -17 -4 -12 -7 4
-12 1 -12 -8 0 -9 -5 -16 -12 -16 -6 0 -9 -3 -5 -6 9 -9 -25 -44 -36 -37 -6 3
-7 1 -3 -6 4 -6 1 -14 -8 -17 -9 -3 -12 -12 -9 -21 4 -9 2 -14 -3 -11 -5 3
-18 -4 -29 -15 -12 -12 -14 -17 -5 -13 8 4 0 -6 -17 -22 -18 -15 -33 -34 -33
-40 0 -7 -7 -12 -15 -12 -8 0 -14 -3 -13 -7 3 -17 -15 -43 -25 -36 -6 4 -8 0
-4 -10 3 -9 3 -16 -1 -16 -4 1 -14 1 -22 0 -13 -1 -13 -2 0 -11 13 -8 13 -10
-1 -10 -17 0 -34 -27 -30 -45 2 -5 -1 -7 -5 -3 -9 10 -35 -12 -28 -23 3 -5 2
-9 -3 -8 -20 3 -34 -2 -28 -11 3 -5 1 -10 -5 -10 -6 0 -8 -4 -5 -10 3 -5 -1
-10 -9 -10 -9 0 -16 -6 -16 -12 0 -17 -82 -94 -95 -90 -5 2 -7 0 -3 -4 4 -4
-5 -18 -20 -32 -15 -14 -26 -30 -24 -35 1 -5 -2 -6 -7 -3 -13 8 -34 -21 -25
-35 4 -8 3 -9 -4 -5 -13 8 -92 -65 -92 -86 0 -10 -3 -9 -10 2 -9 13 -14 7 -11
-12 0 -5 -3 -8 -9 -8 -5 0 -28 -18 -49 -39 -22 -22 -42 -37 -44 -34 -3 2 -8
-4 -11 -15 -4 -11 -16 -22 -27 -25 -13 -4 -18 -10 -13 -18 4 -7 3 -10 -4 -5
-6 3 -16 -3 -22 -14 -6 -11 -16 -20 -23 -20 -7 0 -19 -9 -27 -19 -7 -11 -17
-18 -22 -15 -4 3 -8 -2 -8 -11 0 -9 -4 -13 -10 -10 -5 3 -10 1 -10 -4 0 -6 -7
-11 -15 -11 -8 0 -15 -5 -15 -11 0 -5 5 -7 12 -3 7 4 8 3 4 -4 -4 -6 -14 -8
-23 -5 -11 4 -14 3 -9 -5 6 -11 -6 -16 -19 -9 -2 1 -12 -8 -20 -21 -9 -12 -21
-19 -27 -16 -6 4 -9 3 -6 -2 3 -5 -3 -17 -14 -27 -12 -11 -18 -13 -18 -5 -1 7
-6 3 -13 -9 -7 -12 -16 -22 -22 -22 -5 -1 -10 -5 -10 -10 0 -5 -4 -13 -9 -18
-5 -5 -6 -3 -2 5 4 6 3 12 -3 12 -6 0 -15 -9 -21 -20 -6 -11 -14 -19 -19 -17
-5 1 -18 -9 -30 -22 -12 -13 -21 -19 -21 -12 0 9 -4 8 -14 -1 -8 -7 -12 -16
-9 -20 2 -4 -4 -5 -13 -1 -12 4 -15 3 -10 -5 5 -8 0 -12 -14 -12 -12 0 -19 -4
-15 -9 3 -5 -4 -12 -15 -16 -11 -3 -20 -10 -20 -15 0 -5 -8 -7 -17 -4 -17 5
-17 5 0 -9 9 -8 17 -20 17 -27 0 -10 3 -10 15 0 12 10 15 10 15 0 0 -7 7 -10
15 -6 9 3 18 -1 22 -9 4 -12 9 -13 19 -4 11 9 14 8 14 -4 0 -11 6 -14 15 -11
8 4 22 1 29 -5 8 -7 25 -14 38 -15 26 -4 55 -13 79 -26 10 -5 21 -4 29 3 10 9
12 9 7 -4 -4 -12 1 -15 24 -14 17 1 32 -2 35 -7 3 -4 10 -6 15 -3 5 4 9 2 9
-3 0 -5 10 -8 22 -7 13 1 41 -4 63 -10 22 -7 43 -13 48 -14 4 0 8 -1 10 -2 1
0 22 -2 47 -5 62 -6 73 -8 89 -18 10 -6 12 -5 7 2 -5 8 -2 10 8 6 9 -3 14 -10
11 -14 -2 -4 91 -8 208 -8 132 -1 206 2 197 8 -8 5 -12 12 -8 15 3 3 13 -1 22
-10 14 -15 16 -15 16 -1 0 17 20 18 32 1 5 -6 8 -5 8 3 0 7 13 12 30 12 17 0
30 4 30 9 0 5 18 8 40 7 22 -2 40 1 40 5 0 4 15 11 33 14 17 4 38 12 45 18 7
5 15 7 18 4 4 -3 13 1 22 9 11 12 17 12 22 4 6 -9 11 -7 18 6 6 11 12 18 14
16 6 -7 58 10 58 19 0 5 8 9 18 9 10 0 27 8 38 18 11 10 26 16 33 14 8 -3 11
0 8 6 -4 5 7 15 23 22 17 7 30 16 30 21 0 5 6 8 13 7 6 -2 11 3 9 11 -2 9 3
11 14 7 12 -4 15 -2 10 9 -3 8 -2 14 2 13 14 -4 52 23 47 33 -4 5 -3 8 2 7 4
-2 35 24 68 57 33 32 53 56 45 51 -9 -4 -8 -1 3 7 9 8 17 19 17 26 0 6 4 11 9
11 5 0 13 9 16 20 3 11 13 20 20 20 9 0 12 6 9 15 -4 8 -1 15 6 15 6 0 8 4 5
10 -3 6 -1 10 4 10 6 0 11 7 11 15 0 8 5 15 10 15 6 0 10 3 9 8 -2 15 14 52
23 52 6 0 8 6 5 14 -3 8 1 20 9 27 8 6 12 14 10 17 -3 2 1 16 8 31 7 14 12 34
11 44 -2 9 1 15 6 11 9 -5 12 4 12 39 0 9 3 17 7 17 4 0 7 6 8 13 7 62 12 81
23 88 11 7 11 9 1 9 -9 0 -10 5 -4 18 5 9 8 29 7 45 -1 15 2 27 8 27 5 0 3 8
-4 17 -10 12 -11 15 -1 9 9 -6 11 -1 8 18 -3 16 0 26 7 26 7 0 6 4 -3 10 -13
9 -13 10 0 10 12 0 13 2 1 9 -8 5 -10 14 -6 21 10 17 12 170 2 170 -4 0 -3 9
3 19 7 13 7 22 0 26 -15 9 -12 27 3 19 6 -4 4 2 -6 13 -14 16 -15 23 -6 29 8
5 10 3 4 -6 -5 -8 -4 -11 3 -6 7 4 7 13 -2 31 -7 13 -12 40 -11 59 1 20 -2 36
-8 36 -5 0 -4 6 2 14 9 11 9 15 0 18 -7 2 -13 25 -14 54 -2 27 -6 56 -9 66 -4
9 -9 31 -10 50 -2 18 -7 32 -12 31 -5 -1 -9 17 -9 40 0 23 -3 45 -7 48 -4 3
-9 17 -10 31 -1 15 -6 24 -10 22 -8 -5 -13 35 -9 65 2 7 -2 10 -8 6 -10 -5
-16 22 -12 48 0 4 -3 7 -9 7 -5 0 -10 5 -10 11 0 5 6 7 13 4 6 -4 5 -1 -4 7
-9 7 -14 19 -11 27 3 9 0 11 -8 6 -10 -6 -12 -4 -7 7 3 9 -2 26 -10 39 -10 13
-11 19 -4 14 8 -4 6 4 -4 19 -10 14 -13 26 -9 26 5 0 5 4 -1 8 -5 4 -16 18
-23 31 -11 19 -11 22 0 15 10 -6 11 -5 1 8 -7 8 -10 18 -6 21 3 4 -2 7 -11 7
-13 0 -17 6 -13 20 7 25 -2 25 -28 -2z m-1125 -2314 c0 -2 -11 -3 -24 -2 -14
1 -23 5 -20 9 4 7 44 0 44 -7z"/>
<path d="M3859 1063 c-13 -16 -12 -17 4 -4 9 7 17 15 17 17 0 8 -8 3 -21 -13z"/>
</g>
</svg>
