<svg width="28" height="20" viewBox="0 0 28 20" fill="none" xmlns="http://www.w3.org/2000/svg">
<rect width="28" height="20" rx="2" fill="white"/>
<mask id="mask0_145_6484" style="mask-type:alpha" maskUnits="userSpaceOnUse" x="0" y="0" width="28" height="20">
<rect width="28" height="20" rx="2" fill="white"/>
</mask>
<g mask="url(#mask0_145_6484)">
<rect width="28" height="20" fill="#0A17A7"/>
<path fill-rule="evenodd" clip-rule="evenodd" d="M-1.28247 -1.9165L10.6667 6.14329V-1.33374H17.3333V6.14329L29.2825 -1.9165L30.7737 0.294262L21.3268 6.66626H28V13.3329H21.3257L30.7737 19.7056L29.2825 21.9164L17.3333 13.8566V21.3329H10.6667V13.8566L-1.28247 21.9164L-2.77365 19.7056L6.67426 13.3329H3.8147e-06V6.66626H6.67322L-2.77365 0.294263L-1.28247 -1.9165Z" fill="white"/>
<path d="M18.668 6.33171L31.3333 -2.00049" stroke="#DB1F35" stroke-width="0.666667" stroke-linecap="round"/>
<path d="M20.0128 13.6978L31.3666 21.3506" stroke="#DB1F35" stroke-width="0.666667" stroke-linecap="round"/>
<path d="M8.00553 6.31006L-3.83749 -1.67139" stroke="#DB1F35" stroke-width="0.666667" stroke-linecap="round"/>
<path d="M9.29004 13.605L-3.83749 22.3105" stroke="#DB1F35" stroke-width="0.666667" stroke-linecap="round"/>
<path fill-rule="evenodd" clip-rule="evenodd" d="M0 12H12V20H16V12H28V8H16V0H12V8H0V12Z" fill="#E6273E"/>
</g>
</svg>
