<svg width="28" height="20" viewBox="0 0 28 20" fill="none" xmlns="http://www.w3.org/2000/svg">
<rect width="28" height="20" rx="2" fill="white"/>
<mask id="mask0_145_6494" style="mask-type:alpha" maskUnits="userSpaceOnUse" x="0" y="0" width="28" height="20">
<rect width="28" height="20" rx="2" fill="white"/>
</mask>
<g mask="url(#mask0_145_6494)">
<path fill-rule="evenodd" clip-rule="evenodd" d="M28 0H13.3333V1.33333H28V0ZM28 2.66687H13.3333V4.0002H28V2.66687ZM13.3333 5.33374H28V6.66707H13.3333V5.33374ZM28 7.99976H13.3333V9.33309H28V7.99976ZM0 10.6667H28V12H0V10.6667ZM28 13.3333H0V14.6667H28V13.3333ZM0 16.0004H28V17.3337H0V16.0004ZM28 18.6664H0V19.9997H28V18.6664Z" fill="#E1244A"/>
<rect width="16" height="10.6667" fill="#0C3F8E"/>
<path fill-rule="evenodd" clip-rule="evenodd" d="M6.66666 9.33301C7.61177 9.33301 8.48032 9.00523 9.16484 8.45715C8.80224 8.5924 8.40975 8.66634 7.99999 8.66634C6.15904 8.66634 4.66666 7.17396 4.66666 5.33301C4.66666 3.49206 6.15904 1.99967 7.99999 1.99967C8.40974 1.99967 8.80223 2.07361 9.16484 2.20886C8.48032 1.66079 7.61177 1.33301 6.66666 1.33301C4.45752 1.33301 2.66666 3.12387 2.66666 5.33301C2.66666 7.54215 4.45752 9.33301 6.66666 9.33301ZM9.50961 7.73527L10.6666 6.42602L11.8237 7.73527L11.5214 6.01436L13.2664 5.92607L11.7326 5.08939L12.7515 3.67004L11.141 4.34762L10.6666 2.66602L10.1923 4.34762L8.58175 3.67004L9.60071 5.08939L8.06683 5.92607L9.81183 6.01436L9.50961 7.73527Z" fill="#FFD34F"/>
</g>
</svg>
