<svg width="180" height="60" viewBox="0 0 180 60" fill="none" xmlns="http://www.w3.org/2000/svg">
<path d="M76.977 37.455H75.156V36.72H79.641V37.455H77.817V42.579H76.977V37.455ZM80.463 36.72H81.897C83.058 36.72 84.174 36.903 84.174 38.307C84.174 39.018 83.643 39.525 82.965 39.642V39.66C83.223 39.759 83.349 39.888 83.535 40.245L84.642 42.579H83.685L82.788 40.545C82.527 39.972 82.248 39.972 81.801 39.972H81.3V42.579H80.46V36.72H80.463ZM81.303 39.237H82.017C82.815 39.237 83.283 38.886 83.283 38.322C83.283 37.794 82.881 37.458 82.107 37.458H81.3V39.237H81.303ZM87.876 36.72H88.758L91.236 42.579H90.318L89.721 41.103H86.853L86.256 42.579H85.374L87.876 36.72ZM88.287 37.509L87.123 40.416H89.457L88.287 37.509ZM92.076 36.72H93.807C95.547 36.72 96.933 37.794 96.933 39.597C96.933 41.565 95.739 42.579 93.807 42.579H92.076V36.72ZM92.916 41.838H93.798C95.241 41.838 96.042 41.142 96.042 39.633C96.042 38.262 95.106 37.455 93.897 37.455H92.916V41.838ZM98.115 36.72H101.4V37.455H98.955V39.171H101.178V39.909H98.955V41.838H101.4V42.579H98.115V36.72ZM104.748 36.72H105.672L107.076 41.739H107.091L108.342 36.72H109.533L110.802 41.739H110.817L112.221 36.72H113.112L111.303 42.579H110.223L108.948 37.455H108.93L107.646 42.579H106.521L104.748 36.72ZM114.087 36.72H114.93V42.579H114.087V36.72ZM117.789 37.455H115.968V36.72H120.45V37.455H118.629V42.579H117.789V37.455ZM121.542 36.72H122.382V39.171H125.19V36.72H126.027V42.579H125.19V39.909H122.382V42.579H121.542V36.72ZM134.358 37.683C133.989 37.467 133.578 37.356 133.149 37.356C131.796 37.356 130.899 38.331 130.899 39.645C130.899 41.022 131.889 41.94 133.104 41.94C133.524 41.94 134.091 41.829 134.382 41.655L134.433 42.468C133.986 42.651 133.44 42.678 133.098 42.678C131.241 42.678 130.005 41.487 130.005 39.621C130.005 37.818 131.316 36.615 133.101 36.615C133.56 36.615 134.004 36.681 134.424 36.867L134.358 37.683ZM137.844 36.618C139.626 36.618 140.667 37.911 140.667 39.648C140.667 41.43 139.635 42.678 137.844 42.678C136.056 42.678 135.021 41.427 135.021 39.648C135.021 37.911 136.065 36.618 137.844 36.618ZM137.844 41.943C139.197 41.943 139.776 40.815 139.776 39.648C139.776 38.457 139.137 37.347 137.844 37.359C136.554 37.347 135.915 38.457 135.915 39.648C135.915 40.812 136.494 41.943 137.844 41.943Z" fill="#2257A7"/>
<path d="M141.891 36.72H143.034L145.62 41.436H145.638V36.72H146.475V42.579H145.398L142.746 37.761H142.731V42.579H141.891V36.72ZM147.954 36.72H151.068V37.455H148.797V39.171H150.969V39.909H148.797V42.579H147.954V36.72ZM152.244 36.72H153.084V42.579H152.244V36.72ZM154.563 36.72H156.294C158.031 36.72 159.417 37.794 159.417 39.597C159.417 41.565 158.226 42.579 156.294 42.579H154.563V36.72ZM155.403 41.838H156.285C157.728 41.838 158.523 41.142 158.523 39.633C158.523 38.262 157.593 37.455 156.384 37.455H155.403V41.838ZM160.599 36.72H163.884V37.455H161.442V39.171H163.665V39.909H161.442V41.838H163.884V42.579H160.599V36.72ZM165.252 36.72H166.392L168.981 41.436H168.999V36.72H169.836V42.579H168.765L166.11 37.761H166.092V42.579H165.252V36.72ZM175.41 37.683C175.044 37.467 174.63 37.356 174.204 37.356C172.851 37.356 171.954 38.331 171.954 39.645C171.954 41.022 172.944 41.94 174.159 41.94C174.579 41.94 175.14 41.829 175.434 41.655L175.488 42.468C175.041 42.651 174.495 42.678 174.15 42.678C172.296 42.678 171.06 41.487 171.06 39.621C171.06 37.818 172.368 36.615 174.156 36.615C174.609 36.615 175.059 36.681 175.476 36.867L175.41 37.683ZM176.574 36.72H179.856V37.455H177.411V39.171H179.637V39.909H177.411V41.838H179.856V42.579H176.574V36.72Z" fill="#2257A7"/>
<path d="M14.823 17.214L0.143982 42.636H7.54498L14.952 29.808L22.359 42.636H29.76L15.084 17.214H14.823ZM52.284 17.214L37.605 42.636H45.009L52.416 29.808L59.82 42.636H67.224L52.548 17.214H52.284ZM41.091 17.214L33.684 30.042L26.277 17.214H18.876L33.684 42.867L48.495 17.214H41.091ZM136.353 21.225C136.353 19.83 135.714 18.687 134.547 18.024C133.587 17.475 132.489 17.268 130.548 17.268H125.841V32.511H128.403V25.476H129.768L134.481 32.514H137.271L132.234 25.197C132.297 25.185 132.255 25.185 132.255 25.185C134.994 24.843 136.353 23.37 136.353 21.225ZM133.656 21.315C133.656 23.487 132.468 24.675 130.296 24.675H128.4V18.048H130.161C131.094 18.048 131.781 18.186 132.312 18.483C133.176 18.963 133.656 19.992 133.656 21.315Z" fill="#2882C0"/>
<path d="M111.537 17.271V18.117H116.952V32.514H119.514V18.117H124.908V17.271H111.537ZM146.883 17.133H145.65L138.975 32.514H140.667L142.542 27.555H148.53L150.519 32.514H153.351L146.883 17.133ZM142.863 26.709L145.443 19.854L148.188 26.709H142.863ZM164.664 18.345C163.176 17.499 161.895 17.271 158.832 17.271H154.629V32.514H158.352C161.733 32.514 163.038 32.283 164.613 31.371C166.764 30.159 167.907 27.852 167.907 24.744C167.91 21.843 166.722 19.488 164.664 18.345ZM163.749 29.928C162.696 31.209 161.325 31.689 158.673 31.689H157.188V18.093H158.973C160.983 18.093 162.24 18.435 163.2 19.257C164.478 20.331 165.141 22.272 165.141 24.924C165.144 27.12 164.664 28.788 163.749 29.928ZM179.496 17.271H169.989V32.514H179.856V31.668H172.548V25.086H178.737V24.24H172.548V18.117H179.496V17.271Z" fill="#2882C0"/>
<path d="M83.445 17.133H82.212L75.54 32.514H77.229L79.104 27.555H85.092L87.078 32.514H89.916L83.445 17.133ZM79.425 26.709L82.008 19.854L84.75 26.709H79.425ZM93.546 32.673H94.872L101.205 17.271H99.492L95.055 29.748L90.231 17.271H87.42L93.546 32.673ZM106.05 17.133H104.817L98.142 32.514H99.834L101.709 27.555H107.697L109.683 32.514H112.521L106.05 17.133ZM102.027 26.709L104.607 19.854L107.352 26.709H102.027Z" fill="#2257A7"/>
</svg>
