<svg xmlns="http://www.w3.org/2000/svg" xmlns:xlink="http://www.w3.org/1999/xlink" viewBox="0 0 4294.2 862.6"><defs><style>.cls-1{fill:#fff;}.cls-2{fill:url(#Naamloos_verloop_9);}.cls-3{fill:url(#Naamloos_verloop_15);}</style><linearGradient id="Naamloos_verloop_9" x1="-16.73" y1="565.53" x2="591.33" y2="214.47" gradientUnits="userSpaceOnUse"><stop offset="0" stop-color="#fff" stop-opacity="0.1"/><stop offset="1" stop-color="#fff"/></linearGradient><linearGradient id="Naamloos_verloop_15" x1="470.8" y1="606.49" x2="-97.89" y2="399.5" gradientUnits="userSpaceOnUse"><stop offset="0" stop-color="#fff" stop-opacity="0.3"/><stop offset="1" stop-color="#fff"/></linearGradient></defs><g id="Laag_2" data-name="Laag 2"><g id="Logo_kleur" data-name="Logo kleur"><path class="cls-1" d="M841.2,622.8c-19,0-37.9-.6-56.7-1.7a395.7,395.7,0,0,1-58.8-8.3v-336a499.5,499.5,0,0,1,52.5-6.7c19-1.5,36.7-2.3,53-2.3a357.9,357.9,0,0,1,60.8,4.8c18.5,3.1,34.4,8.6,47.7,16.2A85.9,85.9,0,0,1,971,319.1c7.5,12.5,11.2,27.9,11.2,46.2q0,41.6-40,65.5,33,12.6,45,34c8,14.4,12,30.5,12,48.5q0,54.6-39.7,82T841.2,622.8Zm-39.5-215h38q36,0,51.5-9.2c10.3-6.2,15.5-16.1,15.5-29.8s-5.3-23.8-16-29.5-26.3-8.5-47-8.5l-21.5.3c-7.7.1-14.5.6-20.5,1.2Zm0,59.5v89.5c5.7.7,11.8,1.2,18.5,1.5s14,.5,22,.5c23.3,0,42.2-3.3,56.5-10s21.5-19,21.5-37q0-24-18-34.2t-51.5-10.3Z"/><path class="cls-1" d="M1200.2,421.3c-6.7-1.6-14.5-3.4-23.5-5.2a140.6,140.6,0,0,0-29-2.8,122.7,122.7,0,0,0-16.7,1.3,95.6,95.6,0,0,0-14.8,2.7v201h-74.5v-249a445,445,0,0,1,47.3-13.2c18.1-4.2,38.4-6.3,60.7-6.3,4,0,8.8.3,14.5.8s11.3,1.1,17,2,11.3,1.8,17,3a79.4,79.4,0,0,1,14.5,4.2Z"/><path class="cls-1" d="M1478.7,486.3q0,31.1-9,56.8a124.7,124.7,0,0,1-26,44,116.7,116.7,0,0,1-40.7,28.2c-15.9,6.7-33.6,10-53.3,10s-36.9-3.3-52.7-10a116.2,116.2,0,0,1-40.8-28.2,130.3,130.3,0,0,1-26.5-44q-9.5-25.8-9.5-56.8c0-20.6,3.3-39.5,9.8-56.5s15.5-31.5,27-43.5a121.1,121.1,0,0,1,41-28,132.7,132.7,0,0,1,51.7-10,135,135,0,0,1,52.3,10,118.9,118.9,0,0,1,40.7,28,127.1,127.1,0,0,1,26.5,43.5C1475.5,446.8,1478.7,465.7,1478.7,486.3Zm-76,0q0-34.5-13.7-54.2t-39.3-19.8c-17,0-30.2,6.6-39.5,19.8s-14,31.2-14,54.2,4.7,41.3,14,54.8,22.5,20.2,39.5,20.2,30.1-6.7,39.3-20.2S1402.7,509.3,1402.7,486.3Z"/><path class="cls-1" d="M1595.7,449.8l22.7-24.9c7.8-8.6,15.4-17.1,22.8-25.6l20.7-24.1c6.5-7.6,12.1-14.2,16.7-19.9h88.6q-26.5,30.4-51.7,58.1c-16.9,18.5-35.3,37.5-55.3,57.2a347.7,347.7,0,0,1,31,32.3q16,18.8,31,38.8t27.5,40.1c8.3,13.3,15.3,25.5,21,36.5H1685c-5.3-8.7-11.4-18.3-18.2-28.8s-14-21.1-21.7-31.6-15.7-20.6-24.2-30.3a205.9,205.9,0,0,0-25.2-24.6V618.3h-74.5v-376l74.5-12Z"/><path class="cls-1" d="M1765.2,488.8q0-34.9,10.7-61.2t28.3-43.8a119.3,119.3,0,0,1,40.2-26.5,126.4,126.4,0,0,1,46.8-9q56,0,88.5,34.3t32.5,100.7c0,4.4-.2,9.1-.5,14.3s-.7,9.7-1,13.7h-169c1.7,15.4,8.8,27.5,21.5,36.5s29.7,13.5,51,13.5a214,214,0,0,0,40.2-3.7c13.2-2.5,24-5.6,32.3-9.3l10,60.5a101.6,101.6,0,0,1-16,6,209.9,209.9,0,0,1-22.3,5.3c-8.1,1.5-16.9,2.7-26.2,3.7a262.6,262.6,0,0,1-28,1.5q-35.5,0-61.8-10.5t-43.5-28.7a114.3,114.3,0,0,1-25.5-43.3Q1765.2,517.9,1765.2,488.8Zm175-28.5a72.6,72.6,0,0,0-3.3-18.5,44.8,44.8,0,0,0-23-27.5c-5.8-3-13-4.5-21.7-4.5s-15.5,1.4-21.5,4.3a44.7,44.7,0,0,0-15,11.2,51.3,51.3,0,0,0-9.3,16.3,111.3,111.3,0,0,0-4.7,18.7Z"/><path class="cls-1" d="M2213.2,421.3c-6.7-1.6-14.5-3.4-23.5-5.2a140.6,140.6,0,0,0-29-2.8,124.1,124.1,0,0,0-16.8,1.3,93.9,93.9,0,0,0-14.7,2.7v201h-74.5v-249a449.5,449.5,0,0,1,47.2-13.2q27.3-6.3,60.8-6.3c4,0,8.8.3,14.5.8s11.3,1.1,17,2,11.3,1.8,17,3a79.4,79.4,0,0,1,14.5,4.2Z"/><path class="cls-1" d="M2559.2,444.8q0,45-14,78.5t-39.8,55.5q-25.7,22.1-62.7,33c-24.7,7.3-52.3,11-83,11-14,0-30.3-.6-49-1.7a399.7,399.7,0,0,1-55-7.3V276.3a452.4,452.4,0,0,1,56.2-6.7c19.5-1.2,36.3-1.8,50.3-1.8,29.7,0,56.6,3.4,80.7,10s45,17.2,62.3,31.5,30.7,32.7,40,55S2559.2,413.5,2559.2,444.8Zm-225.5,110c3.7.4,7.9.6,12.7.8l17.3.2q58.5,0,86.7-29.5t28.3-81.5q0-54.4-27-82.5c-18-18.6-46.5-28-85.5-28l-16.5.3a155.7,155.7,0,0,0-16,1.2Z"/><path class="cls-1" d="M2698.7,348.3q33,0,55,7.5c14.7,5,26.4,12.2,35.2,21.5a79.3,79.3,0,0,1,18.8,34c3.7,13.4,5.5,28.2,5.5,44.5v155c-10.7,2.4-25.5,5.1-44.5,8.3s-42,4.7-69,4.7a219.7,219.7,0,0,1-46.3-4.5q-20.7-4.5-35.7-14.7a67.8,67.8,0,0,1-23-26.8c-5.3-11-8-24.5-8-40.5s3.1-28.3,9.2-39a73,73,0,0,1,24.8-25.5,111.8,111.8,0,0,1,35.5-13.7,194.7,194.7,0,0,1,41.5-4.3,217.9,217.9,0,0,1,25.7,1.3,116.8,116.8,0,0,1,18.3,3.2v-7c0-12.6-3.8-22.8-11.5-30.5s-21-11.5-40-11.5a245.3,245.3,0,0,0-37.5,2.8,161.6,161.6,0,0,0-32,7.7l-9.5-60q6.5-1.9,16.2-4.2c6.5-1.5,13.6-2.9,21.3-4s15.7-2.2,24.2-3A244.9,244.9,0,0,1,2698.7,348.3Zm6,218c7.3,0,14.3-.1,21-.5a130.5,130.5,0,0,0,16-1.5V507.8c-3-.6-7.5-1.3-13.5-2s-11.5-1-16.5-1a138.2,138.2,0,0,0-19.8,1.3,52.1,52.1,0,0,0-16.2,4.7,28.4,28.4,0,0,0-11,9.5c-2.7,4-4,9-4,15q0,17.6,11.7,24.3C2680.3,564.1,2691,566.3,2704.7,566.3Z"/><path class="cls-1" d="M2863.2,289.8l74.5-12v77.5h89.5v62h-89.5v92.5c0,15.7,2.7,28.2,8.2,37.5s16.6,14,33.3,14a141.6,141.6,0,0,0,24.7-2.2,125.4,125.4,0,0,0,23.3-6.3l10.5,58a199.8,199.8,0,0,1-30,9.5c-11,2.7-24.5,4-40.5,4-20.3,0-37.2-2.7-50.5-8.2s-24-13.2-32-23-13.6-21.8-16.8-35.8a215.3,215.3,0,0,1-4.7-46.5Z"/><path class="cls-1" d="M3157.2,348.3q33,0,55,7.5c14.7,5,26.4,12.2,35.2,21.5a79.3,79.3,0,0,1,18.8,34c3.7,13.4,5.5,28.2,5.5,44.5v155c-10.7,2.4-25.5,5.1-44.5,8.3s-42,4.7-69,4.7a219.7,219.7,0,0,1-46.3-4.5q-20.7-4.5-35.7-14.7a67.8,67.8,0,0,1-23-26.8c-5.3-11-8-24.5-8-40.5s3.1-28.3,9.2-39a73,73,0,0,1,24.8-25.5,111.8,111.8,0,0,1,35.5-13.7,194.7,194.7,0,0,1,41.5-4.3,217.9,217.9,0,0,1,25.7,1.3,116.8,116.8,0,0,1,18.3,3.2v-7c0-12.6-3.8-22.8-11.5-30.5s-21-11.5-40-11.5a245.3,245.3,0,0,0-37.5,2.8,161.6,161.6,0,0,0-32,7.7l-9.5-60q6.5-1.9,16.2-4.2c6.5-1.5,13.6-2.9,21.3-4s15.7-2.2,24.2-3A244.9,244.9,0,0,1,3157.2,348.3Zm6,218c7.3,0,14.3-.1,21-.5a130.5,130.5,0,0,0,16-1.5V507.8c-3-.6-7.5-1.3-13.5-2s-11.5-1-16.5-1a138.2,138.2,0,0,0-19.8,1.3,52.1,52.1,0,0,0-16.2,4.7,28.4,28.4,0,0,0-11,9.5c-2.7,4-4,9-4,15q0,17.6,11.7,24.3C3138.8,564.1,3149.5,566.3,3163.2,566.3Z"/><path class="cls-1" d="M3378.2,596.8c0,7.7-2.4,14.2-7.3,19.5s-11.5,8-20.2,8-15.4-2.7-20.3-8a28,28,0,0,1-7.2-19.5,28.3,28.3,0,0,1,7.2-19.5c4.9-5.3,11.6-8,20.3-8s15.4,2.7,20.2,8A28,28,0,0,1,3378.2,596.8Z"/><path class="cls-1" d="M3470.7,359.8h103v27.5h-103V524.8c0,14.7,1.2,26.6,3.7,35.8s6.1,16.2,10.8,21.2a33.2,33.2,0,0,0,17,10,88.7,88.7,0,0,0,22,2.5c13.6,0,24.6-1.6,33-4.7a146.8,146.8,0,0,0,19.5-8.8l8,27c-4.7,3-12.9,6.4-24.5,10.3a122.5,122.5,0,0,1-38,5.7c-16,0-29.4-2.1-40.3-6.2s-19.5-10.5-26-19-11.1-19.1-13.7-31.8-4-27.6-4-45v-238l32.5-6Z"/><path class="cls-1" d="M3603.2,488.8c0-22.6,3.2-42.4,9.7-59.2s15-30.9,25.5-42.3a100.6,100.6,0,0,1,36-25.2,109.7,109.7,0,0,1,41.8-8.3c31.6,0,56.9,10.4,75.7,31s28.3,52.5,28.3,95.5c0,2.7-.1,5.4-.3,8s-.4,5.2-.7,7.5H3637.7q1.5,47.6,23.5,73c14.6,17,38,25.5,70,25.5,17.6,0,31.6-1.6,42-5s17.8-6.1,22.5-8.5l6,28c-4.7,2.7-13.4,5.9-26.3,9.5s-27.9,5.5-45.2,5.5q-34,0-58-10c-16-6.6-29.2-16-39.5-28a108.7,108.7,0,0,1-22.5-42.7Q3603.2,518.4,3603.2,488.8Zm183.5-20.5q-1-40.5-19-63t-51-22.5a69,69,0,0,0-31.3,7,80.7,80.7,0,0,0-24,18.8,88.8,88.8,0,0,0-16,27.2,111.3,111.3,0,0,0-6.7,32.5Z"/><path class="cls-1" d="M3984.7,623.8q-30,0-53-9.5a99.5,99.5,0,0,1-38.3-27.2,122.9,122.9,0,0,1-23.2-42.5c-5.4-16.5-8-34.8-8-54.8s2.7-38.8,8.2-55.5,13.4-31,23.8-43a104.3,104.3,0,0,1,37.5-27.7c14.6-6.5,31.1-9.8,49.5-9.8a210.1,210.1,0,0,1,39.2,3.5c12.2,2.4,21.6,5.4,28.3,9l-8.5,28a108.2,108.2,0,0,0-22.5-8c-8.4-2-19.5-3-33.5-3-28.7,0-50.4,9.3-65.3,27.8s-22.2,44.7-22.2,78.7a165.3,165.3,0,0,0,5,42.3,85,85,0,0,0,16.2,33,77.3,77.3,0,0,0,29,21.5c11.9,5.1,26.3,7.7,43.3,7.7,14,0,25.7-1.6,35.2-4.7s16.4-5.9,20.8-8.3l7,28c-6,3.4-15.4,6.6-28.3,9.8A170.2,170.2,0,0,1,3984.7,623.8Z"/><path class="cls-1" d="M4092.7,618.3v-382l32.5-6v137a196.7,196.7,0,0,1,32.5-9.2,167.9,167.9,0,0,1,33-3.3c20,0,36.6,2.9,50,8.5s24,13.8,32,24.3,13.5,23.1,16.7,37.7a228.5,228.5,0,0,1,4.8,48.5V618.3h-32.5v-134c0-18.3-1.3-33.8-3.8-46.5s-6.7-23-12.5-31a48.4,48.4,0,0,0-23.2-17.2c-9.7-3.5-21.9-5.3-36.5-5.3a120.7,120.7,0,0,0-18.3,1.5c-6.5,1-12.6,2.1-18.2,3.3s-10.8,2.4-15.3,3.7a91.4,91.4,0,0,0-8.7,3V618.3Z"/><path class="cls-2" d="M458.2,234.6c26.9-44.2,43.7-95,43.5-140.5C501.1,8.5,439-24.1,364.6,18.9L124.7,157.4v653L367,670.5v-.7c4.5-2.2,8.9-4.5,13.5-7.1,96.6-55.8,175-191.5,175-303.2C555.5,280.2,515.9,234.4,458.2,234.6Z"/><path class="cls-3" d="M242.4,244c-29.5-29-61.2-53.9-94.3-73L47,112.6c-25.9-15-47-2.8-47,27.2V684.2c0,30,21.1,66.5,47,81.5L148.1,824c33.1,19.1,64.8,30.9,94.3,35.8,109.8,18.6,188.5-56.8,188.5-199S352.2,352.2,242.4,244Z"/></g></g></svg>