<?xml version="1.0" encoding="UTF-8"?><svg id="uuid-7af7569d-941c-44d1-a782-cf9ddbcbc037" xmlns="http://www.w3.org/2000/svg" viewBox="0 0 1731 305"><g><path d="M311.95898,197.54785c-6.87695,0-13.04883-1.05762-18.51465-3.17383-5.46777-2.11621-10.09668-5.22363-13.88574-9.32324-3.79199-4.09961-6.70117-9.10254-8.72852-15.01074-2.0293-5.90527-3.04199-12.69531-3.04199-20.36621,0-7.66992,1.16699-14.45801,3.50488-20.36621,2.33496-5.90527,5.53125-10.91016,9.58789-15.00977,4.05469-4.09961,8.81543-7.20801,14.2832-9.32422,5.46484-2.11523,11.32812-3.17383,17.58887-3.17383,3.79004,0,7.22754,.28711,10.31543,.85938,3.08496,.5752,5.77344,1.21387,8.06738,1.91797,2.29199,.70703,4.18652,1.45508,5.68652,2.24805,1.49805,.79395,2.55664,1.36816,3.17383,1.71973l-4.89258,13.62109c-2.11621-1.32227-5.1377-2.57812-9.05957-3.76855-3.92383-1.19043-8.17871-1.78516-12.7627-1.78516-3.9668,0-7.66992,.68359-11.1084,2.0498-3.43848,1.36719-6.41406,3.41699-8.92676,6.14941-2.5127,2.7334-4.47559,6.17188-5.88477,10.31543-1.41211,4.14551-2.11621,8.94922-2.11621,14.41504,0,4.84961,.5498,9.30273,1.65332,13.35645,1.10156,4.05664,2.79785,7.56152,5.0918,10.51465,2.29102,2.9541,5.20117,5.24609,8.72852,6.87695,3.52539,1.63184,7.75684,2.44629,12.69531,2.44629,5.90625,0,10.71289-.59473,14.41602-1.78516,3.70215-1.19043,6.56641-2.31445,8.5957-3.37305l4.49609,13.62207c-1.05762,.70703-2.49219,1.41113-4.29785,2.11621-1.80762,.70605-3.94629,1.38867-6.41406,2.0498-2.46973,.66113-5.24707,1.19043-8.33203,1.58691-3.08691,.39648-6.39355,.59473-9.91895,.59473Z" fill="#fff"/><path d="M412.33691,160.91504c0,5.46777-.79395,10.44824-2.38086,14.94434s-3.83496,8.33203-6.74512,11.50586c-2.9082,3.17383-6.41406,5.64355-10.51367,7.40527-4.09961,1.7627-8.61914,2.64551-13.55469,2.64551-4.93945,0-9.43555-.88281-13.49023-2.64551-4.05664-1.76172-7.53809-4.23145-10.44727-7.40527-2.91016-3.17383-5.18066-7.00977-6.81055-11.50586-1.63281-4.49609-2.44727-9.47656-2.44727-14.94434,0-5.46582,.81445-10.4248,2.44727-14.87793,1.62988-4.45117,3.92188-8.26562,6.87695-11.43945,2.95312-3.17383,6.45703-5.62012,10.51367-7.33984,4.05469-1.71875,8.50781-2.5791,13.35742-2.5791,4.84766,0,9.32324,.86035,13.42285,2.5791,4.09961,1.71973,7.60449,4.16602,10.51367,7.33984s5.17871,6.98828,6.81152,11.43945c1.62988,4.45312,2.44629,9.41211,2.44629,14.87793Zm-16.39941,0c0-6.87695-1.47656-12.31934-4.42969-16.33203-2.95508-4.01172-7.07617-6.01758-12.36523-6.01758-5.29102,0-9.41309,2.00586-12.36523,6.01758-2.95508,4.0127-4.43066,9.45508-4.43066,16.33203,0,6.96582,1.47559,12.47656,4.43066,16.53125,2.95215,4.05664,7.07422,6.08301,12.36523,6.08301,5.28906,0,9.41016-2.02637,12.36523-6.08301,2.95312-4.05469,4.42969-9.56543,4.42969-16.53125Z" fill="#fff"/><path d="M464.9707,159.19629c0-7.22852-.9043-12.45215-2.71094-15.67188-1.80859-3.2168-5.17969-4.82715-10.11719-4.82715-1.76465,0-3.70312,.13281-5.81836,.39746-2.11621,.26367-3.70312,.48535-4.76172,.66113v55.80859h-16.00195v-66.91797c3.08594-.87988,7.11914-1.71875,12.10156-2.5127,4.97949-.79297,10.24805-1.19043,15.80273-1.19043,4.76172,0,8.66211,.61816,11.70508,1.85156,3.04102,1.23633,5.57422,2.86621,7.60352,4.89355,.96875-.70508,2.20312-1.45508,3.70312-2.24805,1.49805-.79395,3.17383-1.52148,5.02539-2.18262s3.8125-1.21094,5.88477-1.65332c2.07031-.43945,4.16602-.66113,6.28223-.66113,5.37695,0,9.80762,.77344,13.29102,2.31445,3.48145,1.54395,6.21582,3.70312,8.2002,6.48047,1.98242,2.77734,3.34961,6.12891,4.09961,10.05078,.74805,3.92383,1.12305,8.22266,1.12305,12.89453v38.88086h-16.00195v-36.36816c0-7.22852-.88184-12.45215-2.64453-15.67188-1.76465-3.2168-5.1582-4.82715-10.18359-4.82715-2.55859,0-4.98242,.41992-7.27344,1.25684-2.29297,.83887-4.01367,1.65332-5.1582,2.44629,.70508,2.20508,1.19141,4.54199,1.45508,7.00977,.26465,2.46875,.39648,5.11328,.39648,7.93457v38.21973h-16.00195v-36.36816Z" fill="#fff"/><path d="M598.9375,161.04785c0,5.28906-.68359,10.13965-2.04883,14.54688-1.36914,4.41016-3.33008,8.19922-5.88574,11.37305-2.55762,3.1748-5.75293,5.64355-9.58789,7.40625s-8.17871,2.64551-13.02637,2.64551c-3.26367,0-6.26172-.39746-8.99316-1.19043-2.7334-.79395-4.98242-1.67383-6.74512-2.64551v26.84668h-16.00195v-91.38379c3.26074-.87988,7.27344-1.71875,12.03516-2.5127,4.76074-.79297,9.78613-1.19043,15.07617-1.19043,5.46484,0,10.35938,.83887,14.67969,2.5127,4.31836,1.67578,8.00098,4.0791,11.04297,7.20801,3.04102,3.13086,5.37695,6.92188,7.00879,11.37305,1.62988,4.45312,2.44629,9.45605,2.44629,15.01074Zm-16.39844,.26367c0-7.14062-1.60938-12.69531-4.82715-16.66309-3.21973-3.9668-8.39746-5.95117-15.53906-5.95117-1.50098,0-3.06445,.06641-4.69531,.19824-1.63184,.13281-3.23926,.41992-4.82715,.86035v39.54199c1.41016,.9707,3.2832,1.87402,5.62109,2.71094,2.33496,.83887,4.82617,1.25684,7.47168,1.25684,5.81934,0,10.07129-1.98438,12.7627-5.95117,2.6875-3.96777,4.0332-9.30078,4.0332-16.00293Z" fill="#fff"/><path d="M635.17285,124.67871c5.29004,0,9.74121,.66211,13.35742,1.98438,3.61426,1.32227,6.50098,3.17383,8.66211,5.55469,2.15918,2.37988,3.70312,5.26855,4.62891,8.66211,.92578,3.39453,1.38867,7.12012,1.38867,11.1748v41.92285c-2.46973,.5293-6.19531,1.16992-11.1748,1.91797-4.98242,.74805-10.60352,1.12402-16.8623,1.12402-4.14551,0-7.93457-.39746-11.37305-1.19043-3.43848-.79395-6.37109-2.07031-8.79492-3.83496-2.42578-1.7627-4.32129-4.05469-5.68652-6.87695-1.36816-2.82129-2.0498-6.30273-2.0498-10.44824,0-3.96777,.77051-7.31738,2.31445-10.05078,1.54199-2.73145,3.63672-4.95898,6.28223-6.67871,2.64453-1.71875,5.70703-2.95312,9.19141-3.70312,3.48145-.74805,7.11816-1.12402,10.91016-1.12402,1.76172,0,3.61328,.11133,5.55469,.33105,1.9375,.2207,4.00977,.59473,6.21484,1.12402v-2.64453c0-1.85156-.2207-3.61426-.66016-5.29004-.44336-1.67383-1.21387-3.15137-2.31445-4.43066-1.10352-1.27734-2.55859-2.26855-4.36523-2.97559-1.80762-.70508-4.07812-1.05762-6.81055-1.05762-3.70312,0-7.09766,.26367-10.18359,.79297s-5.59961,1.14648-7.53711,1.85156l-1.98438-12.95996c2.02734-.70508,4.98047-1.41016,8.86133-2.11621,3.87793-.70508,8.02148-1.05859,12.43066-1.05859Zm1.32324,59.64453c4.93555,0,8.68262-.26465,11.24023-.79395v-17.7207c-.88184-.26465-2.16113-.5293-3.83496-.79395-1.67578-.26465-3.52734-.39648-5.55371-.39648-1.76562,0-3.55078,.13184-5.35742,.39648s-3.4375,.75-4.89258,1.45508c-1.45508,.70703-2.62402,1.69824-3.50391,2.97559-.88281,1.2793-1.32324,2.88867-1.32324,4.82715,0,3.79199,1.19043,6.41406,3.57129,7.86914,2.37988,1.4541,5.59766,2.18164,9.6543,2.18164Z" fill="#fff"/><path d="M718.88672,140.81348c-1.32227-.44043-3.1543-.90332-5.48828-1.38867-2.33789-.4834-5.04883-.72754-8.13379-.72754-1.76465,0-3.63672,.17773-5.62012,.5293-1.98438,.35352-3.37305,.66113-4.16602,.92578v55.41211h-16.00195v-65.86035c3.08496-1.14453,6.94336-2.22461,11.57129-3.23926,4.62891-1.0127,9.76367-1.52148,15.40723-1.52148,1.05859,0,2.29102,.06641,3.70312,.19824,1.40918,.13281,2.82031,.31055,4.23242,.5293,1.4082,.2207,2.77637,.48535,4.09961,.79395,1.32227,.30957,2.37988,.59473,3.17383,.85938l-2.77734,13.48926Z" fill="#fff"/><path d="M725.63086,161.31152c0-6.08301,.90332-11.41602,2.71094-16.00195,1.80664-4.58301,4.20996-8.39746,7.20801-11.43945,2.99609-3.04102,6.43457-5.33301,10.31543-6.87695,3.87891-1.54102,7.8457-2.31445,11.90234-2.31445,9.52148,0,16.94922,2.95508,22.28418,8.86133,5.33301,5.90723,8.00098,14.72461,8.00098,26.44922,0,.88281-.02246,1.87402-.06641,2.97559-.04492,1.10352-.11133,2.0957-.19824,2.97559h-45.62598c.44043,5.55469,2.40137,9.85254,5.88477,12.89453,3.48242,3.04199,8.53125,4.5625,15.14258,4.5625,3.87891,0,7.42773-.35156,10.64648-1.05762,3.2168-.70508,5.75293-1.45508,7.60449-2.24902l2.11621,13.09277c-.88281,.44238-2.0957,.90527-3.63672,1.38867-1.54395,.48633-3.30664,.92578-5.29102,1.32324-1.98242,.39648-4.12207,.72656-6.41406,.99121-2.29297,.26465-4.62793,.39746-7.00879,.39746-6.08301,0-11.37305-.90527-15.87012-2.71191-4.49609-1.80566-8.19922-4.31836-11.1084-7.53809-2.90918-3.2168-5.07129-7.00879-6.48047-11.37305-1.41113-4.36426-2.11621-9.14648-2.11621-14.34961Zm46.41992-7.14062c0-2.20312-.31055-4.29785-.92578-6.28223-.61816-1.9834-1.52148-3.70312-2.71094-5.15723-1.19043-1.45508-2.64453-2.59961-4.36426-3.43848-1.71973-.83691-3.76953-1.25684-6.14941-1.25684-2.46973,0-4.62891,.46289-6.48047,1.38867s-3.41797,2.13867-4.69531,3.63672c-1.2793,1.5-2.27051,3.21973-2.97461,5.1582-.70703,1.94043-1.19141,3.92383-1.45508,5.95117h29.75586Z" fill="#fff"/><path d="M863.43457,195.56445c-1.2373-3.61426-2.51855-7.18457-3.84473-10.71191-1.32715-3.52539-2.6084-7.1416-3.84375-10.84473h-38.71289c-1.2373,3.70312-2.49805,7.33984-3.7793,10.91016-1.28125,3.57129-2.54102,7.12109-3.77734,10.64648h-17.32812c3.43359-9.78613,6.69531-18.82324,9.77734-27.11133,3.08398-8.28613,6.10059-16.13379,9.05176-23.54004,2.9502-7.40625,5.87891-14.45801,8.78613-21.16016,2.90723-6.69922,5.9043-13.31152,8.98633-19.83691h15.90723c3.08496,6.52539,6.08301,13.1377,8.99316,19.83691,2.91016,6.70215,5.83984,13.75391,8.79492,21.16016s5.99609,15.25391,9.12695,23.54004c3.12891,8.28809,6.41406,17.3252,9.85254,27.11133h-17.99023Zm-27.04492-73.92676c-2.02832,4.67383-4.34277,10.36035-6.94238,17.05957-2.60156,6.70117-5.3125,13.97461-8.13379,21.82129h30.15332c-2.82324-7.84668-5.55469-15.16309-8.2002-21.95312-2.64551-6.78809-4.93848-12.43164-6.87695-16.92773Z" fill="#fff"/><path d="M912.89551,196.88672c-4.76172-.08887-8.70898-.61719-11.83789-1.58691-3.12891-.96875-5.61914-2.35742-7.4707-4.16602-1.85156-1.80566-3.1543-4.05371-3.90234-6.74414-.75-2.68848-1.12305-5.75293-1.12305-9.19141V95.58398l16.00195-2.64453v79.2168c0,1.94043,.15234,3.57129,.46289,4.89355,.30664,1.32227,.85938,2.44629,1.65234,3.37207s1.87305,1.63281,3.24023,2.11621c1.36523,.48535,3.10742,.85938,5.22461,1.12402l-2.24805,13.22461Z" fill="#fff"/><path d="M948.86621,196.88672c-4.76172-.08887-8.70801-.61719-11.83691-1.58691-3.12988-.96875-5.62012-2.35742-7.47168-4.16602-1.85156-1.80566-3.15332-4.05371-3.90137-6.74414-.75-2.68848-1.12402-5.75293-1.12402-9.19141V95.58398l16.00195-2.64453v79.2168c0,1.94043,.15332,3.57129,.46289,4.89355,.30762,1.32227,.85938,2.44629,1.65332,3.37207,.79297,.92578,1.87207,1.63281,3.24023,2.11621,1.36523,.48535,3.10742,.85938,5.22363,1.12402l-2.24805,13.22461Z" fill="#fff"/><path d="M989.20215,196.62207c-4.85059,0-9.74316-.1543-14.67969-.46289-4.93945-.30957-9.25781-.94629-12.96094-1.91699V105.23828c1.93848-.35156,4.01074-.68164,6.21582-.99121,2.20312-.30859,4.45117-.5498,6.74512-.72754,2.29102-.17578,4.5625-.30859,6.81055-.39746,2.24805-.08594,4.38477-.13184,6.41406-.13184,5.55469,0,10.71191,.41992,15.47266,1.25684,4.76172,.83887,8.88184,2.22754,12.36621,4.16504,3.48145,1.94043,6.19238,4.49707,8.13281,7.6709,1.93848,3.17383,2.90918,7.09766,2.90918,11.77051,0,4.32031-1.03711,8.02344-3.10742,11.1084-2.07227,3.08691-4.95898,5.55469-8.66211,7.40625,5.55371,1.85156,9.6543,4.58496,12.29883,8.19922,2.64551,3.61621,3.96777,8.19922,3.96777,13.75391,0,9.43457-3.43848,16.51074-10.31543,21.22559-6.87695,4.71777-17.41406,7.0752-31.60742,7.0752Zm-11.24121-55.41211h11.76953c6.34863,0,11.32812-.90234,14.94434-2.71094,3.61426-1.80566,5.42188-5.0459,5.42188-9.71973,0-4.4082-1.87402-7.53906-5.62012-9.39062-3.74805-1.85059-8.61914-2.77637-14.61328-2.77637-2.55859,0-4.82715,.04492-6.81152,.13184-1.9834,.08887-3.68164,.2207-5.09082,.39648v24.06934Zm0,13.09277v27.9043c1.85156,.17773,3.83496,.31055,5.95117,.39746,2.11523,.08887,4.05371,.13184,5.81836,.13184,3.43848,0,6.63379-.21875,9.58789-.66113,2.95312-.44043,5.50977-1.21094,7.6709-2.31445,2.15918-1.10156,3.87891-2.5791,5.1582-4.43066,1.27637-1.85156,1.91699-4.23145,1.91699-7.1416,0-5.20117-1.89648-8.81445-5.68652-10.84375-3.79199-2.02734-9.03809-3.04199-15.7373-3.04199h-14.67969Z" fill="#fff"/><path d="M1083.75977,140.81348c-1.32324-.44043-3.15332-.90332-5.48828-1.38867-2.33789-.4834-5.04883-.72754-8.13379-.72754-1.76465,0-3.63672,.17773-5.62012,.5293-1.98438,.35352-3.37305,.66113-4.16602,.92578v55.41211h-16.00195v-65.86035c3.08496-1.14453,6.94238-2.22461,11.57129-3.23926,4.62891-1.0127,9.76367-1.52148,15.40723-1.52148,1.05762,0,2.29199,.06641,3.70312,.19824,1.40918,.13281,2.82031,.31055,4.23145,.5293,1.40918,.2207,2.77734,.48535,4.09961,.79395,1.32324,.30957,2.38086,.59473,3.1748,.85938l-2.77734,13.48926Z" fill="#fff"/><path d="M1156.89355,160.91504c0,5.46777-.79395,10.44824-2.38086,14.94434s-3.83496,8.33203-6.74414,11.50586c-2.91016,3.17383-6.41406,5.64355-10.51465,7.40527-4.09961,1.7627-8.61816,2.64551-13.55469,2.64551-4.93945,0-9.43555-.88281-13.49023-2.64551-4.05566-1.76172-7.53809-4.23145-10.44727-7.40527s-5.18066-7.00977-6.81055-11.50586c-1.63281-4.49609-2.44727-9.47656-2.44727-14.94434,0-5.46582,.81445-10.4248,2.44727-14.87793,1.62988-4.45117,3.92188-8.26562,6.87695-11.43945,2.95215-3.17383,6.45703-5.62012,10.51367-7.33984,4.05371-1.71875,8.50684-2.5791,13.35742-2.5791,4.84766,0,9.32324,.86035,13.42285,2.5791,4.09961,1.71973,7.60449,4.16602,10.51367,7.33984s5.17871,6.98828,6.81055,11.43945c1.63086,4.45312,2.44727,9.41211,2.44727,14.87793Zm-16.39941,0c0-6.87695-1.47754-12.31934-4.42969-16.33203-2.95508-4.01172-7.07617-6.01758-12.36523-6.01758-5.29004,0-9.41309,2.00586-12.36621,6.01758-2.9541,4.0127-4.42969,9.45508-4.42969,16.33203,0,6.96582,1.47559,12.47656,4.42969,16.53125,2.95312,4.05664,7.07617,6.08301,12.36621,6.08301,5.28906,0,9.41016-2.02637,12.36523-6.08301,2.95215-4.05469,4.42969-9.56543,4.42969-16.53125Z" fill="#fff"/><path d="M1186.12012,153.37695c2.02734-2.11621,4.18652-4.38477,6.48047-6.81055,2.29102-2.42383,4.53906-4.84766,6.74414-7.27344,2.20312-2.42383,4.29785-4.76172,6.28223-7.00977,1.9834-2.24805,3.67969-4.20898,5.0918-5.88477h18.91113c-4.39941,4.93848-9.04004,10.05078-13.9209,15.34082s-9.78516,10.44727-14.71094,15.47266c2.63867,2.20508,5.41016,4.87305,8.31348,8.00098,2.90234,3.13086,5.7168,6.45996,8.44531,9.98535,2.72754,3.52734,5.27734,7.05469,7.65332,10.58008,2.37695,3.52734,4.35645,6.79004,5.93945,9.78613h-18.51562c-1.58691-2.73145-3.41797-5.59766-5.48828-8.59668-2.07227-2.99609-4.29785-5.90527-6.67871-8.72754-2.37988-2.82129-4.80566-5.48926-7.27344-8.00195-2.46973-2.5127-4.89355-4.64941-7.27344-6.41406v31.74023h-16.00195V95.58398l16.00195-2.64453v60.4375Z" fill="#fff"/><path d="M1232.80371,161.31152c0-6.08301,.90332-11.41602,2.71094-16.00195,1.80664-4.58301,4.20996-8.39746,7.20801-11.43945,2.99609-3.04102,6.43457-5.33301,10.31543-6.87695,3.87891-1.54102,7.8457-2.31445,11.90234-2.31445,9.52246,0,16.94824,2.95508,22.28418,8.86133,5.33301,5.90723,8.00098,14.72461,8.00098,26.44922,0,.88281-.02246,1.87402-.06641,2.97559-.04492,1.10352-.11133,2.0957-.19824,2.97559h-45.62598c.44043,5.55469,2.40137,9.85254,5.88574,12.89453,3.48145,3.04199,8.5293,4.5625,15.14258,4.5625,3.87793,0,7.42578-.35156,10.64551-1.05762,3.21777-.70508,5.75293-1.45508,7.60449-2.24902l2.11621,13.09277c-.88281,.44238-2.0957,.90527-3.63672,1.38867-1.54395,.48633-3.30664,.92578-5.29004,1.32324-1.98438,.39648-4.12305,.72656-6.41406,.99121-2.29395,.26465-4.62891,.39746-7.00977,.39746-6.08301,0-11.37305-.90527-15.87012-2.71191-4.49609-1.80566-8.19922-4.31836-11.1084-7.53809-2.90918-3.2168-5.07129-7.00879-6.48047-11.37305-1.41113-4.36426-2.11621-9.14648-2.11621-14.34961Zm46.41992-7.14062c0-2.20312-.31055-4.29785-.92578-6.28223-.61816-1.9834-1.52051-3.70312-2.71094-5.15723-1.19043-1.45508-2.64551-2.59961-4.36426-3.43848-1.71973-.83691-3.76953-1.25684-6.14941-1.25684-2.46973,0-4.62891,.46289-6.48047,1.38867s-3.41797,2.13867-4.69531,3.63672c-1.27832,1.5-2.27051,3.21973-2.97559,5.1582-.70605,1.94043-1.19043,3.92383-1.4541,5.95117h29.75586Z" fill="#fff"/><path d="M1348.25684,140.81348c-1.32324-.44043-3.15332-.90332-5.48828-1.38867-2.33789-.4834-5.04883-.72754-8.13379-.72754-1.76465,0-3.63672,.17773-5.62012,.5293-1.98438,.35352-3.37305,.66113-4.16602,.92578v55.41211h-16.00195v-65.86035c3.08496-1.14453,6.94238-2.22461,11.57129-3.23926,4.62891-1.0127,9.76367-1.52148,15.40723-1.52148,1.05762,0,2.29199,.06641,3.70312,.19824,1.40918,.13281,2.82031,.31055,4.23145,.5293,1.40918,.2207,2.77734,.48535,4.09961,.79395,1.32324,.30957,2.38086,.59473,3.1748,.85938l-2.77734,13.48926Z" fill="#fff"/><path d="M1376.16113,184.05859c4.23242,0,7.31738-.50586,9.25781-1.52051,1.9375-1.0127,2.90918-2.75488,2.90918-5.22363,0-2.29199-1.03711-4.18652-3.10742-5.6875-2.07324-1.49805-5.48926-3.12793-10.25-4.89258-2.90918-1.05859-5.57715-2.18262-8.00098-3.37305-2.42578-1.18945-4.51953-2.57812-6.28125-4.16504-1.76562-1.58691-3.15332-3.50488-4.16602-5.75293-1.01465-2.24805-1.52148-5.00293-1.52148-8.26562,0-6.34766,2.33496-11.35059,7.00977-15.01074,4.67188-3.65723,11.01953-5.48828,19.04395-5.48828,4.05371,0,7.93457,.37695,11.6377,1.12402,3.70312,.75098,6.48047,1.47754,8.33203,2.18262l-2.91016,12.95996c-1.76465-.79297-4.0127-1.52051-6.74414-2.18164-2.73438-.66113-5.9082-.99219-9.52246-.99219-3.2627,0-5.90723,.55176-7.93457,1.65332-2.0293,1.10352-3.04199,2.7998-3.04199,5.0918,0,1.14648,.19824,2.16113,.5957,3.04199,.39648,.88184,1.07812,1.69824,2.0498,2.44629,.96875,.75,2.24805,1.5,3.83496,2.24805,1.58691,.75,3.52539,1.52051,5.81836,2.31445,3.79004,1.41113,7.00977,2.7998,9.6543,4.16602,2.64551,1.36719,4.82715,2.90918,6.54688,4.62793,1.71875,1.71973,2.97559,3.68262,3.76855,5.88574,.79395,2.20508,1.19043,4.84961,1.19043,7.93457,0,6.6123-2.44629,11.61719-7.33984,15.01074-4.89258,3.39258-11.88184,5.0918-20.96094,5.0918-6.08398,0-10.97754-.50879-14.67969-1.52148-3.70312-1.0127-6.30469-1.8291-7.80273-2.44629l2.77734-13.35742c2.37988,.97168,5.22363,1.89746,8.5293,2.77734,3.30664,.88184,7.0752,1.32227,11.30762,1.32227Z" fill="#fff"/><path d="M1429.32324,189.87793c0,2.0293-.64062,3.74805-1.91699,5.15723-1.2793,1.40918-3.06445,2.11621-5.35645,2.11621-2.29395,0-4.0791-.70703-5.35645-2.11621-1.27832-1.40918-1.91699-3.12793-1.91699-5.15723,0-2.02734,.63867-3.74609,1.91699-5.1582,1.27734-1.40918,3.0625-2.11523,5.35645-2.11523,2.29199,0,4.07715,.70605,5.35645,2.11523,1.27637,1.41211,1.91699,3.13086,1.91699,5.1582Z" fill="#fff"/><path d="M1474.68359,197.01953c-5.29004,0-9.96387-.83887-14.01855-2.5127-4.05664-1.67383-7.42871-4.07715-10.11719-7.20801-2.69043-3.12891-4.74023-6.87695-6.14941-11.24121-1.41113-4.36426-2.11621-9.19141-2.11621-14.48145,0-5.37695,.72754-10.26953,2.18262-14.67871,1.4541-4.4082,3.54785-8.2002,6.28125-11.37402,2.73242-3.17383,6.03809-5.62012,9.91895-7.33984,3.87891-1.71875,8.24316-2.5791,13.09277-2.5791,3.70312,0,7.16211,.31055,10.38184,.92578,3.2168,.61816,5.70703,1.41211,7.47168,2.38086l-2.24805,7.40625c-1.76465-.88086-3.74805-1.58691-5.95117-2.11621-2.20508-.5293-5.1582-.79395-8.86035-.79395-7.58398,0-13.33691,2.44727-17.25879,7.33984-3.92383,4.89355-5.88574,11.83594-5.88574,20.8291,0,4.05664,.44043,7.78223,1.32324,11.1748,.87988,3.39551,2.31445,6.30469,4.29785,8.72852,1.9834,2.42676,4.54004,4.32129,7.6709,5.6875,3.12793,1.36719,6.94238,2.0498,11.43945,2.0498,3.70215,0,6.81055-.41797,9.32324-1.25684,2.5127-.83691,4.3418-1.56445,5.48828-2.18164l1.85156,7.40527c-1.58691,.88281-4.0791,1.74219-7.47168,2.5791-3.39551,.83691-6.94336,1.25684-10.64648,1.25684Z" fill="#fff"/><path d="M1562.23145,161.44434c0,5.37891-.77246,10.27148-2.31445,14.67969-1.54395,4.40918-3.70312,8.15625-6.48047,11.24121-2.77637,3.08691-6.0625,5.48828-9.85254,7.20703-3.79102,1.71973-7.98047,2.5791-12.56348,2.5791-4.58496,0-8.77344-.85938-12.56348-2.5791-3.79199-1.71875-7.0752-4.12012-9.85254-7.20703-2.77734-3.08496-4.93848-6.83203-6.48047-11.24121-1.54297-4.4082-2.31445-9.30078-2.31445-14.67969,0-5.37695,.77148-10.26953,2.31445-14.67969,1.54199-4.40723,3.70312-8.17676,6.48047-11.30762,2.77734-3.12793,6.06055-5.55371,9.85254-7.27344,3.79004-1.71875,7.97852-2.5791,12.56348-2.5791,4.58301,0,8.77246,.86035,12.56348,2.5791,3.79004,1.71973,7.07617,4.14551,9.85254,7.27344,2.77734,3.13086,4.93652,6.90039,6.48047,11.30762,1.54199,4.41016,2.31445,9.30273,2.31445,14.67969Zm-9.125,0c0-8.55078-1.98438-15.36133-5.95117-20.43262-3.96777-5.06836-9.34668-7.60449-16.13477-7.60449-6.79004,0-12.16699,2.53613-16.13379,7.60449-3.96777,5.07129-5.95215,11.88184-5.95215,20.43262,0,8.55273,1.98438,15.34082,5.95215,20.36621,3.9668,5.02539,9.34375,7.53809,16.13379,7.53809,6.78809,0,12.16699-2.5127,16.13477-7.53809,3.9668-5.02539,5.95117-11.81348,5.95117-20.36621Z" fill="#fff"/><path d="M1577.57031,129.57227c2.55664-.7041,5.88574-1.49805,9.98535-2.38086,4.09961-.87988,9.41016-1.32227,15.93555-1.32227,8.63965,0,14.89941,2.5127,18.7793,7.53809,.44043-.35059,1.2998-.94629,2.5791-1.78516,1.27734-.83691,2.88672-1.69629,4.82715-2.5791,1.93848-.87988,4.20898-1.62988,6.81055-2.24805,2.59961-.61523,5.48926-.92578,8.66309-.92578,5.20117,0,9.41016,.77344,12.62988,2.31445,3.2168,1.54395,5.70703,3.70312,7.47168,6.48047,1.7627,2.77734,2.95312,6.10645,3.57031,9.98438,.61621,3.88086,.92578,8.1123,.92578,12.69629v38.21973h-8.5957v-35.44238c0-4.49707-.19824-8.39844-.5957-11.7041-.39648-3.30664-1.18945-6.03809-2.37988-8.19922-1.19043-2.16016-2.88867-3.79004-5.0918-4.89355-2.20508-1.10156-5.07129-1.65332-8.5957-1.65332-2.64551,0-5.04883,.24414-7.20801,.72754-2.16113,.48535-4.0332,1.08105-5.62109,1.78516-1.58691,.70703-2.88867,1.41113-3.90039,2.11621-1.01465,.70703-1.74219,1.23535-2.18262,1.58691,.79395,2.29395,1.38867,4.87305,1.78516,7.73633,.39746,2.86621,.5957,5.88477,.5957,9.05957v38.88086h-8.59668v-35.44238c0-4.49707-.19824-8.39844-.59473-11.7041-.39746-3.30664-1.21289-6.03809-2.44727-8.19922-1.23535-2.16016-2.97559-3.79004-5.22363-4.89355-2.24805-1.10156-5.22363-1.65332-8.92676-1.65332-4.14551,0-7.64941,.22168-10.51367,.66113-2.86621,.44238-4.69531,.83887-5.48828,1.19043v60.04102h-8.59668v-65.99219Z" fill="#fff"/></g><path d="M228.67944,184.8894c-.13568-1.0874-.271-2.17053-.4231-3.24945l-.70422-3.92719c-.1048-.48059-.19794-.91418-.29108-1.34796-.18298-.85181-.36615-1.70447-.56555-2.5545l-1.01099-3.81763c-1.50568-5.3078-3.48132-10.74432-5.88049-16.18695,1.02478-2.11932,1.98053-4.22192,3.10413-6.70862l.01208-.02673,.0108-.02728c.34833-.87872,.70972-1.7525,1.07098-2.62622,.62598-1.51385,1.27319-3.07928,1.84509-4.65656l.00854-.02362,.00763-.02393,2.36481-7.4436c3.28436-11.53815,4.07513-22.18756,2.36133-31.68878-1.04688-5.67511-3.05676-10.83234-5.97485-15.33325-1.51538-2.26398-3.32489-4.44043-5.38824-6.48438-2.51257-2.31519-4.66339-3.9519-6.80151-5.18219-4.59534-2.75507-9.92059-4.74194-15.80859-5.89417-3.64111-.69385-7.57172-1.04498-11.68866-1.04498-1.62817,0-3.3255,.05463-5.04468,.16248-5.8299,.39117-11.34631,1.22931-16.40149,2.49158-.41962,.09802-.85999,.19366-1.30042,.28937-.89777,.19513-1.82605,.39685-2.73608,.65637l-3.92902,1.20483-3.927,1.21722c-.90961,.30426-1.7702,.64362-2.60254,.9718-.33575,.13239-.67175,.26495-1.00946,.39471-.16882-.09058-.33765-.18036-.50806-.27008-4.966-2.58868-10.00061-4.78778-14.96844-6.53882-5.56879-1.96521-10.82471-3.34821-16.06781-4.22797-4.22595-.69562-8.12836-1.03345-11.93396-1.03351-1.76733-.00006-3.52563,.07623-5.22595,.22668l-2.18225,.24768-1.0824,.12909-.03784,.00452-.03748,.00684-1.07574,.19543-2.1568,.39117c-.53198,.11725-1.01331,.24084-1.49536,.36499-.24005,.06177-.48035,.12366-.72131,.18341-1.10065,.2478-2.19183,.61768-3.24713,.9754-.36163,.12256-.72321,.24518-1.08563,.36279-.56073,.1994-1.06995,.41589-1.56244,.62524-.20343,.08649-.4071,.1731-.61188,.25751l-.0545,.02271c-.69391,.28839-1.41144,.58667-2.11737,.96857l-1.99957,1.04205-.02875,.01495-.02789,.01648c-.51025,.30054-1.01349,.61548-1.5177,.93121l-.45221,.28271-.97791,.625-.03424,.02191-.03278,.02411-.92297,.67841c-.21533,.16345-.41663,.31226-.61786,.46106-.41772,.30878-.84961,.62811-1.27045,.97516-2.44629,2.04065-4.65887,4.34009-6.58185,6.83887-.3493,.45361-.66565,.91663-.97168,1.36444-.1286,.18829-.25732,.37671-.38824,.56396l-.65735,.96716c-.15607,.24261-.28418,.46222-.41125,.68085-.06995,.12042-.13965,.24054-.21118,.35883l-1.15271,2.01978-.02142,.03754-.01874,.03894-.99011,2.05334-.18195,.38464c-.10889,.22815-.21802,.45728-.31964,.68884l-.0105,.02405-.00952,.02448-.40942,1.05115-.81445,2.11237-.01569,.04065-.01282,.04156-.65973,2.14526-.33026,1.07623-.01184,.03857-.00934,.03925-.25696,1.08173c-1.34589,5.48267-1.90039,11.43542-1.646,17.68384,.23853,5.44257,1.05103,10.98749,2.48407,16.95551,1.26971,5.23279,3.00513,10.60156,5.15869,15.95996l.13202,.32727c.02899,.0722,.05798,.14435,.0871,.21637l-.34039,.64044c-.73462,1.36218-1.38922,2.60669-1.92426,3.97552-.33466,.79694-.68793,1.61755-1.04114,2.43787-.77234,1.79395-1.57092,3.64893-2.28253,5.53235l-2.77307,8.32794-.01031,.03101-.00873,.03156c-1.66425,6.0376-2.72681,12.06696-3.15814,17.92047-.46985,6.4563,.01624,12.95508,1.44476,19.31708,1.42761,6.63226,4.41663,13.16956,8.64148,18.89423,2.2832,2.99597,4.7796,5.60791,7.43152,7.77856,3.16388,2.48486,6.07788,4.34186,8.92834,5.69305,5.47742,2.75836,11.74976,4.39398,19.14856,4.98724,1.48535,.10693,2.99921,.16077,4.5097,.16077,4.37097,0,8.85175-.43384,13.6983-1.32635,5.35205-.9845,10.7652-2.60303,16.54852-4.94788,.40277-.15875,.81854-.31567,1.23383-.47247,.8877-.33508,1.80566-.68158,2.70007-1.08771l3.76691-1.79431,3.72485-1.78583c.23712-.12018,.46985-.24274,.70728-.37225l.02972,.01208,3.89001,1.54376c1.01312,.36829,1.99835,.70312,2.98285,1.03766l1.0332,.35205c.91028,.29797,1.82275,.56464,2.7052,.82257,.45435,.13281,.90851,.2655,1.36053,.40179,5.77856,1.6084,11.46606,2.63409,16.93018,3.05621,1.96069,.14966,3.90625,.22552,5.78375,.22552,4.09949,0,8.06555-.36176,11.78796-1.0752l2.16901-.47076,1.08264-.24738,.03455-.00787,.03406-.00983,1.05725-.3056,2.1156-.62549c.5282-.17523,1.01276-.35486,1.4964-.53448,.21802-.08093,.43579-.1618,.65363-.24084,1.09039-.36633,2.16376-.86224,3.20178-1.3418,.31268-.14447,.62451-.28864,.9361-.42865,.49139-.23413,.93628-.47882,1.36646-.71539,.22028-.12115,.44-.24207,.66046-.35858l.07812-.0426c.64099-.35065,1.30383-.71326,1.94867-1.15814l1.81873-1.18597,.02563-.01672,.02472-.01794c.43549-.31549,.86157-.64648,1.28485-.97565l.50336-.38989,.86902-.67773,.03552-.02771,.03351-.03021,.81879-.73944c.18311-.17041,.35364-.32507,.52374-.47949,.37524-.34052,.76331-.69263,1.13416-1.07239,2.03326-2.06354,3.89435-4.42023,5.52747-7.00049,.28687-.45795,.5401-.91809,.78503-1.3631,.10114-.18378,.20209-.36725,.30469-.54907l.51868-.93866c.1264-.24249,.22546-.4588,.32373-.67474,.05292-.11627,.10571-.23242,.16113-.34766l.88501-1.94238,.01837-.04028,.01544-.04144,.73315-1.96783,.07861-.20654c.10272-.2691,.20544-.53925,.29657-.81317l.30658-1.03723,.57123-2.00293,.01123-.03925,.00861-.03992,.4339-2.01062,.21887-.99017,.00824-.03748,.00598-.0379,.15875-1.0083c.81055-5.13098,.92871-10.62402,.35107-16.32599l-.09003-.72253Zm-7.09821,15.47656l-.24878,.85858-.30231,.81982-.62305,1.66095-.74432,1.6076-.36407,.79333c-.08459,.15698-.17358,.3139-.26245,.47089l-.14917,.26459-.84607,1.51508-.97644,1.4259-.17975,.26508c-.09027,.13446-.18097,.27045-.27808,.40234l-.53815,.66229c-.13959,.16638-.28552,.34985-.43073,.53265-.21661,.27258-.42114,.53003-.63391,.76276l-.4071,.42523c-.64771,.68005-1.25958,1.32233-1.94104,1.87018l-.03992,.03204-.03711,.03528c-.57178,.5423-1.22119,1.01605-1.90869,1.51758-.21802,.159-.43549,.31769-.64996,.47827-.26819,.17981-.54681,.34698-.82385,.51379-.19019,.1145-.37976,.22876-.56573,.34564l-.66156,.41272-.70526,.35266c-.21436,.1059-.43182,.21771-.64844,.32916-.26721,.13745-.53308,.27448-.80078,.40259l-1.53021,.62164-.02515,.01025-.02478,.01135c-.4198,.1922-.89398,.33771-1.396,.49176-.2514,.07635-.46411,.14642-.6759,.21637-.31024,.10248-.60376,.1994-.8938,.27533-.36072,.07825-.71716,.16498-1.07288,.25165-.7196,.17535-1.39929,.341-2.09149,.42706-.28271,.04291-.52863,.08441-.77429,.12592-.29254,.04938-.58472,.09888-.87866,.14136l-1.66016,.14984-.80188,.07617-.81439,.02325-1.7038,.05505-.3858,.00134c-3.94812,0-8.19739-.52051-12.99066-1.59137-3.39624-.77533-6.97406-1.83759-10.65857-3.16376,2.92029-2.2572,5.78986-4.64154,8.55383-7.10809,7.47803-6.49915,14.70374-14.00592,22.0777-22.93835,6.62067-8.08728,12.61572-16.84387,17.82202-26.03046,.50305-.85016,1.00543-1.73682,1.51379-2.67242,1.68591,4.18823,3.05762,8.40924,4.08691,12.57996l.78534,3.71179c.11603,.6687,.2326,1.38129,.34918,2.09381,.08911,.54443,.17822,1.08893,.27075,1.63342,.11127,.7981,.19507,1.66089,.27606,2.49524,.0387,.39832,.07733,.79596,.11945,1.19244,.05255,.91364,.09558,1.82715,.13843,2.73602l.04877,1.02405c.07385,5.14954-.56396,10.00952-1.89709,14.40234Zm-144.6756,14.53284c-2.70844-3.93689-4.63531-8.51514-5.55731-13.21851-1.78943-8.62677-1.13843-18.52307,1.93225-29.42749,.8111-2.87463,1.77173-5.76862,2.85504-8.60101,2.20953-5.79449,5.06531-11.72931,8.48828-17.64081,.27563-.4837,.55286-.95984,.836-1.43604,5.25452-8.77979,11.34735-17.02252,18.1073-24.49628,13.45337-14.67517,28.06201-26.18127,43.41461-34.19232,1.70215-.88879,3.36957-1.71533,4.95612-2.45685,.41248-.19324,.82092-.3927,1.22919-.59216,.75488-.36877,1.46783-.71704,2.20282-1.02539l1.18475-.46661,2.36609-.93536,3.57477-1.41162c.7243-.26569,1.49176-.49316,2.30426-.73395,.42487-.12598,.85004-.25208,1.27301-.38525,4.82214-1.60132,9.763-2.73694,14.7038-3.38135,2.84991-.37738,5.66187-.5686,8.36017-.5686,7.82495,0,14.7384,1.57227,20.54816,4.6731,1.87097,.95117,3.71582,2.21942,6.00421,4.12378,1.78058,1.57898,3.42151,3.39044,4.84778,5.35858,2.77295,3.97198,4.75568,8.60114,5.72113,13.36896,1.85455,8.72858,1.25391,18.72577-1.78271,29.72559-1.88379,6.56708-4.60205,13.30371-8.07599,20.01074-.29431,.58228-.59497,1.14728-.89557,1.70648-1.05011,1.96619-2.20306,3.99316-3.42853,6.02765-5.32336,8.78827-11.47937,17.02087-18.29547,24.46643-11.50433,12.39594-23.85822,22.5412-36.71277,30.14783-3.87732,2.29712-7.8877,4.40521-11.92041,6.26593-.40747,.18878-.81104,.38263-1.21466,.57648-.76379,.36688-1.48523,.71344-2.22894,1.02557l-3.54895,1.37421-1.87634,.72736-1.70453,.65985c-.72278,.26392-1.4798,.48364-2.28131,.71625-.43457,.1261-.86877,.2522-1.29999,.38654-4.83215,1.57031-9.77527,2.6756-14.70673,3.28979-2.7229,.34662-5.41406,.52216-8.00208,.52216-7.91339,0-14.88177-1.59839-20.71167-4.75085-1.84125-.95392-3.6593-2.21869-5.91461-4.11139-1.74353-1.57727-3.3537-3.37781-4.75116-5.32141Zm-.64429-120.24561l.25262-.73407c.06146-.15582,.12787-.30908,.19379-.46173l.09509-.22144,.60956-1.42572,.71124-1.36298c.04456-.07996,.09998-.18726,.15503-.29437,.05914-.11499,.11737-.22998,.18347-.34094l.40387-.63733c.10492-.16052,.21472-.33917,.3244-.51782,.16382-.26685,.31854-.51898,.48108-.74323,1.14301-1.61627,2.47992-3.1283,3.98206-4.50592,.19067-.16956,.40637-.34021,.62219-.51178,.18951-.15063,.37927-.30176,.56421-.4588l.552-.45239,.60858-.4151,1.27814-.86975,1.35016-.76996,.02594-.01477,.02515-.01599c.36603-.23248,.79004-.42853,1.23895-.63605l.0517-.02393c.20691-.09448,.4162-.19769,.62524-.30096,.25665-.12683,.51257-.25427,.77612-.36487,.34747-.12604,.6911-.26172,1.0351-.39777,.66541-.26306,1.29401-.5116,1.94312-.68396,.26526-.07867,.49225-.15002,.71954-.22162,.28729-.09045,.57495-.18115,.86633-.26453l1.61816-.37146,.79266-.18787,.80157-.13361,1.69214-.28094c2.03235-.28094,4.23572-.42596,6.51538-.42603,2.28888,0,4.71497,.14624,7.21069,.43463,4.46661,.52606,9.19623,1.53113,14.05475,2.98688,1.52759,.45569,3.07477,.96088,4.62439,1.50983-5.17963,2.62543-10.17377,5.54395-14.88007,8.69708-9.56866,6.47833-18.20685,13.5061-25.67963,20.8913-5.46375,5.44177-10.56537,11.38727-15.19269,17.70337-.19995-.63324-.39142-1.26459-.57324-1.89062-1.34644-4.74133-2.21405-9.31915-2.57666-13.59924-.37775-4.66022-.15643-9.0791,.6582-13.12952l.15259-.77997,.19745-.74933,.40442-1.54114,.50519-1.4856Z" fill="#fff"/></svg>