<svg width="36" height="40" viewBox="0 0 36 40" fill="none" xmlns="http://www.w3.org/2000/svg">
<path fill-rule="evenodd" clip-rule="evenodd" d="M16.596 0.389996C17.5012 0.0506653 18.4988 0.0506653 19.404 0.389996L33.404 5.64C34.1666 5.92586 34.8238 6.43771 35.2877 7.10711C35.7516 7.77651 36.0001 8.57156 36 9.386V20.112C36.0001 23.4548 35.0693 26.7317 33.3119 29.5753C31.5545 32.4189 29.0399 34.717 26.05 36.212L19.342 39.564C18.9253 39.7724 18.4659 39.8809 18 39.8809C17.5341 39.8809 17.0747 39.7724 16.658 39.564L9.95 36.21C6.96008 34.715 4.44554 32.4169 2.68814 29.5733C0.930742 26.7297 -7.13141e-05 23.4528 7.80325e-07 20.11V9.388C-0.000508019 8.57322 0.247811 7.77773 0.711737 7.10793C1.17566 6.43813 1.83307 5.92598 2.596 5.64L16.596 0.389996ZM20 19.464C20.7625 19.0237 21.3584 18.3441 21.6954 17.5306C22.0323 16.7171 22.0914 15.8152 21.8635 14.9647C21.6356 14.1142 21.1335 13.3627 20.4349 12.8266C19.7364 12.2906 18.8805 12 18 12C17.1195 12 16.2636 12.2906 15.5651 12.8266C14.8665 13.3627 14.3644 14.1142 14.1365 14.9647C13.9086 15.8152 13.9677 16.7171 14.3046 17.5306C14.6416 18.3441 15.2375 19.0237 16 19.464V26C16 26.5304 16.2107 27.0391 16.5858 27.4142C16.9609 27.7893 17.4696 28 18 28C18.5304 28 19.0391 27.7893 19.4142 27.4142C19.7893 27.0391 20 26.5304 20 26V19.464Z" fill="white" fill-opacity="0.6"/>
</svg>
