<?xml version="1.0" encoding="utf-8"?>
<!-- Generator: Adobe Illustrator 22.1.0, SVG Export Plug-In . SVG Version: 6.00 Build 0)  -->
<svg version="1.1" id="Layer_1" xmlns="http://www.w3.org/2000/svg" xmlns:xlink="http://www.w3.org/1999/xlink" x="0px" y="0px"
	 viewBox="0 0 1559.4 161.2" style="enable-background:new 0 0 1559.4 161.2;" xml:space="preserve">
<style type="text/css">
	.st0{fill:url(#SVGID_1_);}
	.st1{fill:url(#SVGID_2_);}
	.st2{fill:url(#SVGID_3_);}
	.st3{fill:url(#SVGID_4_);mix-blend-mode: multiply;}
	.st4{enable-background:new    ;}
	.st5{fill:#414E5C;}
</style>
<g>
	<g id="Laag_2">
		<g id="Logo">
			
				<linearGradient id="SVGID_1_" gradientUnits="userSpaceOnUse" x1="-18.57" y1="101.49" x2="73.9" y2="172.83" gradientTransform="matrix(1 0 0 -1 0 162)">
				<stop  offset="0" style="stop-color:#00AEE9"/>
				<stop  offset="0.43" style="stop-color:#0098D9"/>
				<stop  offset="1" style="stop-color:#007FC7"/>
			</linearGradient>
			<path class="st0" d="M27.5,42c-7.8,7.8-14.8,16.5-20.7,25.8l-0.8,1.4C4.6,65.8,3.5,62.4,2.6,59C-8.6,16.4,16.9-8.8,59.4,2.8
				c5.6,1.5,11.1,3.6,16.4,6c-8,3.5-15.7,7.6-23,12.5C43.7,27.4,35.2,34.3,27.5,42z"/>
			
				<linearGradient id="SVGID_2_" gradientUnits="userSpaceOnUse" x1="29.6195" y1="39.0206" x2="122.0995" y2="110.3606" gradientTransform="matrix(1 0 0 -1 0 162)">
				<stop  offset="0" style="stop-color:#00AEE9"/>
				<stop  offset="0.43" style="stop-color:#0098D9"/>
				<stop  offset="1" style="stop-color:#007FC7"/>
			</linearGradient>
			<path class="st1" d="M81.3,150.3C53.8,137,27.9,111.9,13,84.6c1.6-3.3,3.4-6.6,5.3-9.8c5.2-8.8,11.3-17,18.2-24.6
				c13.7-15,29.9-28,48.4-36.7c27.5,15.4,52.5,41.9,65.4,69.9c-1.2,2.3-2.5,4.7-3.9,6.9c-5.3,8.8-11.5,17-18.4,24.5
				C114.7,129.2,99,141.8,81.3,150.3z"/>
			
				<linearGradient id="SVGID_3_" gradientUnits="userSpaceOnUse" x1="73.1386" y1="-17.3982" x2="165.6186" y2="53.9418" gradientTransform="matrix(1 0 0 -1 0 162)">
				<stop  offset="0" style="stop-color:#00AEE9"/>
				<stop  offset="0.43" style="stop-color:#0098D9"/>
				<stop  offset="1" style="stop-color:#007FC7"/>
			</linearGradient>
			<path class="st2" d="M102,158.4c-3.5-0.9-6.9-2.1-10.2-3.4c6.6-4.3,12.9-9.1,18.8-14.4c7.9-6.9,15.2-14.5,21.8-22.6
				c6.6-8.1,12.5-16.7,17.6-25.7c1.1-1.9,2.2-3.9,3.2-5.9c2.3,5.1,4.1,10.4,5.6,15.8C170,144.9,144.5,170,102,158.4z"/>
			
				<linearGradient id="SVGID_4_" gradientUnits="userSpaceOnUse" x1="56.8589" y1="143.6716" x2="107.7489" y2="15.8516" gradientTransform="matrix(1 0 0 -1 0 162)">
				<stop  offset="0" style="stop-color:#82BB24"/>
				<stop  offset="0.13" style="stop-color:#75BB38"/>
				<stop  offset="0.4" style="stop-color:#55BA6A"/>
				<stop  offset="0.78" style="stop-color:#21BABB"/>
				<stop  offset="1" style="stop-color:#00B9EE"/>
			</linearGradient>
			<path class="st3" d="M158.8,62.4c-2.1,7.3-5,14.3-8.6,21c-1.2,2.3-2.5,4.7-3.9,6.9c-5.3,8.8-11.5,17-18.4,24.5
				c-13.4,14.4-29,27-46.7,35.5c-0.7,0.4-1.4,0.7-2.1,1c-1.2,0.5-2.3,1.1-3.5,1.6l-3.6,1.4l-3.6,1.4c-1.2,0.4-2.4,0.8-3.6,1.1
				c-4.8,1.6-9.8,2.7-14.8,3.3c-10,1.3-20.5,0.4-29.3-4.4c-2.2-1.2-4.2-2.6-6.1-4.2c-1.8-1.7-3.5-3.5-4.9-5.6
				c-2.8-4.1-4.8-8.7-5.7-13.6c-2-9.8-0.8-20.1,1.9-29.8c1.8-6.2,4.1-12.2,6.9-18c1.6-3.3,3.4-6.6,5.3-9.8
				c5.2-8.8,11.3-17,18.2-24.5c13.7-15,29.9-28,48.4-36.7l0.1-0.1c1.2-0.5,2.3-1.1,3.5-1.6l3.6-1.4L95.5,9c1.2-0.4,2.4-0.8,3.6-1.2
				C104,6.2,109,5.1,114,4.4c10-1.3,20.6-0.5,29.5,4.2c2.2,1.2,4.3,2.6,6.2,4.2c1.9,1.7,3.5,3.5,5,5.6c2.9,4.1,4.9,8.8,5.9,13.8
				C162.7,42.2,161.5,52.6,158.8,62.4z"/>
			<g class="st4">
				<path class="st5" d="M198.6,91.7c0-5.1,0.8-9.9,2.4-14.3c1.6-4.5,3.9-8.3,6.8-11.6c3-3.3,6.5-5.8,10.8-7.7
					c4.2-1.9,9-2.8,14.3-2.8c6.5,0,12.7,1.2,18.5,3.6L247.9,72c-1.9-0.8-3.9-1.5-6.3-2c-2.3-0.5-4.8-0.8-7.5-0.8
					c-6.3,0-11,2-14.3,5.9c-3.3,3.9-4.9,9.5-4.9,16.6c0,6.9,1.5,12.3,4.6,16.3c3.1,4,8.3,6,15.6,6c2.7,0,5.4-0.3,8.1-0.8
					c2.6-0.5,4.9-1.2,6.9-2l2.2,13.2c-1.8,0.9-4.4,1.7-8,2.4c-3.6,0.7-7.3,1.1-11,1.1c-5.9,0-11-0.9-15.4-2.7
					c-4.4-1.8-8-4.3-10.8-7.5c-2.9-3.2-5-7.1-6.4-11.5C199.3,101.7,198.6,96.9,198.6,91.7z"/>
			</g>
			<g class="st4">
				<path class="st5" d="M322.6,91.6c0,5.5-0.8,10.4-2.4,14.9c-1.6,4.5-3.8,8.3-6.7,11.5s-6.4,5.6-10.5,7.4
					c-4.1,1.8-8.6,2.6-13.6,2.6c-4.9,0-9.4-0.9-13.5-2.6c-4.1-1.8-7.5-4.2-10.4-7.4s-5.2-7-6.8-11.5c-1.6-4.5-2.4-9.5-2.4-14.9
					c0-5.5,0.8-10.4,2.4-14.9c1.6-4.5,3.9-8.3,6.9-11.4c3-3.2,6.5-5.6,10.5-7.3c4.1-1.7,8.5-2.6,13.4-2.6c4.8,0,9.3,0.9,13.4,2.6
					s7.6,4.2,10.5,7.3c2.9,3.2,5.2,7,6.8,11.4C321.8,81.1,322.6,86.1,322.6,91.6z M306.2,91.6c0-6.9-1.5-12.3-4.4-16.3
					c-3-4-7.1-6-12.4-6s-9.4,2-12.4,6c-3,4-4.4,9.5-4.4,16.3c0,7,1.5,12.5,4.4,16.5c3,4.1,7.1,6.1,12.4,6.1s9.4-2,12.4-6.1
					C304.8,104,306.2,98.5,306.2,91.6z"/>
				<path class="st5" d="M374.6,89.9c0-7.2-0.9-12.5-2.7-15.7c-1.8-3.2-5.2-4.8-10.1-4.8c-1.8,0-3.7,0.1-5.8,0.4s-3.7,0.5-4.8,0.7
					v55.8h-16V59.3c3.1-0.9,7.1-1.7,12.1-2.5c5-0.8,10.2-1.2,15.8-1.2c4.8,0,8.7,0.6,11.7,1.9c3,1.2,5.6,2.9,7.6,4.9
					c1-0.7,2.2-1.5,3.7-2.2c1.5-0.8,3.2-1.5,5-2.2s3.8-1.2,5.9-1.7c2.1-0.4,4.2-0.7,6.3-0.7c5.4,0,9.8,0.8,13.3,2.3
					c3.5,1.5,6.2,3.7,8.2,6.5c2,2.8,3.3,6.1,4.1,10.1c0.7,3.9,1.1,8.2,1.1,12.9v38.9h-16V89.9c0-7.2-0.9-12.5-2.6-15.7
					c-1.8-3.2-5.2-4.8-10.2-4.8c-2.6,0-5,0.4-7.3,1.3c-2.3,0.8-4,1.7-5.2,2.4c0.7,2.2,1.2,4.5,1.5,7c0.3,2.5,0.4,5.1,0.4,7.9v38.2
					h-16V89.9z"/>
				<path class="st5" d="M507.9,91.7c0,5.3-0.7,10.1-2,14.5c-1.4,4.4-3.3,8.2-5.9,11.4c-2.6,3.2-5.8,5.6-9.6,7.4
					c-3.8,1.8-8.2,2.6-13,2.6c-3.3,0-6.3-0.4-9-1.2c-2.7-0.8-5-1.7-6.7-2.6v26.8h-16V59.3c3.3-0.9,7.3-1.7,12-2.5s9.8-1.2,15.1-1.2
					c5.5,0,10.4,0.8,14.7,2.5c4.3,1.7,8,4.1,11,7.2c3,3.1,5.4,6.9,7,11.4C507.1,81.1,507.9,86.1,507.9,91.7z M491.5,92
					c0-7.1-1.6-12.7-4.8-16.7c-3.2-4-8.4-6-15.5-6c-1.5,0-3.1,0.1-4.7,0.2c-1.6,0.1-3.2,0.4-4.8,0.9V110c1.4,1,3.3,1.9,5.6,2.7
					c2.3,0.8,4.8,1.3,7.5,1.3c5.8,0,10.1-2,12.8-6C490.2,104,491.5,98.7,491.5,92z"/>
				<path class="st5" d="M543.5,55.3c5.3,0,9.7,0.7,13.4,2c3.6,1.3,6.5,3.2,8.7,5.6c2.2,2.4,3.7,5.3,4.6,8.7
					c0.9,3.4,1.4,7.1,1.4,11.2v41.9c-2.5,0.5-6.2,1.2-11.2,1.9c-5,0.7-10.6,1.1-16.9,1.1c-4.1,0-7.9-0.4-11.4-1.2
					c-3.4-0.8-6.4-2.1-8.8-3.8c-2.4-1.8-4.3-4.1-5.7-6.9c-1.4-2.8-2-6.3-2-10.4c0-4,0.8-7.3,2.3-10.1c1.5-2.7,3.6-5,6.3-6.7
					c2.6-1.7,5.7-3,9.2-3.7c3.5-0.7,7.1-1.1,10.9-1.1c1.8,0,3.6,0.1,5.6,0.3c1.9,0.2,4,0.6,6.2,1.1v-2.6c0-1.9-0.2-3.6-0.7-5.3
					c-0.4-1.7-1.2-3.2-2.3-4.4c-1.1-1.3-2.6-2.3-4.4-3c-1.8-0.7-4.1-1.1-6.8-1.1c-3.7,0-7.1,0.3-10.2,0.8c-3.1,0.5-5.6,1.1-7.5,1.9
					l-2-13c2-0.7,5-1.4,8.9-2.1C534.9,55.7,539.1,55.3,543.5,55.3z M544.8,115c4.9,0,8.7-0.3,11.2-0.8V96.5
					c-0.9-0.3-2.2-0.5-3.8-0.8c-1.7-0.3-3.5-0.4-5.6-0.4c-1.8,0-3.6,0.1-5.4,0.4c-1.8,0.3-3.4,0.8-4.9,1.5c-1.5,0.7-2.6,1.7-3.5,3
					c-0.9,1.3-1.3,2.9-1.3,4.8c0,3.8,1.2,6.4,3.6,7.9C537.5,114.3,540.8,115,544.8,115z"/>
				<path class="st5" d="M626.5,71.5c-1.3-0.4-3.2-0.9-5.5-1.4c-2.3-0.5-5-0.7-8.1-0.7c-1.8,0-3.6,0.2-5.6,0.5
					c-2,0.4-3.4,0.7-4.2,0.9v55.4h-16V60.4c3.1-1.1,6.9-2.2,11.6-3.2c4.6-1,9.8-1.5,15.4-1.5c1.1,0,2.3,0.1,3.7,0.2
					c1.4,0.1,2.8,0.3,4.2,0.5c1.4,0.2,2.8,0.5,4.1,0.8c1.3,0.3,2.4,0.6,3.2,0.9L626.5,71.5z"/>
				<path class="st5" d="M632.6,92c0-6.1,0.9-11.4,2.7-16c1.8-4.6,4.2-8.4,7.2-11.4c3-3,6.4-5.3,10.3-6.9c3.9-1.5,7.8-2.3,11.9-2.3
					c9.5,0,16.9,3,22.3,8.9c5.3,5.9,8,14.7,8,26.4c0,0.9,0,1.9-0.1,3c0,1.1-0.1,2.1-0.2,3h-45.6c0.4,5.6,2.4,9.9,5.9,12.9
					c3.5,3,8.5,4.6,15.1,4.6c3.9,0,7.4-0.4,10.6-1.1c3.2-0.7,5.8-1.5,7.6-2.2l2.1,13.1c-0.9,0.4-2.1,0.9-3.6,1.4
					c-1.5,0.5-3.3,0.9-5.3,1.3c-2,0.4-4.1,0.7-6.4,1c-2.3,0.3-4.6,0.4-7,0.4c-6.1,0-11.4-0.9-15.9-2.7c-4.5-1.8-8.2-4.3-11.1-7.5
					c-2.9-3.2-5.1-7-6.5-11.4C633.3,102,632.6,97.2,632.6,92z M679,84.8c0-2.2-0.3-4.3-0.9-6.3c-0.6-2-1.5-3.7-2.7-5.2
					c-1.2-1.5-2.6-2.6-4.4-3.4c-1.7-0.8-3.8-1.3-6.1-1.3c-2.5,0-4.6,0.5-6.5,1.4s-3.4,2.1-4.7,3.6c-1.3,1.5-2.3,3.2-3,5.2
					c-0.7,1.9-1.2,3.9-1.5,6H679z"/>
				<path class="st5" d="M731,55.3c5.3,0,9.7,0.7,13.4,2c3.6,1.3,6.5,3.2,8.7,5.6c2.2,2.4,3.7,5.3,4.6,8.7c0.9,3.4,1.4,7.1,1.4,11.2
					v41.9c-2.5,0.5-6.2,1.2-11.2,1.9c-5,0.7-10.6,1.1-16.9,1.1c-4.1,0-7.9-0.4-11.4-1.2c-3.4-0.8-6.4-2.1-8.8-3.8
					c-2.4-1.8-4.3-4.1-5.7-6.9c-1.4-2.8-2-6.3-2-10.4c0-4,0.8-7.3,2.3-10.1c1.5-2.7,3.6-5,6.3-6.7c2.6-1.7,5.7-3,9.2-3.7
					c3.5-0.7,7.1-1.1,10.9-1.1c1.8,0,3.6,0.1,5.6,0.3c1.9,0.2,4,0.6,6.2,1.1v-2.6c0-1.9-0.2-3.6-0.7-5.3c-0.4-1.7-1.2-3.2-2.3-4.4
					c-1.1-1.3-2.6-2.3-4.4-3c-1.8-0.7-4.1-1.1-6.8-1.1c-3.7,0-7.1,0.3-10.2,0.8c-3.1,0.5-5.6,1.1-7.5,1.9l-2-13c2-0.7,5-1.4,8.9-2.1
					C722.5,55.7,726.6,55.3,731,55.3z M732.3,115c4.9,0,8.7-0.3,11.2-0.8V96.5c-0.9-0.3-2.2-0.5-3.8-0.8c-1.7-0.3-3.5-0.4-5.6-0.4
					c-1.8,0-3.6,0.1-5.4,0.4c-1.8,0.3-3.4,0.8-4.9,1.5c-1.5,0.7-2.6,1.7-3.5,3c-0.9,1.3-1.3,2.9-1.3,4.8c0,3.8,1.2,6.4,3.6,7.9
					C725.1,114.3,728.3,115,732.3,115z"/>
				<path class="st5" d="M798.7,127.5c-4.8-0.1-8.7-0.6-11.8-1.6c-3.1-1-5.6-2.4-7.5-4.2c-1.9-1.8-3.2-4.1-3.9-6.7
					c-0.8-2.7-1.1-5.8-1.1-9.2V26.2l16-2.6v79.2c0,1.9,0.2,3.6,0.5,4.9c0.3,1.3,0.9,2.4,1.7,3.4c0.8,0.9,1.9,1.6,3.2,2.1
					c1.4,0.5,3.1,0.9,5.2,1.1L798.7,127.5z"/>
				<path class="st5" d="M834,127.5c-4.8-0.1-8.7-0.6-11.8-1.6c-3.1-1-5.6-2.4-7.5-4.2c-1.9-1.8-3.2-4.1-3.9-6.7
					c-0.8-2.7-1.1-5.8-1.1-9.2V26.2l16-2.6v79.2c0,1.9,0.2,3.6,0.5,4.9c0.3,1.3,0.9,2.4,1.7,3.4c0.8,0.9,1.9,1.6,3.2,2.1
					c1.4,0.5,3.1,0.9,5.2,1.1L834,127.5z"/>
				<path class="st5" d="M907.6,91.7c0,5.6-0.8,10.6-2.4,15c-1.6,4.5-4,8.3-7,11.4c-3,3.2-6.7,5.6-11,7.3c-4.3,1.7-9.2,2.5-14.7,2.5
					c-5.3,0-10.3-0.4-15.1-1.2c-4.8-0.8-8.8-1.7-12-2.6V26.2l16-2.6v35.8c1.9-1,4.1-1.9,6.8-2.6c2.7-0.8,5.7-1.2,8.9-1.2
					c4.8,0,9.2,0.9,13,2.6c3.8,1.7,7,4.2,9.6,7.3c2.6,3.2,4.5,7,5.9,11.4C906.9,81.4,907.6,86.3,907.6,91.7z M891.2,91.4
					c0-6.8-1.3-12.2-4-16.1c-2.7-4-6.9-6-12.8-6c-2.6,0-5.1,0.4-7.5,1.2c-2.3,0.8-4.2,1.7-5.6,2.6V113c1.1,0.3,2.6,0.5,4.4,0.7
					c1.8,0.2,4,0.3,6.5,0.3c5.9,0,10.5-2,13.9-6C889.5,104,891.2,98.5,891.2,91.4z"/>
				<path class="st5" d="M959.5,71.5c-1.3-0.4-3.2-0.9-5.5-1.4c-2.3-0.5-5-0.7-8.1-0.7c-1.8,0-3.6,0.2-5.6,0.5
					c-2,0.4-3.4,0.7-4.2,0.9v55.4h-16V60.4c3.1-1.1,6.9-2.2,11.6-3.2c4.6-1,9.8-1.5,15.4-1.5c1.1,0,2.3,0.1,3.7,0.2
					c1.4,0.1,2.8,0.3,4.2,0.5c1.4,0.2,2.8,0.5,4.1,0.8c1.3,0.3,2.4,0.6,3.2,0.9L959.5,71.5z"/>
				<path class="st5" d="M1032,91.6c0,5.5-0.8,10.4-2.4,14.9c-1.6,4.5-3.8,8.3-6.7,11.5s-6.4,5.6-10.5,7.4
					c-4.1,1.8-8.6,2.6-13.6,2.6c-4.9,0-9.4-0.9-13.5-2.6c-4.1-1.8-7.5-4.2-10.4-7.4s-5.2-7-6.8-11.5c-1.6-4.5-2.4-9.5-2.4-14.9
					c0-5.5,0.8-10.4,2.4-14.9c1.6-4.5,3.9-8.3,6.9-11.4c3-3.2,6.5-5.6,10.5-7.3c4.1-1.7,8.5-2.6,13.4-2.6c4.8,0,9.3,0.9,13.4,2.6
					s7.6,4.2,10.5,7.3c2.9,3.2,5.2,7,6.8,11.4C1031.2,81.1,1032,86.1,1032,91.6z M1015.6,91.6c0-6.9-1.5-12.3-4.4-16.3
					c-3-4-7.1-6-12.4-6s-9.4,2-12.4,6c-3,4-4.4,9.5-4.4,16.3c0,7,1.5,12.5,4.4,16.5c3,4.1,7.1,6.1,12.4,6.1s9.4-2,12.4-6.1
					C1014.1,104,1015.6,98.5,1015.6,91.6z"/>
			</g>
			<g class="st4">
				<path class="st5" d="M1068.5,84c2-2.1,4.2-4.4,6.5-6.8c2.3-2.4,4.5-4.8,6.7-7.3c2.2-2.4,4.3-4.8,6.3-7c2-2.2,3.7-4.2,5.1-5.9
					h18.9c-4.4,4.9-9,10.1-13.9,15.3s-9.8,10.4-14.7,15.5c2.6,2.2,5.4,4.9,8.3,8c2.9,3.1,5.7,6.5,8.4,10c2.7,3.5,5.3,7.1,7.7,10.6
					c2.4,3.5,4.4,6.8,5.9,9.8h-18.5c-1.6-2.7-3.4-5.6-5.5-8.6c-2.1-3-4.3-5.9-6.7-8.7c-2.4-2.8-4.8-5.5-7.3-8
					c-2.5-2.5-4.9-4.6-7.3-6.4v31.7h-16v-100l16-2.6V84z"/>
			</g>
			<g class="st4">
				<path class="st5" d="M1115.2,92c0-6.1,0.9-11.4,2.7-16c1.8-4.6,4.2-8.4,7.2-11.4c3-3,6.4-5.3,10.3-6.9c3.9-1.5,7.8-2.3,11.9-2.3
					c9.5,0,16.9,3,22.3,8.9c5.3,5.9,8,14.7,8,26.4c0,0.9,0,1.9-0.1,3c0,1.1-0.1,2.1-0.2,3h-45.6c0.4,5.6,2.4,9.9,5.9,12.9
					c3.5,3,8.5,4.6,15.1,4.6c3.9,0,7.4-0.4,10.6-1.1c3.2-0.7,5.8-1.5,7.6-2.2l2.1,13.1c-0.9,0.4-2.1,0.9-3.6,1.4
					c-1.5,0.5-3.3,0.9-5.3,1.3c-2,0.4-4.1,0.7-6.4,1c-2.3,0.3-4.6,0.4-7,0.4c-6.1,0-11.4-0.9-15.9-2.7c-4.5-1.8-8.2-4.3-11.1-7.5
					c-2.9-3.2-5.1-7-6.5-11.4C1115.9,102,1115.2,97.2,1115.2,92z M1161.6,84.8c0-2.2-0.3-4.3-0.9-6.3c-0.6-2-1.5-3.7-2.7-5.2
					c-1.2-1.5-2.6-2.6-4.4-3.4c-1.7-0.8-3.8-1.3-6.1-1.3c-2.5,0-4.6,0.5-6.5,1.4s-3.4,2.1-4.7,3.6c-1.3,1.5-2.3,3.2-3,5.2
					c-0.7,1.9-1.2,3.9-1.5,6H1161.6z"/>
				<path class="st5" d="M1230,71.5c-1.3-0.4-3.2-0.9-5.5-1.4c-2.3-0.5-5-0.7-8.1-0.7c-1.8,0-3.6,0.2-5.6,0.5
					c-2,0.4-3.4,0.7-4.2,0.9v55.4h-16V60.4c3.1-1.1,6.9-2.2,11.6-3.2c4.6-1,9.8-1.5,15.4-1.5c1.1,0,2.3,0.1,3.7,0.2
					c1.4,0.1,2.8,0.3,4.2,0.5c1.4,0.2,2.8,0.5,4.1,0.8c1.3,0.3,2.4,0.6,3.2,0.9L1230,71.5z"/>
				<path class="st5" d="M1257.2,114.7c4.2,0,7.3-0.5,9.3-1.5c1.9-1,2.9-2.8,2.9-5.2c0-2.3-1-4.2-3.1-5.7c-2.1-1.5-5.5-3.1-10.3-4.9
					c-2.9-1.1-5.6-2.2-8-3.4c-2.4-1.2-4.5-2.6-6.3-4.2c-1.8-1.6-3.2-3.5-4.2-5.8c-1-2.2-1.5-5-1.5-8.3c0-6.3,2.3-11.4,7-15
					c4.7-3.7,11-5.5,19-5.5c4.1,0,7.9,0.4,11.6,1.1c3.7,0.8,6.5,1.5,8.3,2.2l-2.9,13c-1.8-0.8-4-1.5-6.7-2.2c-2.7-0.7-5.9-1-9.5-1
					c-3.3,0-5.9,0.6-7.9,1.7c-2,1.1-3,2.8-3,5.1c0,1.1,0.2,2.2,0.6,3c0.4,0.9,1.1,1.7,2,2.4c1,0.8,2.2,1.5,3.8,2.2
					c1.6,0.8,3.5,1.5,5.8,2.3c3.8,1.4,7,2.8,9.7,4.2c2.6,1.4,4.8,2.9,6.5,4.6c1.7,1.7,3,3.7,3.8,5.9c0.8,2.2,1.2,4.8,1.2,7.9
					c0,6.6-2.4,11.6-7.3,15c-4.9,3.4-11.9,5.1-21,5.1c-6.1,0-11-0.5-14.7-1.5s-6.3-1.8-7.8-2.4l2.8-13.4c2.4,1,5.2,1.9,8.5,2.8
					C1249.2,114.3,1253,114.7,1257.2,114.7z"/>
			</g>
			<g class="st4">
				<path class="st5" d="M1311.7,120.5c0,2-0.6,3.7-1.9,5.2c-1.3,1.4-3.1,2.1-5.4,2.1c-2.3,0-4.1-0.7-5.4-2.1
					c-1.3-1.4-1.9-3.1-1.9-5.2c0-2,0.6-3.7,1.9-5.2c1.3-1.4,3.1-2.1,5.4-2.1c2.3,0,4.1,0.7,5.4,2.1
					C1311.1,116.8,1311.7,118.5,1311.7,120.5z"/>
				<path class="st5" d="M1356.4,127.7c-5.3,0-10-0.8-14-2.5c-4.1-1.7-7.4-4.1-10.1-7.2c-2.7-3.1-4.7-6.9-6.1-11.2
					c-1.4-4.4-2.1-9.2-2.1-14.5c0-5.4,0.7-10.3,2.2-14.7c1.5-4.4,3.5-8.2,6.3-11.4c2.7-3.2,6-5.6,9.9-7.3c3.9-1.7,8.2-2.6,13.1-2.6
					c3.7,0,7.2,0.3,10.4,0.9c3.2,0.6,5.7,1.4,7.5,2.4l-2.2,7.4c-1.8-0.9-3.7-1.6-6-2.1c-2.2-0.5-5.2-0.8-8.9-0.8
					c-7.6,0-13.3,2.4-17.3,7.3c-3.9,4.9-5.9,11.8-5.9,20.8c0,4.1,0.4,7.8,1.3,11.2c0.9,3.4,2.3,6.3,4.3,8.7c2,2.4,4.5,4.3,7.7,5.7
					c3.1,1.4,6.9,2,11.4,2c3.7,0,6.8-0.4,9.3-1.3c2.5-0.8,4.3-1.6,5.5-2.2l1.9,7.4c-1.6,0.9-4.1,1.7-7.5,2.6
					C1363.7,127.3,1360.1,127.7,1356.4,127.7z"/>
				<path class="st5" d="M1443.3,92.1c0,5.4-0.8,10.3-2.3,14.7c-1.5,4.4-3.7,8.2-6.5,11.2c-2.8,3.1-6.1,5.5-9.9,7.2
					c-3.8,1.7-8,2.6-12.6,2.6c-4.6,0-8.8-0.9-12.6-2.6c-3.8-1.7-7.1-4.1-9.9-7.2c-2.8-3.1-4.9-6.8-6.5-11.2
					c-1.5-4.4-2.3-9.3-2.3-14.7c0-5.4,0.8-10.3,2.3-14.7c1.5-4.4,3.7-8.2,6.5-11.3c2.8-3.1,6.1-5.6,9.9-7.3c3.8-1.7,8-2.6,12.6-2.6
					c4.6,0,8.8,0.9,12.6,2.6c3.8,1.7,7.1,4.1,9.9,7.3c2.8,3.1,4.9,6.9,6.5,11.3C1442.5,81.8,1443.3,86.7,1443.3,92.1z M1434.2,92.1
					c0-8.6-2-15.4-6-20.4c-4-5.1-9.3-7.6-16.1-7.6c-6.8,0-12.2,2.5-16.1,7.6c-4,5.1-6,11.9-6,20.4c0,8.6,2,15.3,6,20.4
					c4,5,9.3,7.5,16.1,7.5c6.8,0,12.2-2.5,16.1-7.5S1434.2,100.7,1434.2,92.1z"/>
				<path class="st5" d="M1458,60.2c2.6-0.7,5.9-1.5,10-2.4c4.1-0.9,9.4-1.3,15.9-1.3c8.6,0,14.9,2.5,18.8,7.5
					c0.4-0.4,1.3-0.9,2.6-1.8c1.3-0.8,2.9-1.7,4.8-2.6c1.9-0.9,4.2-1.6,6.8-2.2c2.6-0.6,5.5-0.9,8.7-0.9c5.2,0,9.4,0.8,12.6,2.3
					c3.2,1.5,5.7,3.7,7.5,6.5c1.8,2.8,3,6.1,3.6,10c0.6,3.9,0.9,8.1,0.9,12.7v38.2h-8.6V90.8c0-4.5-0.2-8.4-0.6-11.7
					c-0.4-3.3-1.2-6-2.4-8.2c-1.2-2.2-2.9-3.8-5.1-4.9c-2.2-1.1-5.1-1.7-8.6-1.7c-2.6,0-5,0.2-7.2,0.7c-2.2,0.5-4,1.1-5.6,1.8
					c-1.6,0.7-2.9,1.4-3.9,2.1c-1,0.7-1.7,1.2-2.2,1.6c0.8,2.3,1.4,4.9,1.8,7.7c0.4,2.9,0.6,5.9,0.6,9.1v38.9h-8.6V90.8
					c0-4.5-0.2-8.4-0.6-11.7c-0.4-3.3-1.2-6-2.4-8.2c-1.2-2.2-3-3.8-5.2-4.9c-2.2-1.1-5.2-1.7-8.9-1.7c-4.1,0-7.6,0.2-10.5,0.7
					c-2.9,0.4-4.7,0.8-5.5,1.2v60h-8.6V60.2z"/>
			</g>
		</g>
	</g>
</g>
</svg>
