<svg width="175" height="18" viewBox="0 0 175 18" fill="none" xmlns="http://www.w3.org/2000/svg">
<g clip-path="url(#clip0_145_3970)">
<path d="M3.07498 4.69245C2.20401 5.56342 1.42238 6.53488 0.763567 7.57335L0.674237 7.72967C0.517909 7.35002 0.395081 6.97037 0.294584 6.59072C-0.956036 1.83389 1.89136 -0.980005 6.63702 0.315281C7.26233 0.482774 7.87647 0.717266 8.46828 0.985256C7.57498 1.37607 6.71518 1.83389 5.90004 2.38104C4.88391 3.06218 3.93478 3.83265 3.07498 4.69245Z" fill="white"/>
<path d="M9.08242 16.7855C6.0117 15.3004 3.11964 12.4977 1.45587 9.44927C1.63453 9.08079 1.83552 8.7123 2.04768 8.35498C2.62833 7.37235 3.30947 6.45672 4.07994 5.60808C5.60972 3.93315 7.41865 2.48153 9.48441 1.51007C12.5551 3.22967 15.3467 6.18873 16.7871 9.31528C16.6531 9.5721 16.508 9.84009 16.3517 10.0858C15.7598 11.0684 15.0675 11.984 14.2971 12.8215C12.812 14.4294 11.0588 15.8364 9.08242 16.7855Z" fill="white"/>
<path d="M11.3938 17.69C11.003 17.5895 10.6234 17.4555 10.2549 17.3103C10.9919 16.8302 11.6953 16.2942 12.3541 15.7024C13.2363 14.9319 14.0514 14.0833 14.7884 13.1788C15.5254 12.2743 16.1842 11.314 16.7536 10.3091C16.8765 10.0969 16.9993 9.87359 17.111 9.65026C17.3678 10.2197 17.5688 10.8116 17.7363 11.4145C18.9869 16.1825 16.1395 18.9853 11.3938 17.69Z" fill="white"/>
<path d="M17.7362 6.97037C17.5018 7.7855 17.1779 8.56714 16.7759 9.31528C16.642 9.5721 16.4968 9.84009 16.3405 10.0858C15.7487 11.0684 15.0563 11.984 14.2859 12.8215C12.7896 14.4294 11.0477 15.8364 9.07123 16.7855C8.99307 16.8302 8.91491 16.8637 8.83674 16.8972C8.70275 16.953 8.57992 17.02 8.44592 17.0758L8.04394 17.2322L7.64195 17.3885C7.50796 17.4331 7.37396 17.4778 7.23997 17.5113C6.70399 17.69 6.14568 17.8128 5.58736 17.8798C4.47074 18.025 3.29828 17.9245 2.31565 17.3885C2.06999 17.2545 1.84667 17.0982 1.63451 16.9195C1.43352 16.7297 1.24369 16.5287 1.08736 16.2942C0.774707 15.8364 0.551382 15.3227 0.450886 14.7756C0.227561 13.6813 0.361556 12.5312 0.663045 11.448C0.864037 10.7557 1.12086 10.0858 1.43352 9.43811C1.61218 9.06962 1.81317 8.70114 2.02533 8.34382C2.60597 7.36119 3.28711 6.44555 4.05759 5.60808C5.58736 3.93315 7.3963 2.48153 9.46205 1.51007L9.47322 1.4989C9.60721 1.44307 9.73004 1.37607 9.86404 1.32024L10.266 1.16392L10.668 1.00759C10.802 0.962923 10.936 0.918258 11.07 0.873593C11.6171 0.694933 12.1755 0.572105 12.7338 0.493941C13.8504 0.34878 15.034 0.43811 16.0278 0.962924C16.2735 1.09692 16.508 1.25325 16.7201 1.43191C16.9323 1.62173 17.1109 1.82272 17.2784 2.05722C17.6023 2.51503 17.8256 3.03985 17.9372 3.59816C18.1717 4.71478 18.0377 5.87607 17.7362 6.97037Z" fill="white"/>
<path d="M22.1804 10.2421C22.1804 9.6726 22.2697 9.13662 22.4484 8.64531C22.6271 8.14283 22.8839 7.71851 23.2077 7.35002C23.5427 6.98153 23.9335 6.70238 24.4137 6.49022C24.8826 6.27806 25.4186 6.17756 26.0104 6.17756C26.7362 6.17756 27.4286 6.31156 28.0762 6.57955L27.6854 8.04233C27.4732 7.953 27.2499 7.87483 26.9819 7.819C26.7251 7.76317 26.4459 7.72967 26.1444 7.72967C25.441 7.72967 24.9161 7.953 24.5477 8.38848C24.1792 8.82397 24.0005 9.44928 24.0005 10.2421C24.0005 11.0126 24.168 11.6155 24.5142 12.0622C24.8603 12.5088 25.441 12.7322 26.2561 12.7322C26.5576 12.7322 26.8591 12.6987 27.1606 12.6428C27.4509 12.587 27.7077 12.5088 27.931 12.4195L28.1767 13.8934C27.9757 13.9939 27.6854 14.0833 27.2834 14.1614C26.8814 14.2396 26.4683 14.2843 26.0551 14.2843C25.3963 14.2843 24.8268 14.1838 24.3355 13.9828C23.8442 13.7818 23.4422 13.5026 23.1296 13.1453C22.8057 12.788 22.5712 12.3525 22.4149 11.8612C22.2586 11.3587 22.1804 10.8227 22.1804 10.2421Z" fill="white"/>
<path d="M36.0266 10.2309C36.0266 10.8451 35.9372 11.3922 35.7586 11.8947C35.5799 12.3972 35.3343 12.8215 35.0104 13.1788C34.6866 13.5361 34.2958 13.8041 33.838 14.0051C33.3802 14.2061 32.8777 14.2954 32.3194 14.2954C31.7722 14.2954 31.2698 14.1949 30.8119 14.0051C30.3541 13.8041 29.9745 13.5361 29.6506 13.1788C29.3268 12.8215 29.07 12.3972 28.8913 11.8947C28.7127 11.3922 28.6234 10.8339 28.6234 10.2309C28.6234 9.61677 28.7127 9.06962 28.8913 8.56714C29.07 8.06466 29.3268 7.64034 29.6618 7.29419C29.9968 6.93687 30.3876 6.66888 30.8343 6.47905C31.2921 6.28923 31.7834 6.18873 32.3305 6.18873C32.8665 6.18873 33.369 6.28923 33.8268 6.47905C34.2846 6.66888 34.6755 6.94803 34.9993 7.29419C35.3231 7.65151 35.5799 8.07583 35.7586 8.56714C35.9372 9.05846 36.0266 9.61677 36.0266 10.2309ZM34.1953 10.2309C34.1953 9.46044 34.0278 8.85746 33.704 8.41081C33.369 7.96416 32.9112 7.74084 32.3194 7.74084C31.7276 7.74084 31.2698 7.96416 30.9348 8.41081C30.5998 8.85746 30.4435 9.47161 30.4435 10.2309C30.4435 11.0126 30.6109 11.6267 30.9348 12.0733C31.2698 12.5312 31.7276 12.7545 32.3194 12.7545C32.9112 12.7545 33.369 12.5312 33.704 12.0733C34.039 11.6155 34.1953 11.0014 34.1953 10.2309Z" fill="white"/>
<path d="M41.833 10.0411C41.833 9.23712 41.7325 8.64531 41.5315 8.28799C41.3306 7.93067 40.9509 7.75201 40.4038 7.75201C40.2028 7.75201 39.9906 7.76317 39.7561 7.79667C39.5216 7.83017 39.343 7.8525 39.2201 7.87483V14.1056H37.4335V6.62421C37.7797 6.52372 38.2263 6.43439 38.7846 6.34506C39.343 6.25573 39.9236 6.21106 40.5489 6.21106C41.0849 6.21106 41.5204 6.27806 41.8554 6.42322C42.1904 6.55722 42.4807 6.74704 42.704 6.97037C42.8157 6.8922 42.9497 6.80287 43.1172 6.72471C43.2846 6.63538 43.4745 6.55722 43.6755 6.47905C43.8765 6.40089 44.0998 6.34506 44.3343 6.28923C44.5688 6.24456 44.8033 6.21106 45.0377 6.21106C45.6407 6.21106 46.132 6.30039 46.5229 6.46789C46.9137 6.63538 47.2152 6.88104 47.4385 7.19369C47.6618 7.50635 47.807 7.87483 47.8963 8.32148C47.9745 8.75697 48.0191 9.23712 48.0191 9.76193V14.1056H46.2325V10.0411C46.2325 9.23712 46.132 8.64531 45.9422 8.28799C45.7412 7.93067 45.3616 7.75201 44.8033 7.75201C44.5129 7.75201 44.2449 7.79667 43.9881 7.89717C43.7313 7.9865 43.5415 8.08699 43.4075 8.16516C43.4856 8.41081 43.5415 8.66764 43.575 8.94679C43.6085 9.22595 43.6196 9.51627 43.6196 9.82893V14.0944H41.833V10.0411Z" fill="white"/>
<path d="M56.7177 10.2421C56.7177 10.8339 56.6395 11.3699 56.4943 11.8612C56.338 12.3525 56.1259 12.7768 55.8355 13.1341C55.5452 13.4915 55.1879 13.7594 54.7636 13.9604C54.3393 14.1614 53.8479 14.2508 53.312 14.2508C52.9435 14.2508 52.6085 14.2061 52.307 14.1168C52.0055 14.0274 51.7487 13.9269 51.5589 13.8264V16.819H49.7723V6.62421C50.1408 6.52372 50.5874 6.43439 51.1122 6.34506C51.637 6.25573 52.2065 6.21106 52.7983 6.21106C53.4125 6.21106 53.9596 6.30039 54.4398 6.49022C54.9199 6.68004 55.3331 6.94804 55.668 7.29419C56.003 7.64034 56.271 8.06466 56.4497 8.56714C56.6283 9.05846 56.7177 9.61677 56.7177 10.2421ZM54.8864 10.2756C54.8864 9.48277 54.7077 8.85746 54.3504 8.41081C53.9931 7.96416 53.4125 7.74084 52.6197 7.74084C52.4522 7.74084 52.2735 7.75201 52.0949 7.76317C51.9162 7.77434 51.7375 7.80784 51.5589 7.86367V12.2855C51.7152 12.3972 51.9274 12.4977 52.1842 12.587C52.441 12.6763 52.7202 12.7322 53.0216 12.7322C53.6693 12.7322 54.1494 12.5088 54.4509 12.0622C54.7412 11.6155 54.8864 11.0237 54.8864 10.2756Z" fill="white"/>
<path d="M60.6929 6.17756C61.2847 6.17756 61.776 6.25573 62.1891 6.40089C62.5911 6.54605 62.915 6.75821 63.1606 7.0262C63.4063 7.29419 63.5738 7.61801 63.6743 7.99766C63.7748 8.37731 63.8306 8.79047 63.8306 9.24828V13.9269C63.5514 13.9828 63.1383 14.0609 62.58 14.1391C62.0217 14.2173 61.3963 14.2619 60.6929 14.2619C60.235 14.2619 59.8107 14.2173 59.4199 14.1279C59.0402 14.0386 58.7053 13.8934 58.4373 13.7036C58.1693 13.5026 57.9571 13.2458 57.8008 12.9331C57.6445 12.6205 57.5775 12.2297 57.5775 11.7719C57.5775 11.3252 57.6668 10.9567 57.8343 10.6441C58.0018 10.3426 58.2363 10.0858 58.5378 9.89592C58.8281 9.7061 59.1742 9.56094 59.5651 9.48277C59.9559 9.40461 60.3579 9.35995 60.7822 9.35995C60.9832 9.35995 61.1842 9.37111 61.4075 9.39344C61.6197 9.41578 61.8542 9.46044 62.0998 9.51627V9.22595C62.0998 9.01379 62.0775 8.82397 62.0217 8.63414C61.977 8.44431 61.8877 8.27682 61.7648 8.14282C61.642 7.99766 61.4745 7.886 61.2735 7.80784C61.0725 7.72967 60.8157 7.68501 60.5142 7.68501C60.101 7.68501 59.7214 7.71851 59.3752 7.77434C59.0291 7.83017 58.7499 7.89717 58.5378 7.9865L58.3144 6.53488C58.5378 6.45672 58.8727 6.37856 59.3082 6.30039C59.7326 6.22223 60.2015 6.17756 60.6929 6.17756ZM60.838 12.8438C61.3852 12.8438 61.8095 12.8103 62.0886 12.7545V10.7781C61.9882 10.7446 61.843 10.7222 61.6643 10.6887C61.4745 10.6552 61.2735 10.6441 61.039 10.6441C60.838 10.6441 60.637 10.6552 60.436 10.6887C60.235 10.7222 60.0564 10.7781 59.8889 10.8562C59.7214 10.9344 59.5986 11.046 59.4981 11.1912C59.3976 11.3364 59.3529 11.515 59.3529 11.7272C59.3529 12.1515 59.4869 12.4418 59.7549 12.6093C60.0229 12.7657 60.3914 12.8438 60.838 12.8438Z" fill="white"/>
<path d="M69.9608 7.98649C69.8156 7.94183 69.6035 7.886 69.3467 7.83017C69.0898 7.77434 68.7884 7.752 68.4422 7.752C68.2412 7.752 68.0402 7.77434 67.8169 7.80783C67.5936 7.8525 67.4373 7.886 67.3479 7.90833V14.0944H65.5613V6.74704C65.9075 6.62421 66.3318 6.50138 66.8566 6.38972C67.3703 6.27806 67.9509 6.22223 68.5762 6.22223C68.699 6.22223 68.833 6.23339 68.9894 6.24456C69.1457 6.25573 69.302 6.27806 69.4583 6.30039C69.6147 6.32272 69.771 6.35622 69.9161 6.38972C70.0613 6.42322 70.1841 6.45672 70.2735 6.49022L69.9608 7.98649Z" fill="white"/>
<path d="M70.642 10.2756C70.642 9.59444 70.7425 9.00263 70.9435 8.48898C71.1444 7.97533 71.4124 7.55101 71.7474 7.21602C72.0824 6.88104 72.4621 6.62421 72.8975 6.44555C73.333 6.27806 73.7685 6.18873 74.2263 6.18873C75.2871 6.18873 76.1134 6.52372 76.7164 7.18253C77.3082 7.84134 77.6097 8.82397 77.6097 10.1304C77.6097 10.2309 77.6097 10.3426 77.5985 10.4654C77.5985 10.5882 77.5873 10.6999 77.5762 10.8004H72.4844C72.5291 11.4257 72.7524 11.9059 73.1432 12.2408C73.534 12.5758 74.0923 12.7545 74.8293 12.7545C75.2648 12.7545 75.6556 12.7098 76.0129 12.6317C76.3702 12.5535 76.6605 12.4642 76.8615 12.386L77.096 13.8488C76.9955 13.8934 76.8615 13.9493 76.694 14.0051C76.5266 14.0609 76.3256 14.1056 76.1022 14.1503C75.8789 14.1949 75.6444 14.2284 75.3876 14.2619C75.1308 14.2954 74.874 14.3066 74.606 14.3066C73.9248 14.3066 73.333 14.2061 72.8305 14.0051C72.3281 13.8041 71.9149 13.525 71.5911 13.1676C71.2673 12.8103 71.0216 12.386 70.8653 11.8947C70.7201 11.3922 70.642 10.8562 70.642 10.2756ZM75.8231 9.47161C75.8231 9.22595 75.7896 8.99146 75.7226 8.76813C75.6556 8.54481 75.5551 8.35498 75.4211 8.18749C75.2871 8.02 75.1308 7.89717 74.9298 7.80784C74.74 7.71851 74.5055 7.66267 74.2487 7.66267C73.9695 7.66267 73.735 7.71851 73.5229 7.819C73.3107 7.9195 73.1432 8.05349 72.998 8.22099C72.8529 8.38848 72.7412 8.57831 72.6631 8.80163C72.5849 9.01379 72.5291 9.23712 72.4956 9.47161H75.8231Z" fill="white"/>
<path d="M81.6295 6.17756C82.2213 6.17756 82.7127 6.25573 83.1258 6.40089C83.5278 6.54605 83.8516 6.75821 84.0973 7.0262C84.3429 7.29419 84.5104 7.61801 84.6109 7.99766C84.7114 8.37731 84.7672 8.79047 84.7672 9.24828V13.9269C84.4881 13.9828 84.0749 14.0609 83.5166 14.1391C82.9583 14.2173 82.333 14.2619 81.6295 14.2619C81.1717 14.2619 80.7474 14.2173 80.3566 14.1279C79.9769 14.0386 79.6419 13.8934 79.374 13.7036C79.106 13.5026 78.8938 13.2458 78.7375 12.9331C78.5812 12.6205 78.5142 12.2297 78.5142 11.7719C78.5142 11.3252 78.6035 10.9567 78.771 10.6441C78.9385 10.3426 79.173 10.0858 79.4745 9.89592C79.7648 9.7061 80.1109 9.56094 80.5017 9.48277C80.8926 9.40461 81.2945 9.35995 81.7189 9.35995C81.9199 9.35995 82.1208 9.37111 82.3442 9.39344C82.5563 9.41578 82.7908 9.46044 83.0365 9.51627V9.22595C83.0365 9.01379 83.0141 8.82397 82.9583 8.63414C82.9137 8.44431 82.8243 8.27682 82.7015 8.14282C82.5787 7.99766 82.4112 7.886 82.2102 7.80784C82.0092 7.72967 81.7524 7.68501 81.4509 7.68501C81.0377 7.68501 80.6581 7.71851 80.3119 7.77434C79.9658 7.83017 79.6866 7.89717 79.4745 7.9865L79.2511 6.53488C79.4745 6.45672 79.8094 6.37856 80.2449 6.30039C80.6804 6.22223 81.1382 6.17756 81.6295 6.17756ZM81.7747 12.8438C82.3218 12.8438 82.7462 12.8103 83.0253 12.7545V10.7781C82.9248 10.7446 82.7797 10.7222 82.601 10.6887C82.4112 10.6552 82.2102 10.6441 81.9757 10.6441C81.7747 10.6441 81.5737 10.6552 81.3727 10.6887C81.1717 10.7222 80.9931 10.7781 80.8256 10.8562C80.6581 10.9344 80.5352 11.046 80.4347 11.1912C80.3343 11.3364 80.2896 11.515 80.2896 11.7272C80.2896 12.1515 80.4236 12.4418 80.6916 12.6093C80.9707 12.7657 81.328 12.8438 81.7747 12.8438Z" fill="white"/>
<path d="M89.1891 14.2396C88.6532 14.2284 88.2177 14.1726 87.8715 14.0609C87.5253 13.9493 87.2462 13.7929 87.034 13.592C86.8219 13.391 86.6767 13.1341 86.5985 12.8438C86.5092 12.5423 86.4757 12.1962 86.4757 11.8165V2.92818L88.2623 2.63786V11.4815C88.2623 11.6937 88.2847 11.8835 88.3182 12.0287C88.3517 12.1738 88.4187 12.2967 88.508 12.4083C88.5973 12.5088 88.7202 12.587 88.8653 12.6428C89.0216 12.6987 89.2115 12.7433 89.446 12.7657L89.1891 14.2396Z" fill="white"/>
<path d="M93.1308 14.2396C92.5948 14.2284 92.1593 14.1726 91.8132 14.0609C91.467 13.9493 91.1878 13.7929 90.9757 13.592C90.7635 13.391 90.6184 13.1341 90.5402 12.8438C90.4509 12.5423 90.4174 12.1962 90.4174 11.8165V2.92818L92.204 2.63786V11.4815C92.204 11.6937 92.2263 11.8835 92.2598 12.0287C92.2933 12.1738 92.3603 12.2967 92.4496 12.4083C92.539 12.5088 92.6618 12.587 92.807 12.6428C92.9633 12.6987 93.1531 12.7433 93.3876 12.7657L93.1308 14.2396Z" fill="white"/>
<path d="M101.349 10.2421C101.349 10.8674 101.26 11.4257 101.081 11.917C100.903 12.4195 100.635 12.8438 100.3 13.19C99.9646 13.5473 99.5514 13.8153 99.0713 14.0051C98.5911 14.1949 98.044 14.2843 97.4298 14.2843C96.838 14.2843 96.2797 14.2396 95.7437 14.1503C95.2077 14.0609 94.7611 13.9604 94.4037 13.8599V2.92818L96.1904 2.63786V6.63538C96.4025 6.52372 96.6482 6.42322 96.9497 6.34506C97.2512 6.25573 97.5861 6.21106 97.9435 6.21106C98.4794 6.21106 98.9708 6.31156 99.3951 6.50139C99.8194 6.69121 100.177 6.97037 100.467 7.31652C100.757 7.67384 100.97 8.09816 101.126 8.58948C101.271 9.09196 101.349 9.6391 101.349 10.2421ZM99.5179 10.2086C99.5179 9.44928 99.3728 8.8463 99.0713 8.41082C98.7698 7.96417 98.3008 7.74084 97.642 7.74084C97.3517 7.74084 97.0725 7.78551 96.8045 7.87484C96.5477 7.96417 96.3355 8.06466 96.1792 8.16516V12.6205C96.302 12.654 96.4695 12.6763 96.6705 12.6987C96.8715 12.721 97.1172 12.7322 97.3963 12.7322C98.0551 12.7322 98.5688 12.5088 98.9484 12.0622C99.3281 11.6155 99.5179 11.0014 99.5179 10.2086Z" fill="white"/>
<path d="M107.144 7.98649C106.999 7.94183 106.787 7.886 106.53 7.83017C106.273 7.77434 105.972 7.752 105.626 7.752C105.425 7.752 105.224 7.77434 105 7.80783C104.777 7.8525 104.621 7.886 104.531 7.90833V14.0944H102.745V6.74704C103.091 6.62421 103.515 6.50138 104.04 6.38972C104.554 6.27806 105.134 6.22223 105.76 6.22223C105.883 6.22223 106.017 6.23339 106.173 6.24456C106.329 6.25573 106.486 6.27806 106.642 6.30039C106.798 6.32272 106.955 6.35622 107.1 6.38972C107.245 6.42322 107.368 6.45672 107.457 6.49022L107.144 7.98649Z" fill="white"/>
<path d="M115.24 10.2309C115.24 10.8451 115.151 11.3922 114.972 11.8947C114.793 12.3972 114.548 12.8215 114.224 13.1788C113.9 13.5361 113.509 13.8041 113.051 14.0051C112.594 14.2061 112.091 14.2954 111.533 14.2954C110.986 14.2954 110.483 14.1949 110.025 14.0051C109.567 13.8041 109.188 13.5361 108.864 13.1788C108.54 12.8215 108.283 12.3972 108.105 11.8947C107.926 11.3922 107.837 10.8339 107.837 10.2309C107.837 9.61677 107.926 9.06962 108.105 8.56714C108.283 8.06466 108.54 7.64034 108.875 7.29419C109.21 6.93687 109.601 6.66888 110.048 6.47905C110.505 6.28923 110.997 6.18873 111.544 6.18873C112.08 6.18873 112.582 6.28923 113.04 6.47905C113.498 6.66888 113.889 6.94803 114.213 7.29419C114.536 7.65151 114.793 8.07583 114.972 8.56714C115.151 9.05846 115.24 9.61677 115.24 10.2309ZM113.409 10.2309C113.409 9.46044 113.241 8.85746 112.917 8.41081C112.582 7.96416 112.125 7.74084 111.533 7.74084C110.941 7.74084 110.483 7.96416 110.148 8.41081C109.813 8.85746 109.657 9.47161 109.657 10.2309C109.657 11.0126 109.824 11.6267 110.148 12.0733C110.483 12.5312 110.941 12.7545 111.533 12.7545C112.125 12.7545 112.582 12.5312 112.917 12.0733C113.241 11.6155 113.409 11.0014 113.409 10.2309Z" fill="white"/>
<path d="M119.316 9.38228C119.539 9.14778 119.785 8.89096 120.042 8.62297C120.298 8.35498 120.544 8.08699 120.79 7.80784C121.035 7.53984 121.27 7.27185 121.493 7.0262C121.716 6.78054 121.906 6.55721 122.063 6.36739H124.173C123.682 6.91454 123.168 7.49518 122.621 8.07583C122.074 8.65647 121.527 9.23711 120.979 9.80659C121.27 10.0523 121.582 10.3537 121.906 10.6999C122.23 11.046 122.543 11.4257 122.844 11.8165C123.146 12.2073 123.436 12.6093 123.704 13.0001C123.972 13.391 124.195 13.7594 124.363 14.0944H122.297C122.118 13.7929 121.917 13.4691 121.683 13.1341C121.448 12.7991 121.203 12.4753 120.935 12.1627C120.667 11.85 120.399 11.5485 120.12 11.2694C119.841 10.9902 119.573 10.7557 119.305 10.5547V14.0944H117.518V2.92818L119.305 2.63786V9.38228H119.316Z" fill="white"/>
<path d="M124.53 10.2756C124.53 9.59444 124.631 9.00263 124.832 8.48898C125.033 7.97533 125.301 7.55101 125.636 7.21602C125.971 6.88104 126.35 6.62421 126.786 6.44555C127.221 6.27806 127.657 6.18873 128.115 6.18873C129.176 6.18873 130.002 6.52372 130.605 7.18253C131.197 7.84134 131.498 8.82397 131.498 10.1304C131.498 10.2309 131.498 10.3426 131.487 10.4654C131.487 10.5882 131.476 10.6999 131.465 10.8004H126.373C126.417 11.4257 126.641 11.9059 127.032 12.2408C127.422 12.5758 127.981 12.7545 128.718 12.7545C129.153 12.7545 129.544 12.7098 129.901 12.6317C130.259 12.5535 130.549 12.4642 130.75 12.386L130.984 13.8488C130.884 13.8934 130.75 13.9493 130.582 14.0051C130.415 14.0609 130.214 14.1056 129.991 14.1503C129.767 14.1949 129.533 14.2284 129.276 14.2619C129.019 14.2954 128.762 14.3066 128.494 14.3066C127.813 14.3066 127.221 14.2061 126.719 14.0051C126.216 13.8041 125.803 13.525 125.479 13.1676C125.156 12.8103 124.91 12.386 124.754 11.8947C124.608 11.3922 124.53 10.8562 124.53 10.2756ZM129.711 9.47161C129.711 9.22595 129.678 8.99146 129.611 8.76813C129.544 8.54481 129.443 8.35498 129.31 8.18749C129.176 8.02 129.019 7.89717 128.818 7.80784C128.628 7.71851 128.394 7.66267 128.137 7.66267C127.858 7.66267 127.623 7.71851 127.411 7.819C127.199 7.9195 127.032 8.05349 126.886 8.22099C126.741 8.38848 126.63 8.57831 126.551 8.80163C126.473 9.01379 126.417 9.23712 126.384 9.47161H129.711Z" fill="white"/>
<path d="M137.349 7.9865C137.204 7.94183 136.992 7.886 136.735 7.83017C136.478 7.77434 136.177 7.752 135.831 7.752C135.63 7.752 135.429 7.77434 135.205 7.80784C134.982 7.8525 134.826 7.886 134.736 7.90833V14.0944H132.95V6.74704C133.296 6.62421 133.72 6.50138 134.245 6.38972C134.759 6.27806 135.339 6.22223 135.965 6.22223C136.087 6.22223 136.221 6.23339 136.378 6.24456C136.534 6.25573 136.69 6.27806 136.847 6.30039C137.003 6.32272 137.159 6.35622 137.305 6.38972C137.45 6.42322 137.573 6.45672 137.662 6.49022L137.349 7.9865Z" fill="white"/>
<path d="M140.386 12.8103C140.855 12.8103 141.202 12.7545 141.425 12.6428C141.637 12.5312 141.749 12.3302 141.749 12.0622C141.749 11.8054 141.637 11.5932 141.403 11.4257C141.168 11.2582 140.788 11.0796 140.252 10.8786C139.929 10.7557 139.627 10.6329 139.359 10.4989C139.091 10.3649 138.857 10.2086 138.656 10.0299C138.455 9.85126 138.298 9.6391 138.187 9.38228C138.075 9.13662 138.019 8.82397 138.019 8.45548C138.019 7.75201 138.276 7.18253 138.801 6.78054C139.326 6.36739 140.029 6.1664 140.922 6.1664C141.38 6.1664 141.805 6.21106 142.218 6.28923C142.631 6.37856 142.943 6.45672 143.144 6.53488L142.821 7.9865C142.62 7.89717 142.374 7.819 142.073 7.74084C141.771 7.66268 141.414 7.62918 141.012 7.62918C140.643 7.62918 140.353 7.69617 140.13 7.819C139.906 7.94183 139.795 8.13166 139.795 8.38848C139.795 8.51131 139.817 8.63414 139.862 8.72347C139.906 8.82397 139.984 8.9133 140.085 8.99146C140.197 9.08079 140.331 9.15895 140.509 9.23712C140.688 9.32645 140.9 9.40461 141.157 9.49394C141.581 9.65027 141.939 9.8066 142.24 9.96292C142.53 10.1193 142.776 10.2867 142.966 10.4766C143.156 10.6664 143.301 10.8897 143.39 11.1354C143.479 11.381 143.524 11.6714 143.524 12.0175C143.524 12.7545 143.256 13.3128 142.709 13.6925C142.162 14.0721 141.38 14.2619 140.364 14.2619C139.683 14.2619 139.136 14.2061 138.723 14.0944C138.31 13.9828 138.019 13.8934 137.852 13.8264L138.164 12.3302C138.432 12.4418 138.745 12.5423 139.113 12.6428C139.493 12.7657 139.917 12.8103 140.386 12.8103Z" fill="white"/>
<path d="M146.472 13.458C146.472 13.6813 146.405 13.8711 146.26 14.0386C146.115 14.1949 145.914 14.2731 145.657 14.2731C145.4 14.2731 145.199 14.1949 145.054 14.0386C144.909 13.8823 144.842 13.6925 144.842 13.458C144.842 13.2346 144.909 13.0448 145.054 12.8773C145.199 12.721 145.4 12.6428 145.657 12.6428C145.914 12.6428 146.115 12.721 146.26 12.8773C146.405 13.0448 146.472 13.2346 146.472 13.458Z" fill="white"/>
<path d="M151.463 14.2619C150.872 14.2619 150.347 14.1726 149.9 13.9828C149.442 13.7929 149.074 13.525 148.772 13.1788C148.471 12.8326 148.247 12.4083 148.091 11.9282C147.935 11.4369 147.857 10.9009 147.857 10.3091C147.857 9.7061 147.935 9.15895 148.102 8.66764C148.27 8.17632 148.493 7.752 148.806 7.39468C149.107 7.03736 149.476 6.76937 149.911 6.57955C150.347 6.38972 150.827 6.28923 151.374 6.28923C151.787 6.28923 152.178 6.32272 152.535 6.38972C152.893 6.45672 153.172 6.54605 153.373 6.65771L153.127 7.48401C152.926 7.38352 152.714 7.30535 152.457 7.24952C152.211 7.19369 151.876 7.16019 151.463 7.16019C150.615 7.16019 149.978 7.42818 149.532 7.97533C149.096 8.52248 148.873 9.29295 148.873 10.2979C148.873 10.7557 148.917 11.1689 149.018 11.5485C149.118 11.9282 149.275 12.252 149.498 12.52C149.721 12.788 150.001 13.0001 150.358 13.1565C150.704 13.3128 151.128 13.3798 151.631 13.3798C152.044 13.3798 152.39 13.3351 152.669 13.2346C152.948 13.1453 153.149 13.056 153.283 12.989L153.496 13.8153C153.317 13.9158 153.038 14.0051 152.658 14.1056C152.278 14.2173 151.876 14.2619 151.463 14.2619Z" fill="white"/>
<path d="M161.167 10.2867C161.167 10.8897 161.078 11.4369 160.91 11.9282C160.743 12.4195 160.497 12.8438 160.184 13.1788C159.872 13.525 159.503 13.7929 159.079 13.9828C158.654 14.1726 158.185 14.2731 157.672 14.2731C157.158 14.2731 156.689 14.1726 156.265 13.9828C155.841 13.7929 155.472 13.525 155.159 13.1788C154.847 12.8326 154.612 12.4195 154.434 11.9282C154.266 11.4369 154.177 10.8897 154.177 10.2867C154.177 9.68377 154.266 9.13662 154.434 8.6453C154.601 8.15399 154.847 7.72967 155.159 7.38352C155.472 7.03736 155.841 6.75821 156.265 6.56838C156.689 6.37856 157.158 6.27806 157.672 6.27806C158.185 6.27806 158.654 6.37856 159.079 6.56838C159.503 6.75821 159.872 7.0262 160.184 7.38352C160.497 7.72967 160.731 8.15399 160.91 8.6453C161.078 9.13662 161.167 9.68377 161.167 10.2867ZM160.151 10.2867C160.151 9.32645 159.927 8.56714 159.481 8.00883C159.034 7.43935 158.442 7.16019 157.683 7.16019C156.924 7.16019 156.321 7.43935 155.885 8.00883C155.439 8.57831 155.215 9.33761 155.215 10.2867C155.215 11.247 155.439 11.9952 155.885 12.5647C156.332 13.123 156.924 13.4021 157.683 13.4021C158.442 13.4021 159.045 13.123 159.481 12.5647C159.916 12.0063 160.151 11.247 160.151 10.2867Z" fill="white"/>
<path d="M162.808 6.72471C163.099 6.64655 163.467 6.55722 163.925 6.45672C164.383 6.35622 164.974 6.31156 165.7 6.31156C166.661 6.31156 167.364 6.59071 167.8 7.14903C167.844 7.10436 167.945 7.04853 168.09 6.94803C168.235 6.8587 168.414 6.75821 168.626 6.65771C168.838 6.55722 169.095 6.47905 169.385 6.41205C169.675 6.34506 169.999 6.31156 170.357 6.31156C170.937 6.31156 171.406 6.40089 171.764 6.56838C172.121 6.73588 172.4 6.98153 172.601 7.29419C172.802 7.60684 172.936 7.97533 173.003 8.41081C173.07 8.8463 173.104 9.31528 173.104 9.82893V14.0944H172.143V10.1416C172.143 9.6391 172.121 9.20362 172.076 8.83513C172.032 8.46664 171.942 8.16516 171.808 7.9195C171.674 7.67384 171.484 7.49518 171.239 7.37235C170.993 7.24952 170.669 7.18253 170.278 7.18253C169.988 7.18253 169.72 7.20486 169.474 7.26069C169.229 7.31652 169.028 7.38352 168.849 7.46168C168.671 7.53985 168.525 7.61801 168.414 7.69617C168.302 7.77434 168.224 7.83017 168.168 7.87483C168.257 8.13166 168.324 8.42198 168.369 8.73463C168.414 9.05846 168.436 9.39344 168.436 9.75076V14.0944H167.476V10.1416C167.476 9.6391 167.453 9.20362 167.409 8.83513C167.364 8.46664 167.275 8.16516 167.141 7.9195C167.007 7.67384 166.806 7.49518 166.56 7.37235C166.314 7.24952 165.979 7.18253 165.566 7.18253C165.108 7.18253 164.718 7.20486 164.394 7.26069C164.07 7.30535 163.869 7.35002 163.78 7.39468V14.0944H162.819V6.72471H162.808Z" fill="white"/>
</g>
<defs>
<clipPath id="clip0_145_3970">
<rect width="174.127" height="18" fill="white"/>
</clipPath>
</defs>
</svg>
