<svg width="16" height="16" viewBox="0 0 16 16" fill="none" xmlns="http://www.w3.org/2000/svg">
<path d="M9.98357 2.01188L10.6235 0.857483C10.6317 0.842673 10.6369 0.826391 10.6388 0.809566C10.6407 0.792741 10.6393 0.775704 10.6346 0.759426C10.63 0.743148 10.6221 0.727949 10.6116 0.714696C10.6011 0.701443 10.588 0.690396 10.5732 0.682186C10.5433 0.665605 10.508 0.661584 10.4751 0.671009C10.4423 0.680434 10.4145 0.702533 10.3979 0.732443L9.75093 1.89963C9.19892 1.65764 8.60274 1.5327 8.00002 1.5327C7.39729 1.5327 6.80111 1.65764 6.2491 1.89963L5.60211 0.732443C5.58553 0.702533 5.55775 0.680434 5.52487 0.671009C5.492 0.661584 5.45672 0.665605 5.42681 0.682186C5.3969 0.698768 5.37481 0.726552 5.36538 0.759426C5.35596 0.792301 5.35998 0.827573 5.37656 0.857483L6.01646 2.01188C5.40734 2.31213 4.89269 2.77433 4.52893 3.34778C4.16518 3.92124 3.96638 4.5838 3.95435 5.26278H12.0457C12.0337 4.5838 11.8349 3.92124 11.4711 3.34778C11.1073 2.77432 10.5927 2.31212 9.98357 2.01188ZM6.13274 3.78228C6.06592 3.78228 6.0006 3.76246 5.94504 3.72534C5.88947 3.68821 5.84617 3.63544 5.8206 3.57371C5.79502 3.51197 5.78833 3.44404 5.80137 3.3785C5.81441 3.31296 5.84658 3.25275 5.89384 3.2055C5.94109 3.15825 6.00129 3.12607 6.06683 3.11304C6.13237 3.1 6.2003 3.10669 6.26204 3.13226C6.32378 3.15783 6.37655 3.20114 6.41367 3.2567C6.4508 3.31226 6.47061 3.37759 6.47061 3.44441C6.47051 3.53399 6.43488 3.61987 6.37154 3.68321C6.3082 3.74655 6.22232 3.78218 6.13274 3.78228ZM9.86727 3.78228C9.80044 3.78228 9.73512 3.76246 9.67956 3.72534C9.624 3.68821 9.58069 3.63544 9.55512 3.57371C9.52955 3.51197 9.52285 3.44404 9.53589 3.3785C9.54893 3.31296 9.58111 3.25275 9.62836 3.2055C9.67561 3.15825 9.73581 3.12607 9.80135 3.11304C9.86689 3.1 9.93482 3.10669 9.99656 3.13226C10.0583 3.15783 10.1111 3.20114 10.1482 3.2567C10.1853 3.31226 10.2051 3.37759 10.2051 3.44441C10.205 3.53399 10.1694 3.61987 10.1061 3.68321C10.0427 3.74655 9.95684 3.78218 9.86727 3.78228ZM3.95429 11.4469C3.95429 11.7064 4.05734 11.9551 4.24077 12.1386C4.42419 12.322 4.67297 12.425 4.93238 12.425H5.58144V14.4257C5.58112 14.545 5.60434 14.6632 5.64978 14.7735C5.69521 14.8838 5.76197 14.9841 5.84622 15.0686C5.93047 15.1531 6.03056 15.2201 6.14076 15.2658C6.25096 15.3116 6.3691 15.3351 6.48842 15.3351C6.60773 15.3351 6.72587 15.3116 6.83607 15.2658C6.94627 15.2201 7.04636 15.1531 7.13061 15.0686C7.21486 14.9841 7.28162 14.8838 7.32705 14.7735C7.37249 14.6632 7.39571 14.545 7.39538 14.4257V12.425H8.60463V14.4257C8.6043 14.545 8.62752 14.6632 8.67296 14.7735C8.71839 14.8838 8.78515 14.9841 8.8694 15.0686C8.95365 15.1531 9.05374 15.2201 9.16394 15.2658C9.27414 15.3116 9.39228 15.3351 9.5116 15.3351C9.63091 15.3351 9.74905 15.3116 9.85925 15.2658C9.96945 15.2201 10.0695 15.1531 10.1538 15.0686C10.238 14.9841 10.3048 14.8838 10.3502 14.7735C10.3957 14.6632 10.4189 14.545 10.4186 14.4257V12.425H11.0677C11.3271 12.425 11.5758 12.322 11.7593 12.1386C11.9427 11.9551 12.0457 11.7064 12.0457 11.4469V5.58285H3.95429V11.4469ZM2.70944 5.42724C2.46898 5.42752 2.23844 5.52316 2.06841 5.69319C1.89838 5.86322 1.80274 6.09376 1.80247 6.33422V10.1132C1.80215 10.2325 1.82537 10.3507 1.8708 10.461C1.91624 10.5714 1.98299 10.6716 2.06724 10.7561C2.1515 10.8406 2.25159 10.9076 2.36179 10.9534C2.47199 10.9991 2.59013 11.0226 2.70944 11.0226C2.82875 11.0226 2.94689 10.9991 3.05709 10.9534C3.16729 10.9076 3.26738 10.8406 3.35164 10.7561C3.43589 10.6716 3.50264 10.5714 3.54808 10.461C3.59351 10.3507 3.61673 10.2325 3.61641 10.1132V6.33422C3.61614 6.09376 3.5205 5.86322 3.35046 5.69319C3.18043 5.52316 2.9499 5.42752 2.70944 5.42724ZM13.2906 5.42724C13.0501 5.42752 12.8196 5.52316 12.6495 5.69319C12.4795 5.86322 12.3839 6.09376 12.3836 6.33422V10.1132C12.3833 10.2325 12.4065 10.3507 12.4519 10.461C12.4974 10.5714 12.5641 10.6716 12.6484 10.7561C12.7326 10.8406 12.8327 10.9076 12.9429 10.9534C13.0531 10.9991 13.1713 11.0226 13.2906 11.0226C13.4099 11.0226 13.528 10.9991 13.6382 10.9534C13.7484 10.9076 13.8485 10.8406 13.9328 10.7561C14.017 10.6716 14.0838 10.5714 14.1292 10.461C14.1746 10.3507 14.1979 10.2325 14.1975 10.1132V6.33422C14.1973 6.09376 14.1016 5.86322 13.9316 5.69319C13.7616 5.52316 13.531 5.42752 13.2906 5.42724Z" fill="url(#paint0_linear_145_6206)"/>
<defs>
<linearGradient id="paint0_linear_145_6206" x1="-1.52127" y1="18.8989" x2="16.0902" y2="6.55139" gradientUnits="userSpaceOnUse">
<stop offset="8.51495e-08" stop-color="#00AEE9"/>
<stop offset="0.6502" stop-color="#008ED2"/>
<stop offset="1" stop-color="#007FC7"/>
</linearGradient>
</defs>
</svg>
