<svg width="16" height="16" viewBox="0 0 16 16" fill="none" xmlns="http://www.w3.org/2000/svg">
<path d="M9.96 3.46065C10.212 3.17017 10.4042 2.83276 10.5255 2.46781C10.6467 2.10285 10.6947 1.71754 10.6667 1.33398C9.89292 1.39644 9.17467 1.76036 8.66667 2.34732C8.4234 2.62863 8.23905 2.9559 8.12454 3.30975C8.01003 3.66359 7.96768 4.03681 8 4.40732C8.37743 4.41046 8.75052 4.32671 9.0904 4.16256C9.43028 3.9984 9.72782 3.75823 9.96 3.46065ZM11.64 8.42065C11.6445 7.90981 11.779 7.40853 12.031 6.96412C12.2829 6.51971 12.644 6.14682 13.08 5.88065C12.8048 5.48414 12.441 5.15721 12.0175 4.92577C11.594 4.69433 11.1223 4.56475 10.64 4.54732C9.6 4.44065 8.64 5.15398 8.08667 5.15398C7.53334 5.15398 6.75333 4.56065 5.88667 4.57398C5.32009 4.59265 4.76802 4.75784 4.2843 5.05344C3.80058 5.34905 3.40174 5.76497 3.12667 6.26065C1.95334 8.30065 2.82667 11.334 4 12.9806C4.53334 13.7873 5.2 14.7007 6.08 14.6673C6.96 14.634 7.24667 14.1207 8.26667 14.1207C9.28667 14.1207 9.6 14.6673 10.4667 14.6473C11.3333 14.6273 11.9467 13.8207 12.5067 13.014C12.9034 12.4283 13.2132 11.7884 13.4267 11.114C12.8983 10.8887 12.4475 10.5135 12.13 10.0349C11.8125 9.55621 11.6422 8.99504 11.64 8.42065Z" fill="url(#paint0_linear_145_6205)"/>
<defs>
<linearGradient id="paint0_linear_145_6205" x1="-0.340118" y1="17.9077" x2="15.4575" y2="7.23626" gradientUnits="userSpaceOnUse">
<stop offset="8.51495e-08" stop-color="#00AEE9"/>
<stop offset="0.6502" stop-color="#008ED2"/>
<stop offset="1" stop-color="#007FC7"/>
</linearGradient>
</defs>
</svg>
