<svg width="317" height="48" viewBox="0 0 317 48" fill="none" xmlns="http://www.w3.org/2000/svg">
<path d="M48.3714 33.6392C45.165 35.1711 41.7399 36.1174 38.1958 36.4304C34.7962 36.7355 31.3044 36.4542 27.9985 35.5954C24.4905 34.6811 21.226 33.1381 18.2919 31.0097C15.3141 28.8536 12.7559 26.0892 10.7712 22.9919C8.80612 19.9238 7.36943 16.4708 6.66806 12.8875C6.56142 12.3682 6.47886 11.8476 6.39629 11.3269C6.34956 11.0217 6.52124 10.6261 6.72044 10.404C6.93103 10.1693 7.28297 9.98117 7.6029 9.98192C7.93486 9.98202 8.28343 10.0657 8.52582 10.3061C8.78091 10.5578 8.89856 10.8351 8.94791 11.1885C8.98569 11.44 9.02981 11.6971 9.0676 11.9486C9.06956 11.9847 9.11873 12.2234 9.07591 11.9904C9.03374 11.7693 9.07655 12.0024 9.0842 12.0322C9.10976 12.1696 9.13532 12.307 9.16658 12.4381C9.27256 12.9454 9.38993 13.44 9.51933 13.9339C9.78447 14.9275 10.1028 15.9001 10.4806 16.8573C10.6696 17.336 10.8642 17.8083 11.0765 18.2736C11.1172 18.3559 11.3073 18.7439 11.1109 18.3502C11.1649 18.4559 11.2069 18.5623 11.2609 18.668C11.3829 18.9148 11.5113 19.1674 11.6397 19.42C12.1112 20.3239 12.6289 21.1891 13.1941 22.0396C13.8317 23.0009 14.5396 23.9222 15.2816 24.8054C15.2105 24.7187 15.1331 24.6263 15.0563 24.546C16.6799 26.4376 18.5401 28.1293 20.6083 29.5381C20.5144 29.4768 20.4142 29.4098 20.326 29.3422C21.9306 30.4381 23.6521 31.3527 25.448 32.0821C25.6515 32.1616 25.855 32.2411 26.0585 32.3206C26.1694 32.3629 26.2804 32.4052 26.397 32.4411C26.4464 32.4626 26.5016 32.4777 26.551 32.4991C26.5941 32.5149 26.6309 32.525 26.674 32.5407C26.4712 32.4733 26.4217 32.4518 26.5143 32.489C26.963 32.6397 27.4055 32.7847 27.8529 32.9114C28.7542 33.1703 29.6649 33.3804 30.5914 33.5474C31.5179 33.7145 32.4481 33.839 33.3814 33.9091C33.4239 33.9129 33.4663 33.9166 33.5088 33.9203C33.7571 33.937 33.1939 33.9012 33.4422 33.9179C33.5512 33.9241 33.6602 33.9302 33.7692 33.9364C34.0112 33.9474 34.2475 33.9648 34.4889 33.9637C34.9666 33.9801 35.4493 33.978 35.9321 33.976C36.8608 33.9618 37.7869 33.8995 38.7047 33.7954C39.1728 33.7459 39.6339 33.6786 40.1007 33.605C40.2084 33.5871 40.316 33.5692 40.4237 33.5513C40.4896 33.5417 40.5491 33.5263 40.615 33.5167C40.2502 33.5788 40.406 33.5583 40.4896 33.5417C40.7347 33.4982 40.9791 33.4427 41.2299 33.3928C42.2502 33.1745 43.2608 32.8904 44.2568 32.5587C44.7488 32.3932 45.2458 32.2093 45.7301 32.014C45.9783 31.9161 46.2145 31.8188 46.45 31.7094C46.5677 31.6547 46.6918 31.6058 46.8095 31.5511C46.8627 31.5301 46.9096 31.5034 46.9628 31.4824C47.1628 31.3871 46.657 31.6318 46.9628 31.4824C47.2805 31.3324 47.5528 31.2331 47.9128 31.3041C48.2239 31.3657 48.574 31.5882 48.7341 31.8692C48.8942 32.1502 48.991 32.489 48.9124 32.8192C48.8571 33.136 48.6778 33.5019 48.3714 33.6392Z" fill="#0B7EC2"/>
<path d="M11.0345 15.4994C9.71447 14.0862 8.40081 12.6788 7.08081 11.2656C6.70892 10.8633 6.33768 10.473 5.96579 10.0707C6.67162 9.7306 7.38949 9.38987 8.09532 9.0498C8.02288 11.2748 7.95044 13.4999 7.878 15.7249C7.85177 16.3541 7.83758 16.9826 7.81135 17.6117C7.82683 17.7859 7.79921 17.9443 7.73483 18.0927C7.68948 18.2581 7.61306 18.4071 7.48719 18.5346C7.27661 18.7694 6.92468 18.9574 6.60475 18.9567C6.27278 18.9566 5.9242 18.8729 5.68181 18.6325C5.45211 18.4036 5.2476 18.0827 5.25973 17.7501C5.33218 15.525 5.40462 13.3 5.47706 11.075C5.50329 10.4458 5.51749 9.81735 5.54371 9.18822C5.54969 8.96458 5.57404 8.74597 5.67192 8.54752C5.73322 8.45366 5.80021 8.35346 5.86786 8.26529C5.98103 8.12637 6.1209 8.03428 6.28045 7.97131C6.37981 7.91159 6.48049 7.87595 6.58881 7.87008C6.69583 7.84013 6.80415 7.83425 6.91378 7.85245C7.17418 7.8685 7.48729 7.9662 7.67324 8.16736C8.99324 9.58052 10.3069 10.988 11.6269 12.4012C11.9988 12.8035 12.37 13.1938 12.7419 13.5961C12.8808 13.7093 12.9729 13.8491 13.0359 14.0087C13.1223 14.1549 13.1669 14.3094 13.164 14.4785C13.181 14.7915 13.0631 15.1781 12.8399 15.4015C12.6052 15.6375 12.3014 15.823 11.9574 15.8235C11.6318 15.8291 11.2648 15.7404 11.0345 15.4994Z" fill="#0B7EC2"/>
<path d="M51.5664 37.5508C51.5273 37.4987 51.4883 37.4401 51.4492 37.375C51.4101 37.3099 51.3776 37.2513 51.3515 37.1992C51.3385 37.1341 51.345 37.0755 51.3711 37.0234C51.3971 36.9714 51.4622 36.9258 51.5664 36.8867C51.7096 36.8477 51.8594 36.8411 52.0156 36.8672C52.1849 36.8802 52.3541 36.9128 52.5234 36.9648C52.7057 37.0039 52.8815 37.043 53.0508 37.082C53.22 37.1211 53.3828 37.1341 53.539 37.1211C53.8125 37.0951 54.2031 36.9648 54.7109 36.7305C55.2318 36.4961 55.7786 36.2096 56.3515 35.8711C56.9375 35.5195 57.5039 35.1354 58.0508 34.7188C58.6107 34.3021 59.0599 33.8919 59.3984 33.4883C59.737 33.0846 59.9193 32.7201 59.9453 32.3945C59.9713 32.056 59.75 31.7891 59.2812 31.5938C59.0469 31.5547 58.7409 31.5807 58.3633 31.6719C57.9857 31.75 57.5885 31.8542 57.1719 31.9844C56.7552 32.1016 56.3385 32.2253 55.9219 32.3555C55.5052 32.4727 55.1406 32.5508 54.8281 32.5898C54.5156 32.6159 54.2747 32.5768 54.1054 32.4727C53.9492 32.3685 53.9101 32.1536 53.9883 31.8281C54.1575 31.6328 54.3854 31.3789 54.6719 31.0664C54.9713 30.7539 55.2708 30.4219 55.5703 30.0703C55.8828 29.7057 56.1758 29.3346 56.4492 28.957C56.7226 28.5794 56.931 28.2148 57.0742 27.8633C57.0742 27.8633 56.97 27.8893 56.7617 27.9414C56.5664 27.9935 56.319 28.0586 56.0195 28.1367C55.7331 28.2018 55.4271 28.2604 55.1015 28.3125C54.789 28.3646 54.5091 28.3906 54.2617 28.3906C54.0143 28.3906 53.832 28.3516 53.7148 28.2734C53.6107 28.1953 53.6302 28.0586 53.7734 27.8633C53.7995 27.8242 53.9297 27.7331 54.164 27.5898C54.4114 27.4336 54.7109 27.2708 55.0625 27.1016C55.4271 26.9323 55.8112 26.7695 56.2148 26.6133C56.6315 26.444 57.0156 26.3268 57.3672 26.2617C57.7318 26.1966 58.0312 26.1966 58.2656 26.2617C58.5 26.3268 58.6237 26.4961 58.6367 26.7695C58.6497 27.043 58.5195 27.4466 58.2461 27.9805C57.9857 28.5013 57.5234 29.1914 56.8594 30.0508V30.7148C57.901 30.6367 58.7148 30.6888 59.3008 30.8711C59.8867 31.0404 60.2838 31.3008 60.4922 31.6523C60.7135 31.9909 60.7656 32.388 60.6484 32.8438C60.5443 33.2995 60.3034 33.7682 59.9258 34.25C59.5612 34.7318 59.0859 35.207 58.5 35.6758C57.9271 36.1315 57.276 36.5286 56.5469 36.8672C55.8307 37.2057 55.0625 37.4661 54.2422 37.6484C53.4349 37.8177 52.6146 37.8633 51.7812 37.7852C51.7552 37.7721 51.7161 37.7396 51.664 37.6875C51.612 37.6224 51.5794 37.5768 51.5664 37.5508Z" fill="#007FC7"/>
<path d="M61.8008 37.7852C61.6185 37.5117 61.5664 37.2383 61.6445 36.9648C61.7357 36.6784 61.8854 36.4635 62.0937 36.3203C62.3021 36.1641 62.5299 36.1055 62.7773 36.1445C63.0247 36.1706 63.2135 36.3464 63.3437 36.6719C63.4219 36.8672 63.4088 37.0755 63.3047 37.2969C63.2135 37.5052 63.0768 37.681 62.8945 37.8242C62.7122 37.9544 62.5169 38.026 62.3086 38.0391C62.1002 38.0651 61.931 37.9805 61.8008 37.7852Z" fill="#007FC7"/>
<path d="M69.1836 37.5508C69.0924 37.1081 69.1185 36.6654 69.2617 36.2227C69.4049 35.7669 69.5677 35.3177 69.75 34.875C69.9323 34.4323 70.0885 33.9961 70.2187 33.5664C70.362 33.1237 70.3815 32.6875 70.2773 32.2578C70.0169 32.2188 69.7174 32.2448 69.3789 32.3359C69.0403 32.4141 68.6888 32.5182 68.3242 32.6484C67.9726 32.7786 67.6146 32.9089 67.25 33.0391C66.8854 33.1693 66.5338 33.2604 66.1953 33.3125C65.8568 33.3516 65.5443 33.332 65.2578 33.2539C64.9844 33.1758 64.75 32.9935 64.5547 32.707C64.3854 32.4466 64.3138 32.1536 64.3398 31.8281C64.3789 31.4896 64.4765 31.1315 64.6328 30.7539C64.8021 30.3633 65.0104 29.9596 65.2578 29.543C65.5052 29.1263 65.7526 28.7161 66 28.3125C66.2604 27.9089 66.4948 27.5182 66.7031 27.1406C66.9245 26.763 67.0872 26.4115 67.1914 26.0859C67.4909 26.0078 67.7057 26.0078 67.8359 26.0859C67.9791 26.151 68.0573 26.2682 68.0703 26.4375C68.0963 26.5938 68.0703 26.7826 67.9922 27.0039C67.9271 27.2253 67.8424 27.4466 67.7383 27.668C67.6341 27.8893 67.5299 28.0977 67.4258 28.293C67.3216 28.4883 67.2435 28.638 67.1914 28.7422C67.1263 28.8464 67.0221 29.0352 66.8789 29.3086C66.7357 29.582 66.5794 29.8685 66.4101 30.168C66.2539 30.4674 66.0976 30.7539 65.9414 31.0273C65.7982 31.3008 65.7005 31.4896 65.6484 31.5938V32.043C65.9609 32.082 66.2929 32.0755 66.6445 32.0234C66.9961 31.9583 67.3411 31.8802 67.6797 31.7891C68.0312 31.6849 68.3698 31.5742 68.6953 31.457C69.0338 31.3398 69.3398 31.2422 69.6133 31.1641C70.2513 30.9818 70.7591 30.7083 71.1367 30.3438C71.5273 29.9792 71.8463 29.556 72.0937 29.0742C72.3541 28.5794 72.5755 28.0391 72.7578 27.4531C72.9401 26.8672 73.1484 26.2617 73.3828 25.6367C73.6823 25.5456 73.8711 25.5911 73.9492 25.7734C74.0273 25.9427 74.0403 26.1901 73.9883 26.5156C73.9362 26.8411 73.832 27.2188 73.6758 27.6484C73.5325 28.0651 73.3828 28.4688 73.2265 28.8594C73.0833 29.25 72.9531 29.6016 72.8359 29.9141C72.7317 30.2135 72.6862 30.4089 72.6992 30.5C72.9206 30.4219 73.1354 30.4219 73.3437 30.5C73.5651 30.5651 73.7213 30.7083 73.8125 30.9297C73.7344 31.112 73.6041 31.2357 73.4219 31.3008C73.2526 31.3659 73.0703 31.4245 72.875 31.4766C72.6797 31.5286 72.4844 31.5938 72.289 31.6719C72.1067 31.737 71.957 31.8607 71.8398 32.043C71.5664 32.4727 71.332 32.9219 71.1367 33.3906C70.9414 33.8594 70.7656 34.3411 70.6094 34.8359C70.4531 35.3307 70.3164 35.832 70.1992 36.3398C70.082 36.8346 69.9648 37.3164 69.8476 37.7852C69.7565 37.8112 69.6263 37.8177 69.457 37.8047C69.3008 37.7786 69.2096 37.694 69.1836 37.5508Z" fill="#007FC7"/>
<path d="M75.1406 37.5508C75.1015 37.4987 75.0625 37.4401 75.0234 37.375C74.9844 37.3099 74.9518 37.2513 74.9258 37.1992C74.9127 37.1341 74.9192 37.0755 74.9453 37.0234C74.9713 36.9714 75.0364 36.9258 75.1406 36.8867C75.2838 36.8477 75.4336 36.8411 75.5898 36.8672C75.7591 36.8802 75.9284 36.9128 76.0976 36.9648C76.2799 37.0039 76.4557 37.043 76.625 37.082C76.7942 37.1211 76.957 37.1341 77.1133 37.1211C77.3867 37.0951 77.7773 36.9648 78.2851 36.7305C78.806 36.4961 79.3528 36.2096 79.9258 35.8711C80.5117 35.5195 81.0781 35.1354 81.625 34.7188C82.1849 34.3021 82.6341 33.8919 82.9726 33.4883C83.3112 33.0846 83.4935 32.7201 83.5195 32.3945C83.5456 32.056 83.3242 31.7891 82.8554 31.5938C82.6211 31.5547 82.3151 31.5807 81.9375 31.6719C81.5599 31.75 81.1627 31.8542 80.7461 31.9844C80.3294 32.1016 79.9127 32.2253 79.4961 32.3555C79.0794 32.4727 78.7148 32.5508 78.4023 32.5898C78.0898 32.6159 77.8489 32.5768 77.6797 32.4727C77.5234 32.3685 77.4844 32.1536 77.5625 31.8281C77.7317 31.6328 77.9596 31.3789 78.2461 31.0664C78.5456 30.7539 78.845 30.4219 79.1445 30.0703C79.457 29.7057 79.75 29.3346 80.0234 28.957C80.2969 28.5794 80.5052 28.2148 80.6484 27.8633C80.6484 27.8633 80.5442 27.8893 80.3359 27.9414C80.1406 27.9935 79.8932 28.0586 79.5937 28.1367C79.3073 28.2018 79.0013 28.2604 78.6758 28.3125C78.3633 28.3646 78.0833 28.3906 77.8359 28.3906C77.5885 28.3906 77.4062 28.3516 77.289 28.2734C77.1849 28.1953 77.2044 28.0586 77.3476 27.8633C77.3737 27.8242 77.5039 27.7331 77.7383 27.5898C77.9857 27.4336 78.2851 27.2708 78.6367 27.1016C79.0013 26.9323 79.3854 26.7695 79.789 26.6133C80.2057 26.444 80.5898 26.3268 80.9414 26.2617C81.306 26.1966 81.6054 26.1966 81.8398 26.2617C82.0742 26.3268 82.1979 26.4961 82.2109 26.7695C82.2239 27.043 82.0937 27.4466 81.8203 27.9805C81.5599 28.5013 81.0976 29.1914 80.4336 30.0508V30.7148C81.4752 30.6367 82.289 30.6888 82.875 30.8711C83.4609 31.0404 83.8581 31.3008 84.0664 31.6523C84.2877 31.9909 84.3398 32.388 84.2226 32.8438C84.1185 33.2995 83.8776 33.7682 83.5 34.25C83.1354 34.7318 82.6601 35.207 82.0742 35.6758C81.5013 36.1315 80.8502 36.5286 80.1211 36.8672C79.4049 37.2057 78.6367 37.4661 77.8164 37.6484C77.0091 37.8177 76.1888 37.8633 75.3554 37.7852C75.3294 37.7721 75.2903 37.7396 75.2383 37.6875C75.1862 37.6224 75.1536 37.5768 75.1406 37.5508Z" fill="#007FC7"/>
<path d="M85.375 37.7852C85.1927 37.6419 85.1146 37.4922 85.1406 37.3359C85.1797 37.1797 85.2578 37.0299 85.375 36.8867C85.8698 36.3008 86.3646 35.7409 86.8594 35.207C87.3541 34.6602 87.8294 34.1068 88.2851 33.5469C88.7409 32.987 89.1706 32.4076 89.5742 31.8086C89.9909 31.1966 90.362 30.5391 90.6875 29.8359C90.8568 29.4714 90.9219 29.1979 90.8828 29.0156C90.8568 28.8333 90.7591 28.7227 90.5898 28.6836C90.4336 28.6315 90.2318 28.638 89.9844 28.7031C89.737 28.7552 89.4765 28.8333 89.2031 28.9375C88.9427 29.0286 88.6888 29.1263 88.4414 29.2305C88.194 29.3346 87.9922 29.4128 87.8359 29.4648C87.6927 29.5169 87.6081 29.5299 87.582 29.5039C87.556 29.4648 87.6341 29.3542 87.8164 29.1719C88.0508 28.8984 88.3372 28.6576 88.6758 28.4492C89.0273 28.2409 89.3789 28.0911 89.7304 28C90.095 27.8958 90.4336 27.8568 90.7461 27.8828C91.0716 27.9089 91.332 28.013 91.5273 28.1953C91.7357 28.3646 91.8463 28.6185 91.8594 28.957C91.8854 29.2956 91.7812 29.7318 91.5469 30.2656C91.2734 30.8906 90.9219 31.4766 90.4922 32.0234C90.0755 32.5573 89.6458 33.0846 89.2031 33.6055C88.7604 34.1263 88.3307 34.6536 87.914 35.1875C87.4974 35.7083 87.1653 36.2747 86.9179 36.8867C87.1263 36.9518 87.4453 36.9258 87.875 36.8086C88.3177 36.6914 88.8125 36.5352 89.3594 36.3398C89.9062 36.1445 90.4726 35.9427 91.0586 35.7344C91.6575 35.526 92.2239 35.3633 92.7578 35.2461C93.3047 35.1289 93.7864 35.0833 94.2031 35.1094C94.6198 35.1354 94.9193 35.2852 95.1015 35.5586C95.1276 35.5846 95.1406 35.6628 95.1406 35.793C95.1406 35.9102 95.1276 35.9818 95.1015 36.0078C94.7109 35.9427 94.2422 35.9753 93.6953 36.1055C93.1484 36.2227 92.5625 36.3854 91.9375 36.5938C91.3255 36.8021 90.694 37.0299 90.0429 37.2773C89.4049 37.5117 88.7929 37.707 88.207 37.8633C87.6211 38.0195 87.0807 38.1042 86.5859 38.1172C86.0911 38.1302 85.6875 38.0195 85.375 37.7852Z" fill="#007FC7"/>
<path d="M104.164 44.8359C104.047 44.1068 104.086 43.3646 104.281 42.6094C104.464 41.8672 104.711 41.125 105.023 40.3828C105.323 39.6406 105.629 38.8984 105.941 38.1562C106.254 37.4271 106.469 36.7109 106.586 36.0078C106.586 35.9818 106.638 35.9036 106.742 35.7734C106.859 35.6432 106.983 35.5065 107.113 35.3633C107.256 35.207 107.38 35.0638 107.484 34.9336C107.602 34.7904 107.667 34.7057 107.68 34.6797C107.888 34.224 108.096 33.8073 108.305 33.4297C108.526 33.0391 108.695 32.6615 108.812 32.2969C108.93 31.9323 108.982 31.5742 108.969 31.2227C108.956 30.8581 108.826 30.4674 108.578 30.0508C108.552 30.0247 108.539 29.9857 108.539 29.9336C108.539 29.8815 108.552 29.849 108.578 29.8359C108.956 29.3542 109.392 28.9505 109.887 28.625C110.381 28.2995 110.909 28.0391 111.469 27.8438C112.029 27.6484 112.608 27.5182 113.207 27.4531C113.806 27.388 114.398 27.375 114.984 27.4141C115.479 27.8307 115.792 28.306 115.922 28.8398C116.065 29.3607 116.072 29.9076 115.941 30.4805C115.824 31.0404 115.596 31.6068 115.258 32.1797C114.932 32.7526 114.555 33.2865 114.125 33.7812C113.695 34.276 113.24 34.7188 112.758 35.1094C112.289 35.5 111.846 35.7995 111.43 36.0078C111.052 36.1901 110.772 36.3138 110.59 36.3789C110.421 36.431 110.251 36.4635 110.082 36.4766C109.913 36.4896 109.704 36.5026 109.457 36.5156C109.223 36.5286 108.858 36.5807 108.363 36.6719C108.142 36.7109 107.953 36.8151 107.797 36.9844C107.654 37.1406 107.53 37.3229 107.426 37.5312C107.335 37.7266 107.256 37.9284 107.191 38.1367C107.139 38.3581 107.087 38.5339 107.035 38.6641C106.801 39.237 106.586 39.7643 106.391 40.2461C106.208 40.7409 106.033 41.2227 105.863 41.6914C105.681 42.1732 105.505 42.668 105.336 43.1758C105.167 43.6836 104.991 44.237 104.809 44.8359C104.783 44.901 104.737 44.9531 104.672 44.9922C104.607 45.0443 104.542 45.0703 104.477 45.0703C104.398 45.0833 104.333 45.0703 104.281 45.0312C104.216 45.0052 104.177 44.9401 104.164 44.8359ZM108.578 35.793C109.177 35.9102 109.756 35.8776 110.316 35.6953C110.889 35.513 111.423 35.2331 111.918 34.8555C112.413 34.4648 112.855 34.0026 113.246 33.4688C113.65 32.9219 113.988 32.349 114.262 31.75C114.535 31.151 114.737 30.5521 114.867 29.9531C114.997 29.3411 115.036 28.7812 114.984 28.2734C114.802 28.1172 114.581 28.0391 114.32 28.0391C114.073 28.026 113.852 28.0326 113.656 28.0586C112.953 28.1497 112.4 28.332 111.996 28.6055C111.592 28.8659 111.26 29.1979 111 29.6016C110.753 30.0052 110.538 30.474 110.355 31.0078C110.173 31.5286 109.952 32.0951 109.691 32.707C109.639 32.7982 109.561 32.9609 109.457 33.1953C109.353 33.4167 109.242 33.6576 109.125 33.918C109.008 34.1654 108.897 34.4062 108.793 34.6406C108.689 34.875 108.617 35.0378 108.578 35.1289V35.793Z" fill="#007FC7"/>
<path d="M118.168 37.7852C117.777 37.6549 117.478 37.4596 117.27 37.1992C117.074 36.9258 116.944 36.6263 116.879 36.3008C116.814 35.9753 116.801 35.6367 116.84 35.2852C116.892 34.9206 116.97 34.5755 117.074 34.25C117.465 33.8333 117.901 33.3581 118.383 32.8242C118.878 32.2773 119.398 31.7435 119.945 31.2227C120.492 30.7018 121.059 30.2201 121.645 29.7773C122.243 29.3216 122.849 28.9766 123.461 28.7422C123.669 28.651 123.832 28.6576 123.949 28.7617C124.079 28.8529 124.171 29.0026 124.223 29.2109C124.275 29.4193 124.294 29.6602 124.281 29.9336C124.281 30.207 124.262 30.474 124.223 30.7344C124.184 30.9948 124.131 31.2292 124.066 31.4375C124.001 31.6458 123.936 31.7891 123.871 31.8672C123.715 32.0495 123.409 32.2643 122.953 32.5117C122.51 32.7591 122.016 33.0326 121.469 33.332C120.922 33.6185 120.375 33.918 119.828 34.2305C119.281 34.543 118.832 34.8555 118.48 35.168C118.129 35.4674 117.921 35.7669 117.855 36.0664C117.79 36.3659 117.973 36.6393 118.402 36.8867C118.845 36.9388 119.379 36.9193 120.004 36.8281C120.642 36.724 121.286 36.5938 121.937 36.4375C122.602 36.2682 123.24 36.099 123.852 35.9297C124.464 35.7474 124.965 35.6042 125.355 35.5L125.59 35.7148C125.303 36.0924 124.835 36.4375 124.184 36.75C123.533 37.0625 122.829 37.3229 122.074 37.5312C121.319 37.7266 120.583 37.8568 119.867 37.9219C119.151 37.974 118.585 37.9284 118.168 37.7852ZM122.836 30.3242C122.823 30.3112 122.725 30.3698 122.543 30.5C122.361 30.6172 122.133 30.7799 121.859 30.9883C121.599 31.1836 121.312 31.4049 121 31.6523C120.7 31.8867 120.421 32.1081 120.16 32.3164C119.913 32.5247 119.704 32.707 119.535 32.8633C119.366 33.0065 119.294 33.0781 119.32 33.0781C119.529 33.1172 119.796 33.0911 120.121 33C120.46 32.8958 120.805 32.7526 121.156 32.5703C121.521 32.388 121.866 32.1862 122.191 31.9648C122.517 31.7305 122.771 31.5026 122.953 31.2812C123.148 31.0599 123.246 30.8646 123.246 30.6953C123.259 30.526 123.122 30.4023 122.836 30.3242Z" fill="#007FC7"/>
<path d="M125.57 37.7852C125.544 37.7721 125.544 37.6224 125.57 37.3359C125.609 37.0365 125.661 36.6654 125.727 36.2227C125.792 35.7799 125.876 35.2917 125.98 34.7578C126.085 34.224 126.195 33.7161 126.312 33.2344C126.43 32.7396 126.553 32.3099 126.684 31.9453C126.827 31.5677 126.964 31.3073 127.094 31.1641C127.185 31.0729 127.276 31.0729 127.367 31.1641C127.458 31.2422 127.549 31.3464 127.641 31.4766C127.732 31.5938 127.823 31.7044 127.914 31.8086C128.005 31.8997 128.103 31.9062 128.207 31.8281C128.572 31.3203 128.969 30.8385 129.398 30.3828C129.841 29.9141 130.329 29.5104 130.863 29.1719C130.915 29.1328 131.059 29.0742 131.293 28.9961C131.527 28.9049 131.794 28.8203 132.094 28.7422C132.393 28.651 132.699 28.5794 133.012 28.5273C133.337 28.4622 133.611 28.4362 133.832 28.4492C134.066 28.4492 134.223 28.5078 134.301 28.625C134.392 28.7292 134.353 28.9115 134.184 29.1719C133.402 29.1849 132.673 29.4128 131.996 29.8555C131.319 30.2982 130.694 30.8451 130.121 31.4961C129.548 32.1471 129.027 32.8568 128.559 33.625C128.09 34.3802 127.68 35.0833 127.328 35.7344C126.99 36.3854 126.703 36.9258 126.469 37.3555C126.247 37.7852 126.085 38 125.98 38C125.967 38 125.909 37.974 125.805 37.9219C125.7 37.8568 125.622 37.8112 125.57 37.7852Z" fill="#007FC7"/>
<path d="M135.062 37.7852C134.906 37.681 134.9 37.5443 135.043 37.375C135.199 37.1927 135.44 37.0039 135.766 36.8086C136.104 36.6003 136.495 36.3854 136.937 36.1641C137.38 35.9427 137.803 35.7344 138.207 35.5391C138.624 35.3438 138.988 35.1745 139.301 35.0312C139.613 34.875 139.815 34.7578 139.906 34.6797C140.336 34.3151 140.557 34.0156 140.57 33.7812C140.596 33.5339 140.492 33.3385 140.258 33.1953C140.023 33.0391 139.691 32.9219 139.262 32.8438C138.845 32.7526 138.409 32.6745 137.953 32.6094C137.51 32.5312 137.081 32.4531 136.664 32.375C136.26 32.2969 135.954 32.1927 135.746 32.0625C135.538 31.9323 135.466 31.763 135.531 31.5547C135.609 31.3333 135.896 31.0534 136.391 30.7148C136.573 30.5846 136.84 30.3958 137.191 30.1484C137.543 29.901 137.921 29.6471 138.324 29.3867C138.741 29.1263 139.151 28.8919 139.555 28.6836C139.958 28.4753 140.297 28.3385 140.57 28.2734C140.714 28.2474 140.857 28.2604 141 28.3125C141.156 28.3646 141.28 28.4427 141.371 28.5469C141.462 28.638 141.501 28.7422 141.488 28.8594C141.488 28.9766 141.404 29.0807 141.234 29.1719C140.492 29.5885 139.776 29.9792 139.086 30.3438C138.409 30.7083 137.725 31.125 137.035 31.5938C136.996 31.6979 137.003 31.7891 137.055 31.8672C137.12 31.9453 137.191 32.0039 137.27 32.043C138.65 32.1862 139.685 32.388 140.375 32.6484C141.078 32.9089 141.521 33.1953 141.703 33.5078C141.898 33.8203 141.879 34.1523 141.645 34.5039C141.41 34.8555 141.059 35.2005 140.59 35.5391C140.134 35.8776 139.607 36.1966 139.008 36.4961C138.409 36.7956 137.829 37.0495 137.27 37.2578C136.723 37.4661 136.241 37.6224 135.824 37.7266C135.408 37.8307 135.154 37.8503 135.062 37.7852Z" fill="#007FC7"/>
<path d="M143.773 37.7852C143.227 37.5638 142.881 37.2318 142.738 36.7891C142.608 36.3464 142.615 35.8581 142.758 35.3242C142.901 34.7773 143.148 34.2174 143.5 33.6445C143.852 33.0586 144.242 32.5247 144.672 32.043C145.102 31.5612 145.531 31.1576 145.961 30.832C146.404 30.4935 146.781 30.3047 147.094 30.2656C147.901 30.1615 148.533 30.2201 148.988 30.4414C149.457 30.6497 149.776 30.9557 149.945 31.3594C150.115 31.763 150.16 32.2383 150.082 32.7852C150.004 33.319 149.828 33.8594 149.555 34.4062C149.294 34.9531 148.949 35.4805 148.52 35.9883C148.103 36.4961 147.634 36.9258 147.113 37.2773C146.605 37.6159 146.065 37.8438 145.492 37.9609C144.919 38.0651 144.346 38.0065 143.773 37.7852ZM143.559 36.6719C143.663 37.0885 143.884 37.3229 144.223 37.375C144.561 37.4141 144.952 37.3294 145.395 37.1211C145.85 36.8997 146.325 36.5872 146.82 36.1836C147.315 35.7669 147.764 35.3177 148.168 34.8359C148.585 34.3542 148.923 33.8724 149.184 33.3906C149.457 32.8958 149.587 32.4661 149.574 32.1016C149.574 31.737 149.398 31.4635 149.047 31.2812C148.708 31.0859 148.135 31.0469 147.328 31.1641C147.146 31.3333 146.911 31.5417 146.625 31.7891C146.339 32.0234 146.039 32.2839 145.727 32.5703C145.427 32.8568 145.128 33.1693 144.828 33.5078C144.529 33.8333 144.268 34.1719 144.047 34.5234C143.825 34.875 143.663 35.2331 143.559 35.5977C143.467 35.9622 143.467 36.3203 143.559 36.6719Z" fill="#007FC7"/>
<path d="M158.246 37.7852C158.207 37.3555 158.24 36.9323 158.344 36.5156C158.461 36.0859 158.611 35.6693 158.793 35.2656C158.988 34.849 159.19 34.4388 159.398 34.0352C159.62 33.6185 159.809 33.2148 159.965 32.8242C160.121 32.4206 160.232 32.0299 160.297 31.6523C160.362 31.2617 160.336 30.8776 160.219 30.5C159.893 30.3828 159.516 30.4089 159.086 30.5781C158.669 30.7474 158.227 31.0078 157.758 31.3594C157.289 31.6979 156.801 32.1016 156.293 32.5703C155.798 33.026 155.31 33.4948 154.828 33.9766C154.359 34.4453 153.91 34.8945 153.48 35.3242C153.051 35.7539 152.66 36.112 152.309 36.3984C151.97 36.6719 151.684 36.8477 151.449 36.9258C151.215 36.9909 151.059 36.9062 150.98 36.6719C150.967 36.6589 151.039 36.4961 151.195 36.1836C151.365 35.8581 151.566 35.4544 151.801 34.9727C152.048 34.4909 152.315 33.9701 152.602 33.4102C152.901 32.8503 153.181 32.3294 153.441 31.8477C153.702 31.3529 153.93 30.9362 154.125 30.5977C154.32 30.2591 154.444 30.0768 154.496 30.0508C154.77 30.2331 154.906 30.4349 154.906 30.6562C154.919 30.8646 154.887 31.0859 154.809 31.3203C154.73 31.5417 154.639 31.7695 154.535 32.0039C154.444 32.2383 154.431 32.4727 154.496 32.707C154.704 32.5638 154.991 32.3685 155.355 32.1211C155.733 31.8607 156.137 31.5938 156.566 31.3203C157.009 31.0469 157.465 30.7799 157.934 30.5195C158.415 30.2591 158.865 30.0573 159.281 29.9141C159.698 29.7578 160.069 29.6732 160.395 29.6602C160.733 29.6471 160.98 29.7448 161.137 29.9531C161.293 30.1615 161.339 30.5065 161.273 30.9883C161.221 31.457 161.02 32.1016 160.668 32.9219C160.629 33.013 160.531 33.2344 160.375 33.5859C160.232 33.9245 160.069 34.2956 159.887 34.6992C159.717 35.0898 159.555 35.4609 159.398 35.8125C159.255 36.151 159.164 36.3659 159.125 36.457C159.112 36.5091 159.092 36.6068 159.066 36.75C159.053 36.8802 159.034 37.0299 159.008 37.1992C158.982 37.3555 158.943 37.5117 158.891 37.668C158.839 37.8112 158.773 37.9219 158.695 38C158.617 38.0781 158.526 38.0716 158.422 37.9805C158.318 37.8763 158.259 37.8112 158.246 37.7852Z" fill="#007FC7"/>
<path d="M163.539 37.7852C163.148 37.6549 162.849 37.4596 162.641 37.1992C162.445 36.9258 162.315 36.6263 162.25 36.3008C162.185 35.9753 162.172 35.6367 162.211 35.2852C162.263 34.9206 162.341 34.5755 162.445 34.25C162.836 33.8333 163.272 33.3581 163.754 32.8242C164.249 32.2773 164.77 31.7435 165.316 31.2227C165.863 30.7018 166.43 30.2201 167.016 29.7773C167.615 29.3216 168.22 28.9766 168.832 28.7422C169.04 28.651 169.203 28.6576 169.32 28.7617C169.45 28.8529 169.542 29.0026 169.594 29.2109C169.646 29.4193 169.665 29.6602 169.652 29.9336C169.652 30.207 169.633 30.474 169.594 30.7344C169.555 30.9948 169.503 31.2292 169.437 31.4375C169.372 31.6458 169.307 31.7891 169.242 31.8672C169.086 32.0495 168.78 32.2643 168.324 32.5117C167.881 32.7591 167.387 33.0326 166.84 33.332C166.293 33.6185 165.746 33.918 165.199 34.2305C164.652 34.543 164.203 34.8555 163.852 35.168C163.5 35.4674 163.292 35.7669 163.227 36.0664C163.161 36.3659 163.344 36.6393 163.773 36.8867C164.216 36.9388 164.75 36.9193 165.375 36.8281C166.013 36.724 166.658 36.5938 167.309 36.4375C167.973 36.2682 168.611 36.099 169.223 35.9297C169.835 35.7474 170.336 35.6042 170.727 35.5L170.961 35.7148C170.674 36.0924 170.206 36.4375 169.555 36.75C168.904 37.0625 168.2 37.3229 167.445 37.5312C166.69 37.7266 165.954 37.8568 165.238 37.9219C164.522 37.974 163.956 37.9284 163.539 37.7852ZM168.207 30.3242C168.194 30.3112 168.096 30.3698 167.914 30.5C167.732 30.6172 167.504 30.7799 167.23 30.9883C166.97 31.1836 166.684 31.4049 166.371 31.6523C166.072 31.8867 165.792 32.1081 165.531 32.3164C165.284 32.5247 165.075 32.707 164.906 32.8633C164.737 33.0065 164.665 33.0781 164.691 33.0781C164.9 33.1172 165.167 33.0911 165.492 33C165.831 32.8958 166.176 32.7526 166.527 32.5703C166.892 32.388 167.237 32.1862 167.562 31.9648C167.888 31.7305 168.142 31.5026 168.324 31.2812C168.52 31.0599 168.617 30.8646 168.617 30.6953C168.63 30.526 168.493 30.4023 168.207 30.3242Z" fill="#007FC7"/>
<path d="M177.992 37.7852C177.953 37.3555 177.986 36.9323 178.09 36.5156C178.207 36.0859 178.357 35.6693 178.539 35.2656C178.734 34.849 178.936 34.4388 179.145 34.0352C179.366 33.6185 179.555 33.2148 179.711 32.8242C179.867 32.4206 179.978 32.0299 180.043 31.6523C180.108 31.2617 180.082 30.8776 179.965 30.5C179.639 30.3828 179.262 30.4089 178.832 30.5781C178.415 30.7474 177.973 31.0078 177.504 31.3594C177.035 31.6979 176.547 32.1016 176.039 32.5703C175.544 33.026 175.056 33.4948 174.574 33.9766C174.105 34.4453 173.656 34.8945 173.227 35.3242C172.797 35.7539 172.406 36.112 172.055 36.3984C171.716 36.6719 171.43 36.8477 171.195 36.9258C170.961 36.9909 170.805 36.9062 170.727 36.6719C170.714 36.6589 170.785 36.4961 170.941 36.1836C171.111 35.8581 171.312 35.4544 171.547 34.9727C171.794 34.4909 172.061 33.9701 172.348 33.4102C172.647 32.8503 172.927 32.3294 173.187 31.8477C173.448 31.3529 173.676 30.9362 173.871 30.5977C174.066 30.2591 174.19 30.0768 174.242 30.0508C174.516 30.2331 174.652 30.4349 174.652 30.6562C174.665 30.8646 174.633 31.0859 174.555 31.3203C174.477 31.5417 174.385 31.7695 174.281 32.0039C174.19 32.2383 174.177 32.4727 174.242 32.707C174.45 32.5638 174.737 32.3685 175.102 32.1211C175.479 31.8607 175.883 31.5938 176.312 31.3203C176.755 31.0469 177.211 30.7799 177.68 30.5195C178.161 30.2591 178.611 30.0573 179.027 29.9141C179.444 29.7578 179.815 29.6732 180.141 29.6602C180.479 29.6471 180.727 29.7448 180.883 29.9531C181.039 30.1615 181.085 30.5065 181.02 30.9883C180.967 31.457 180.766 32.1016 180.414 32.9219C180.375 33.013 180.277 33.2344 180.121 33.5859C179.978 33.9245 179.815 34.2956 179.633 34.6992C179.464 35.0898 179.301 35.4609 179.145 35.8125C179.001 36.151 178.91 36.3659 178.871 36.457C178.858 36.5091 178.839 36.6068 178.812 36.75C178.799 36.8802 178.78 37.0299 178.754 37.1992C178.728 37.3555 178.689 37.5117 178.637 37.668C178.585 37.8112 178.52 37.9219 178.441 38C178.363 38.0781 178.272 38.0716 178.168 37.9805C178.064 37.8763 178.005 37.8112 177.992 37.7852Z" fill="#007FC7"/>
<path d="M189.496 43.5078C189.092 43.3646 188.767 43.1497 188.52 42.8633C188.259 42.5768 188.064 42.2643 187.934 41.9258C187.79 41.6003 187.706 41.2682 187.68 40.9297C187.641 40.5911 187.647 40.2917 187.699 40.0312C187.738 39.7708 187.816 39.569 187.934 39.4258C188.038 39.2956 188.161 39.263 188.305 39.3281C188.292 40.4609 188.428 41.3138 188.715 41.8867C188.988 42.4727 189.353 42.8372 189.809 42.9805C190.251 43.1367 190.759 43.1042 191.332 42.8828C191.892 42.6615 192.458 42.3164 193.031 41.8477C193.617 41.3919 194.171 40.8385 194.691 40.1875C195.225 39.5495 195.674 38.8789 196.039 38.1758C196.404 37.4857 196.664 36.8021 196.82 36.125C196.977 35.4349 196.97 34.8099 196.801 34.25C195.629 35.0964 194.717 35.6302 194.066 35.8516C193.415 36.0729 192.96 36.0859 192.699 35.8906C192.452 35.6823 192.374 35.3177 192.465 34.7969C192.556 34.276 192.751 33.7031 193.051 33.0781C193.35 32.4531 193.728 31.8281 194.184 31.2031C194.639 30.5651 195.108 30.0312 195.59 29.6016C196.072 29.1719 196.534 28.8984 196.977 28.7812C197.432 28.6641 197.81 28.8008 198.109 29.1914C198.409 29.5951 198.598 30.1419 198.676 30.832C198.754 31.5091 198.734 32.2643 198.617 33.0977C198.5 33.931 198.292 34.8034 197.992 35.7148C197.706 36.6263 197.348 37.5117 196.918 38.3711C196.488 39.2435 195.993 40.0508 195.434 40.793C194.887 41.5352 194.294 42.1536 193.656 42.6484C193.018 43.1432 192.348 43.4753 191.645 43.6445C190.941 43.8268 190.225 43.7812 189.496 43.5078ZM193.48 33.8203C193.467 33.8594 193.454 33.931 193.441 34.0352C193.441 34.1393 193.441 34.25 193.441 34.3672C193.441 34.4844 193.441 34.5951 193.441 34.6992C193.454 34.8034 193.467 34.875 193.48 34.9141C193.897 35.0182 194.327 34.9206 194.77 34.6211C195.212 34.3216 195.616 33.9375 195.98 33.4688C196.358 33 196.671 32.5052 196.918 31.9844C197.178 31.4635 197.335 31.0273 197.387 30.6758C197.452 30.3242 197.387 30.1289 197.191 30.0898C196.996 30.0378 196.638 30.2461 196.117 30.7148C195.961 30.8581 195.753 31.0534 195.492 31.3008C195.232 31.5482 194.965 31.8151 194.691 32.1016C194.431 32.388 194.184 32.6875 193.949 33C193.728 33.2995 193.572 33.5729 193.48 33.8203Z" fill="#007FC7"/>
<path d="M199.418 37.7852C199.952 36.0664 200.434 34.7057 200.863 33.7031C201.306 32.6875 201.671 31.9779 201.957 31.5742C202.256 31.1706 202.458 31.0404 202.562 31.1836C202.667 31.3268 202.654 31.6914 202.523 32.2773C202.406 32.8633 202.146 33.651 201.742 34.6406C201.352 35.6172 200.798 36.737 200.082 38C199.978 38.0391 199.854 38.0456 199.711 38.0195C199.568 37.9935 199.47 37.9154 199.418 37.7852ZM202.836 28.3906C202.81 28.3255 202.797 28.2083 202.797 28.0391C202.797 27.8698 202.81 27.7656 202.836 27.7266C203.135 27.6224 203.363 27.6094 203.52 27.6875C203.676 27.7656 203.773 27.8828 203.812 28.0391C203.852 28.1823 203.845 28.3385 203.793 28.5078C203.754 28.6771 203.682 28.8073 203.578 28.8984C203.474 28.9766 203.35 28.9896 203.207 28.9375C203.077 28.8724 202.953 28.6901 202.836 28.3906Z" fill="#007FC7"/>
<path d="M211.781 37.7852C211.742 37.3555 211.775 36.9323 211.879 36.5156C211.996 36.0859 212.146 35.6693 212.328 35.2656C212.523 34.849 212.725 34.4388 212.934 34.0352C213.155 33.6185 213.344 33.2148 213.5 32.8242C213.656 32.4206 213.767 32.0299 213.832 31.6523C213.897 31.2617 213.871 30.8776 213.754 30.5C213.428 30.3828 213.051 30.4089 212.621 30.5781C212.204 30.7474 211.762 31.0078 211.293 31.3594C210.824 31.6979 210.336 32.1016 209.828 32.5703C209.333 33.026 208.845 33.4948 208.363 33.9766C207.895 34.4453 207.445 34.8945 207.016 35.3242C206.586 35.7539 206.195 36.112 205.844 36.3984C205.505 36.6719 205.219 36.8477 204.984 36.9258C204.75 36.9909 204.594 36.9062 204.516 36.6719C204.503 36.6589 204.574 36.4961 204.73 36.1836C204.9 35.8581 205.102 35.4544 205.336 34.9727C205.583 34.4909 205.85 33.9701 206.137 33.4102C206.436 32.8503 206.716 32.3294 206.977 31.8477C207.237 31.3529 207.465 30.9362 207.66 30.5977C207.855 30.2591 207.979 30.0768 208.031 30.0508C208.305 30.2331 208.441 30.4349 208.441 30.6562C208.454 30.8646 208.422 31.0859 208.344 31.3203C208.266 31.5417 208.174 31.7695 208.07 32.0039C207.979 32.2383 207.966 32.4727 208.031 32.707C208.24 32.5638 208.526 32.3685 208.891 32.1211C209.268 31.8607 209.672 31.5938 210.102 31.3203C210.544 31.0469 211 30.7799 211.469 30.5195C211.951 30.2591 212.4 30.0573 212.816 29.9141C213.233 29.7578 213.604 29.6732 213.93 29.6602C214.268 29.6471 214.516 29.7448 214.672 29.9531C214.828 30.1615 214.874 30.5065 214.809 30.9883C214.756 31.457 214.555 32.1016 214.203 32.9219C214.164 33.013 214.066 33.2344 213.91 33.5859C213.767 33.9245 213.604 34.2956 213.422 34.6992C213.253 35.0898 213.09 35.4609 212.934 35.8125C212.79 36.151 212.699 36.3659 212.66 36.457C212.647 36.5091 212.628 36.6068 212.602 36.75C212.589 36.8802 212.569 37.0299 212.543 37.1992C212.517 37.3555 212.478 37.5117 212.426 37.668C212.374 37.8112 212.309 37.9219 212.23 38C212.152 38.0781 212.061 38.0716 211.957 37.9805C211.853 37.8763 211.794 37.8112 211.781 37.7852Z" fill="#007FC7"/>
<path d="M212.777 43.5078C212.374 43.3646 212.048 43.1497 211.801 42.8633C211.54 42.5768 211.345 42.2643 211.215 41.9258C211.072 41.6003 210.987 41.2682 210.961 40.9297C210.922 40.5911 210.928 40.2917 210.98 40.0312C211.02 39.7708 211.098 39.569 211.215 39.4258C211.319 39.2956 211.443 39.263 211.586 39.3281C211.573 40.4609 211.71 41.3138 211.996 41.8867C212.27 42.4727 212.634 42.8372 213.09 42.9805C213.533 43.1367 214.04 43.1042 214.613 42.8828C215.173 42.6615 215.74 42.3164 216.312 41.8477C216.898 41.3919 217.452 40.8385 217.973 40.1875C218.506 39.5495 218.956 38.8789 219.32 38.1758C219.685 37.4857 219.945 36.8021 220.102 36.125C220.258 35.4349 220.251 34.8099 220.082 34.25C218.91 35.0964 217.999 35.6302 217.348 35.8516C216.697 36.0729 216.241 36.0859 215.98 35.8906C215.733 35.6823 215.655 35.3177 215.746 34.7969C215.837 34.276 216.033 33.7031 216.332 33.0781C216.631 32.4531 217.009 31.8281 217.465 31.2031C217.921 30.5651 218.389 30.0312 218.871 29.6016C219.353 29.1719 219.815 28.8984 220.258 28.7812C220.714 28.6641 221.091 28.8008 221.391 29.1914C221.69 29.5951 221.879 30.1419 221.957 30.832C222.035 31.5091 222.016 32.2643 221.898 33.0977C221.781 33.931 221.573 34.8034 221.273 35.7148C220.987 36.6263 220.629 37.5117 220.199 38.3711C219.77 39.2435 219.275 40.0508 218.715 40.793C218.168 41.5352 217.576 42.1536 216.937 42.6484C216.299 43.1432 215.629 43.4753 214.926 43.6445C214.223 43.8268 213.506 43.7812 212.777 43.5078ZM216.762 33.8203C216.749 33.8594 216.736 33.931 216.723 34.0352C216.723 34.1393 216.723 34.25 216.723 34.3672C216.723 34.4844 216.723 34.5951 216.723 34.6992C216.736 34.8034 216.749 34.875 216.762 34.9141C217.178 35.0182 217.608 34.9206 218.051 34.6211C218.493 34.3216 218.897 33.9375 219.262 33.4688C219.639 33 219.952 32.5052 220.199 31.9844C220.46 31.4635 220.616 31.0273 220.668 30.6758C220.733 30.3242 220.668 30.1289 220.473 30.0898C220.277 30.0378 219.919 30.2461 219.398 30.7148C219.242 30.8581 219.034 31.0534 218.773 31.3008C218.513 31.5482 218.246 31.8151 217.973 32.1016C217.712 32.388 217.465 32.6875 217.23 33C217.009 33.2995 216.853 33.5729 216.762 33.8203Z" fill="#007FC7"/>
<path d="M224.145 37.7852C223.754 37.6549 223.454 37.4596 223.246 37.1992C223.051 36.9258 222.921 36.6263 222.855 36.3008C222.79 35.9753 222.777 35.6367 222.816 35.2852C222.868 34.9206 222.947 34.5755 223.051 34.25C223.441 33.8333 223.878 33.3581 224.359 32.8242C224.854 32.2773 225.375 31.7435 225.922 31.2227C226.469 30.7018 227.035 30.2201 227.621 29.7773C228.22 29.3216 228.826 28.9766 229.437 28.7422C229.646 28.651 229.809 28.6576 229.926 28.7617C230.056 28.8529 230.147 29.0026 230.199 29.2109C230.251 29.4193 230.271 29.6602 230.258 29.9336C230.258 30.207 230.238 30.474 230.199 30.7344C230.16 30.9948 230.108 31.2292 230.043 31.4375C229.978 31.6458 229.913 31.7891 229.848 31.8672C229.691 32.0495 229.385 32.2643 228.93 32.5117C228.487 32.7591 227.992 33.0326 227.445 33.332C226.898 33.6185 226.352 33.918 225.805 34.2305C225.258 34.543 224.809 34.8555 224.457 35.168C224.105 35.4674 223.897 35.7669 223.832 36.0664C223.767 36.3659 223.949 36.6393 224.379 36.8867C224.822 36.9388 225.355 36.9193 225.98 36.8281C226.618 36.724 227.263 36.5938 227.914 36.4375C228.578 36.2682 229.216 36.099 229.828 35.9297C230.44 35.7474 230.941 35.6042 231.332 35.5L231.566 35.7148C231.28 36.0924 230.811 36.4375 230.16 36.75C229.509 37.0625 228.806 37.3229 228.051 37.5312C227.296 37.7266 226.56 37.8568 225.844 37.9219C225.128 37.974 224.561 37.9284 224.145 37.7852ZM228.812 30.3242C228.799 30.3112 228.702 30.3698 228.52 30.5C228.337 30.6172 228.109 30.7799 227.836 30.9883C227.576 31.1836 227.289 31.4049 226.977 31.6523C226.677 31.8867 226.397 32.1081 226.137 32.3164C225.889 32.5247 225.681 32.707 225.512 32.8633C225.342 33.0065 225.271 33.0781 225.297 33.0781C225.505 33.1172 225.772 33.0911 226.098 33C226.436 32.8958 226.781 32.7526 227.133 32.5703C227.497 32.388 227.842 32.1862 228.168 31.9648C228.493 31.7305 228.747 31.5026 228.93 31.2812C229.125 31.0599 229.223 30.8646 229.223 30.6953C229.236 30.526 229.099 30.4023 228.812 30.3242Z" fill="#007FC7"/>
<path d="M238.598 37.7852C238.559 37.3555 238.591 36.9323 238.695 36.5156C238.812 36.0859 238.962 35.6693 239.145 35.2656C239.34 34.849 239.542 34.4388 239.75 34.0352C239.971 33.6185 240.16 33.2148 240.316 32.8242C240.473 32.4206 240.583 32.0299 240.648 31.6523C240.714 31.2617 240.687 30.8776 240.57 30.5C240.245 30.3828 239.867 30.4089 239.437 30.5781C239.021 30.7474 238.578 31.0078 238.109 31.3594C237.641 31.6979 237.152 32.1016 236.645 32.5703C236.15 33.026 235.661 33.4948 235.18 33.9766C234.711 34.4453 234.262 34.8945 233.832 35.3242C233.402 35.7539 233.012 36.112 232.66 36.3984C232.322 36.6719 232.035 36.8477 231.801 36.9258C231.566 36.9909 231.41 36.9062 231.332 36.6719C231.319 36.6589 231.391 36.4961 231.547 36.1836C231.716 35.8581 231.918 35.4544 232.152 34.9727C232.4 34.4909 232.667 33.9701 232.953 33.4102C233.253 32.8503 233.533 32.3294 233.793 31.8477C234.053 31.3529 234.281 30.9362 234.477 30.5977C234.672 30.2591 234.796 30.0768 234.848 30.0508C235.121 30.2331 235.258 30.4349 235.258 30.6562C235.271 30.8646 235.238 31.0859 235.16 31.3203C235.082 31.5417 234.991 31.7695 234.887 32.0039C234.796 32.2383 234.783 32.4727 234.848 32.707C235.056 32.5638 235.342 32.3685 235.707 32.1211C236.085 31.8607 236.488 31.5938 236.918 31.3203C237.361 31.0469 237.816 30.7799 238.285 30.5195C238.767 30.2591 239.216 30.0573 239.633 29.9141C240.049 29.7578 240.421 29.6732 240.746 29.6602C241.085 29.6471 241.332 29.7448 241.488 29.9531C241.645 30.1615 241.69 30.5065 241.625 30.9883C241.573 31.457 241.371 32.1016 241.02 32.9219C240.98 33.013 240.883 33.2344 240.727 33.5859C240.583 33.9245 240.421 34.2956 240.238 34.6992C240.069 35.0898 239.906 35.4609 239.75 35.8125C239.607 36.151 239.516 36.3659 239.477 36.457C239.464 36.5091 239.444 36.6068 239.418 36.75C239.405 36.8802 239.385 37.0299 239.359 37.1992C239.333 37.3555 239.294 37.5117 239.242 37.668C239.19 37.8112 239.125 37.9219 239.047 38C238.969 38.0781 238.878 38.0716 238.773 37.9805C238.669 37.8763 238.611 37.8112 238.598 37.7852Z" fill="#007FC7"/>
<path d="M248.012 44.8359C247.686 44.6927 247.361 44.4974 247.035 44.25C246.697 44.0026 246.436 43.7292 246.254 43.4297C246.059 43.1302 245.98 42.8112 246.02 42.4727C246.046 42.1471 246.267 41.8281 246.684 41.5156C246.775 41.5286 246.84 41.5938 246.879 41.7109C246.918 41.8281 246.951 41.9714 246.977 42.1406C246.99 42.3099 247.009 42.4922 247.035 42.6875C247.048 42.8828 247.094 43.0716 247.172 43.2539C247.237 43.4362 247.335 43.5924 247.465 43.7227C247.595 43.8529 247.777 43.931 248.012 43.957C248.611 44.0482 249.151 43.9505 249.633 43.6641C250.115 43.3906 250.551 42.9935 250.941 42.4727C251.319 41.9518 251.664 41.3398 251.977 40.6367C252.289 39.9466 252.576 39.2305 252.836 38.4883C253.096 37.7461 253.331 37.0039 253.539 36.2617C253.747 35.5195 253.949 34.849 254.145 34.25C254.34 33.651 254.529 33.1497 254.711 32.7461C254.893 32.3424 255.089 32.1016 255.297 32.0234C255.466 32.0885 255.544 32.3424 255.531 32.7852C255.531 33.2279 255.453 33.7943 255.297 34.4844C255.154 35.1615 254.945 35.9232 254.672 36.7695C254.398 37.6029 254.079 38.4362 253.715 39.2695C253.35 40.1159 252.947 40.9232 252.504 41.6914C252.048 42.4596 251.579 43.1107 251.098 43.6445C250.603 44.1914 250.095 44.582 249.574 44.8164C249.053 45.0508 248.533 45.0573 248.012 44.8359ZM255.297 28.7227C255.115 28.4883 255.062 28.306 255.141 28.1758C255.219 28.0326 255.329 27.9674 255.473 27.9805C255.616 27.9935 255.753 28.0977 255.883 28.293C256.013 28.4753 256.039 28.7682 255.961 29.1719C255.896 29.2109 255.824 29.2109 255.746 29.1719C255.668 29.1328 255.596 29.0807 255.531 29.0156C255.466 28.9505 255.408 28.8854 255.355 28.8203C255.316 28.7552 255.297 28.7227 255.297 28.7227Z" fill="#007FC7"/>
<path d="M258.031 37.7852C257.641 37.6549 257.341 37.4596 257.133 37.1992C256.937 36.9258 256.807 36.6263 256.742 36.3008C256.677 35.9753 256.664 35.6367 256.703 35.2852C256.755 34.9206 256.833 34.5755 256.937 34.25C257.328 33.8333 257.764 33.3581 258.246 32.8242C258.741 32.2773 259.262 31.7435 259.809 31.2227C260.355 30.7018 260.922 30.2201 261.508 29.7773C262.107 29.3216 262.712 28.9766 263.324 28.7422C263.533 28.651 263.695 28.6576 263.812 28.7617C263.943 28.8529 264.034 29.0026 264.086 29.2109C264.138 29.4193 264.158 29.6602 264.145 29.9336C264.145 30.207 264.125 30.474 264.086 30.7344C264.047 30.9948 263.995 31.2292 263.93 31.4375C263.865 31.6458 263.799 31.7891 263.734 31.8672C263.578 32.0495 263.272 32.2643 262.816 32.5117C262.374 32.7591 261.879 33.0326 261.332 33.332C260.785 33.6185 260.238 33.918 259.691 34.2305C259.145 34.543 258.695 34.8555 258.344 35.168C257.992 35.4674 257.784 35.7669 257.719 36.0664C257.654 36.3659 257.836 36.6393 258.266 36.8867C258.708 36.9388 259.242 36.9193 259.867 36.8281C260.505 36.724 261.15 36.5938 261.801 36.4375C262.465 36.2682 263.103 36.099 263.715 35.9297C264.327 35.7474 264.828 35.6042 265.219 35.5L265.453 35.7148C265.167 36.0924 264.698 36.4375 264.047 36.75C263.396 37.0625 262.693 37.3229 261.937 37.5312C261.182 37.7266 260.447 37.8568 259.73 37.9219C259.014 37.974 258.448 37.9284 258.031 37.7852ZM262.699 30.3242C262.686 30.3112 262.589 30.3698 262.406 30.5C262.224 30.6172 261.996 30.7799 261.723 30.9883C261.462 31.1836 261.176 31.4049 260.863 31.6523C260.564 31.8867 260.284 32.1081 260.023 32.3164C259.776 32.5247 259.568 32.707 259.398 32.8633C259.229 33.0065 259.158 33.0781 259.184 33.0781C259.392 33.1172 259.659 33.0911 259.984 33C260.323 32.8958 260.668 32.7526 261.02 32.5703C261.384 32.388 261.729 32.1862 262.055 31.9648C262.38 31.7305 262.634 31.5026 262.816 31.2812C263.012 31.0599 263.109 30.8646 263.109 30.6953C263.122 30.526 262.986 30.4023 262.699 30.3242Z" fill="#007FC7"/>
<path d="M276.488 37.5508C276.215 37.3945 276.02 37.1471 275.902 36.8086C275.785 36.4701 275.72 36.0859 275.707 35.6562C275.694 35.2266 275.72 34.7773 275.785 34.3086C275.85 33.8398 275.928 33.3841 276.02 32.9414C276.111 32.4987 276.202 32.1016 276.293 31.75C276.384 31.3984 276.449 31.125 276.488 30.9297C276.553 30.8906 276.618 30.8906 276.684 30.9297C276.762 30.9688 276.833 31.0273 276.898 31.1055C276.977 31.1706 277.035 31.2357 277.074 31.3008C277.126 31.3529 277.152 31.3789 277.152 31.3789C277.191 31.8346 277.191 32.2839 277.152 32.7266C277.126 33.1562 277.087 33.5859 277.035 34.0156C276.996 34.4453 276.957 34.8815 276.918 35.3242C276.892 35.7669 276.892 36.2161 276.918 36.6719C277.022 36.8672 277.237 36.8737 277.562 36.6914C277.888 36.4961 278.285 36.1901 278.754 35.7734C279.223 35.3438 279.73 34.8424 280.277 34.2695C280.837 33.6836 281.384 33.1042 281.918 32.5312C282.465 31.9583 282.979 31.4245 283.461 30.9297C283.943 30.4219 284.346 30.0378 284.672 29.7773C285.01 29.5039 285.245 29.3932 285.375 29.4453C285.505 29.4844 285.486 29.7578 285.316 30.2656C285.004 30.5391 284.633 30.9492 284.203 31.4961C283.773 32.043 283.305 32.6354 282.797 33.2734C282.289 33.8984 281.762 34.5234 281.215 35.1484C280.668 35.7734 280.115 36.3138 279.555 36.7695C279.008 37.2122 278.474 37.5247 277.953 37.707C277.432 37.8763 276.944 37.8242 276.488 37.5508Z" fill="#007FC7"/>
<path d="M287.289 37.7852C286.742 37.5638 286.397 37.2318 286.254 36.7891C286.124 36.3464 286.13 35.8581 286.273 35.3242C286.417 34.7773 286.664 34.2174 287.016 33.6445C287.367 33.0586 287.758 32.5247 288.187 32.043C288.617 31.5612 289.047 31.1576 289.477 30.832C289.919 30.4935 290.297 30.3047 290.609 30.2656C291.417 30.1615 292.048 30.2201 292.504 30.4414C292.973 30.6497 293.292 30.9557 293.461 31.3594C293.63 31.763 293.676 32.2383 293.598 32.7852C293.52 33.319 293.344 33.8594 293.07 34.4062C292.81 34.9531 292.465 35.4805 292.035 35.9883C291.618 36.4961 291.15 36.9258 290.629 37.2773C290.121 37.6159 289.581 37.8438 289.008 37.9609C288.435 38.0651 287.862 38.0065 287.289 37.7852ZM287.074 36.6719C287.178 37.0885 287.4 37.3229 287.738 37.375C288.077 37.4141 288.467 37.3294 288.91 37.1211C289.366 36.8997 289.841 36.5872 290.336 36.1836C290.831 35.7669 291.28 35.3177 291.684 34.8359C292.1 34.3542 292.439 33.8724 292.699 33.3906C292.973 32.8958 293.103 32.4661 293.09 32.1016C293.09 31.737 292.914 31.4635 292.562 31.2812C292.224 31.0859 291.651 31.0469 290.844 31.1641C290.661 31.3333 290.427 31.5417 290.141 31.7891C289.854 32.0234 289.555 32.2839 289.242 32.5703C288.943 32.8568 288.643 33.1693 288.344 33.5078C288.044 33.8333 287.784 34.1719 287.562 34.5234C287.341 34.875 287.178 35.2331 287.074 35.5977C286.983 35.9622 286.983 36.3203 287.074 36.6719Z" fill="#007FC7"/>
<path d="M295.687 37.7852C295.141 37.5638 294.796 37.2318 294.652 36.7891C294.522 36.3464 294.529 35.8581 294.672 35.3242C294.815 34.7773 295.062 34.2174 295.414 33.6445C295.766 33.0586 296.156 32.5247 296.586 32.043C297.016 31.5612 297.445 31.1576 297.875 30.832C298.318 30.4935 298.695 30.3047 299.008 30.2656C299.815 30.1615 300.447 30.2201 300.902 30.4414C301.371 30.6497 301.69 30.9557 301.859 31.3594C302.029 31.763 302.074 32.2383 301.996 32.7852C301.918 33.319 301.742 33.8594 301.469 34.4062C301.208 34.9531 300.863 35.4805 300.434 35.9883C300.017 36.4961 299.548 36.9258 299.027 37.2773C298.52 37.6159 297.979 37.8438 297.406 37.9609C296.833 38.0651 296.26 38.0065 295.687 37.7852ZM295.473 36.6719C295.577 37.0885 295.798 37.3229 296.137 37.375C296.475 37.4141 296.866 37.3294 297.309 37.1211C297.764 36.8997 298.24 36.5872 298.734 36.1836C299.229 35.7669 299.678 35.3177 300.082 34.8359C300.499 34.3542 300.837 33.8724 301.098 33.3906C301.371 32.8958 301.501 32.4661 301.488 32.1016C301.488 31.737 301.312 31.4635 300.961 31.2812C300.622 31.0859 300.049 31.0469 299.242 31.1641C299.06 31.3333 298.826 31.5417 298.539 31.7891C298.253 32.0234 297.953 32.2839 297.641 32.5703C297.341 32.8568 297.042 33.1693 296.742 33.5078C296.443 33.8333 296.182 34.1719 295.961 34.5234C295.74 34.875 295.577 35.2331 295.473 35.5977C295.381 35.9622 295.381 36.3203 295.473 36.6719Z" fill="#007FC7"/>
<path d="M303.109 37.7852C303.083 37.7721 303.083 37.6224 303.109 37.3359C303.148 37.0365 303.201 36.6654 303.266 36.2227C303.331 35.7799 303.415 35.2917 303.52 34.7578C303.624 34.224 303.734 33.7161 303.852 33.2344C303.969 32.7396 304.092 32.3099 304.223 31.9453C304.366 31.5677 304.503 31.3073 304.633 31.1641C304.724 31.0729 304.815 31.0729 304.906 31.1641C304.997 31.2422 305.089 31.3464 305.18 31.4766C305.271 31.5938 305.362 31.7044 305.453 31.8086C305.544 31.8997 305.642 31.9062 305.746 31.8281C306.111 31.3203 306.508 30.8385 306.937 30.3828C307.38 29.9141 307.868 29.5104 308.402 29.1719C308.454 29.1328 308.598 29.0742 308.832 28.9961C309.066 28.9049 309.333 28.8203 309.633 28.7422C309.932 28.651 310.238 28.5794 310.551 28.5273C310.876 28.4622 311.15 28.4362 311.371 28.4492C311.605 28.4492 311.762 28.5078 311.84 28.625C311.931 28.7292 311.892 28.9115 311.723 29.1719C310.941 29.1849 310.212 29.4128 309.535 29.8555C308.858 30.2982 308.233 30.8451 307.66 31.4961C307.087 32.1471 306.566 32.8568 306.098 33.625C305.629 34.3802 305.219 35.0833 304.867 35.7344C304.529 36.3854 304.242 36.9258 304.008 37.3555C303.786 37.7852 303.624 38 303.52 38C303.506 38 303.448 37.974 303.344 37.9219C303.24 37.8568 303.161 37.8112 303.109 37.7852Z" fill="#007FC7"/>
<path d="M312.25 37.5508C312.146 37.3945 312.133 37.2253 312.211 37.043C312.302 36.8607 312.426 36.7109 312.582 36.5938C312.738 36.4635 312.895 36.3984 313.051 36.3984C313.207 36.3854 313.311 36.4766 313.363 36.6719C313.415 36.8672 313.415 37.069 313.363 37.2773C313.324 37.4857 313.246 37.6549 313.129 37.7852C313.025 37.9154 312.895 37.974 312.738 37.9609C312.582 37.9479 312.419 37.8112 312.25 37.5508ZM313.363 32.043C313.337 31.9648 313.35 31.7695 313.402 31.457C313.454 31.1445 313.533 30.7669 313.637 30.3242C313.741 29.8685 313.871 29.3672 314.027 28.8203C314.184 28.2734 314.353 27.7266 314.535 27.1797C314.717 26.6328 314.906 26.1055 315.102 25.5977C315.297 25.0898 315.486 24.6471 315.668 24.2695C315.863 23.8919 316.046 23.6055 316.215 23.4102C316.397 23.2148 316.56 23.1497 316.703 23.2148C316.716 23.2799 316.69 23.5013 316.625 23.8789C316.573 24.2435 316.488 24.6992 316.371 25.2461C316.254 25.7799 316.111 26.3724 315.941 27.0234C315.785 27.6745 315.616 28.3125 315.434 28.9375C315.264 29.5625 315.082 30.1484 314.887 30.6953C314.691 31.2292 314.503 31.6589 314.32 31.9844C314.138 32.3099 313.962 32.4922 313.793 32.5312C313.624 32.5703 313.48 32.4076 313.363 32.043Z" fill="#007FC7"/>
</svg>
