<svg width="24" height="24" viewBox="0 0 24 24" fill="none" xmlns="http://www.w3.org/2000/svg">
<path d="M11.1725 1.03445C11.3277 0.724108 11.6381 0.517212 12.0001 0.517212C12.3622 0.517212 12.6725 0.724108 12.8277 1.03445L15.8277 7.08618C15.9829 7.3448 16.2415 7.55169 16.5518 7.60342L23.2243 8.58618C23.5863 8.6379 23.8449 8.89652 23.9484 9.20687C24.0518 9.51721 23.9484 9.931 23.6898 10.1379L18.8794 14.8448C18.6725 15.0517 18.5691 15.362 18.6208 15.6724L19.7587 22.3448C19.8105 22.7069 19.6553 23.0689 19.3967 23.2758C19.0863 23.4827 18.7243 23.5345 18.4139 23.3276L12.4139 20.1724C12.1553 20.0172 11.845 20.0172 11.5346 20.1724L5.58633 23.3276C5.27599 23.4827 4.91392 23.4827 4.60357 23.2758C4.29323 23.0689 4.18978 22.7069 4.2415 22.3448L5.37943 15.6724C5.43116 15.362 5.32771 15.0517 5.12081 14.8448L0.310469 10.1379C0.0518488 9.87928 -0.0515995 9.51721 0.0518488 9.20687C0.155297 8.89652 0.465642 8.6379 0.775987 8.58618L7.4484 7.60342C7.75874 7.55169 8.01737 7.3448 8.17254 7.08618L11.1725 1.03445Z" fill="#0B7EC2"/>
</svg>
