<svg width="40" height="40" viewBox="0 0 40 40" fill="none" xmlns="http://www.w3.org/2000/svg">
<path d="M34 33.8002V28.8002C34 27.4002 33.8 26.0002 33 24.6002C32.2 23.2002 31.2 22.0002 29.8 21.2002C28.4 20.2002 25.4 20.0002 24 20.0002L20.8 23.4002L22 26.0002V32.0002L20 34.2002L18 32.0002V26.0002L19.4 23.4002L16 20.0002C14.4 20.0002 11.4 20.2002 10 21.2002C8.6 22.0002 7.8 23.2002 7 24.6002C6.2 26.0002 6 27.2002 6 28.8002V33.8002C6 33.8002 11.2 36.0002 20 36.0002C28.8 36.0002 34 33.8002 34 33.8002ZM20 4.2002C16.2 4.2002 14 7.8002 14.6 11.8002C15.2 15.8002 17.2 18.6002 20 18.6002C22.8 18.6002 24.8 15.8002 25.4 11.8002C26 7.6002 23.8 4.2002 20 4.2002Z" fill="#0B7EC2"/>
</svg>
