<svg width="40" height="40" viewBox="0 0 40 40" fill="none" xmlns="http://www.w3.org/2000/svg">
<path d="M26.4 20.0002L22 26.0002L20 23.2002L18 26.0002L13.6 20.0002C6 22.0002 6 26.0002 6 33.8002C6 33.8002 12 36.0002 18.8 36.0002H21.2C28 35.8002 34 33.8002 34 33.8002C34 26.0002 34 22.0002 26.4 20.0002ZM20 21.4002L16.8 20.0002L20 23.2002L23.2 20.0002L20 21.4002ZM20 4.2002C16.2 4.2002 14 7.8002 14.6 11.8002C15.2 15.8002 17.2 18.6002 20 18.6002C22.8 18.6002 24.8 15.8002 25.4 11.8002C26 7.6002 23.8 4.2002 20 4.2002Z" fill="#0B7EC2"/>
</svg>
