<svg width="149" height="21" viewBox="0 0 149 21" fill="none" xmlns="http://www.w3.org/2000/svg">
<path fill-rule="evenodd" clip-rule="evenodd" d="M57.2355 10.5003C57.2355 18.3239 52.0884 20.5886 45.2943 20.5886H38.7061V0.412109H45.2943C51.8825 0.412109 57.2355 2.67682 57.2355 10.5003Z" fill="#111111"/>
<path fill-rule="evenodd" clip-rule="evenodd" d="M43.4414 4.32307V16.4701H45.5002C49.0002 16.4701 52.2943 15.6466 52.2943 10.2937C52.2943 4.94072 49.2061 4.11719 45.5002 4.11719H43.4414V4.32307Z" fill="white"/>
<path fill-rule="evenodd" clip-rule="evenodd" d="M75.1471 0.412109V4.52976H64.4412V8.02976H74.5294V12.3533H64.4412V16.4709H75.1471V20.5886H59.5V0.412109H75.1471Z" fill="#111111"/>
<path fill-rule="evenodd" clip-rule="evenodd" d="M92.2352 6.58824C91.8234 5.14706 90.3822 3.91176 87.7057 3.91176C84.8234 3.91176 82.5587 6.17647 82.5587 10.2941C82.5587 14.6176 84.6175 16.8824 87.9116 16.8824C90.1763 16.8824 92.441 16.0588 92.441 13.3824V13.1765H87.4999V9.26471H97.1763V20.5882H93.4705L93.2646 18.3235C92.0293 20.1765 89.9704 21 87.0881 21C81.1175 21 77.4116 16.8824 77.4116 10.5C77.4116 4.11765 81.5293 0 87.7057 0C92.2352 0 95.941 2.26471 96.7646 6.58824H92.2352Z" fill="#111111"/>
<path fill-rule="evenodd" clip-rule="evenodd" d="M100.677 20.5886H105.412V0.412109H100.677V20.5886Z" fill="#111111"/>
<path fill-rule="evenodd" clip-rule="evenodd" d="M113.647 12.9709V20.5886H108.912V0.412109H116.735C122.088 0.412109 126 1.6474 126 6.58858C126 9.67682 124.353 11.3239 122.088 12.1474L127.029 20.5886H121.47L117.147 12.9709H113.647Z" fill="#111111"/>
<path fill-rule="evenodd" clip-rule="evenodd" d="M113.647 8.85363H116.736C119 8.85363 120.647 8.44187 120.647 6.58892C120.647 4.73598 119 4.32422 116.736 4.32422H113.647V8.85363Z" fill="white"/>
<path fill-rule="evenodd" clip-rule="evenodd" d="M127.647 10.5C127.647 4.11765 131.97 0 138.147 0C144.323 0 148.647 4.11765 148.647 10.5C148.647 16.8824 144.323 21 138.147 21C131.97 21 127.647 16.8824 127.647 10.5Z" fill="#111111"/>
<path fill-rule="evenodd" clip-rule="evenodd" d="M143.706 10.5003C143.706 6.17682 141.235 3.91211 138.353 3.91211C135.471 3.91211 133 6.17682 133 10.5003C133 14.8239 135.471 17.0886 138.353 17.0886C141.235 17.0886 143.706 14.8239 143.706 10.5003Z" fill="white"/>
<path fill-rule="evenodd" clip-rule="evenodd" d="M0 8.44152H33.7647V0.412109H0V8.44152Z" fill="#009FDF"/>
<path fill-rule="evenodd" clip-rule="evenodd" d="M0 20.5888H33.7647V12.3535H0V20.5888Z" fill="#009FDF"/>
</svg>
