<svg width="20" height="20" viewBox="0 0 20 20" fill="none" xmlns="http://www.w3.org/2000/svg">
<path d="M9.99999 1.6665C14.6 1.6665 18.3333 5.39984 18.3333 9.99984C18.3333 14.5998 14.6 18.3332 9.99999 18.3332C5.39999 18.3332 1.66666 14.5998 1.66666 9.99984C1.66666 5.39984 5.39999 1.6665 9.99999 1.6665ZM9.99999 16.6665C13.6833 16.6665 16.6667 13.6832 16.6667 9.99984C16.6667 6.3165 13.6833 3.33317 9.99999 3.33317C6.31666 3.33317 3.33332 6.3165 3.33332 9.99984C3.33332 13.6832 6.31666 16.6665 9.99999 16.6665ZM10.8333 9.99984H13.3333L9.99999 13.3332L6.66666 9.99984H9.16666V6.6665H10.8333V9.99984Z" fill="#50738F"/>
</svg>
