<svg width="24" height="24" viewBox="0 0 24 24" fill="none" xmlns="http://www.w3.org/2000/svg">
<path fill-rule="evenodd" clip-rule="evenodd" d="M23.3327 11.2329C22.2743 5.32172 19.9078 3.57812 18.649 3.57812C16.6846 3.57812 16.1806 5.03852 11.9998 5.08772C7.81905 5.03852 7.31505 3.57812 5.35065 3.57812C4.09185 3.57812 1.72425 5.32172 0.665846 11.2329C0.0622459 14.6073 -0.592954 19.6449 0.968246 20.2497C2.91105 21.0021 3.56985 19.1205 5.70345 17.5305C7.86945 15.9189 8.90865 15.5397 11.9998 15.5397C15.091 15.5397 16.1302 15.9189 18.2962 17.5305C20.4298 19.1193 21.0886 21.0021 23.0315 20.2497C24.5927 19.6449 23.9375 14.6085 23.3327 11.2329ZM7.19985 11.9997C6.56333 11.9997 5.95288 11.7469 5.50279 11.2968C5.0527 10.8467 4.79985 10.2362 4.79985 9.59973C4.79985 8.96321 5.0527 8.35276 5.50279 7.90267C5.95288 7.45258 6.56333 7.19973 7.19985 7.19973C7.83637 7.19973 8.44682 7.45258 8.8969 7.90267C9.34699 8.35276 9.59985 8.96321 9.59985 9.59973C9.59985 10.2362 9.34699 10.8467 8.8969 11.2968C8.44682 11.7469 7.83637 11.9997 7.19985 11.9997ZM15.5998 11.9997C15.2816 11.9997 14.9764 11.8733 14.7513 11.6483C14.5263 11.4232 14.3998 11.118 14.3998 10.7997C14.3998 10.4815 14.5263 10.1762 14.7513 9.9512C14.9764 9.72615 15.2816 9.59973 15.5998 9.59973C15.9181 9.59973 16.2233 9.72615 16.4484 9.9512C16.6734 10.1762 16.7998 10.4815 16.7998 10.7997C16.7998 11.118 16.6734 11.4232 16.4484 11.6483C16.2233 11.8733 15.9181 11.9997 15.5998 11.9997ZM17.9998 9.59973C17.6816 9.59973 17.3764 9.4733 17.1513 9.24825C16.9263 9.02321 16.7998 8.71799 16.7998 8.39973C16.7998 8.08147 16.9263 7.77624 17.1513 7.5512C17.3764 7.32615 17.6816 7.19973 17.9998 7.19973C18.3181 7.19973 18.6233 7.32615 18.8484 7.5512C19.0734 7.77624 19.1998 8.08147 19.1998 8.39973C19.1998 8.71799 19.0734 9.02321 18.8484 9.24825C18.6233 9.4733 18.3181 9.59973 17.9998 9.59973Z" fill="#0B7EC2"/>
</svg>
