<svg width="114" height="36" viewBox="0 0 114 36" fill="none" xmlns="http://www.w3.org/2000/svg">
<path d="M10.9896 0.21075C10.6273 0.192022 10.3876 0.512876 10.3876 0.512876C10.3876 0.512876 6.47891 5.23761 4.17777 8.08502C1.87638 10.9324 1.04522 12.9149 1.04522 12.9149C-0.57308 17.0145 2.70804 19.698 2.70804 19.698C6.12288 22.5305 9.83449 22.5155 9.83449 22.5155C9.77514 19.9216 9.87891 18.3862 9.87891 18.3862C10.1313 15.6283 13.0559 12.9002 13.0559 12.9002C12.0606 12.9773 10.0729 12.9729 8.97629 11.9771C7.87977 10.9813 8.57315 8.61724 8.57315 8.61724L11.4115 1.06341C11.4115 1.06341 11.7664 0.54512 11.2584 0.286061C11.1631 0.237479 11.073 0.2151 10.9894 0.21075H10.9896ZM102.812 0.21075C102.728 0.212814 102.638 0.237499 102.542 0.286061C102.033 0.54512 102.389 1.06341 102.389 1.06341L105.233 8.61724C105.233 8.61724 105.928 10.9813 104.829 11.9771C103.73 12.9729 101.738 12.9773 100.741 12.9002C100.741 12.9002 103.672 15.6283 103.925 18.3862C103.925 18.3862 104.029 19.9216 103.969 22.5155C103.969 22.5155 107.688 22.5305 111.11 19.698C111.11 19.698 114.398 17.0145 112.776 12.9149C112.776 12.9149 111.943 10.9324 109.637 8.08502C107.331 5.23761 103.415 0.512876 103.415 0.512876C103.415 0.512876 103.175 0.192073 102.812 0.21075H102.812ZM21.0489 12.3751C21.0489 12.3751 13.0631 12.3448 12.0385 19.4252V28.7145C12.0385 28.7145 12.1592 35.3107 21.4406 35.7949C21.4406 35.7949 26.3222 36.3092 29.848 31.6192L25.8704 28.9869C25.8704 28.9869 23.9719 31.4377 21.5311 31.2864C19.0902 31.1351 16.7699 30.2273 16.7699 27.7159V25.6585H29.2754C29.2754 25.6585 30.1494 25.84 30.1494 24.2665V19.637C30.1494 19.637 30.2701 12.6777 21.0489 12.3751ZM91.9998 12.4379C91.9998 12.4379 83.9886 12.5897 82.8549 19.6472V28.7916C82.8549 28.7916 83.1573 34.7865 91.8486 35.5833C91.8486 35.5833 100.54 36.1147 101.636 28.564V18.9644C101.636 18.9644 100.842 12.7414 91.9998 12.4379ZM59.3705 12.4984C59.3705 12.4984 51.3593 12.6502 50.2256 19.7077V28.8518C50.2256 28.8518 50.528 34.847 59.2194 35.6438C59.2194 35.6438 67.9108 36.1749 69.0066 28.6242V19.0247C69.0066 19.0247 68.2129 12.802 59.3705 12.4984ZM81.0516 12.5709C72.803 12.6754 71.8273 19.2154 71.8273 19.2154V35.4958H76.4876V19.9401C76.4876 19.9401 77.3125 17.434 80.2296 17.2528C80.2296 17.2528 81.4929 13.6594 83.8085 12.7535C82.965 12.6379 82.1802 12.5798 81.45 12.5709C81.3154 12.5703 81.1826 12.5703 81.0516 12.5709ZM41.4314 12.8463C41.1144 12.8451 40.7944 12.8469 40.4725 12.8581C35.321 13.0325 33.3241 13.4395 30.3143 14.3404C30.3143 14.3404 32.2531 16.2 32.34 18.3505C32.34 18.3505 35.784 17.3916 37.9256 17.4788V35.4957H42.614V17.595C42.614 17.595 46.1738 17.537 48.055 18.3797C48.055 18.3797 47.8524 16.578 50.2546 14.3404C50.2546 14.3404 46.1848 12.8845 41.4314 12.8462V12.8463ZM21.5857 16.9718C23.6988 16.9902 25.5096 18.3343 25.5387 19.8488V21.7552H16.7699V19.516C16.7699 19.516 17.796 17.0894 21.3804 16.9744C21.4491 16.9735 21.5177 16.9729 21.5857 16.9732V16.9718ZM92.0755 17.1051C95.93 17.0671 96.8747 18.6986 96.8747 19.8369V27.6913C96.8747 27.6913 96.3455 30.8026 92.3778 30.7267C88.4099 30.6508 87.5786 28.6397 87.5786 27.084V20.1023C87.5786 20.1023 88.2212 17.143 92.0755 17.1051ZM59.4461 17.1653C63.3006 17.1274 64.2453 18.7591 64.2453 19.8974V27.7515C64.2453 27.7515 63.7161 30.8628 59.7483 30.7869C55.7805 30.7111 54.9493 28.7002 54.9493 27.1446V20.1629C54.9493 20.1629 55.5918 17.2033 59.4461 17.1653Z" fill="#5C9F04"/>
</svg>
