<svg width="40" height="40" viewBox="0 0 40 40" fill="none" xmlns="http://www.w3.org/2000/svg">
<path d="M13.3333 6.66667V26.6667C13.3333 27.5507 13.6845 28.3986 14.3096 29.0237C14.9347 29.6488 15.7826 30 16.6666 30H30C30.884 30 31.7319 29.6488 32.357 29.0237C32.9821 28.3986 33.3333 27.5507 33.3333 26.6667V12.07C33.3333 11.6259 33.2445 11.1864 33.0722 10.7771C32.8999 10.3678 32.6475 9.99707 32.33 9.68667L26.805 4.28334C26.1822 3.67443 25.3459 3.33344 24.475 3.33334H16.6666C15.7826 3.33334 14.9347 3.68453 14.3096 4.30965C13.6845 4.93477 13.3333 5.78261 13.3333 6.66667V6.66667Z" stroke="white" stroke-width="3.33333" stroke-linecap="round" stroke-linejoin="round"/>
<path d="M26.6667 30V33.3333C26.6667 34.2174 26.3155 35.0652 25.6903 35.6904C25.0652 36.3155 24.2174 36.6667 23.3333 36.6667H9.99999C9.11593 36.6667 8.26809 36.3155 7.64297 35.6904C7.01785 35.0652 6.66666 34.2174 6.66666 33.3333V15C6.66666 14.116 7.01785 13.2681 7.64297 12.643C8.26809 12.0179 9.11593 11.6667 9.99999 11.6667H13.3333" stroke="white" stroke-width="3.33333" stroke-linecap="round" stroke-linejoin="round"/>
</svg>
