<svg width="24" height="24" viewBox="0 0 24 24" fill="none" xmlns="http://www.w3.org/2000/svg">
<g clip-path="url(#clip0_145_6042)">
<path d="M23.0417 15.266C22.5711 15.2489 21.6128 15.8231 21.3561 15.9689C20.2866 16.5603 19.2599 17.2289 18.2759 17.9488C18.216 18.0003 18.1476 18.0517 18.0791 18.0946C17.7027 18.3603 17.2834 18.5574 16.8385 18.6603C14.3315 19.286 10.6781 19.4488 10.6781 19.4488L10.4642 19.4746C10.293 19.4831 10.139 19.3546 10.1219 19.1831C10.1048 19.0117 10.2246 18.866 10.3957 18.8403L15.8374 18.1546C16.4364 18.0689 16.8984 17.4689 16.8128 16.8174C16.7273 16.166 16.1369 15.6946 15.538 15.7803L10.6866 15.8489C10.3102 15.8489 9.92513 15.806 9.55721 15.7117C6.38288 14.8289 4.62887 15.7803 3.70481 16.2174C3.70481 16.2174 3.51657 16.346 3.25989 16.5431C3.01176 16.7317 2.78074 16.946 2.55828 17.1689L0.16256 19.3203C-0.0171189 19.466 -0.0513435 19.7317 0.094111 19.9203L3.26844 23.8374C3.40534 24.0174 3.66203 24.0517 3.8417 23.9145C3.85026 23.9145 3.85026 23.906 3.85882 23.906H3.86737L5.9893 22.3117L13.4845 22.4403C14.5112 22.5174 15.461 22.3717 16.3508 21.8488L16.6075 21.7031L23.4267 17.2889C23.769 17.0831 23.9829 16.7146 24 16.3117C23.9914 15.8317 23.7091 15.3003 23.0417 15.266Z" fill="#0B7EC2"/>
<path d="M18.1734 5.77733C18.1562 5.58876 17.9423 5.45162 17.7627 5.45162C16.9755 5.46876 16.3252 4.83447 16.3081 4.0459C16.2996 3.63447 16.4707 3.23162 16.7787 2.95733C16.9156 2.82876 16.9413 2.61447 16.8215 2.46876C16.522 2.08305 16.1712 1.74019 15.7948 1.43162C15.6493 1.31162 15.4268 1.32876 15.2985 1.4659C14.8792 1.90305 14.2461 2.04876 13.6814 1.83447C13.1252 1.59447 12.7744 1.02876 12.8087 0.42019C12.8172 0.231618 12.6803 0.0687611 12.4921 0.0430469C12.0044 -0.0169531 11.5167 -0.0169531 11.029 0.0430469C10.8407 0.0601897 10.7038 0.223047 10.7124 0.411618C10.7295 1.01162 10.3787 1.56876 9.82256 1.80019C9.29208 2.01447 8.60758 1.85162 8.214 1.43162C8.08566 1.29447 7.88031 1.27733 7.7263 1.38876C7.34127 1.69733 6.99047 2.04876 6.68245 2.4259C6.56266 2.57162 6.57978 2.79447 6.71667 2.92305C7.17015 3.33447 7.31561 3.97733 7.08459 4.54305C6.85357 5.07447 6.30598 5.41733 5.67282 5.41733C5.48459 5.40876 5.32202 5.55447 5.29635 5.74304C5.23646 6.23162 5.23646 6.72876 5.29635 7.21733C5.31347 7.39733 5.53593 7.53447 5.71561 7.53447C6.30598 7.5259 6.83646 7.87733 7.05036 8.4259C7.28138 8.98304 7.13593 9.6259 6.69101 10.0288C6.55411 10.1573 6.537 10.363 6.64823 10.5173C6.94769 10.903 7.29849 11.2545 7.67496 11.563C7.82897 11.683 8.04288 11.6659 8.17122 11.5202C8.59047 11.083 9.22363 10.9373 9.78833 11.1602C10.3445 11.3916 10.6953 11.9573 10.6611 12.5659C10.6525 12.7545 10.7894 12.9173 10.9776 12.943C11.2258 12.9773 11.4825 12.9859 11.7306 12.9859C11.9702 12.9859 12.2012 12.9773 12.4407 12.9516C12.629 12.9259 12.7659 12.763 12.7573 12.5745C12.7402 11.9745 13.091 11.4259 13.6472 11.1945C14.2033 10.9802 14.8365 11.1259 15.2557 11.5545C15.3841 11.7002 15.598 11.7173 15.7434 11.5973C16.1284 11.2973 16.4792 10.9459 16.7873 10.5602C16.907 10.4145 16.8899 10.1916 16.753 10.063C16.2996 9.65161 16.1541 9.00876 16.3851 8.44304C16.6161 7.91162 17.1381 7.56876 17.7113 7.56876H17.7969C17.9851 7.57733 18.1477 7.44019 18.1734 7.25162C18.2333 6.76304 18.2333 6.2659 18.1734 5.77733ZM11.7391 10.2345C9.68566 10.2259 8.03432 8.55447 8.04288 6.49733C8.05143 4.44019 9.71988 2.7859 11.7734 2.79447C13.8268 2.80305 15.4782 4.47447 15.4696 6.53162C15.4696 7.19162 15.2899 7.84304 14.9477 8.41733L13.3049 6.77162C13.4247 6.48876 13.4846 6.18876 13.4846 5.88019C13.4931 5.27162 13.245 4.68019 12.8172 4.25162C12.3894 3.82305 11.8076 3.58305 11.2001 3.58305C10.9947 3.58305 10.7894 3.60876 10.5926 3.66019C10.507 3.6859 10.4386 3.76305 10.4129 3.84876C10.3873 3.94305 10.4215 4.03733 10.4899 4.09733L11.568 5.17733C11.5937 5.21162 11.5937 5.25447 11.5851 5.29733V5.31447C11.568 5.58019 11.5252 5.8459 11.4653 6.11162L11.4482 6.12876C11.4397 6.13733 11.4311 6.13733 11.4311 6.1459C11.1659 6.2059 10.9006 6.24876 10.6268 6.27447H10.6012C10.5498 6.27447 10.507 6.25733 10.4728 6.22304L9.42042 5.16876C9.36908 5.11733 9.30063 5.08305 9.22363 5.08305C9.1124 5.09162 9.00972 5.16876 8.98405 5.28019C8.77015 6.06876 9.00117 6.91733 9.57443 7.50019C10.0022 7.93733 10.5926 8.17733 11.2001 8.17733C11.5081 8.17733 11.8076 8.10876 12.0899 7.98876L13.7498 9.65161C13.1509 10.0288 12.4493 10.2345 11.7391 10.2345Z" fill="#0B7EC2"/>
</g>
<defs>
<clipPath id="clip0_145_6042">
<rect width="24" height="24" fill="white"/>
</clipPath>
</defs>
</svg>
