<svg width="40" height="40" viewBox="0 0 40 40" fill="none" xmlns="http://www.w3.org/2000/svg">
<path d="M9.50833 6.18301L7.15833 3.81634C1.66666 9.27134 1.66666 13.2247 1.66666 18.333H3.33333L5 18.228C5 13.348 5 10.6597 9.50833 6.18301ZM32.84 3.81634L30.4933 6.18301C35 10.6597 35 13.348 35 18.333L38.3333 18.228C38.3333 13.2247 38.3333 9.27134 32.84 3.81634ZM20 36.6663C21.0322 36.6676 22.0391 36.3473 22.8808 35.7499C23.7225 35.1526 24.3572 34.3078 24.6967 33.333H15.3033C15.6428 34.3078 16.2775 35.1526 17.1192 35.7499C17.9609 36.3473 18.9678 36.6676 20 36.6663ZM31.6667 24.3097V16.6663C31.6667 11.3047 28.025 6.78801 23.0917 5.42967C22.6033 4.19967 21.41 3.33301 20 3.33301C18.59 3.33301 17.3967 4.19967 16.9083 5.42967C11.9733 6.78801 8.33333 11.3047 8.33333 16.6663V24.3097L5.48833 27.1547C5.33326 27.3092 5.21028 27.4928 5.12647 27.6951C5.04266 27.8973 4.99968 28.1141 5 28.333V29.9997C5 30.4417 5.17559 30.8656 5.48815 31.1782C5.80071 31.4907 6.22464 31.6663 6.66666 31.6663H33.3333C33.7754 31.6663 34.1993 31.4907 34.5118 31.1782C34.8244 30.8656 35 30.4417 35 29.9997V28.333C35.0003 28.1141 34.9573 27.8973 34.8735 27.6951C34.7897 27.4928 34.6667 27.3092 34.5117 27.1547L31.6667 24.3097Z" fill="#50738F"/>
</svg>
