<svg width="60" height="60" viewBox="0 0 60 60" fill="none" xmlns="http://www.w3.org/2000/svg">
<path fill-rule="evenodd" clip-rule="evenodd" d="M22.5 17.48C22.5 16.1103 23.6193 15 25 15H35C36.3807 15 37.5 16.1103 37.5 17.48V49.72C37.5 51.0897 36.3807 52.2 35 52.2H25C23.6193 52.2 22.5 51.0897 22.5 49.72V17.48ZM27.5 19.96V47.24H32.5V19.96H27.5ZM5 24.92C5 23.5503 6.11929 22.44 7.5 22.44H17.5C18.8807 22.44 20 23.5503 20 24.92V42.28C20 43.6497 18.8807 44.76 17.5 44.76H7.5C6.11929 44.76 5 43.6497 5 42.28V24.92ZM10 27.4V39.8H15V27.4H10Z" fill="#50738F"/>
<path fill-rule="evenodd" clip-rule="evenodd" d="M30 47.5C31.3807 47.5 32.5 48.5745 32.5 49.9V54.7C32.5 56.0255 31.3807 57.1 30 57.1C28.6193 57.1 27.5 56.0255 27.5 54.7V49.9C27.5 48.5745 28.6193 47.5 30 47.5Z" fill="#50738F"/>
<path fill-rule="evenodd" clip-rule="evenodd" d="M40 14.9C40 13.5745 41.1193 12.5 42.5 12.5H52.5C53.8807 12.5 55 13.5745 55 14.9V25.7C55 27.0255 53.8807 28.1 52.5 28.1H42.5C41.1193 28.1 40 27.0255 40 25.7V14.9ZM45 17.3V23.3H50V17.3H45Z" fill="#50738F"/>
<path fill-rule="evenodd" clip-rule="evenodd" d="M47.5001 2.5C48.8808 2.5 50.0001 3.60612 50.0001 4.97059V14.8529C50.0001 16.2174 48.8808 17.3235 47.5001 17.3235C46.1194 17.3235 45.0001 16.2174 45.0001 14.8529V4.97059C45.0001 3.60612 46.1194 2.5 47.5001 2.5ZM12.5001 9.91177C13.8808 9.91177 15.0001 11.0179 15.0001 12.3824V24.7353C15.0001 26.0998 13.8808 27.2059 12.5001 27.2059C11.1194 27.2059 10.0001 26.0998 10.0001 24.7353V12.3824C10.0001 11.0179 11.1194 9.91177 12.5001 9.91177ZM47.5001 23.5C48.8808 23.5 50.0001 24.6061 50.0001 25.9706V42.0294C50.0001 43.3939 48.8808 44.5 47.5001 44.5C46.1194 44.5 45.0001 43.3939 45.0001 42.0294V25.9706C45.0001 24.6061 46.1194 23.5 47.5001 23.5Z" fill="#50738F"/>
</svg>
