<svg width="40" height="40" viewBox="0 0 40 40" fill="none" xmlns="http://www.w3.org/2000/svg">
<path d="M34.9998 13.3338C35.8839 13.3338 36.7317 13.685 37.3569 14.3101C37.982 14.9352 38.3332 15.7831 38.3332 16.6671V23.3338C38.3332 24.2179 37.982 25.0657 37.3569 25.6908C36.7317 26.316 35.8839 26.6671 34.9998 26.6671H33.2298C32.8235 29.8893 31.2553 32.8524 28.8194 35.0005C26.3836 37.1485 23.2475 38.3338 19.9998 38.3338V35.0005C22.652 35.0005 25.1955 33.9469 27.0709 32.0716C28.9463 30.1962 29.9998 27.6526 29.9998 25.0005V15.0005C29.9998 12.3483 28.9463 9.80478 27.0709 7.92942C25.1955 6.05405 22.652 5.00048 19.9998 5.00048C17.3477 5.00048 14.8041 6.05405 12.9288 7.92942C11.0534 9.80478 9.99984 12.3483 9.99984 15.0005V26.6671H4.99984C4.11578 26.6671 3.26794 26.316 2.64281 25.6908C2.01769 25.0657 1.6665 24.2179 1.6665 23.3338V16.6671C1.6665 15.7831 2.01769 14.9352 2.64281 14.3101C3.26794 13.685 4.11578 13.3338 4.99984 13.3338H6.76984C7.17655 10.112 8.74497 7.14927 11.1808 5.00161C13.6166 2.85395 16.7524 1.66895 19.9998 1.66895C23.2472 1.66895 26.3831 2.85395 28.8189 5.00161C31.2547 7.14927 32.8231 10.112 33.2298 13.3338H34.9998ZM12.9332 26.3088L14.6998 23.4821C16.2883 24.4772 18.1254 25.0035 19.9998 25.0005C21.8742 25.0035 23.7114 24.4772 25.2998 23.4821L27.0665 26.3088C24.9486 27.6357 22.4991 28.3377 19.9998 28.3338C17.5006 28.3377 15.0511 27.6357 12.9332 26.3088Z" fill="#50738F"/>
</svg>
