<svg width="60" height="60" viewBox="0 0 60 60" fill="none" xmlns="http://www.w3.org/2000/svg">
<path fill-rule="evenodd" clip-rule="evenodd" d="M15 7.40909C13.0109 7.40909 11.1032 8.1849 9.6967 9.56585C8.29018 10.9468 7.5 12.8198 7.5 14.7727V24.5909H52.5V14.7727C52.5 12.8198 51.7098 10.9468 50.3033 9.56585C48.8968 8.1849 46.9891 7.40909 45 7.40909H15ZM6.16117 6.0946C8.50537 3.79302 11.6848 2.5 15 2.5H45C48.3152 2.5 51.4946 3.79302 53.8388 6.0946C56.183 8.39618 57.5 11.5178 57.5 14.7727V27.0455C57.5 28.4011 56.3807 29.5 55 29.5H5C3.61929 29.5 2.5 28.4011 2.5 27.0455V14.7727C2.5 11.5178 3.81696 8.39618 6.16117 6.0946Z" fill="#50738F"/>
<path fill-rule="evenodd" clip-rule="evenodd" d="M36.25 40.85C36.25 39.6902 37.3693 38.75 38.75 38.75H46.25C47.6307 38.75 48.75 39.6902 48.75 40.85C48.75 42.0098 47.6307 42.95 46.25 42.95H38.75C37.3693 42.95 36.25 42.0098 36.25 40.85Z" fill="#50738F"/>
<path fill-rule="evenodd" clip-rule="evenodd" d="M2.5 27.4462C2.5 26.0952 3.61929 25 5 25H55C56.3807 25 57.5 26.0952 57.5 27.4462V44.5692C57.5 47.813 56.183 50.924 53.8388 53.2177C51.4946 55.5114 48.3152 56.8 45 56.8H15C11.6848 56.8 8.50537 55.5114 6.16117 53.2177C3.81696 50.924 2.5 47.813 2.5 44.5692V27.4462ZM32.5 51.9077H45C46.9891 51.9077 48.8968 51.1345 50.3033 49.7583C51.7098 48.3821 52.5 46.5155 52.5 44.5692V29.8923H32.5V51.9077ZM27.5 29.8923V51.9077H15C13.0109 51.9077 11.1032 51.1345 9.6967 49.7583C8.29018 48.3821 7.5 46.5155 7.5 44.5692V29.8923H27.5Z" fill="#50738F"/>
<path fill-rule="evenodd" clip-rule="evenodd" d="M11.9822 35.7093C12.9585 34.7636 14.5415 34.7636 15.5178 35.7093L17.5 37.6296L19.4822 35.7093L23.0178 39.1344L21.0355 41.0547L23.0178 42.975L19.4822 46.4L17.5 44.4797L15.5178 46.4L11.9822 42.975L13.9645 41.0547L11.9822 39.1344C11.0059 38.1886 11.0059 36.6551 11.9822 35.7093Z" fill="#50738F"/>
</svg>
