<svg width="40" height="40" viewBox="0 0 40 40" fill="none" xmlns="http://www.w3.org/2000/svg">
<path d="M37.8571 8.57143C38.4524 8.57143 38.9583 8.77976 39.375 9.19643C39.7917 9.6131 40 10.119 40 10.7143V37.8571C40 38.4524 39.7917 38.9583 39.375 39.375C38.9583 39.7917 38.4524 40 37.8571 40H16.4286C15.8333 40 15.3274 39.7917 14.9107 39.375C14.494 38.9583 14.2857 38.4524 14.2857 37.8571V31.4286H2.14286C1.54762 31.4286 1.04167 31.2202 0.625 30.8036C0.208333 30.3869 0 29.881 0 29.2857V14.2857C0 13.6905 0.14881 13.0357 0.446429 12.3214C0.744048 11.6071 1.10119 11.0417 1.51786 10.625L10.625 1.51786C11.0417 1.10119 11.6071 0.744048 12.3214 0.446429C13.0357 0.14881 13.6905 0 14.2857 0H23.5714C24.1667 0 24.6726 0.208333 25.0893 0.625C25.506 1.04167 25.7143 1.54762 25.7143 2.14286V9.46429C26.7262 8.86905 27.6786 8.57143 28.5714 8.57143H37.8571ZM25.7143 13.3259L19.0402 20H25.7143V13.3259ZM11.4286 4.75446L4.75446 11.4286H11.4286V4.75446ZM15.8036 19.1964L22.8571 12.1429V2.85714H14.2857V12.1429C14.2857 12.7381 14.0774 13.244 13.6607 13.6607C13.244 14.0774 12.7381 14.2857 12.1429 14.2857H2.85714V28.5714H14.2857V22.8571C14.2857 22.2619 14.4345 21.6071 14.7321 20.8929C15.0298 20.1786 15.3869 19.6131 15.8036 19.1964ZM37.1429 37.1429V11.4286H28.5714V20.7143C28.5714 21.3095 28.3631 21.8155 27.9464 22.2321C27.5298 22.6488 27.0238 22.8571 26.4286 22.8571H17.1429V37.1429H37.1429Z" fill="#50738F"/>
</svg>
