<svg width="60" height="60" viewBox="0 0 60 60" fill="none" xmlns="http://www.w3.org/2000/svg">
<path d="M26.575 34.846C27.5268 32.7879 28.8813 30.9345 30.5612 29.3917C32.2411 27.8488 34.2134 26.6467 36.3655 25.854C38.5176 25.0613 40.8073 24.6935 43.1038 24.7717C45.4004 24.85 47.6588 25.3726 49.75 26.3098C51.8415 27.2464 53.7251 28.5792 55.293 30.2322C56.861 31.8852 58.0826 33.8259 58.8882 35.9436C59.6938 38.0613 60.0675 40.3143 59.9881 42.5741C59.9086 44.8339 59.3774 47.0562 58.425 49.114C57.0389 52.1252 54.7989 54.6786 51.974 56.4678C49.1491 58.2569 45.8594 59.2056 42.5 59.2C35.75 59.2 29.575 55.3624 26.675 49.36H2.5V44.44C2.65 41.6356 4.6 39.3478 8.35 37.5028C12.1 35.6578 16.8 34.6984 22.5 34.6C23.925 34.6 25.275 34.723 26.575 34.846ZM22.5 10C25.3 10.0738 27.65 11.0332 29.525 12.8782C31.4 14.7232 32.325 17.0356 32.325 19.84C32.325 22.6444 31.4 24.9568 29.525 26.8018C27.65 28.6468 25.3 29.557 22.5 29.557C19.7 29.557 17.35 28.6468 15.475 26.8018C13.6 24.9568 12.675 22.6444 12.675 19.84C12.675 17.0356 13.6 14.7232 15.475 12.8782C17.35 11.0332 19.7 10.0738 22.5 10ZM42.5 54.28C45.8152 54.28 48.9946 52.9841 51.3388 50.6774C53.683 48.3707 55 45.2421 55 41.98C55 38.7178 53.683 35.5893 51.3388 33.2826C48.9946 30.9759 45.8152 29.68 42.5 29.68C39.1848 29.68 36.0054 30.9759 33.6612 33.2826C31.317 35.5893 30 38.7178 30 41.98C30 45.2421 31.317 48.3707 33.6612 50.6774C36.0054 52.9841 39.1848 54.28 42.5 54.28ZM40 34.6H43.75V41.5372L49.85 45.0058L47.975 48.2038L40 43.6774V34.6Z" fill="#50738F"/>
</svg>
