<svg width="60" height="60" viewBox="0 0 60 60" fill="none" xmlns="http://www.w3.org/2000/svg">
<path d="M32.4998 32.0606H37.4998C38.1628 32.0606 38.7987 32.3198 39.2676 32.7811C39.7364 33.2425 39.9998 33.8682 39.9998 34.5207C39.9998 35.1731 39.7364 35.7988 39.2676 36.2602C38.7987 36.7215 38.1628 36.9807 37.4998 36.9807H29.9998C29.6712 36.9817 29.3457 36.9187 29.0419 36.7954C28.7382 36.6722 28.4622 36.491 28.2298 36.2624C27.9975 36.0337 27.8134 35.7621 27.6881 35.4632C27.5628 35.1643 27.4988 34.844 27.4998 34.5207V24.6804C27.4998 24.028 27.7632 23.4023 28.232 22.9409C28.7009 22.4796 29.3368 22.2204 29.9998 22.2204C30.6628 22.2204 31.2987 22.4796 31.7676 22.9409C32.2364 23.4023 32.4998 24.028 32.4998 24.6804V32.0606ZM14.6723 21.8784C14.1011 21.6178 13.6058 21.2197 13.232 20.7211C12.8583 20.2224 12.6182 19.6392 12.5338 19.0252C12.4495 18.4111 12.5236 17.7861 12.7494 17.2077C12.9752 16.6293 13.3453 16.1162 13.8257 15.7156C14.3061 15.315 14.8813 15.0399 15.4981 14.9157C16.115 14.7915 16.7538 14.8221 17.3554 15.0047C17.9571 15.1874 18.5024 15.5162 18.9409 15.9608C19.3795 16.4054 19.6972 16.9515 19.8648 17.5487C20.7657 17.0274 21.707 16.5766 22.6798 16.2006C21.5865 15.453 20.7643 14.3814 20.3331 13.1419C19.9019 11.9023 19.8843 10.5597 20.2827 9.30962C20.6812 8.05953 21.4749 6.96731 22.5482 6.19212C23.6215 5.41693 24.9184 4.99927 26.2498 5H33.7498C35.0812 4.99927 36.378 5.41693 37.4514 6.19212C38.5247 6.96731 39.3184 8.05953 39.7169 9.30962C40.1153 10.5597 40.0976 11.9023 39.6665 13.1419C39.2353 14.3814 38.4131 15.453 37.3198 16.2006C38.2948 16.5795 39.2373 17.0297 40.1348 17.5487C40.3024 16.9515 40.6201 16.4054 41.0587 15.9608C41.4972 15.5162 42.0425 15.1874 42.6441 15.0047C43.2458 14.8221 43.8846 14.7915 44.5014 14.9157C45.1183 15.0399 45.6935 15.315 46.1739 15.7156C46.6542 16.1162 47.0244 16.6293 47.2502 17.2077C47.476 17.7861 47.5501 18.4111 47.4657 19.0252C47.3814 19.6392 47.1413 20.2224 46.7676 20.7211C46.3938 21.2197 45.8985 21.6178 45.3273 21.8784C47.772 24.7489 49.3336 28.2463 49.8286 31.9597C50.3237 35.6731 49.7317 39.4485 48.1221 42.8423C46.5126 46.2362 43.9523 49.1077 40.742 51.1195C37.5316 53.1313 33.8046 54.2 29.9985 54.2C26.1925 54.2 22.4654 53.1313 19.2551 51.1195C16.0448 49.1077 13.4845 46.2362 11.875 42.8423C10.2654 39.4485 9.67339 35.6731 10.1685 31.9597C10.6635 28.2463 12.2251 24.7489 14.6698 21.8784H14.6723ZM29.9998 49.281C33.978 49.281 37.7934 47.7259 40.6064 44.9578C43.4194 42.1897 44.9998 38.4353 44.9998 34.5207C44.9998 30.606 43.4194 26.8516 40.6064 24.0835C37.7934 21.3154 33.978 19.7603 29.9998 19.7603C26.0215 19.7603 22.2062 21.3154 19.3932 24.0835C16.5801 26.8516 14.9998 30.606 14.9998 34.5207C14.9998 38.4353 16.5801 42.1897 19.3932 44.9578C22.2062 47.7259 26.0215 49.281 29.9998 49.281ZM26.2498 9.92011C25.9183 9.92011 25.6003 10.0497 25.3659 10.2804C25.1315 10.5111 24.9998 10.8239 24.9998 11.1501C24.9998 11.4764 25.1315 11.7892 25.3659 12.0199C25.6003 12.2506 25.9183 12.3802 26.2498 12.3802H33.7498C34.0813 12.3802 34.3993 12.2506 34.6337 12.0199C34.8681 11.7892 34.9998 11.4764 34.9998 11.1501C34.9998 10.8239 34.8681 10.5111 34.6337 10.2804C34.3993 10.0497 34.0813 9.92011 33.7498 9.92011H26.2498Z" fill="#50738F"/>
</svg>
