<svg width="40" height="28" viewBox="0 0 40 28" fill="none" xmlns="http://www.w3.org/2000/svg">
<g clip-path="url(#clip0_145_5509)">
<path d="M20.0001 7.49895H12.5012V14.9979H20.0001V7.49895ZM22.4998 19.9972V22.4968H10.0015V19.9972H22.4998ZM22.4998 4.9993V17.4975H10.0015V4.9993H22.4998ZM34.998 19.9972V22.4968H24.9994V19.9972H34.998ZM34.998 14.9979V17.4975H24.9994V14.9979H34.998ZM34.998 9.99859V12.4982H24.9994V9.99859H34.998ZM34.998 4.9993V7.49895H24.9994V4.9993H34.998ZM5.00223 23.7467V4.9993H2.50258V23.7467C2.50258 24.0852 2.62626 24.3781 2.87362 24.6254C3.12098 24.8728 3.41391 24.9965 3.7524 24.9965C4.0909 24.9965 4.38382 24.8728 4.63119 24.6254C4.87855 24.3781 5.00223 24.0852 5.00223 23.7467ZM37.4977 23.7467V2.49965H7.50188V23.7467C7.50188 24.1763 7.43027 24.5929 7.28706 24.9965H36.2478C36.5863 24.9965 36.8793 24.8728 37.1266 24.6254C37.374 24.3781 37.4977 24.0852 37.4977 23.7467ZM39.9973 0V23.7467C39.9973 24.7882 39.6328 25.6735 38.9037 26.4025C38.1746 27.1316 37.2894 27.4961 36.2478 27.4961H3.7524C2.71088 27.4961 1.82559 27.1316 1.09653 26.4025C0.367462 25.6735 0.00292969 24.7882 0.00292969 23.7467V2.49965H5.00223V0H39.9973Z" fill="#50738F"/>
</g>
<defs>
<clipPath id="clip0_145_5509">
<rect width="40" height="27.4961" fill="white"/>
</clipPath>
</defs>
</svg>
