<svg width="40" height="40" viewBox="0 0 40 40" fill="none" xmlns="http://www.w3.org/2000/svg">
<path d="M21.4832 18.5003C18.5165 17.517 17.0832 16.9003 17.0832 15.3337C17.0832 13.6337 18.9332 13.017 20.0998 13.017C22.2832 13.017 23.0832 14.667 23.2665 15.2503L25.8998 14.1337C25.6498 13.3837 24.5332 10.9337 21.6665 10.4003V8.33366H18.3332V10.4337C14.1998 11.367 14.1832 15.2003 14.1832 15.367C14.1832 19.1503 17.9332 20.217 19.7665 20.8837C22.3998 21.817 23.5665 22.667 23.5665 24.267C23.5665 26.1503 21.8165 26.9503 20.2665 26.9503C17.2332 26.9503 16.3665 23.8337 16.2665 23.467L13.4998 24.5837C14.5498 28.2337 17.2998 29.217 18.3332 29.517V31.667H21.6665V29.6003C22.3332 29.4503 26.4998 28.617 26.4998 24.2337C26.4998 21.917 25.4832 19.8837 21.4832 18.5003ZM4.99984 35.0003H1.6665V25.0003H11.6665V28.3337H7.53317C10.2165 32.3503 14.7998 35.0003 19.9998 35.0003C23.9781 35.0003 27.7934 33.42 30.6064 30.6069C33.4195 27.7939 34.9998 23.9786 34.9998 20.0003H38.3332C38.3332 30.1337 30.1332 38.3337 19.9998 38.3337C13.7998 38.3337 8.3165 35.2503 4.99984 30.5503V35.0003ZM1.6665 20.0003C1.6665 9.86699 9.8665 1.66699 19.9998 1.66699C26.1998 1.66699 31.6832 4.75033 34.9998 9.45033V5.00033H38.3332V15.0003H28.3332V11.667H32.4665C29.7832 7.65032 25.1998 5.00033 19.9998 5.00033C16.0216 5.00033 12.2063 6.58068 9.39323 9.39372C6.58019 12.2068 4.99984 16.0221 4.99984 20.0003H1.6665Z" fill="#50738F"/>
</svg>
