<svg width="24" height="21" viewBox="0 0 24 21" fill="none" xmlns="http://www.w3.org/2000/svg">
<g clip-path="url(#clip0_145_5413)">
<path d="M6.80566 9.21777H9.14762V11.9701H6.80566V9.21777Z" fill="#0B7EC2"/>
<path d="M15.7534 6.55566H18.0353V8.64741H15.7534V6.55566Z" fill="#0B7EC2"/>
<path d="M20.2469 14.8726C20.2569 15.2329 19.9566 15.5332 19.5963 15.5432H19.5863H4.47372C4.10341 15.5432 3.80316 15.2429 3.80316 14.8726V3.86343C3.80316 3.49312 4.10341 3.19287 4.47372 3.19287C4.83402 3.19287 5.13427 3.49312 5.13427 3.85342V3.86343V14.2121H6.80566V12.5407H9.14761V14.2121H9.78815V7.21622H12.1301V14.2121H12.7706V4.56401H15.1126V14.2121H15.7531V9.20788H18.045V14.2121H19.5863C19.9466 14.2121 20.2469 14.5123 20.2469 14.8726Z" fill="#0B7EC2"/>
<path d="M22.6989 0H1.30108C0.580484 0 0 0.580484 0 1.30108V16.6239C0 17.3445 0.580484 17.9249 1.30108 17.9249H9.08757V19.1159H8.7573C8.38699 19.1159 8.08674 19.4162 8.08674 19.7865C8.08674 20.1568 8.38699 20.457 8.7573 20.457H15.2427C15.613 20.457 15.9133 20.1568 15.9133 19.7865C15.9133 19.4162 15.613 19.1159 15.2427 19.1159H14.9324V17.9249H22.6989C23.4195 17.9249 24 17.3445 24 16.6239V1.30108C24 0.580484 23.4195 0 22.6989 0ZM22.6689 16.5938H1.33111V1.33111H22.6689V16.5938Z" fill="#0B7EC2"/>
</g>
<defs>
<clipPath id="clip0_145_5413">
<rect width="24" height="20.457" fill="white"/>
</clipPath>
</defs>
</svg>
