<svg width="24" height="24" viewBox="0 0 24 24" fill="none" xmlns="http://www.w3.org/2000/svg">
<path d="M4.99979 13.1813V15.9913C4.99979 16.7213 5.39979 17.4012 6.03979 17.7513L11.0398 20.4812C11.6398 20.8112 12.3598 20.8112 12.9598 20.4812L17.9598 17.7513C18.5998 17.4012 18.9998 16.7213 18.9998 15.9913V13.1813L12.9598 16.4812C12.3598 16.8112 11.6398 16.8112 11.0398 16.4812L4.99979 13.1813ZM11.0398 3.52125L2.60979 8.12125C1.91979 8.50125 1.91979 9.50125 2.60979 9.88125L11.0398 14.4812C11.6398 14.8112 12.3598 14.8112 12.9598 14.4812L20.9998 10.0913V16.0013C20.9998 16.5513 21.4498 17.0013 21.9998 17.0013C22.5498 17.0013 22.9998 16.5513 22.9998 16.0013V9.59125C22.9998 9.22125 22.7998 8.89125 22.4798 8.71125L12.9598 3.52125C12.6643 3.36367 12.3346 3.28125 11.9998 3.28125C11.6649 3.28125 11.3352 3.36367 11.0398 3.52125Z" fill="#0B7EC2"/>
</svg>
