<svg width="60" height="60" viewBox="0 0 60 60" fill="none" xmlns="http://www.w3.org/2000/svg">
<path fill-rule="evenodd" clip-rule="evenodd" d="M15 12.42C10.8579 12.42 7.5 15.7241 7.5 19.8V44.4C7.5 48.4759 10.8579 51.78 15 51.78H45C49.1421 51.78 52.5 48.4759 52.5 44.4V19.8C52.5 15.7241 49.1421 12.42 45 12.42H15ZM2.5 19.8C2.5 13.0069 8.09644 7.5 15 7.5H45C51.9036 7.5 57.5 13.0069 57.5 19.8V44.4C57.5 51.1931 51.9036 56.7 45 56.7H15C8.09644 56.7 2.5 51.1931 2.5 44.4V19.8Z" fill="#50738F"/>
<path fill-rule="evenodd" clip-rule="evenodd" d="M20 2.5C21.3807 2.5 22.5 3.60138 22.5 4.96V14.8C22.5 16.1586 21.3807 17.26 20 17.26C18.6193 17.26 17.5 16.1586 17.5 14.8V4.96C17.5 3.60138 18.6193 2.5 20 2.5ZM40 2.5C41.3807 2.5 42.5 3.60138 42.5 4.96V14.8C42.5 16.1586 41.3807 17.26 40 17.26C38.6193 17.26 37.5 16.1586 37.5 14.8V4.96C37.5 3.60138 38.6193 2.5 40 2.5ZM2.5 24.64C2.5 23.2814 3.61929 22.18 5 22.18H55C56.3807 22.18 57.5 23.2814 57.5 24.64C57.5 25.9986 56.3807 27.1 55 27.1H5C3.61929 27.1 2.5 25.9986 2.5 24.64Z" fill="#50738F"/>
</svg>
