<svg width="60" height="60" viewBox="0 0 60 60" fill="none" xmlns="http://www.w3.org/2000/svg">
<path fill-rule="evenodd" clip-rule="evenodd" d="M7.90491 27.3182H52.0951C51.3673 23.7996 49.7842 19.4761 47.0003 15.7728C43.5152 11.1366 38.1629 7.46364 30 7.46364C21.8371 7.46364 16.4848 11.1366 12.9997 15.7728C10.2159 19.4761 8.63277 23.7996 7.90491 27.3182ZM36.25 32.2818H55C55.7036 32.2818 56.3747 31.9875 56.8484 31.471C57.3222 30.9546 57.5548 30.2638 57.4891 29.5684C57.0652 25.0793 55.2244 18.4138 51.0075 12.8042C46.7192 7.09952 39.9621 2.5 30 2.5C20.0379 2.5 13.2808 7.09952 8.99251 12.8042C4.77562 18.4138 2.93483 25.0793 2.51092 29.5684C2.44525 30.2638 2.67783 30.9546 3.15158 31.471C3.62533 31.9875 4.29638 32.2818 5.00001 32.2818H31.25V46.0869C31.25 47.1616 31.1364 48.943 30.6086 50.3693C30.3499 51.0686 30.0493 51.5211 29.7641 51.7795C29.5331 51.9889 29.2501 52.1364 28.75 52.1364C27.9665 52.1364 27.4105 51.7512 26.9164 50.678C26.3952 49.5461 26.25 48.18 26.25 47.6381C26.25 46.2674 25.1307 45.1562 23.75 45.1562C22.3693 45.1562 21.25 46.2674 21.25 47.6381C21.25 48.6473 21.4617 50.7712 22.3689 52.7416C23.3032 54.7707 25.2473 57.1 28.75 57.1C30.5237 57.1 32.0025 56.4719 33.1353 55.4452C34.214 54.4676 34.8792 53.2235 35.302 52.0808C36.1374 49.8232 36.25 47.339 36.25 46.0869V32.2818Z" fill="#50738F"/>
<path fill-rule="evenodd" clip-rule="evenodd" d="M37.877 11.8278C38.9253 12.6904 39.0467 14.2055 38.1481 15.2119L30.6481 23.6119C30.195 24.1195 29.5418 24.4226 28.8459 24.4482C28.1501 24.4739 27.4746 24.2198 26.9822 23.7471L21.9822 18.9471C21.0059 18.0098 21.0059 16.4902 21.9822 15.553C22.9585 14.6157 24.5415 14.6157 25.5178 15.553L28.6088 18.5203L34.3519 12.0881C35.2504 11.0818 36.8287 10.9652 37.877 11.8278Z" fill="#50738F"/>
</svg>
