<svg width="24" height="24" viewBox="0 0 24 24" fill="none" xmlns="http://www.w3.org/2000/svg">
<g clip-path="url(#clip0_145_5305)">
<path d="M12.0272 3.70803C7.44944 3.69703 3.71904 7.40542 3.70803 11.9831C3.69703 16.5609 7.40542 20.2912 11.9831 20.3023C16.5609 20.3133 20.2912 16.6049 20.3023 12.0272V12.0051C20.3133 7.42743 16.6049 3.71904 12.0272 3.70803ZM14.9102 16.2087C14.6571 16.3298 14.404 16.4178 14.1399 16.4948C13.1496 16.7919 12.1042 16.7699 11.1248 16.4618C9.91436 16.0657 9.11106 15.2404 8.62688 14.0739C8.53884 13.8428 8.46181 13.6117 8.39579 13.3697H7.46044C7.30638 13.3807 7.17433 13.2486 7.16333 13.0946V13.0835V12.4343C7.17433 12.2692 7.29538 12.1482 7.46044 12.1482H8.24173V11.631H7.46044C7.29538 11.631 7.16333 11.499 7.16333 11.3339V10.6957C7.16333 10.5306 7.29538 10.3985 7.46044 10.3985H8.46181L8.49483 10.2995C8.74792 9.45219 9.25411 8.7039 9.93637 8.1537C10.4976 7.73554 11.1688 7.46044 11.8621 7.3614C12.8415 7.21835 13.8428 7.33939 14.7562 7.70253L14.9322 7.79056C15.1523 7.92261 15.2183 8.09868 15.1193 8.32976C15.0203 8.56085 14.9102 8.84696 14.7892 9.08905C14.7232 9.27612 14.5141 9.37516 14.327 9.32014C14.0079 9.24311 13.6998 9.14407 13.3807 9.07804C12.7094 8.946 12.0382 8.946 11.3999 9.19909C10.7617 9.45219 10.5086 9.84833 10.2665 10.3765V10.3985H12.2142C12.3683 10.3985 12.5003 10.5306 12.5003 10.6846V11.3339C12.5003 11.4879 12.3683 11.62 12.2142 11.62H9.99139V12.1482H12.2142C12.3683 12.1372 12.4893 12.2582 12.5003 12.4123V12.4233V13.0835C12.5003 13.2376 12.3683 13.3697 12.2142 13.3697H10.1675C10.4205 14.0739 10.8167 14.6131 11.565 14.8552C12.1482 15.0313 12.7754 15.0533 13.3697 14.9102L14.316 14.6681C14.5581 14.6131 14.6901 14.6791 14.7892 14.9102C14.8882 15.1413 15.0203 15.4164 15.1193 15.6695C15.2183 15.9226 15.1633 16.0987 14.9212 16.2087H14.9102Z" fill="#0B7EC2"/>
<path d="M12.0053 23.9998C5.3698 24.0108 -0.000209458 18.6408 -0.0112136 12.0053C-0.0222177 5.3698 5.3478 -0.000209458 11.9833 -0.0112136C18.6188 -0.0222177 23.9888 5.3478 23.9998 11.9833C23.9998 11.9943 23.9998 11.9943 23.9998 12.0053C23.9888 18.6298 18.6298 23.9888 12.0053 23.9998ZM12.0053 1.67242C6.29415 1.66141 1.67242 6.28315 1.66141 11.9943C1.65041 17.7054 6.27214 22.3272 11.9833 22.3382C17.6944 22.3492 22.3162 17.7274 22.3272 12.0163V12.0053C22.3162 6.30516 17.7054 1.68342 12.0053 1.67242Z" fill="#0B7EC2"/>
</g>
<defs>
<clipPath id="clip0_145_5305">
<rect width="24" height="24" fill="white"/>
</clipPath>
</defs>
</svg>
