<svg width="40" height="40" viewBox="0 0 40 40" fill="none" xmlns="http://www.w3.org/2000/svg">
<path d="M10.2998 33.3331C12.3065 33.3331 13.9332 31.7064 13.9332 29.6997C13.9332 27.6931 12.3065 26.0664 10.2998 26.0664C8.2932 26.0664 6.6665 27.6931 6.6665 29.6997C6.6665 31.7064 8.2932 33.3331 10.2998 33.3331Z" fill="#50738F"/>
<path d="M6.6665 7.40039V12.1171C18.3832 12.1171 27.8832 21.6171 27.8832 33.3337H32.5998C32.5998 19.0171 20.9832 7.40039 6.6665 7.40039ZM6.6665 16.8337V21.5504C13.1665 21.5504 18.4498 26.8337 18.4498 33.3337H23.1665C23.1665 24.2171 15.7832 16.8337 6.6665 16.8337Z" fill="#50738F"/>
</svg>
