<svg width="24" height="28" viewBox="0 0 24 28" fill="none" xmlns="http://www.w3.org/2000/svg">
<g clip-path="url(#clip0_145_4891)">
<path d="M23.2022 4.44956C19.1798 4.25855 15 2.69675 12.1798 0.213604C11.8652 -0.067295 11.382 -0.067295 11.0674 0.213604C8.24719 2.78664 4.60674 4.28102 0.797753 4.46079C0.348315 4.48326 0 4.85405 0 5.30349V14.2248C0 23.5619 10.0112 26.8878 11.7416 27.3934C11.9101 27.4383 12.0787 27.4383 12.2472 27.3821C13.9663 26.7979 24 23.0563 24 14.2248V5.28102C24 4.83158 23.6404 4.47203 23.2022 4.44956ZM12 20.3821C8.82022 20.3934 6.23595 17.8091 6.22472 14.6293C6.21348 11.4496 8.79775 8.86529 11.9775 8.85405C15.1573 8.84281 17.7416 11.4271 17.7528 14.6069V14.6181C17.7528 17.7979 15.1798 20.3709 12 20.3821Z" fill="#0B7EC2"/>
<path d="M14.9103 13.9438L11.9216 16.9214C11.798 17.045 11.6294 17.1236 11.4497 17.1236H11.3373C11.2025 17.1012 11.0789 17.0337 10.9778 16.9326L9.6182 15.5843L9.09011 15.0562C9.0227 14.9776 9.0227 14.8652 9.09011 14.7865L9.6182 14.2585L9.77551 14.1011C9.85416 14.0337 9.96652 14.0337 10.0452 14.1011L11.3148 15.3708C11.3148 15.3821 11.3261 15.3821 11.3373 15.3933C11.416 15.4495 11.5171 15.4382 11.5845 15.3708L13.9553 13C14.0339 12.9326 14.1463 12.9326 14.225 13L14.9103 13.6854C14.9778 13.7641 14.9778 13.8652 14.9103 13.9438Z" fill="#0B7EC2"/>
</g>
<defs>
<clipPath id="clip0_145_4891">
<rect width="24" height="27.427" fill="white"/>
</clipPath>
</defs>
</svg>
