<svg width="24" height="31" viewBox="0 0 24 31" fill="none" xmlns="http://www.w3.org/2000/svg">
<path d="M19.6 30.0929L23.31 27.791C23.4329 27.7127 23.4776 27.5451 23.3994 27.4222L23.31 27.3328L19.6 25.0309C19.4659 24.9526 19.2983 24.9973 19.2201 25.1203C19.1978 25.165 19.1866 25.2096 19.1866 25.2543V26.3941H0.424626C0.234659 26.383 0.089391 26.5282 0.0782166 26.7182C0.0782166 26.7294 0.0782166 26.7294 0.0782166 26.7406V28.3832C0.0782166 28.5732 0.223485 28.7184 0.402277 28.7408H19.1866V29.8694C19.1866 30.0147 19.2983 30.1264 19.4436 30.1376C19.4995 30.1376 19.5553 30.1264 19.6 30.0929Z" fill="#0B7EC2"/>
<path d="M18.2591 4.08986C18.2591 3.53114 18.0356 2.99476 17.6445 2.60365L15.6555 0.614597C15.2532 0.22349 14.7056 0 14.1469 0H14.024V4.21278H18.2591V4.08986Z" fill="#0B7EC2"/>
<path d="M12.8395 14.5045C12.9736 14.091 13.2082 13.7111 13.5211 13.4094L18.2703 8.6714V5.62077H13.3312C12.9512 5.62077 12.6495 5.31905 12.6495 4.93912V0H2.11198C0.949831 0 0 0.949831 0 2.11198V21.8796C0 23.0418 0.949831 23.9916 2.11198 23.9916H16.1471C17.3093 24.0028 18.2591 23.053 18.2703 21.8908V21.8796V16.6388L17.4992 17.3875C17.1975 17.6892 16.8288 17.9239 16.4153 18.0691L14.1804 18.8178H13.834C12.8618 18.8178 12.0796 18.0356 12.0796 17.0634C12.0796 16.8735 12.1131 16.6835 12.169 16.5047L12.8395 14.5045ZM3.51996 12.6495H10.5264C10.9175 12.6495 11.2304 12.9624 11.2304 13.3535C11.2304 13.7446 10.9175 14.0575 10.5264 14.0575H3.51996C3.12886 14.0575 2.81597 13.7446 2.81597 13.3535C2.81597 12.9624 3.12886 12.6495 3.51996 12.6495ZM2.81597 10.5375C2.81597 10.1464 3.12886 9.83355 3.51996 9.83355H10.5264C10.9175 9.83355 11.2304 10.1464 11.2304 10.5375C11.2304 10.9286 10.9175 11.2415 10.5264 11.2415H3.51996C3.12886 11.2415 2.81597 10.9286 2.81597 10.5375ZM2.81597 16.1695C2.81597 15.7784 3.12886 15.4655 3.51996 15.4655H10.5264C10.9175 15.4208 11.2639 15.689 11.3086 16.0801C11.3533 16.4712 11.0851 16.8176 10.694 16.8623C10.6381 16.8735 10.5711 16.8735 10.5152 16.8623H3.51996C3.14003 16.8623 2.82714 16.5494 2.81597 16.1695ZM13.3312 19.6783C13.7223 19.6671 14.0463 19.9688 14.0575 20.3599C14.0799 20.7398 13.7781 21.0639 13.3982 21.0863H13.387H9.11838C8.72727 21.0863 8.41439 20.7734 8.41439 20.3823C8.41439 19.9912 8.72727 19.6783 9.11838 19.6783H13.3312ZM3.51996 8.43674C3.12886 8.43674 2.81597 8.12385 2.81597 7.73274C2.81597 7.34164 3.12886 7.02875 3.51996 7.02875H13.3312C13.7223 7.01758 14.0463 7.31929 14.0575 7.71039C14.0687 8.1015 13.767 8.42556 13.387 8.43674H3.51996Z" fill="#0B7EC2"/>
<path d="M14.1134 15.1301L13.4988 16.9627C13.4429 17.1527 13.5435 17.3427 13.7223 17.4097C13.8005 17.4321 13.8675 17.4321 13.9458 17.4097L15.7784 16.7951L14.1134 15.1301Z" fill="#0B7EC2"/>
<path d="M19.5778 9.3418L14.9404 13.968L16.9407 15.9683L21.5669 11.3309L19.5778 9.3418Z" fill="#0B7EC2"/>
<path d="M23.5893 7.31936C23.0194 6.80533 22.159 6.80533 21.5891 7.31936L20.5722 8.34741L22.5613 10.3365L23.5893 9.31959C24.1369 8.76087 24.1369 7.87808 23.5893 7.31936Z" fill="#0B7EC2"/>
</svg>
