<svg width="26" height="24" viewBox="0 0 26 24" fill="none" xmlns="http://www.w3.org/2000/svg">
<path d="M24.3393 0H1.18255C0.533118 0 0 0.533118 0 1.18255V18.9596C0 19.609 0.533118 20.1422 1.18255 20.1422H9.73183L12.7464 24L15.7221 20.1422H24.3393C24.9887 20.1422 25.5218 19.609 25.5218 18.9596V1.18255C25.5218 0.533118 24.9887 0 24.3393 0ZM12.9984 2.77221C13.8126 2.77221 14.4814 3.44103 14.4814 4.25525C14.4814 5.06947 13.8126 5.73829 12.9984 5.73829C12.1842 5.73829 11.5153 5.06947 11.5153 4.25525C11.5153 3.44103 12.1842 2.77221 12.9984 2.77221ZM14.8401 17.2439C14.4426 17.4378 14.0162 17.5347 13.58 17.5347C12 17.5347 10.7205 16.2552 10.7205 14.6753C10.7205 14.5299 10.7302 14.3845 10.7496 14.2391C10.7496 14.2003 10.7593 14.1712 10.769 14.1325L11.7092 10.4006C11.7286 10.2262 11.651 10.0614 11.5057 9.95477C11.3506 9.84814 11.147 9.82876 10.9822 9.91599L10.0129 10.3813L8.98546 8.25848L9.94507 7.79322C11.3603 7.09532 13.0759 7.6769 13.7738 9.09208C14.0355 9.61551 14.1228 10.2165 14.0355 10.7981C14.0355 10.8368 14.0258 10.8659 14.0162 10.9047L13.0759 14.6365C13.0565 14.811 13.1341 14.9758 13.2795 15.0727C13.4346 15.189 13.6381 15.2084 13.8029 15.1212L14.6074 14.7334L15.6349 16.8562L14.8401 17.2439Z" fill="#0B7EC2"/>
</svg>
