<svg width="22" height="24" viewBox="0 0 22 24" fill="none" xmlns="http://www.w3.org/2000/svg">
<g clip-path="url(#clip0_145_5480)">
<path d="M12.2475 15.827C12.8115 16.0457 13.4101 16.1953 14.0086 16.2644V14.4917C13.387 14.4112 12.7885 14.204 12.2475 13.8932V15.827ZM13.9856 10.014L12.6849 8.71332C12.6158 8.63275 12.5007 8.63275 12.4201 8.70181C12.4086 8.70181 12.4086 8.71332 12.4086 8.71332L12.2475 8.86296V10.2327L13.6288 11.614C13.7324 11.7176 13.8705 11.7867 14.0086 11.8097V10.0256L13.9856 10.014Z" fill="#0B7EC2"/>
<path d="M21.3065 9.66906C21.3065 13.3295 18.3482 16.2878 14.6878 16.2993C14.4576 16.2993 14.2388 16.2878 14.0086 16.2647V14.4921C14.2388 14.5266 14.4576 14.5381 14.6878 14.5381C17.3813 14.5381 19.5568 12.3626 19.5568 9.66906C19.5568 6.97554 17.3813 4.8 14.6878 4.8C14.4576 4.8 14.2388 4.82302 14.0086 4.84604C11.3381 5.2259 9.48489 7.70072 9.87626 10.3712C10.0835 11.8446 10.9583 13.1453 12.2475 13.8935V15.8273C8.8518 14.4921 7.17122 10.6475 8.51799 7.24029C9.18561 5.53669 10.5439 4.17842 12.2475 3.51079V2.86619C12.2475 2.2446 11.7525 1.74964 11.1309 1.74964H10.2446V2.46331C10.2446 2.91223 9.87626 3.28058 9.42734 3.28058H4.06331C3.61439 3.28058 3.24604 2.91223 3.24604 2.46331V1.74964H2.86619C2.25611 1.76115 1.76115 2.25612 1.74964 2.86619V20.8345C3.23453 20.846 8.80576 20.8345 12.2475 20.823V15.8273C12.8115 16.046 13.4101 16.1957 14.0086 16.2647V21.1338C13.9971 22.7223 12.7194 24 11.1309 24H2.86619C1.28921 23.9885 0.0115108 22.7108 0 21.1338V2.86619C0.0115108 1.28921 1.28921 0.0115108 2.86619 0H11.1309C12.7194 0 13.9971 1.2777 14.0086 2.86619V3.08489C14.2388 3.06187 14.4576 3.05036 14.6878 3.05036C18.3367 3.06187 21.295 6.02014 21.3065 9.66906Z" fill="#0B7EC2"/>
<path d="M12.2475 13.8936C12.7885 14.2043 13.387 14.4115 14.0086 14.4921V15.3784C13.3985 15.3094 12.8 15.1482 12.2475 14.8835V13.8936Z" fill="#0B7EC2"/>
<path d="M17.6576 8.56381L14.6072 11.6142C14.4806 11.7408 14.3079 11.8214 14.1238 11.8214H14.0086C13.8705 11.7983 13.7324 11.7293 13.6288 11.6257L12.2475 10.2444L11.7065 9.70338C11.6259 9.6228 11.6259 9.49618 11.7065 9.41561L12.2475 8.8746L12.4086 8.72496C12.4777 8.64438 12.5928 8.64438 12.6734 8.71345C12.6849 8.71345 12.6849 8.72496 12.6849 8.72496L13.9856 10.0142H14.0086C14.0892 10.0717 14.1928 10.0717 14.2619 10.0027L16.6907 7.58539C16.7597 7.50482 16.8748 7.50482 16.9554 7.57388C16.9669 7.57388 16.9669 7.58539 16.9669 7.58539L17.6576 8.28755C17.7381 8.35661 17.7381 8.47172 17.6691 8.5523C17.6691 8.5523 17.6691 8.56381 17.6576 8.56381Z" fill="#0B7EC2"/>
<path d="M12.2475 13.8936V15.8274C12.8115 16.0461 13.4101 16.1957 14.0086 16.2648V14.4921C13.387 14.4115 12.7885 14.2043 12.2475 13.8936Z" fill="#0B7EC2"/>
<path d="M17.6576 8.56381L14.6072 11.6142C14.4806 11.7408 14.3079 11.8214 14.1238 11.8214H14.0086C13.8705 11.7983 13.7324 11.7293 13.6288 11.6257L12.2475 10.2444L11.7065 9.70338C11.6259 9.6228 11.6259 9.49618 11.7065 9.41561L12.2475 8.8746L12.4086 8.72496C12.4777 8.64438 12.5928 8.64438 12.6734 8.71345C12.6849 8.71345 12.6849 8.72496 12.6849 8.72496L13.9856 10.0142H14.0086C14.0892 10.0717 14.1928 10.0717 14.2619 10.0027L16.6907 7.58539C16.7597 7.50482 16.8748 7.50482 16.9554 7.57388C16.9669 7.57388 16.9669 7.58539 16.9669 7.58539L17.6576 8.28755C17.7381 8.35661 17.7381 8.47172 17.6691 8.5523C17.6691 8.5523 17.6691 8.56381 17.6576 8.56381Z" fill="#0B7EC2"/>
</g>
<defs>
<clipPath id="clip0_145_5480">
<rect width="21.3065" height="24" fill="white"/>
</clipPath>
</defs>
</svg>
