<svg width="110" height="26" viewBox="0 0 110 26" fill="none" xmlns="http://www.w3.org/2000/svg">
<path d="M51.6738 3.01175H48.2725V7.94007H51.6738V10.9518H56.9181V7.94007H60.3195V3.01175H56.9181V0H51.6738V3.01175Z" fill="#C7CDD5"/>
<path d="M0 21.3133V8.90827H12.6367C12.8681 8.89256 13.1003 8.89256 13.3317 8.90827C13.5658 8.94516 13.7978 8.99437 14.0267 9.0557C14.2509 9.13877 14.4691 9.23729 14.6796 9.35056C14.8903 9.47016 15.0879 9.61132 15.2694 9.77178C15.397 9.91963 15.5165 10.0743 15.6274 10.2351C15.7368 10.4134 15.8318 10.6 15.9117 10.7932C15.9948 11.0146 16.0548 11.244 16.0907 11.4777C16.134 11.7423 16.1551 12.01 16.1539 12.2781V16.4903C16.1547 16.7444 16.1335 16.998 16.0907 17.2485C16.0577 17.4692 15.9975 17.6849 15.9117 17.8909C15.852 18.0823 15.7632 18.2634 15.6485 18.4279C15.5461 18.5884 15.426 18.7367 15.2904 18.8702C15.1559 19.0162 14.9996 19.1405 14.8271 19.2388C14.657 19.3466 14.4772 19.4383 14.29 19.5126C14.054 19.6132 13.8064 19.6839 13.5529 19.7232C13.2979 19.7561 13.0412 19.7737 12.7841 19.7758H5.98137V25.9994H0V21.3133ZM5.93925 11.7199V17.0484H9.47753C9.57671 17.0477 9.6729 17.0144 9.75133 16.9536C9.84099 16.8858 9.9192 16.804 9.983 16.7114C10.0434 16.617 10.0896 16.514 10.1199 16.4061C10.1335 16.3012 10.1335 16.195 10.1199 16.0901V12.5624C10.1213 12.4436 10.0999 12.3256 10.0567 12.2149C10.0218 12.1208 9.96807 12.0348 9.89875 11.9621C9.84076 11.8853 9.76483 11.8239 9.67761 11.7831C9.61491 11.7511 9.54728 11.7297 9.47753 11.7199H5.93925Z" fill="#233A73"/>
<path d="M31.5918 13.3633V22.8408C31.5942 22.9253 31.6158 23.0081 31.6549 23.083C31.7003 23.1676 31.757 23.2455 31.8234 23.3147C31.9028 23.3748 31.9874 23.4277 32.0762 23.4726C32.1543 23.5134 32.2409 23.535 32.3289 23.5358H34.93C35.0165 23.5325 35.102 23.5147 35.1827 23.4832C35.268 23.4542 35.3443 23.4034 35.4038 23.3358C35.4681 23.2763 35.5247 23.2091 35.5723 23.1357C35.6202 23.0719 35.646 22.9943 35.646 22.9145V13.437H41.4484V26H29.2434C28.9884 25.9992 28.7342 25.9709 28.4852 25.9157C28.2534 25.8659 28.0275 25.7918 27.8113 25.6946C27.611 25.5771 27.4208 25.4433 27.2426 25.2944C27.069 25.149 26.9103 24.9868 26.7688 24.81C26.621 24.6236 26.4873 24.4265 26.3686 24.2203C26.251 24.0119 26.1524 23.7934 26.0737 23.5674C26.0106 23.3463 25.9579 23.1146 25.9158 22.8829C25.8777 22.6604 25.8601 22.4348 25.8631 22.209V13.3633H31.5918Z" fill="#233A73"/>
<path d="M56.9177 13.4473V15.7535H49.2304C49.1709 15.746 49.1108 15.746 49.0514 15.7535L48.8513 15.8377C48.7927 15.8676 48.7394 15.9067 48.6933 15.9535C48.6531 16.0005 48.6307 16.0602 48.6301 16.122V16.8171C48.6311 16.847 48.6381 16.8765 48.6508 16.9036C48.6634 16.9308 48.6815 16.9551 48.7038 16.975L48.8723 17.0803C48.935 17.1124 49.0027 17.1337 49.0724 17.1435H49.2725H54.938C55.1167 17.1287 55.2963 17.1287 55.475 17.1435C55.6496 17.1744 55.8219 17.2166 55.991 17.2699C56.3324 17.3876 56.6423 17.5821 56.8966 17.8385C57.0064 17.9556 57.1051 18.0825 57.1915 18.2176C57.2833 18.3717 57.3608 18.5339 57.4232 18.702C57.4898 18.8787 57.5357 19.0624 57.5601 19.2496C57.5945 19.4691 57.6121 19.6909 57.6127 19.913V22.8511C57.6136 23.0668 57.5925 23.282 57.5495 23.4935C57.5122 23.6995 57.4522 23.9008 57.3705 24.0937C57.3082 24.271 57.2195 24.4379 57.1073 24.5886C56.9914 24.7361 56.8861 24.873 56.7703 24.9993C56.4898 25.2459 56.1782 25.4548 55.8436 25.6206C55.6241 25.7165 55.3945 25.7872 55.1591 25.8312C54.9359 25.8641 54.7107 25.8817 54.4851 25.8839H43.407V23.7357H51.5998C51.6693 23.7318 51.7374 23.7139 51.7998 23.683C51.8647 23.6531 51.925 23.6141 51.9789 23.5672C52.0402 23.5319 52.091 23.481 52.1263 23.4197C52.1411 23.3574 52.1411 23.2925 52.1263 23.2302V22.5352C52.141 22.4764 52.141 22.4149 52.1263 22.3561C52.0874 22.3034 52.037 22.2602 51.9789 22.2298C51.923 22.1828 51.8587 22.1471 51.7893 22.1245C51.727 22.1097 51.6621 22.1097 51.5998 22.1245H45.9554C45.7298 22.1222 45.5046 22.1046 45.2814 22.0718C45.046 22.0278 44.8164 21.9571 44.5969 21.8612C44.4501 21.7962 44.3092 21.7187 44.1757 21.6295C44.0482 21.5335 43.9347 21.4201 43.8387 21.2926C43.7426 21.1783 43.6579 21.0548 43.586 20.924C43.5112 20.7905 43.4512 20.6493 43.407 20.5028C43.3713 20.3717 43.3466 20.2378 43.3332 20.1026C43.3225 19.9483 43.3225 19.7935 43.3332 19.6393V16.2589C43.3299 16.0529 43.3547 15.8474 43.407 15.6482C43.4512 15.463 43.5148 15.283 43.5965 15.1111C43.6913 14.9531 43.7966 14.8057 43.9019 14.6583C44.0175 14.5216 44.1443 14.3948 44.281 14.2792C44.4276 14.1517 44.5863 14.0388 44.7549 13.9422C44.9162 13.8503 45.0854 13.7727 45.2603 13.7105C45.4867 13.6265 45.719 13.5597 45.9554 13.5104C46.1848 13.4695 46.4173 13.4483 46.6504 13.4473H56.9177Z" fill="#233A73"/>
<path d="M74.3143 10.3203V12.9003H65.2264L65.0685 15.9858H71.4816C71.8644 15.9845 72.2448 16.0449 72.6083 16.1648C72.8196 16.2338 73.0213 16.3294 73.2086 16.4491C73.3917 16.5626 73.5583 16.7008 73.7035 16.8598C73.8395 16.9902 73.9565 17.1391 74.051 17.3021C74.1547 17.4548 74.2362 17.6215 74.2933 17.797C74.3684 17.9877 74.4248 18.1852 74.4617 18.3867C74.4963 18.5921 74.5139 18.7999 74.5144 19.0081V23.115C74.5143 23.3267 74.4967 23.538 74.4617 23.7468C74.4265 23.9351 74.37 24.1189 74.2933 24.2944C74.2279 24.5046 74.1244 24.7009 73.9879 24.8736C73.8649 25.0366 73.7274 25.1881 73.5772 25.3264L73.1138 25.6107C72.9542 25.6953 72.7843 25.759 72.6083 25.8003C72.4338 25.8619 72.2541 25.9078 72.0713 25.9372C71.882 25.9521 71.6919 25.9521 71.5026 25.9372H60.1085V23.4414H68.533C68.5761 23.4429 68.6191 23.4352 68.659 23.4189C68.6989 23.4025 68.735 23.3779 68.7647 23.3467C68.8339 23.2719 68.8908 23.1866 68.9332 23.0939C68.971 22.9915 68.9992 22.8857 69.0174 22.778C69.0174 22.6622 69.0174 22.5674 69.0174 22.4831V19.3977C69.0367 19.2826 69.0367 19.1652 69.0174 19.0502C68.986 18.9599 68.9358 18.8773 68.87 18.808C68.819 18.738 68.7498 18.6834 68.6699 18.65C68.5978 18.6314 68.5231 18.6242 68.4488 18.6289H59.8242L59.9295 10.3414L74.3143 10.3203Z" fill="#233A73"/>
<path d="M79.8008 10.2988H88.7097C88.9543 10.2996 89.198 10.3279 89.4363 10.3831C89.6472 10.4288 89.8547 10.4886 90.0576 10.5621C90.2701 10.6574 90.4685 10.7814 90.6473 10.9307C90.8196 11.0662 90.9751 11.2217 91.1106 11.394C91.2826 11.6012 91.4244 11.8316 91.5319 12.0785C91.7556 12.5614 91.9013 13.0768 91.9636 13.6054C91.9791 13.8614 91.9791 14.1182 91.9636 14.3742V21.9351C91.9796 22.2017 91.9796 22.4689 91.9636 22.7355C91.9334 22.982 91.8805 23.2252 91.8057 23.4621C91.7377 23.7357 91.6388 24.0007 91.5108 24.2519C91.3995 24.4823 91.2655 24.701 91.1106 24.9048C90.968 25.0809 90.8054 25.2399 90.6262 25.3786C90.4591 25.5143 90.275 25.6276 90.0786 25.7156C89.8832 25.8187 89.674 25.8932 89.4573 25.9368C89.2458 25.9791 89.0307 26.0003 88.815 25.9999H79.7587C79.511 26.0015 79.2639 25.9768 79.0215 25.9262C78.7757 25.8754 78.5382 25.7903 78.316 25.6735C78.0971 25.5525 77.8922 25.4077 77.7052 25.2417C77.5008 25.069 77.3233 24.8667 77.1787 24.6415C77.0572 24.4377 76.9482 24.2267 76.8522 24.0097C76.7464 23.7656 76.6653 23.5116 76.61 23.2515C76.61 23.0303 76.5363 22.7986 76.5047 22.5564C76.4878 22.297 76.4878 22.0367 76.5047 21.7772V14.5848C76.4841 14.3043 76.4841 14.0228 76.5047 13.7423C76.5405 13.4578 76.5968 13.1763 76.6732 12.8999C76.7254 12.6274 76.8103 12.3623 76.9259 12.1101C77.0428 11.8649 77.1839 11.6321 77.3472 11.4151C77.4965 11.2253 77.666 11.0523 77.8526 10.8991C78.0505 10.7468 78.2707 10.626 78.5055 10.541C78.9166 10.3867 79.3512 10.3048 79.7902 10.2988H79.8008ZM85.6663 12.9315H82.7599C82.6487 12.9292 82.5392 12.9584 82.444 13.0157C82.3355 13.0651 82.2413 13.1412 82.1702 13.2369C82.0819 13.3169 82.0104 13.4135 81.9596 13.5212C81.9079 13.6221 81.8826 13.7344 81.8858 13.8476V22.5038C81.8862 22.6226 81.9189 22.7392 81.9806 22.8408C82.0434 22.9433 82.1216 23.0356 82.2123 23.1146C82.3031 23.2023 82.4059 23.2768 82.5177 23.3357C82.6261 23.3883 82.7447 23.4171 82.8652 23.4199H85.6663C85.761 23.418 85.8542 23.3965 85.9401 23.3568C86.0397 23.3109 86.1319 23.2505 86.2139 23.1777C86.2896 23.1186 86.3508 23.043 86.3929 22.9566C86.4441 22.8819 86.4733 22.7943 86.4772 22.7039V13.6476C86.4653 13.542 86.4212 13.4427 86.3508 13.3632C86.303 13.2806 86.2426 13.206 86.1718 13.1421C86.0869 13.0761 85.9951 13.0196 85.898 12.9736C85.8238 12.9463 85.7454 12.932 85.6663 12.9315Z" fill="#233A73"/>
<path d="M97.3133 10.2989H106.212C106.46 10.2979 106.707 10.3262 106.949 10.3831C107.16 10.4288 107.367 10.4886 107.57 10.5621C107.783 10.6575 107.981 10.7815 108.16 10.9307C108.332 11.0662 108.488 11.2217 108.623 11.394C108.799 11.5985 108.941 11.8295 109.044 12.0785C109.268 12.5615 109.414 13.0769 109.476 13.6055C109.492 13.8615 109.492 14.1182 109.476 14.3742V21.9352C109.492 22.2017 109.492 22.4689 109.476 22.7355C109.446 22.982 109.393 23.2253 109.318 23.4621C109.25 23.7357 109.151 24.0007 109.023 24.2519C108.916 24.4845 108.782 24.7036 108.623 24.9048C108.48 25.0809 108.318 25.2399 108.139 25.3787C107.97 25.512 107.786 25.6251 107.591 25.7156C107.396 25.8187 107.186 25.8932 106.97 25.9368C106.769 25.9771 106.564 25.9983 106.359 26H97.3027C97.0551 26.0015 96.808 25.9768 96.5656 25.9263C96.3198 25.8754 96.0823 25.7903 95.8601 25.6735C95.6412 25.5526 95.4363 25.4078 95.2493 25.2418C95.0476 25.0662 94.8705 24.8643 94.7227 24.6415C94.6013 24.4377 94.4923 24.2267 94.3963 24.0097C94.2953 23.7639 94.2143 23.5103 94.1541 23.2515C94.1541 23.0303 94.0804 22.7987 94.0488 22.5565C94.0319 22.297 94.0319 22.0367 94.0488 21.7772V14.5848C94.0509 14.3032 94.0685 14.022 94.1014 13.7424C94.1373 13.4579 94.1936 13.1763 94.2699 12.8999C94.321 12.6258 94.4096 12.36 94.5332 12.1101C94.6384 11.8611 94.7765 11.6274 94.9439 11.4151C95.0932 11.2253 95.2627 11.0523 95.4494 10.8991C95.6472 10.7468 95.8675 10.626 96.1023 10.5411C96.5133 10.3867 96.948 10.3048 97.387 10.2989H97.3133ZM103.2 12.9315H100.272C100.161 12.9292 100.052 12.9584 99.9565 13.0157C99.848 13.0651 99.7538 13.1412 99.6827 13.2369C99.5944 13.3169 99.5229 13.4135 99.472 13.5212C99.4204 13.6221 99.3951 13.7344 99.3983 13.8477V22.5038C99.3987 22.6227 99.4314 22.7392 99.4931 22.8408C99.5526 22.9457 99.6312 23.0385 99.7248 23.1146C99.8156 23.2023 99.9184 23.2768 100.03 23.3357C100.139 23.3883 100.257 23.4171 100.378 23.42H103.2C103.295 23.4181 103.388 23.3966 103.474 23.3568C103.572 23.3084 103.664 23.2483 103.747 23.1778C103.823 23.1186 103.884 23.043 103.926 22.9566C103.978 22.8819 104.007 22.7944 104.011 22.7039V13.6476C104.007 13.5538 103.978 13.4628 103.926 13.3843C103.879 13.3017 103.818 13.2271 103.747 13.1632C103.661 13.0995 103.569 13.0431 103.474 12.9947C103.388 12.9549 103.295 12.9334 103.2 12.9315Z" fill="#233A73"/>
<path d="M23.9151 25.9162C23.9151 25.9162 21.0718 25.9162 20.8402 25.9162C20.5979 25.8645 20.3686 25.7642 20.1662 25.6213C19.9569 25.4685 19.766 25.2918 19.5976 25.0948C19.4188 24.8968 19.2601 24.6817 19.1237 24.4524C18.9694 24.2076 18.8356 23.9505 18.7235 23.6837C18.6077 23.4093 18.5092 23.128 18.4287 22.8412C18.3655 22.5464 18.3128 22.241 18.2707 21.9461C18.2291 21.6461 18.208 21.3435 18.2075 21.0405V9.35156H23.9467L23.9151 25.9162Z" fill="#233A73"/>
</svg>
