<svg width="28" height="28" viewBox="0 0 28 28" fill="none" xmlns="http://www.w3.org/2000/svg">
<path d="M14 28C11.2311 28 8.52431 27.1789 6.22202 25.6406C3.91973 24.1022 2.12532 21.9157 1.06569 19.3576C0.00606593 16.7994 -0.271181 13.9845 0.269012 11.2687C0.809205 8.55301 2.14258 6.05845 4.10051 4.10051C6.05844 2.14258 8.55301 0.809205 11.2687 0.269012C13.9845 -0.271181 16.7994 0.00606593 19.3576 1.06569C21.9157 2.12532 24.1022 3.91973 25.6406 6.22202C27.1789 8.52431 28 11.2311 28 14C28 17.713 26.525 21.274 23.8995 23.8995C21.274 26.525 17.713 28 14 28ZM14 1.75001C11.5772 1.75001 9.20877 2.46846 7.19427 3.8145C5.17977 5.16055 3.60965 7.07374 2.68248 9.31213C1.75531 11.5505 1.51272 14.0136 1.98539 16.3899C2.45805 18.7661 3.62475 20.9489 5.33795 22.6621C7.05114 24.3753 9.23388 25.542 11.6101 26.0146C13.9864 26.4873 16.4495 26.2447 18.6879 25.3175C20.9263 24.3904 22.8395 22.8202 24.1855 20.8057C25.5316 18.7912 26.25 16.4228 26.25 14C26.25 10.7511 24.9594 7.63527 22.6621 5.33795C20.3647 3.04063 17.2489 1.75001 14 1.75001Z" fill="#81BC22"/>
<path d="M14 20.125C13.8818 20.1391 13.7618 20.1261 13.6492 20.0871C13.5367 20.0481 13.4344 19.9841 13.3502 19.8999C13.266 19.8156 13.2019 19.7134 13.1629 19.6008C13.1239 19.4882 13.111 19.3683 13.125 19.25V14C13.125 13.7679 13.2172 13.5454 13.3813 13.3813C13.5454 13.2172 13.768 13.125 14 13.125C14.2321 13.125 14.4547 13.2172 14.6188 13.3813C14.7829 13.5454 14.875 13.7679 14.875 14V19.25C14.8891 19.3683 14.8762 19.4882 14.8372 19.6008C14.7982 19.7134 14.7341 19.8156 14.6499 19.8999C14.5657 19.9841 14.4634 20.0481 14.3509 20.0871C14.2383 20.1261 14.1183 20.1391 14 20.125Z" fill="#81BC22"/>
<path d="M14.0002 9.62505H13.4752C13.452 9.62505 13.4297 9.61583 13.4133 9.59942C13.3969 9.58301 13.3877 9.56075 13.3877 9.53755L13.2127 9.27505C13.1526 9.20328 13.1129 9.11676 13.0975 9.02446C13.0821 8.93215 13.0917 8.83741 13.1252 8.75005C13.1121 8.62671 13.1431 8.50272 13.2127 8.40005L13.3877 8.13755C13.3877 8.11434 13.3969 8.09209 13.4133 8.07568C13.4297 8.05927 13.452 8.05005 13.4752 8.05005H14.3502L14.6127 8.22505L14.7877 8.48755C14.8573 8.59022 14.8883 8.71421 14.8752 8.83755C14.8789 8.95262 14.8573 9.06711 14.8119 9.17293C14.7666 9.27876 14.6986 9.37335 14.6127 9.45005L14.3502 9.62505H14.0002Z" fill="#81BC22"/>
</svg>
