<svg width="266" height="23" viewBox="0 0 266 23" fill="none" xmlns="http://www.w3.org/2000/svg">
<path d="M0.566406 14.5508C0.527344 14.4987 0.488281 14.4401 0.449219 14.375C0.410156 14.3099 0.377604 14.2513 0.351562 14.1992C0.338542 14.1341 0.345052 14.0755 0.371094 14.0234C0.397135 13.9714 0.46224 13.9258 0.566406 13.8867C0.709635 13.8477 0.859375 13.8411 1.01562 13.8672C1.1849 13.8802 1.35417 13.9128 1.52344 13.9648C1.70573 14.0039 1.88151 14.043 2.05078 14.082C2.22005 14.1211 2.38281 14.1341 2.53906 14.1211C2.8125 14.0951 3.20312 13.9648 3.71094 13.7305C4.23177 13.4961 4.77865 13.2096 5.35156 12.8711C5.9375 12.5195 6.50391 12.1354 7.05078 11.7188C7.61068 11.3021 8.0599 10.8919 8.39844 10.4883C8.73698 10.0846 8.91927 9.72005 8.94531 9.39453C8.97135 9.05599 8.75 8.78906 8.28125 8.59375C8.04688 8.55469 7.74089 8.58073 7.36328 8.67188C6.98568 8.75 6.58854 8.85417 6.17188 8.98438C5.75521 9.10156 5.33854 9.22526 4.92188 9.35547C4.50521 9.47266 4.14062 9.55078 3.82812 9.58984C3.51562 9.61589 3.27474 9.57682 3.10547 9.47266C2.94922 9.36849 2.91016 9.15365 2.98828 8.82812C3.15755 8.63281 3.38542 8.37891 3.67188 8.06641C3.97135 7.75391 4.27083 7.42188 4.57031 7.07031C4.88281 6.70573 5.17578 6.33464 5.44922 5.95703C5.72266 5.57943 5.93099 5.21484 6.07422 4.86328C6.07422 4.86328 5.97005 4.88932 5.76172 4.94141C5.56641 4.99349 5.31901 5.05859 5.01953 5.13672C4.73307 5.20182 4.42708 5.26042 4.10156 5.3125C3.78906 5.36458 3.50911 5.39062 3.26172 5.39062C3.01432 5.39062 2.83203 5.35156 2.71484 5.27344C2.61068 5.19531 2.63021 5.05859 2.77344 4.86328C2.79948 4.82422 2.92969 4.73307 3.16406 4.58984C3.41146 4.43359 3.71094 4.27083 4.0625 4.10156C4.42708 3.93229 4.8112 3.76953 5.21484 3.61328C5.63151 3.44401 6.01562 3.32682 6.36719 3.26172C6.73177 3.19661 7.03125 3.19661 7.26562 3.26172C7.5 3.32682 7.6237 3.49609 7.63672 3.76953C7.64974 4.04297 7.51953 4.44661 7.24609 4.98047C6.98568 5.5013 6.52344 6.19141 5.85938 7.05078V7.71484C6.90104 7.63672 7.71484 7.6888 8.30078 7.87109C8.88672 8.04036 9.28385 8.30078 9.49219 8.65234C9.71354 8.99089 9.76562 9.38802 9.64844 9.84375C9.54427 10.2995 9.30339 10.7682 8.92578 11.25C8.5612 11.7318 8.08594 12.207 7.5 12.6758C6.92708 13.1315 6.27604 13.5286 5.54688 13.8672C4.83073 14.2057 4.0625 14.4661 3.24219 14.6484C2.4349 14.8177 1.61458 14.8633 0.78125 14.7852C0.755208 14.7721 0.716146 14.7396 0.664062 14.6875C0.611979 14.6224 0.579427 14.5768 0.566406 14.5508ZM10.8008 14.7852C10.6185 14.5117 10.5664 14.2383 10.6445 13.9648C10.7357 13.6784 10.8854 13.4635 11.0938 13.3203C11.3021 13.1641 11.5299 13.1055 11.7773 13.1445C12.0247 13.1706 12.2135 13.3464 12.3438 13.6719C12.4219 13.8672 12.4089 14.0755 12.3047 14.2969C12.2135 14.5052 12.0768 14.681 11.8945 14.8242C11.7122 14.9544 11.5169 15.026 11.3086 15.0391C11.1003 15.0651 10.931 14.9805 10.8008 14.7852ZM18.1836 14.5508C18.0924 14.1081 18.1185 13.6654 18.2617 13.2227C18.4049 12.7669 18.5677 12.3177 18.75 11.875C18.9323 11.4323 19.0885 10.9961 19.2188 10.5664C19.362 10.1237 19.3815 9.6875 19.2773 9.25781C19.0169 9.21875 18.7174 9.24479 18.3789 9.33594C18.0404 9.41406 17.6888 9.51823 17.3242 9.64844C16.9727 9.77865 16.6146 9.90885 16.25 10.0391C15.8854 10.1693 15.5339 10.2604 15.1953 10.3125C14.8568 10.3516 14.5443 10.332 14.2578 10.2539C13.9844 10.1758 13.75 9.99349 13.5547 9.70703C13.3854 9.44661 13.3138 9.15365 13.3398 8.82812C13.3789 8.48958 13.4766 8.13151 13.6328 7.75391C13.8021 7.36328 14.0104 6.95964 14.2578 6.54297C14.5052 6.1263 14.7526 5.71615 15 5.3125C15.2604 4.90885 15.4948 4.51823 15.7031 4.14062C15.9245 3.76302 16.0872 3.41146 16.1914 3.08594C16.4909 3.00781 16.7057 3.00781 16.8359 3.08594C16.9792 3.15104 17.0573 3.26823 17.0703 3.4375C17.0964 3.59375 17.0703 3.78255 16.9922 4.00391C16.9271 4.22526 16.8424 4.44661 16.7383 4.66797C16.6341 4.88932 16.5299 5.09766 16.4258 5.29297C16.3216 5.48828 16.2435 5.63802 16.1914 5.74219C16.1263 5.84635 16.0221 6.03516 15.8789 6.30859C15.7357 6.58203 15.5794 6.86849 15.4102 7.16797C15.2539 7.46745 15.0977 7.75391 14.9414 8.02734C14.7982 8.30078 14.7005 8.48958 14.6484 8.59375V9.04297C14.9609 9.08203 15.293 9.07552 15.6445 9.02344C15.9961 8.95833 16.3411 8.88021 16.6797 8.78906C17.0312 8.6849 17.3698 8.57422 17.6953 8.45703C18.0339 8.33984 18.3398 8.24219 18.6133 8.16406C19.2513 7.98177 19.7591 7.70833 20.1367 7.34375C20.5273 6.97917 20.8464 6.55599 21.0938 6.07422C21.3542 5.57943 21.5755 5.03906 21.7578 4.45312C21.9401 3.86719 22.1484 3.26172 22.3828 2.63672C22.6823 2.54557 22.8711 2.59115 22.9492 2.77344C23.0273 2.94271 23.0404 3.1901 22.9883 3.51562C22.9362 3.84115 22.832 4.21875 22.6758 4.64844C22.5326 5.0651 22.3828 5.46875 22.2266 5.85938C22.0833 6.25 21.9531 6.60156 21.8359 6.91406C21.7318 7.21354 21.6862 7.40885 21.6992 7.5C21.9206 7.42188 22.1354 7.42188 22.3438 7.5C22.5651 7.5651 22.7214 7.70833 22.8125 7.92969C22.7344 8.11198 22.6042 8.23568 22.4219 8.30078C22.2526 8.36589 22.0703 8.42448 21.875 8.47656C21.6797 8.52865 21.4844 8.59375 21.2891 8.67188C21.1068 8.73698 20.957 8.86068 20.8398 9.04297C20.5664 9.47266 20.332 9.92188 20.1367 10.3906C19.9414 10.8594 19.7656 11.3411 19.6094 11.8359C19.4531 12.3307 19.3164 12.832 19.1992 13.3398C19.082 13.8346 18.9648 14.3164 18.8477 14.7852C18.7565 14.8112 18.6263 14.8177 18.457 14.8047C18.3008 14.7786 18.2096 14.694 18.1836 14.5508ZM24.1406 14.5508C24.1016 14.4987 24.0625 14.4401 24.0234 14.375C23.9844 14.3099 23.9518 14.2513 23.9258 14.1992C23.9128 14.1341 23.9193 14.0755 23.9453 14.0234C23.9714 13.9714 24.0365 13.9258 24.1406 13.8867C24.2839 13.8477 24.4336 13.8411 24.5898 13.8672C24.7591 13.8802 24.9284 13.9128 25.0977 13.9648C25.2799 14.0039 25.4557 14.043 25.625 14.082C25.7943 14.1211 25.957 14.1341 26.1133 14.1211C26.3867 14.0951 26.7773 13.9648 27.2852 13.7305C27.806 13.4961 28.3529 13.2096 28.9258 12.8711C29.5117 12.5195 30.0781 12.1354 30.625 11.7188C31.1849 11.3021 31.6341 10.8919 31.9727 10.4883C32.3112 10.0846 32.4935 9.72005 32.5195 9.39453C32.5456 9.05599 32.3242 8.78906 31.8555 8.59375C31.6211 8.55469 31.3151 8.58073 30.9375 8.67188C30.5599 8.75 30.1628 8.85417 29.7461 8.98438C29.3294 9.10156 28.9128 9.22526 28.4961 9.35547C28.0794 9.47266 27.7148 9.55078 27.4023 9.58984C27.0898 9.61589 26.849 9.57682 26.6797 9.47266C26.5234 9.36849 26.4844 9.15365 26.5625 8.82812C26.7318 8.63281 26.9596 8.37891 27.2461 8.06641C27.5456 7.75391 27.8451 7.42188 28.1445 7.07031C28.457 6.70573 28.75 6.33464 29.0234 5.95703C29.2969 5.57943 29.5052 5.21484 29.6484 4.86328C29.6484 4.86328 29.5443 4.88932 29.3359 4.94141C29.1406 4.99349 28.8932 5.05859 28.5938 5.13672C28.3073 5.20182 28.0013 5.26042 27.6758 5.3125C27.3633 5.36458 27.0833 5.39062 26.8359 5.39062C26.5885 5.39062 26.4062 5.35156 26.2891 5.27344C26.1849 5.19531 26.2044 5.05859 26.3477 4.86328C26.3737 4.82422 26.5039 4.73307 26.7383 4.58984C26.9857 4.43359 27.2852 4.27083 27.6367 4.10156C28.0013 3.93229 28.3854 3.76953 28.7891 3.61328C29.2057 3.44401 29.5898 3.32682 29.9414 3.26172C30.306 3.19661 30.6055 3.19661 30.8398 3.26172C31.0742 3.32682 31.1979 3.49609 31.2109 3.76953C31.224 4.04297 31.0938 4.44661 30.8203 4.98047C30.5599 5.5013 30.0977 6.19141 29.4336 7.05078V7.71484C30.4753 7.63672 31.2891 7.6888 31.875 7.87109C32.4609 8.04036 32.8581 8.30078 33.0664 8.65234C33.2878 8.99089 33.3398 9.38802 33.2227 9.84375C33.1185 10.2995 32.8776 10.7682 32.5 11.25C32.1354 11.7318 31.6602 12.207 31.0742 12.6758C30.5013 13.1315 29.8503 13.5286 29.1211 13.8672C28.4049 14.2057 27.6367 14.4661 26.8164 14.6484C26.0091 14.8177 25.1888 14.8633 24.3555 14.7852C24.3294 14.7721 24.2904 14.7396 24.2383 14.6875C24.1862 14.6224 24.1536 14.5768 24.1406 14.5508ZM34.375 14.7852C34.1927 14.6419 34.1146 14.4922 34.1406 14.3359C34.1797 14.1797 34.2578 14.0299 34.375 13.8867C34.8698 13.3008 35.3646 12.7409 35.8594 12.207C36.3542 11.6602 36.8294 11.1068 37.2852 10.5469C37.7409 9.98698 38.1706 9.40755 38.5742 8.80859C38.9909 8.19661 39.362 7.53906 39.6875 6.83594C39.8568 6.47135 39.9219 6.19792 39.8828 6.01562C39.8568 5.83333 39.7591 5.72266 39.5898 5.68359C39.4336 5.63151 39.2318 5.63802 38.9844 5.70312C38.737 5.75521 38.4766 5.83333 38.2031 5.9375C37.9427 6.02865 37.6888 6.1263 37.4414 6.23047C37.194 6.33464 36.9922 6.41276 36.8359 6.46484C36.6927 6.51693 36.6081 6.52995 36.582 6.50391C36.556 6.46484 36.6341 6.35417 36.8164 6.17188C37.0508 5.89844 37.3372 5.65755 37.6758 5.44922C38.0273 5.24089 38.3789 5.09115 38.7305 5C39.0951 4.89583 39.4336 4.85677 39.7461 4.88281C40.0716 4.90885 40.332 5.01302 40.5273 5.19531C40.7357 5.36458 40.8464 5.61849 40.8594 5.95703C40.8854 6.29557 40.7812 6.73177 40.5469 7.26562C40.2734 7.89062 39.9219 8.47656 39.4922 9.02344C39.0755 9.55729 38.6458 10.0846 38.2031 10.6055C37.7604 11.1263 37.3307 11.6536 36.9141 12.1875C36.4974 12.7083 36.1654 13.2747 35.918 13.8867C36.1263 13.9518 36.4453 13.9258 36.875 13.8086C37.3177 13.6914 37.8125 13.5352 38.3594 13.3398C38.9062 13.1445 39.4727 12.9427 40.0586 12.7344C40.6576 12.526 41.224 12.3633 41.7578 12.2461C42.3047 12.1289 42.7865 12.0833 43.2031 12.1094C43.6198 12.1354 43.9193 12.2852 44.1016 12.5586C44.1276 12.5846 44.1406 12.6628 44.1406 12.793C44.1406 12.9102 44.1276 12.9818 44.1016 13.0078C43.7109 12.9427 43.2422 12.9753 42.6953 13.1055C42.1484 13.2227 41.5625 13.3854 40.9375 13.5938C40.3255 13.8021 39.694 14.0299 39.043 14.2773C38.4049 14.5117 37.793 14.707 37.207 14.8633C36.6211 15.0195 36.0807 15.1042 35.5859 15.1172C35.0911 15.1302 34.6875 15.0195 34.375 14.7852ZM53.1641 21.8359C53.0469 21.1068 53.0859 20.3646 53.2812 19.6094C53.4635 18.8672 53.7109 18.125 54.0234 17.3828C54.3229 16.6406 54.6289 15.8984 54.9414 15.1562C55.2539 14.4271 55.4688 13.7109 55.5859 13.0078C55.5859 12.9818 55.638 12.9036 55.7422 12.7734C55.8594 12.6432 55.9831 12.5065 56.1133 12.3633C56.2565 12.207 56.3802 12.0638 56.4844 11.9336C56.6016 11.7904 56.6667 11.7057 56.6797 11.6797C56.888 11.224 57.0964 10.8073 57.3047 10.4297C57.526 10.0391 57.6953 9.66146 57.8125 9.29688C57.9297 8.93229 57.9818 8.57422 57.9688 8.22266C57.9557 7.85807 57.8255 7.46745 57.5781 7.05078C57.5521 7.02474 57.5391 6.98568 57.5391 6.93359C57.5391 6.88151 57.5521 6.84896 57.5781 6.83594C57.9557 6.35417 58.3919 5.95052 58.8867 5.625C59.3815 5.29948 59.9089 5.03906 60.4688 4.84375C61.0286 4.64844 61.6081 4.51823 62.207 4.45312C62.806 4.38802 63.3984 4.375 63.9844 4.41406C64.4792 4.83073 64.7917 5.30599 64.9219 5.83984C65.0651 6.36068 65.0716 6.90755 64.9414 7.48047C64.8242 8.04036 64.5964 8.60677 64.2578 9.17969C63.9323 9.7526 63.5547 10.2865 63.125 10.7812C62.6953 11.276 62.2396 11.7188 61.7578 12.1094C61.2891 12.5 60.8464 12.7995 60.4297 13.0078C60.0521 13.1901 59.7721 13.3138 59.5898 13.3789C59.4206 13.431 59.2513 13.4635 59.082 13.4766C58.9128 13.4896 58.7044 13.5026 58.457 13.5156C58.2227 13.5286 57.8581 13.5807 57.3633 13.6719C57.1419 13.7109 56.9531 13.8151 56.7969 13.9844C56.6536 14.1406 56.5299 14.3229 56.4258 14.5312C56.3346 14.7266 56.2565 14.9284 56.1914 15.1367C56.1393 15.3581 56.0872 15.5339 56.0352 15.6641C55.8008 16.237 55.5859 16.7643 55.3906 17.2461C55.2083 17.7409 55.0326 18.2227 54.8633 18.6914C54.681 19.1732 54.5052 19.668 54.3359 20.1758C54.1667 20.6836 53.9909 21.237 53.8086 21.8359C53.7826 21.901 53.737 21.9531 53.6719 21.9922C53.6068 22.0443 53.5417 22.0703 53.4766 22.0703C53.3984 22.0833 53.3333 22.0703 53.2812 22.0312C53.2161 22.0052 53.1771 21.9401 53.1641 21.8359ZM57.5781 12.793C58.1771 12.9102 58.7565 12.8776 59.3164 12.6953C59.8893 12.513 60.4232 12.2331 60.918 11.8555C61.4128 11.4648 61.8555 11.0026 62.2461 10.4688C62.6497 9.92188 62.9883 9.34896 63.2617 8.75C63.5352 8.15104 63.737 7.55208 63.8672 6.95312C63.9974 6.34115 64.0365 5.78125 63.9844 5.27344C63.8021 5.11719 63.5807 5.03906 63.3203 5.03906C63.0729 5.02604 62.8516 5.03255 62.6562 5.05859C61.9531 5.14974 61.3997 5.33203 60.9961 5.60547C60.5924 5.86589 60.2604 6.19792 60 6.60156C59.7526 7.00521 59.5378 7.47396 59.3555 8.00781C59.1732 8.52865 58.9518 9.09505 58.6914 9.70703C58.6393 9.79818 58.5612 9.96094 58.457 10.1953C58.3529 10.4167 58.2422 10.6576 58.125 10.918C58.0078 11.1654 57.8971 11.4062 57.793 11.6406C57.6888 11.875 57.6172 12.0378 57.5781 12.1289V12.793ZM67.168 14.7852C66.7773 14.6549 66.4779 14.4596 66.2695 14.1992C66.0742 13.9258 65.944 13.6263 65.8789 13.3008C65.8138 12.9753 65.8008 12.6367 65.8398 12.2852C65.8919 11.9206 65.9701 11.5755 66.0742 11.25C66.4648 10.8333 66.901 10.3581 67.3828 9.82422C67.8776 9.27734 68.3984 8.74349 68.9453 8.22266C69.4922 7.70182 70.0586 7.22005 70.6445 6.77734C71.2435 6.32161 71.849 5.97656 72.4609 5.74219C72.6693 5.65104 72.832 5.65755 72.9492 5.76172C73.0794 5.85286 73.1706 6.0026 73.2227 6.21094C73.2747 6.41927 73.2943 6.66016 73.2812 6.93359C73.2812 7.20703 73.2617 7.47396 73.2227 7.73438C73.1836 7.99479 73.1315 8.22917 73.0664 8.4375C73.0013 8.64583 72.9362 8.78906 72.8711 8.86719C72.7148 9.04948 72.4089 9.26432 71.9531 9.51172C71.5104 9.75911 71.0156 10.0326 70.4688 10.332C69.9219 10.6185 69.375 10.918 68.8281 11.2305C68.2812 11.543 67.832 11.8555 67.4805 12.168C67.1289 12.4674 66.9206 12.7669 66.8555 13.0664C66.7904 13.3659 66.9727 13.6393 67.4023 13.8867C67.8451 13.9388 68.3789 13.9193 69.0039 13.8281C69.6419 13.724 70.2865 13.5938 70.9375 13.4375C71.6016 13.2682 72.2396 13.099 72.8516 12.9297C73.4635 12.7474 73.9648 12.6042 74.3555 12.5L74.5898 12.7148C74.3034 13.0924 73.8346 13.4375 73.1836 13.75C72.5326 14.0625 71.8294 14.3229 71.0742 14.5312C70.319 14.7266 69.5833 14.8568 68.8672 14.9219C68.151 14.974 67.5846 14.9284 67.168 14.7852ZM71.8359 7.32422C71.8229 7.3112 71.7253 7.36979 71.543 7.5C71.3607 7.61719 71.1328 7.77995 70.8594 7.98828C70.599 8.18359 70.3125 8.40495 70 8.65234C69.7005 8.88672 69.4206 9.10807 69.1602 9.31641C68.9128 9.52474 68.7044 9.70703 68.5352 9.86328C68.3659 10.0065 68.2943 10.0781 68.3203 10.0781C68.5286 10.1172 68.7956 10.0911 69.1211 10C69.4596 9.89583 69.8047 9.7526 70.1562 9.57031C70.5208 9.38802 70.8659 9.1862 71.1914 8.96484C71.5169 8.73047 71.7708 8.5026 71.9531 8.28125C72.1484 8.0599 72.2461 7.86458 72.2461 7.69531C72.2591 7.52604 72.1224 7.40234 71.8359 7.32422ZM74.5703 14.7852C74.5443 14.7721 74.5443 14.6224 74.5703 14.3359C74.6094 14.0365 74.6615 13.6654 74.7266 13.2227C74.7917 12.7799 74.8763 12.2917 74.9805 11.7578C75.0846 11.224 75.1953 10.7161 75.3125 10.2344C75.4297 9.73958 75.5534 9.3099 75.6836 8.94531C75.8268 8.56771 75.9635 8.30729 76.0938 8.16406C76.1849 8.07292 76.276 8.07292 76.3672 8.16406C76.4583 8.24219 76.5495 8.34635 76.6406 8.47656C76.7318 8.59375 76.8229 8.70443 76.9141 8.80859C77.0052 8.89974 77.1029 8.90625 77.207 8.82812C77.5716 8.32031 77.9688 7.83854 78.3984 7.38281C78.8411 6.91406 79.3294 6.51042 79.8633 6.17188C79.9154 6.13281 80.0586 6.07422 80.293 5.99609C80.5273 5.90495 80.7943 5.82031 81.0938 5.74219C81.3932 5.65104 81.6992 5.57943 82.0117 5.52734C82.3372 5.46224 82.6107 5.4362 82.832 5.44922C83.0664 5.44922 83.2227 5.50781 83.3008 5.625C83.3919 5.72917 83.3529 5.91146 83.1836 6.17188C82.4023 6.1849 81.6732 6.41276 80.9961 6.85547C80.319 7.29818 79.694 7.84505 79.1211 8.49609C78.5482 9.14714 78.0273 9.85677 77.5586 10.625C77.0898 11.3802 76.6797 12.0833 76.3281 12.7344C75.9896 13.3854 75.7031 13.9258 75.4688 14.3555C75.2474 14.7852 75.0846 15 74.9805 15C74.9674 15 74.9089 14.974 74.8047 14.9219C74.7005 14.8568 74.6224 14.8112 74.5703 14.7852ZM84.0625 14.7852C83.9062 14.681 83.8997 14.5443 84.043 14.375C84.1992 14.1927 84.4401 14.0039 84.7656 13.8086C85.1042 13.6003 85.4948 13.3854 85.9375 13.1641C86.3802 12.9427 86.8034 12.7344 87.207 12.5391C87.6237 12.3438 87.9883 12.1745 88.3008 12.0312C88.6133 11.875 88.8151 11.7578 88.9062 11.6797C89.3359 11.3151 89.5573 11.0156 89.5703 10.7812C89.5964 10.5339 89.4922 10.3385 89.2578 10.1953C89.0234 10.0391 88.6914 9.92188 88.2617 9.84375C87.8451 9.7526 87.4089 9.67448 86.9531 9.60938C86.5104 9.53125 86.0807 9.45312 85.6641 9.375C85.2604 9.29688 84.9544 9.19271 84.7461 9.0625C84.5378 8.93229 84.4661 8.76302 84.5312 8.55469C84.6094 8.33333 84.8958 8.05339 85.3906 7.71484C85.5729 7.58464 85.8398 7.39583 86.1914 7.14844C86.543 6.90104 86.9206 6.64714 87.3242 6.38672C87.7409 6.1263 88.151 5.89193 88.5547 5.68359C88.9583 5.47526 89.2969 5.33854 89.5703 5.27344C89.7135 5.2474 89.8568 5.26042 90 5.3125C90.1562 5.36458 90.2799 5.44271 90.3711 5.54688C90.4622 5.63802 90.5013 5.74219 90.4883 5.85938C90.4883 5.97656 90.4036 6.08073 90.2344 6.17188C89.4922 6.58854 88.776 6.97917 88.0859 7.34375C87.4089 7.70833 86.7253 8.125 86.0352 8.59375C85.9961 8.69792 86.0026 8.78906 86.0547 8.86719C86.1198 8.94531 86.1914 9.00391 86.2695 9.04297C87.6497 9.1862 88.6849 9.38802 89.375 9.64844C90.0781 9.90885 90.5208 10.1953 90.7031 10.5078C90.8984 10.8203 90.8789 11.1523 90.6445 11.5039C90.4102 11.8555 90.0586 12.2005 89.5898 12.5391C89.1341 12.8776 88.6068 13.1966 88.0078 13.4961C87.4089 13.7956 86.8294 14.0495 86.2695 14.2578C85.7227 14.4661 85.2409 14.6224 84.8242 14.7266C84.4076 14.8307 84.1536 14.8503 84.0625 14.7852ZM92.7734 14.7852C92.2266 14.5638 91.8815 14.2318 91.7383 13.7891C91.6081 13.3464 91.6146 12.8581 91.7578 12.3242C91.901 11.7773 92.1484 11.2174 92.5 10.6445C92.8516 10.0586 93.2422 9.52474 93.6719 9.04297C94.1016 8.5612 94.5312 8.15755 94.9609 7.83203C95.4036 7.49349 95.7812 7.30469 96.0938 7.26562C96.901 7.16146 97.5326 7.22005 97.9883 7.44141C98.457 7.64974 98.776 7.95573 98.9453 8.35938C99.1146 8.76302 99.1602 9.23828 99.082 9.78516C99.0039 10.319 98.8281 10.8594 98.5547 11.4062C98.2943 11.9531 97.9492 12.4805 97.5195 12.9883C97.1029 13.4961 96.6341 13.9258 96.1133 14.2773C95.6055 14.6159 95.0651 14.8438 94.4922 14.9609C93.9193 15.0651 93.3464 15.0065 92.7734 14.7852ZM92.5586 13.6719C92.6628 14.0885 92.8841 14.3229 93.2227 14.375C93.5612 14.4141 93.9518 14.3294 94.3945 14.1211C94.8503 13.8997 95.3255 13.5872 95.8203 13.1836C96.3151 12.7669 96.7643 12.3177 97.168 11.8359C97.5846 11.3542 97.9232 10.8724 98.1836 10.3906C98.457 9.89583 98.5872 9.46615 98.5742 9.10156C98.5742 8.73698 98.3984 8.46354 98.0469 8.28125C97.7083 8.08594 97.1354 8.04688 96.3281 8.16406C96.1458 8.33333 95.9115 8.54167 95.625 8.78906C95.3385 9.02344 95.0391 9.28385 94.7266 9.57031C94.4271 9.85677 94.1276 10.1693 93.8281 10.5078C93.5286 10.8333 93.2682 11.1719 93.0469 11.5234C92.8255 11.875 92.6628 12.2331 92.5586 12.5977C92.4674 12.9622 92.4674 13.3203 92.5586 13.6719ZM107.246 14.7852C107.207 14.3555 107.24 13.9323 107.344 13.5156C107.461 13.0859 107.611 12.6693 107.793 12.2656C107.988 11.849 108.19 11.4388 108.398 11.0352C108.62 10.6185 108.809 10.2148 108.965 9.82422C109.121 9.42057 109.232 9.02995 109.297 8.65234C109.362 8.26172 109.336 7.8776 109.219 7.5C108.893 7.38281 108.516 7.40885 108.086 7.57812C107.669 7.7474 107.227 8.00781 106.758 8.35938C106.289 8.69792 105.801 9.10156 105.293 9.57031C104.798 10.026 104.31 10.4948 103.828 10.9766C103.359 11.4453 102.91 11.8945 102.48 12.3242C102.051 12.7539 101.66 13.112 101.309 13.3984C100.97 13.6719 100.684 13.8477 100.449 13.9258C100.215 13.9909 100.059 13.9062 99.9805 13.6719C99.9674 13.6589 100.039 13.4961 100.195 13.1836C100.365 12.8581 100.566 12.4544 100.801 11.9727C101.048 11.4909 101.315 10.9701 101.602 10.4102C101.901 9.85026 102.181 9.32943 102.441 8.84766C102.702 8.35286 102.93 7.9362 103.125 7.59766C103.32 7.25911 103.444 7.07682 103.496 7.05078C103.77 7.23307 103.906 7.4349 103.906 7.65625C103.919 7.86458 103.887 8.08594 103.809 8.32031C103.73 8.54167 103.639 8.76953 103.535 9.00391C103.444 9.23828 103.431 9.47266 103.496 9.70703C103.704 9.5638 103.991 9.36849 104.355 9.12109C104.733 8.86068 105.137 8.59375 105.566 8.32031C106.009 8.04688 106.465 7.77995 106.934 7.51953C107.415 7.25911 107.865 7.05729 108.281 6.91406C108.698 6.75781 109.069 6.67318 109.395 6.66016C109.733 6.64714 109.98 6.74479 110.137 6.95312C110.293 7.16146 110.339 7.50651 110.273 7.98828C110.221 8.45703 110.02 9.10156 109.668 9.92188C109.629 10.013 109.531 10.2344 109.375 10.5859C109.232 10.9245 109.069 11.2956 108.887 11.6992C108.717 12.0898 108.555 12.4609 108.398 12.8125C108.255 13.151 108.164 13.3659 108.125 13.457C108.112 13.5091 108.092 13.6068 108.066 13.75C108.053 13.8802 108.034 14.0299 108.008 14.1992C107.982 14.3555 107.943 14.5117 107.891 14.668C107.839 14.8112 107.773 14.9219 107.695 15C107.617 15.0781 107.526 15.0716 107.422 14.9805C107.318 14.8763 107.259 14.8112 107.246 14.7852ZM112.539 14.7852C112.148 14.6549 111.849 14.4596 111.641 14.1992C111.445 13.9258 111.315 13.6263 111.25 13.3008C111.185 12.9753 111.172 12.6367 111.211 12.2852C111.263 11.9206 111.341 11.5755 111.445 11.25C111.836 10.8333 112.272 10.3581 112.754 9.82422C113.249 9.27734 113.77 8.74349 114.316 8.22266C114.863 7.70182 115.43 7.22005 116.016 6.77734C116.615 6.32161 117.22 5.97656 117.832 5.74219C118.04 5.65104 118.203 5.65755 118.32 5.76172C118.451 5.85286 118.542 6.0026 118.594 6.21094C118.646 6.41927 118.665 6.66016 118.652 6.93359C118.652 7.20703 118.633 7.47396 118.594 7.73438C118.555 7.99479 118.503 8.22917 118.438 8.4375C118.372 8.64583 118.307 8.78906 118.242 8.86719C118.086 9.04948 117.78 9.26432 117.324 9.51172C116.882 9.75911 116.387 10.0326 115.84 10.332C115.293 10.6185 114.746 10.918 114.199 11.2305C113.652 11.543 113.203 11.8555 112.852 12.168C112.5 12.4674 112.292 12.7669 112.227 13.0664C112.161 13.3659 112.344 13.6393 112.773 13.8867C113.216 13.9388 113.75 13.9193 114.375 13.8281C115.013 13.724 115.658 13.5938 116.309 13.4375C116.973 13.2682 117.611 13.099 118.223 12.9297C118.835 12.7474 119.336 12.6042 119.727 12.5L119.961 12.7148C119.674 13.0924 119.206 13.4375 118.555 13.75C117.904 14.0625 117.201 14.3229 116.445 14.5312C115.69 14.7266 114.954 14.8568 114.238 14.9219C113.522 14.974 112.956 14.9284 112.539 14.7852ZM117.207 7.32422C117.194 7.3112 117.096 7.36979 116.914 7.5C116.732 7.61719 116.504 7.77995 116.23 7.98828C115.97 8.18359 115.684 8.40495 115.371 8.65234C115.072 8.88672 114.792 9.10807 114.531 9.31641C114.284 9.52474 114.076 9.70703 113.906 9.86328C113.737 10.0065 113.665 10.0781 113.691 10.0781C113.9 10.1172 114.167 10.0911 114.492 10C114.831 9.89583 115.176 9.7526 115.527 9.57031C115.892 9.38802 116.237 9.1862 116.562 8.96484C116.888 8.73047 117.142 8.5026 117.324 8.28125C117.52 8.0599 117.617 7.86458 117.617 7.69531C117.63 7.52604 117.493 7.40234 117.207 7.32422ZM126.992 14.7852C126.953 14.3555 126.986 13.9323 127.09 13.5156C127.207 13.0859 127.357 12.6693 127.539 12.2656C127.734 11.849 127.936 11.4388 128.145 11.0352C128.366 10.6185 128.555 10.2148 128.711 9.82422C128.867 9.42057 128.978 9.02995 129.043 8.65234C129.108 8.26172 129.082 7.8776 128.965 7.5C128.639 7.38281 128.262 7.40885 127.832 7.57812C127.415 7.7474 126.973 8.00781 126.504 8.35938C126.035 8.69792 125.547 9.10156 125.039 9.57031C124.544 10.026 124.056 10.4948 123.574 10.9766C123.105 11.4453 122.656 11.8945 122.227 12.3242C121.797 12.7539 121.406 13.112 121.055 13.3984C120.716 13.6719 120.43 13.8477 120.195 13.9258C119.961 13.9909 119.805 13.9062 119.727 13.6719C119.714 13.6589 119.785 13.4961 119.941 13.1836C120.111 12.8581 120.312 12.4544 120.547 11.9727C120.794 11.4909 121.061 10.9701 121.348 10.4102C121.647 9.85026 121.927 9.32943 122.188 8.84766C122.448 8.35286 122.676 7.9362 122.871 7.59766C123.066 7.25911 123.19 7.07682 123.242 7.05078C123.516 7.23307 123.652 7.4349 123.652 7.65625C123.665 7.86458 123.633 8.08594 123.555 8.32031C123.477 8.54167 123.385 8.76953 123.281 9.00391C123.19 9.23828 123.177 9.47266 123.242 9.70703C123.451 9.5638 123.737 9.36849 124.102 9.12109C124.479 8.86068 124.883 8.59375 125.312 8.32031C125.755 8.04688 126.211 7.77995 126.68 7.51953C127.161 7.25911 127.611 7.05729 128.027 6.91406C128.444 6.75781 128.815 6.67318 129.141 6.66016C129.479 6.64714 129.727 6.74479 129.883 6.95312C130.039 7.16146 130.085 7.50651 130.02 7.98828C129.967 8.45703 129.766 9.10156 129.414 9.92188C129.375 10.013 129.277 10.2344 129.121 10.5859C128.978 10.9245 128.815 11.2956 128.633 11.6992C128.464 12.0898 128.301 12.4609 128.145 12.8125C128.001 13.151 127.91 13.3659 127.871 13.457C127.858 13.5091 127.839 13.6068 127.812 13.75C127.799 13.8802 127.78 14.0299 127.754 14.1992C127.728 14.3555 127.689 14.5117 127.637 14.668C127.585 14.8112 127.52 14.9219 127.441 15C127.363 15.0781 127.272 15.0716 127.168 14.9805C127.064 14.8763 127.005 14.8112 126.992 14.7852ZM138.496 20.5078C138.092 20.3646 137.767 20.1497 137.52 19.8633C137.259 19.5768 137.064 19.2643 136.934 18.9258C136.79 18.6003 136.706 18.2682 136.68 17.9297C136.641 17.5911 136.647 17.2917 136.699 17.0312C136.738 16.7708 136.816 16.569 136.934 16.4258C137.038 16.2956 137.161 16.263 137.305 16.3281C137.292 17.4609 137.428 18.3138 137.715 18.8867C137.988 19.4727 138.353 19.8372 138.809 19.9805C139.251 20.1367 139.759 20.1042 140.332 19.8828C140.892 19.6615 141.458 19.3164 142.031 18.8477C142.617 18.3919 143.171 17.8385 143.691 17.1875C144.225 16.5495 144.674 15.8789 145.039 15.1758C145.404 14.4857 145.664 13.8021 145.82 13.125C145.977 12.4349 145.97 11.8099 145.801 11.25C144.629 12.0964 143.717 12.6302 143.066 12.8516C142.415 13.0729 141.96 13.0859 141.699 12.8906C141.452 12.6823 141.374 12.3177 141.465 11.7969C141.556 11.276 141.751 10.7031 142.051 10.0781C142.35 9.45312 142.728 8.82812 143.184 8.20312C143.639 7.5651 144.108 7.03125 144.59 6.60156C145.072 6.17188 145.534 5.89844 145.977 5.78125C146.432 5.66406 146.81 5.80078 147.109 6.19141C147.409 6.59505 147.598 7.14193 147.676 7.83203C147.754 8.50911 147.734 9.26432 147.617 10.0977C147.5 10.931 147.292 11.8034 146.992 12.7148C146.706 13.6263 146.348 14.5117 145.918 15.3711C145.488 16.2435 144.993 17.0508 144.434 17.793C143.887 18.5352 143.294 19.1536 142.656 19.6484C142.018 20.1432 141.348 20.4753 140.645 20.6445C139.941 20.8268 139.225 20.7812 138.496 20.5078ZM142.48 10.8203C142.467 10.8594 142.454 10.931 142.441 11.0352C142.441 11.1393 142.441 11.25 142.441 11.3672C142.441 11.4844 142.441 11.5951 142.441 11.6992C142.454 11.8034 142.467 11.875 142.48 11.9141C142.897 12.0182 143.327 11.9206 143.77 11.6211C144.212 11.3216 144.616 10.9375 144.98 10.4688C145.358 10 145.671 9.50521 145.918 8.98438C146.178 8.46354 146.335 8.02734 146.387 7.67578C146.452 7.32422 146.387 7.12891 146.191 7.08984C145.996 7.03776 145.638 7.24609 145.117 7.71484C144.961 7.85807 144.753 8.05339 144.492 8.30078C144.232 8.54818 143.965 8.8151 143.691 9.10156C143.431 9.38802 143.184 9.6875 142.949 10C142.728 10.2995 142.572 10.5729 142.48 10.8203ZM148.418 14.7852C148.952 13.0664 149.434 11.7057 149.863 10.7031C150.306 9.6875 150.671 8.97786 150.957 8.57422C151.257 8.17057 151.458 8.04036 151.562 8.18359C151.667 8.32682 151.654 8.69141 151.523 9.27734C151.406 9.86328 151.146 10.651 150.742 11.6406C150.352 12.6172 149.798 13.737 149.082 15C148.978 15.0391 148.854 15.0456 148.711 15.0195C148.568 14.9935 148.47 14.9154 148.418 14.7852ZM151.836 5.39062C151.81 5.32552 151.797 5.20833 151.797 5.03906C151.797 4.86979 151.81 4.76562 151.836 4.72656C152.135 4.6224 152.363 4.60938 152.52 4.6875C152.676 4.76562 152.773 4.88281 152.812 5.03906C152.852 5.18229 152.845 5.33854 152.793 5.50781C152.754 5.67708 152.682 5.80729 152.578 5.89844C152.474 5.97656 152.35 5.98958 152.207 5.9375C152.077 5.8724 151.953 5.6901 151.836 5.39062ZM160.781 14.7852C160.742 14.3555 160.775 13.9323 160.879 13.5156C160.996 13.0859 161.146 12.6693 161.328 12.2656C161.523 11.849 161.725 11.4388 161.934 11.0352C162.155 10.6185 162.344 10.2148 162.5 9.82422C162.656 9.42057 162.767 9.02995 162.832 8.65234C162.897 8.26172 162.871 7.8776 162.754 7.5C162.428 7.38281 162.051 7.40885 161.621 7.57812C161.204 7.7474 160.762 8.00781 160.293 8.35938C159.824 8.69792 159.336 9.10156 158.828 9.57031C158.333 10.026 157.845 10.4948 157.363 10.9766C156.895 11.4453 156.445 11.8945 156.016 12.3242C155.586 12.7539 155.195 13.112 154.844 13.3984C154.505 13.6719 154.219 13.8477 153.984 13.9258C153.75 13.9909 153.594 13.9062 153.516 13.6719C153.503 13.6589 153.574 13.4961 153.73 13.1836C153.9 12.8581 154.102 12.4544 154.336 11.9727C154.583 11.4909 154.85 10.9701 155.137 10.4102C155.436 9.85026 155.716 9.32943 155.977 8.84766C156.237 8.35286 156.465 7.9362 156.66 7.59766C156.855 7.25911 156.979 7.07682 157.031 7.05078C157.305 7.23307 157.441 7.4349 157.441 7.65625C157.454 7.86458 157.422 8.08594 157.344 8.32031C157.266 8.54167 157.174 8.76953 157.07 9.00391C156.979 9.23828 156.966 9.47266 157.031 9.70703C157.24 9.5638 157.526 9.36849 157.891 9.12109C158.268 8.86068 158.672 8.59375 159.102 8.32031C159.544 8.04688 160 7.77995 160.469 7.51953C160.951 7.25911 161.4 7.05729 161.816 6.91406C162.233 6.75781 162.604 6.67318 162.93 6.66016C163.268 6.64714 163.516 6.74479 163.672 6.95312C163.828 7.16146 163.874 7.50651 163.809 7.98828C163.757 8.45703 163.555 9.10156 163.203 9.92188C163.164 10.013 163.066 10.2344 162.91 10.5859C162.767 10.9245 162.604 11.2956 162.422 11.6992C162.253 12.0898 162.09 12.4609 161.934 12.8125C161.79 13.151 161.699 13.3659 161.66 13.457C161.647 13.5091 161.628 13.6068 161.602 13.75C161.589 13.8802 161.569 14.0299 161.543 14.1992C161.517 14.3555 161.478 14.5117 161.426 14.668C161.374 14.8112 161.309 14.9219 161.23 15C161.152 15.0781 161.061 15.0716 160.957 14.9805C160.853 14.8763 160.794 14.8112 160.781 14.7852ZM161.777 20.5078C161.374 20.3646 161.048 20.1497 160.801 19.8633C160.54 19.5768 160.345 19.2643 160.215 18.9258C160.072 18.6003 159.987 18.2682 159.961 17.9297C159.922 17.5911 159.928 17.2917 159.98 17.0312C160.02 16.7708 160.098 16.569 160.215 16.4258C160.319 16.2956 160.443 16.263 160.586 16.3281C160.573 17.4609 160.71 18.3138 160.996 18.8867C161.27 19.4727 161.634 19.8372 162.09 19.9805C162.533 20.1367 163.04 20.1042 163.613 19.8828C164.173 19.6615 164.74 19.3164 165.312 18.8477C165.898 18.3919 166.452 17.8385 166.973 17.1875C167.507 16.5495 167.956 15.8789 168.32 15.1758C168.685 14.4857 168.945 13.8021 169.102 13.125C169.258 12.4349 169.251 11.8099 169.082 11.25C167.91 12.0964 166.999 12.6302 166.348 12.8516C165.697 13.0729 165.241 13.0859 164.98 12.8906C164.733 12.6823 164.655 12.3177 164.746 11.7969C164.837 11.276 165.033 10.7031 165.332 10.0781C165.632 9.45312 166.009 8.82812 166.465 8.20312C166.921 7.5651 167.389 7.03125 167.871 6.60156C168.353 6.17188 168.815 5.89844 169.258 5.78125C169.714 5.66406 170.091 5.80078 170.391 6.19141C170.69 6.59505 170.879 7.14193 170.957 7.83203C171.035 8.50911 171.016 9.26432 170.898 10.0977C170.781 10.931 170.573 11.8034 170.273 12.7148C169.987 13.6263 169.629 14.5117 169.199 15.3711C168.77 16.2435 168.275 17.0508 167.715 17.793C167.168 18.5352 166.576 19.1536 165.938 19.6484C165.299 20.1432 164.629 20.4753 163.926 20.6445C163.223 20.8268 162.507 20.7812 161.777 20.5078ZM165.762 10.8203C165.749 10.8594 165.736 10.931 165.723 11.0352C165.723 11.1393 165.723 11.25 165.723 11.3672C165.723 11.4844 165.723 11.5951 165.723 11.6992C165.736 11.8034 165.749 11.875 165.762 11.9141C166.178 12.0182 166.608 11.9206 167.051 11.6211C167.493 11.3216 167.897 10.9375 168.262 10.4688C168.639 10 168.952 9.50521 169.199 8.98438C169.46 8.46354 169.616 8.02734 169.668 7.67578C169.733 7.32422 169.668 7.12891 169.473 7.08984C169.277 7.03776 168.919 7.24609 168.398 7.71484C168.242 7.85807 168.034 8.05339 167.773 8.30078C167.513 8.54818 167.246 8.8151 166.973 9.10156C166.712 9.38802 166.465 9.6875 166.23 10C166.009 10.2995 165.853 10.5729 165.762 10.8203ZM173.145 14.7852C172.754 14.6549 172.454 14.4596 172.246 14.1992C172.051 13.9258 171.921 13.6263 171.855 13.3008C171.79 12.9753 171.777 12.6367 171.816 12.2852C171.868 11.9206 171.947 11.5755 172.051 11.25C172.441 10.8333 172.878 10.3581 173.359 9.82422C173.854 9.27734 174.375 8.74349 174.922 8.22266C175.469 7.70182 176.035 7.22005 176.621 6.77734C177.22 6.32161 177.826 5.97656 178.438 5.74219C178.646 5.65104 178.809 5.65755 178.926 5.76172C179.056 5.85286 179.147 6.0026 179.199 6.21094C179.251 6.41927 179.271 6.66016 179.258 6.93359C179.258 7.20703 179.238 7.47396 179.199 7.73438C179.16 7.99479 179.108 8.22917 179.043 8.4375C178.978 8.64583 178.913 8.78906 178.848 8.86719C178.691 9.04948 178.385 9.26432 177.93 9.51172C177.487 9.75911 176.992 10.0326 176.445 10.332C175.898 10.6185 175.352 10.918 174.805 11.2305C174.258 11.543 173.809 11.8555 173.457 12.168C173.105 12.4674 172.897 12.7669 172.832 13.0664C172.767 13.3659 172.949 13.6393 173.379 13.8867C173.822 13.9388 174.355 13.9193 174.98 13.8281C175.618 13.724 176.263 13.5938 176.914 13.4375C177.578 13.2682 178.216 13.099 178.828 12.9297C179.44 12.7474 179.941 12.6042 180.332 12.5L180.566 12.7148C180.28 13.0924 179.811 13.4375 179.16 13.75C178.509 14.0625 177.806 14.3229 177.051 14.5312C176.296 14.7266 175.56 14.8568 174.844 14.9219C174.128 14.974 173.561 14.9284 173.145 14.7852ZM177.812 7.32422C177.799 7.3112 177.702 7.36979 177.52 7.5C177.337 7.61719 177.109 7.77995 176.836 7.98828C176.576 8.18359 176.289 8.40495 175.977 8.65234C175.677 8.88672 175.397 9.10807 175.137 9.31641C174.889 9.52474 174.681 9.70703 174.512 9.86328C174.342 10.0065 174.271 10.0781 174.297 10.0781C174.505 10.1172 174.772 10.0911 175.098 10C175.436 9.89583 175.781 9.7526 176.133 9.57031C176.497 9.38802 176.842 9.1862 177.168 8.96484C177.493 8.73047 177.747 8.5026 177.93 8.28125C178.125 8.0599 178.223 7.86458 178.223 7.69531C178.236 7.52604 178.099 7.40234 177.812 7.32422ZM187.598 14.7852C187.559 14.3555 187.591 13.9323 187.695 13.5156C187.812 13.0859 187.962 12.6693 188.145 12.2656C188.34 11.849 188.542 11.4388 188.75 11.0352C188.971 10.6185 189.16 10.2148 189.316 9.82422C189.473 9.42057 189.583 9.02995 189.648 8.65234C189.714 8.26172 189.688 7.8776 189.57 7.5C189.245 7.38281 188.867 7.40885 188.438 7.57812C188.021 7.7474 187.578 8.00781 187.109 8.35938C186.641 8.69792 186.152 9.10156 185.645 9.57031C185.15 10.026 184.661 10.4948 184.18 10.9766C183.711 11.4453 183.262 11.8945 182.832 12.3242C182.402 12.7539 182.012 13.112 181.66 13.3984C181.322 13.6719 181.035 13.8477 180.801 13.9258C180.566 13.9909 180.41 13.9062 180.332 13.6719C180.319 13.6589 180.391 13.4961 180.547 13.1836C180.716 12.8581 180.918 12.4544 181.152 11.9727C181.4 11.4909 181.667 10.9701 181.953 10.4102C182.253 9.85026 182.533 9.32943 182.793 8.84766C183.053 8.35286 183.281 7.9362 183.477 7.59766C183.672 7.25911 183.796 7.07682 183.848 7.05078C184.121 7.23307 184.258 7.4349 184.258 7.65625C184.271 7.86458 184.238 8.08594 184.16 8.32031C184.082 8.54167 183.991 8.76953 183.887 9.00391C183.796 9.23828 183.783 9.47266 183.848 9.70703C184.056 9.5638 184.342 9.36849 184.707 9.12109C185.085 8.86068 185.488 8.59375 185.918 8.32031C186.361 8.04688 186.816 7.77995 187.285 7.51953C187.767 7.25911 188.216 7.05729 188.633 6.91406C189.049 6.75781 189.421 6.67318 189.746 6.66016C190.085 6.64714 190.332 6.74479 190.488 6.95312C190.645 7.16146 190.69 7.50651 190.625 7.98828C190.573 8.45703 190.371 9.10156 190.02 9.92188C189.98 10.013 189.883 10.2344 189.727 10.5859C189.583 10.9245 189.421 11.2956 189.238 11.6992C189.069 12.0898 188.906 12.4609 188.75 12.8125C188.607 13.151 188.516 13.3659 188.477 13.457C188.464 13.5091 188.444 13.6068 188.418 13.75C188.405 13.8802 188.385 14.0299 188.359 14.1992C188.333 14.3555 188.294 14.5117 188.242 14.668C188.19 14.8112 188.125 14.9219 188.047 15C187.969 15.0781 187.878 15.0716 187.773 14.9805C187.669 14.8763 187.611 14.8112 187.598 14.7852ZM197.012 21.8359C196.686 21.6927 196.361 21.4974 196.035 21.25C195.697 21.0026 195.436 20.7292 195.254 20.4297C195.059 20.1302 194.98 19.8112 195.02 19.4727C195.046 19.1471 195.267 18.8281 195.684 18.5156C195.775 18.5286 195.84 18.5938 195.879 18.7109C195.918 18.8281 195.951 18.9714 195.977 19.1406C195.99 19.3099 196.009 19.4922 196.035 19.6875C196.048 19.8828 196.094 20.0716 196.172 20.2539C196.237 20.4362 196.335 20.5924 196.465 20.7227C196.595 20.8529 196.777 20.931 197.012 20.957C197.611 21.0482 198.151 20.9505 198.633 20.6641C199.115 20.3906 199.551 19.9935 199.941 19.4727C200.319 18.9518 200.664 18.3398 200.977 17.6367C201.289 16.9466 201.576 16.2305 201.836 15.4883C202.096 14.7461 202.331 14.0039 202.539 13.2617C202.747 12.5195 202.949 11.849 203.145 11.25C203.34 10.651 203.529 10.1497 203.711 9.74609C203.893 9.34245 204.089 9.10156 204.297 9.02344C204.466 9.08854 204.544 9.34245 204.531 9.78516C204.531 10.2279 204.453 10.7943 204.297 11.4844C204.154 12.1615 203.945 12.9232 203.672 13.7695C203.398 14.6029 203.079 15.4362 202.715 16.2695C202.35 17.1159 201.947 17.9232 201.504 18.6914C201.048 19.4596 200.579 20.1107 200.098 20.6445C199.603 21.1914 199.095 21.582 198.574 21.8164C198.053 22.0508 197.533 22.0573 197.012 21.8359ZM204.297 5.72266C204.115 5.48828 204.062 5.30599 204.141 5.17578C204.219 5.03255 204.329 4.96745 204.473 4.98047C204.616 4.99349 204.753 5.09766 204.883 5.29297C205.013 5.47526 205.039 5.76823 204.961 6.17188C204.896 6.21094 204.824 6.21094 204.746 6.17188C204.668 6.13281 204.596 6.08073 204.531 6.01562C204.466 5.95052 204.408 5.88542 204.355 5.82031C204.316 5.75521 204.297 5.72266 204.297 5.72266ZM207.031 14.7852C206.641 14.6549 206.341 14.4596 206.133 14.1992C205.938 13.9258 205.807 13.6263 205.742 13.3008C205.677 12.9753 205.664 12.6367 205.703 12.2852C205.755 11.9206 205.833 11.5755 205.938 11.25C206.328 10.8333 206.764 10.3581 207.246 9.82422C207.741 9.27734 208.262 8.74349 208.809 8.22266C209.355 7.70182 209.922 7.22005 210.508 6.77734C211.107 6.32161 211.712 5.97656 212.324 5.74219C212.533 5.65104 212.695 5.65755 212.812 5.76172C212.943 5.85286 213.034 6.0026 213.086 6.21094C213.138 6.41927 213.158 6.66016 213.145 6.93359C213.145 7.20703 213.125 7.47396 213.086 7.73438C213.047 7.99479 212.995 8.22917 212.93 8.4375C212.865 8.64583 212.799 8.78906 212.734 8.86719C212.578 9.04948 212.272 9.26432 211.816 9.51172C211.374 9.75911 210.879 10.0326 210.332 10.332C209.785 10.6185 209.238 10.918 208.691 11.2305C208.145 11.543 207.695 11.8555 207.344 12.168C206.992 12.4674 206.784 12.7669 206.719 13.0664C206.654 13.3659 206.836 13.6393 207.266 13.8867C207.708 13.9388 208.242 13.9193 208.867 13.8281C209.505 13.724 210.15 13.5938 210.801 13.4375C211.465 13.2682 212.103 13.099 212.715 12.9297C213.327 12.7474 213.828 12.6042 214.219 12.5L214.453 12.7148C214.167 13.0924 213.698 13.4375 213.047 13.75C212.396 14.0625 211.693 14.3229 210.938 14.5312C210.182 14.7266 209.447 14.8568 208.73 14.9219C208.014 14.974 207.448 14.9284 207.031 14.7852ZM211.699 7.32422C211.686 7.3112 211.589 7.36979 211.406 7.5C211.224 7.61719 210.996 7.77995 210.723 7.98828C210.462 8.18359 210.176 8.40495 209.863 8.65234C209.564 8.88672 209.284 9.10807 209.023 9.31641C208.776 9.52474 208.568 9.70703 208.398 9.86328C208.229 10.0065 208.158 10.0781 208.184 10.0781C208.392 10.1172 208.659 10.0911 208.984 10C209.323 9.89583 209.668 9.7526 210.02 9.57031C210.384 9.38802 210.729 9.1862 211.055 8.96484C211.38 8.73047 211.634 8.5026 211.816 8.28125C212.012 8.0599 212.109 7.86458 212.109 7.69531C212.122 7.52604 211.986 7.40234 211.699 7.32422ZM225.488 14.5508C225.215 14.3945 225.02 14.1471 224.902 13.8086C224.785 13.4701 224.72 13.0859 224.707 12.6562C224.694 12.2266 224.72 11.7773 224.785 11.3086C224.85 10.8398 224.928 10.3841 225.02 9.94141C225.111 9.4987 225.202 9.10156 225.293 8.75C225.384 8.39844 225.449 8.125 225.488 7.92969C225.553 7.89062 225.618 7.89062 225.684 7.92969C225.762 7.96875 225.833 8.02734 225.898 8.10547C225.977 8.17057 226.035 8.23568 226.074 8.30078C226.126 8.35286 226.152 8.37891 226.152 8.37891C226.191 8.83464 226.191 9.28385 226.152 9.72656C226.126 10.1562 226.087 10.5859 226.035 11.0156C225.996 11.4453 225.957 11.8815 225.918 12.3242C225.892 12.7669 225.892 13.2161 225.918 13.6719C226.022 13.8672 226.237 13.8737 226.562 13.6914C226.888 13.4961 227.285 13.1901 227.754 12.7734C228.223 12.3438 228.73 11.8424 229.277 11.2695C229.837 10.6836 230.384 10.1042 230.918 9.53125C231.465 8.95833 231.979 8.42448 232.461 7.92969C232.943 7.42188 233.346 7.03776 233.672 6.77734C234.01 6.50391 234.245 6.39323 234.375 6.44531C234.505 6.48438 234.486 6.75781 234.316 7.26562C234.004 7.53906 233.633 7.94922 233.203 8.49609C232.773 9.04297 232.305 9.63542 231.797 10.2734C231.289 10.8984 230.762 11.5234 230.215 12.1484C229.668 12.7734 229.115 13.3138 228.555 13.7695C228.008 14.2122 227.474 14.5247 226.953 14.707C226.432 14.8763 225.944 14.8242 225.488 14.5508ZM236.289 14.7852C235.742 14.5638 235.397 14.2318 235.254 13.7891C235.124 13.3464 235.13 12.8581 235.273 12.3242C235.417 11.7773 235.664 11.2174 236.016 10.6445C236.367 10.0586 236.758 9.52474 237.188 9.04297C237.617 8.5612 238.047 8.15755 238.477 7.83203C238.919 7.49349 239.297 7.30469 239.609 7.26562C240.417 7.16146 241.048 7.22005 241.504 7.44141C241.973 7.64974 242.292 7.95573 242.461 8.35938C242.63 8.76302 242.676 9.23828 242.598 9.78516C242.52 10.319 242.344 10.8594 242.07 11.4062C241.81 11.9531 241.465 12.4805 241.035 12.9883C240.618 13.4961 240.15 13.9258 239.629 14.2773C239.121 14.6159 238.581 14.8438 238.008 14.9609C237.435 15.0651 236.862 15.0065 236.289 14.7852ZM236.074 13.6719C236.178 14.0885 236.4 14.3229 236.738 14.375C237.077 14.4141 237.467 14.3294 237.91 14.1211C238.366 13.8997 238.841 13.5872 239.336 13.1836C239.831 12.7669 240.28 12.3177 240.684 11.8359C241.1 11.3542 241.439 10.8724 241.699 10.3906C241.973 9.89583 242.103 9.46615 242.09 9.10156C242.09 8.73698 241.914 8.46354 241.562 8.28125C241.224 8.08594 240.651 8.04688 239.844 8.16406C239.661 8.33333 239.427 8.54167 239.141 8.78906C238.854 9.02344 238.555 9.28385 238.242 9.57031C237.943 9.85677 237.643 10.1693 237.344 10.5078C237.044 10.8333 236.784 11.1719 236.562 11.5234C236.341 11.875 236.178 12.2331 236.074 12.5977C235.983 12.9622 235.983 13.3203 236.074 13.6719ZM244.688 14.7852C244.141 14.5638 243.796 14.2318 243.652 13.7891C243.522 13.3464 243.529 12.8581 243.672 12.3242C243.815 11.7773 244.062 11.2174 244.414 10.6445C244.766 10.0586 245.156 9.52474 245.586 9.04297C246.016 8.5612 246.445 8.15755 246.875 7.83203C247.318 7.49349 247.695 7.30469 248.008 7.26562C248.815 7.16146 249.447 7.22005 249.902 7.44141C250.371 7.64974 250.69 7.95573 250.859 8.35938C251.029 8.76302 251.074 9.23828 250.996 9.78516C250.918 10.319 250.742 10.8594 250.469 11.4062C250.208 11.9531 249.863 12.4805 249.434 12.9883C249.017 13.4961 248.548 13.9258 248.027 14.2773C247.52 14.6159 246.979 14.8438 246.406 14.9609C245.833 15.0651 245.26 15.0065 244.688 14.7852ZM244.473 13.6719C244.577 14.0885 244.798 14.3229 245.137 14.375C245.475 14.4141 245.866 14.3294 246.309 14.1211C246.764 13.8997 247.24 13.5872 247.734 13.1836C248.229 12.7669 248.678 12.3177 249.082 11.8359C249.499 11.3542 249.837 10.8724 250.098 10.3906C250.371 9.89583 250.501 9.46615 250.488 9.10156C250.488 8.73698 250.312 8.46354 249.961 8.28125C249.622 8.08594 249.049 8.04688 248.242 8.16406C248.06 8.33333 247.826 8.54167 247.539 8.78906C247.253 9.02344 246.953 9.28385 246.641 9.57031C246.341 9.85677 246.042 10.1693 245.742 10.5078C245.443 10.8333 245.182 11.1719 244.961 11.5234C244.74 11.875 244.577 12.2331 244.473 12.5977C244.382 12.9622 244.382 13.3203 244.473 13.6719ZM252.109 14.7852C252.083 14.7721 252.083 14.6224 252.109 14.3359C252.148 14.0365 252.201 13.6654 252.266 13.2227C252.331 12.7799 252.415 12.2917 252.52 11.7578C252.624 11.224 252.734 10.7161 252.852 10.2344C252.969 9.73958 253.092 9.3099 253.223 8.94531C253.366 8.56771 253.503 8.30729 253.633 8.16406C253.724 8.07292 253.815 8.07292 253.906 8.16406C253.997 8.24219 254.089 8.34635 254.18 8.47656C254.271 8.59375 254.362 8.70443 254.453 8.80859C254.544 8.89974 254.642 8.90625 254.746 8.82812C255.111 8.32031 255.508 7.83854 255.938 7.38281C256.38 6.91406 256.868 6.51042 257.402 6.17188C257.454 6.13281 257.598 6.07422 257.832 5.99609C258.066 5.90495 258.333 5.82031 258.633 5.74219C258.932 5.65104 259.238 5.57943 259.551 5.52734C259.876 5.46224 260.15 5.4362 260.371 5.44922C260.605 5.44922 260.762 5.50781 260.84 5.625C260.931 5.72917 260.892 5.91146 260.723 6.17188C259.941 6.1849 259.212 6.41276 258.535 6.85547C257.858 7.29818 257.233 7.84505 256.66 8.49609C256.087 9.14714 255.566 9.85677 255.098 10.625C254.629 11.3802 254.219 12.0833 253.867 12.7344C253.529 13.3854 253.242 13.9258 253.008 14.3555C252.786 14.7852 252.624 15 252.52 15C252.507 15 252.448 14.974 252.344 14.9219C252.24 14.8568 252.161 14.8112 252.109 14.7852ZM261.25 14.5508C261.146 14.3945 261.133 14.2253 261.211 14.043C261.302 13.8607 261.426 13.7109 261.582 13.5938C261.738 13.4635 261.895 13.3984 262.051 13.3984C262.207 13.3854 262.311 13.4766 262.363 13.6719C262.415 13.8672 262.415 14.069 262.363 14.2773C262.324 14.4857 262.246 14.6549 262.129 14.7852C262.025 14.9154 261.895 14.974 261.738 14.9609C261.582 14.9479 261.419 14.8112 261.25 14.5508ZM262.363 9.04297C262.337 8.96484 262.35 8.76953 262.402 8.45703C262.454 8.14453 262.533 7.76693 262.637 7.32422C262.741 6.86849 262.871 6.36719 263.027 5.82031C263.184 5.27344 263.353 4.72656 263.535 4.17969C263.717 3.63281 263.906 3.10547 264.102 2.59766C264.297 2.08984 264.486 1.64714 264.668 1.26953C264.863 0.891927 265.046 0.605469 265.215 0.410156C265.397 0.214844 265.56 0.14974 265.703 0.214844C265.716 0.279948 265.69 0.501302 265.625 0.878906C265.573 1.24349 265.488 1.69922 265.371 2.24609C265.254 2.77995 265.111 3.3724 264.941 4.02344C264.785 4.67448 264.616 5.3125 264.434 5.9375C264.264 6.5625 264.082 7.14844 263.887 7.69531C263.691 8.22917 263.503 8.65885 263.32 8.98438C263.138 9.3099 262.962 9.49219 262.793 9.53125C262.624 9.57031 262.48 9.40755 262.363 9.04297Z" fill="#007FC7"/>
</svg>
